<?xml version="1.0" encoding="utf-8"?>
<!-- Generator: Adobe Illustrator 19.2.1, SVG Export Plug-In . SVG Version: 6.00 Build 0)  -->
<svg version="1.1" id="Layer_1" xmlns="http://www.w3.org/2000/svg" xmlns:xlink="http://www.w3.org/1999/xlink" x="0px" y="0px"
	 viewBox="0 0 1600 900" style="enable-background:new 0 0 1600 900;" xml:space="preserve">
<style type="text/css">
	.st0{fill:#DE935E;}
	.st1{fill:#B5BD68;}
	.st2{fill:#8ABEB7;}
	.st3{fill:#B294BA;}
	.st4{display:none;}
	.st5{display:inline;fill:#414042;}
</style>
<g>
	<path class="st0" d="M785.4,35.3c-0.7-0.3-1.4-0.5-2.2-0.5c-0.6,0-1.2,0.1-1.7,0.3s-1,0.5-1.4,0.8s-0.7,0.7-0.9,1.2
		c-0.2,0.5-0.3,1-0.3,1.5c0,0.4,0.1,0.8,0.2,1.2s0.3,0.7,0.7,1c0.3,0.3,0.7,0.6,1.2,0.9c0.5,0.3,1.1,0.6,1.9,0.9
		c0.7,0.3,1.2,0.5,1.7,0.7c0.4,0.2,0.7,0.4,1,0.6c0.2,0.2,0.4,0.4,0.5,0.7c0.1,0.2,0.1,0.5,0.1,0.8c0,0.4-0.1,0.7-0.2,1
		c-0.2,0.3-0.4,0.6-0.6,0.9c-0.3,0.2-0.6,0.4-0.9,0.6c-0.4,0.1-0.8,0.2-1.2,0.2c-0.8,0-1.6-0.1-2.2-0.4s-1.1-0.7-1.4-1.1
		c0-0.1-0.1-0.1-0.1-0.3c0-0.1,0-0.2-0.1-0.2l-0.9,1.7c1.1,1.2,2.6,1.8,4.5,1.8c0.8,0,1.6-0.1,2.2-0.4c0.6-0.2,1.1-0.6,1.5-1
		s0.7-0.8,0.9-1.3c0.2-0.5,0.3-1,0.3-1.5c0-0.4-0.1-0.8-0.2-1.2s-0.3-0.7-0.6-1c-0.3-0.3-0.6-0.6-1.1-0.9c-0.5-0.3-1-0.6-1.7-0.9
		c-0.7-0.3-1.3-0.6-1.8-0.8s-0.8-0.5-1-0.7s-0.4-0.5-0.5-0.7s-0.2-0.5-0.2-0.9c0-0.6,0.2-1.1,0.7-1.5s1.1-0.6,1.8-0.6
		c0.7,0,1.4,0.1,1.9,0.4c0.5,0.3,0.9,0.6,1.2,1c0,0,0,0.1,0.1,0.2c0,0.1,0,0.2,0.1,0.2l1-1.4C786.7,36.1,786.1,35.6,785.4,35.3z"/>
	<path class="st0" d="M790.6,49.3l1.4-4.2h4.6l1.6,4.2h1.7l-5.5-14.6h-0.2l-5.1,14.6H790.6z M792.3,43.8l1.8-5.5l2,5.5H792.3z"/>
	<path class="st0" d="M808.4,35.3c-0.7-0.3-1.4-0.5-2.2-0.5c-0.6,0-1.2,0.1-1.7,0.3s-1,0.5-1.4,0.8s-0.7,0.7-0.9,1.2
		c-0.2,0.5-0.3,1-0.3,1.5c0,0.4,0.1,0.8,0.2,1.2s0.3,0.7,0.7,1c0.3,0.3,0.7,0.6,1.2,0.9c0.5,0.3,1.1,0.6,1.9,0.9
		c0.7,0.3,1.2,0.5,1.7,0.7c0.4,0.2,0.7,0.4,1,0.6c0.2,0.2,0.4,0.4,0.5,0.7c0.1,0.2,0.1,0.5,0.1,0.8c0,0.4-0.1,0.7-0.2,1
		c-0.2,0.3-0.4,0.6-0.6,0.9c-0.3,0.2-0.6,0.4-0.9,0.6c-0.4,0.1-0.8,0.2-1.2,0.2c-0.8,0-1.6-0.1-2.2-0.4s-1.1-0.7-1.4-1.1
		c0-0.1-0.1-0.1-0.1-0.3c0-0.1,0-0.2-0.1-0.2l-0.9,1.7c1.1,1.2,2.6,1.8,4.5,1.8c0.8,0,1.6-0.1,2.2-0.4c0.6-0.2,1.1-0.6,1.5-1
		s0.7-0.8,0.9-1.3c0.2-0.5,0.3-1,0.3-1.5c0-0.4-0.1-0.8-0.2-1.2s-0.3-0.7-0.6-1c-0.3-0.3-0.6-0.6-1.1-0.9c-0.5-0.3-1-0.6-1.7-0.9
		c-0.7-0.3-1.3-0.6-1.8-0.8s-0.8-0.5-1-0.7s-0.4-0.5-0.5-0.7s-0.2-0.5-0.2-0.9c0-0.6,0.2-1.1,0.7-1.5s1.1-0.6,1.8-0.6
		c0.7,0,1.4,0.1,1.9,0.4c0.5,0.3,0.9,0.6,1.2,1c0,0,0,0.1,0.1,0.2c0,0.1,0,0.2,0.1,0.2l1-1.4C809.7,36.1,809.1,35.6,808.4,35.3z"/>
	<path class="st0" d="M819.9,35.3c-0.7-0.3-1.4-0.5-2.2-0.5c-0.6,0-1.2,0.1-1.7,0.3s-1,0.5-1.4,0.8s-0.7,0.7-0.9,1.2
		c-0.2,0.5-0.3,1-0.3,1.5c0,0.4,0.1,0.8,0.2,1.2s0.3,0.7,0.7,1c0.3,0.3,0.7,0.6,1.2,0.9c0.5,0.3,1.1,0.6,1.9,0.9
		c0.7,0.3,1.2,0.5,1.7,0.7c0.4,0.2,0.7,0.4,1,0.6c0.2,0.2,0.4,0.4,0.5,0.7c0.1,0.2,0.1,0.5,0.1,0.8c0,0.4-0.1,0.7-0.2,1
		c-0.2,0.3-0.4,0.6-0.6,0.9c-0.3,0.2-0.6,0.4-0.9,0.6c-0.4,0.1-0.8,0.2-1.2,0.2c-0.8,0-1.6-0.1-2.2-0.4s-1.1-0.7-1.4-1.1
		c0-0.1-0.1-0.1-0.1-0.3c0-0.1,0-0.2-0.1-0.2l-0.9,1.7c1.1,1.2,2.6,1.8,4.5,1.8c0.8,0,1.6-0.1,2.2-0.4c0.6-0.2,1.1-0.6,1.5-1
		s0.7-0.8,0.9-1.3c0.2-0.5,0.3-1,0.3-1.5c0-0.4-0.1-0.8-0.2-1.2s-0.3-0.7-0.6-1c-0.3-0.3-0.6-0.6-1.1-0.9c-0.5-0.3-1-0.6-1.7-0.9
		c-0.7-0.3-1.3-0.6-1.8-0.8s-0.8-0.5-1-0.7s-0.4-0.5-0.5-0.7s-0.2-0.5-0.2-0.9c0-0.6,0.2-1.1,0.7-1.5s1.1-0.6,1.8-0.6
		c0.7,0,1.4,0.1,1.9,0.4c0.5,0.3,0.9,0.6,1.2,1c0,0,0,0.1,0.1,0.2c0,0.1,0,0.2,0.1,0.2l1-1.4C821.2,36.1,820.6,35.6,819.9,35.3z"/>
	<path class="st0" d="M786.4,92.4l1.5-0.8c-0.2-0.4-0.4-0.8-0.7-1.2c-0.3-0.3-0.7-0.6-1-0.9c-0.4-0.2-0.8-0.4-1.3-0.6
		c-0.5-0.1-0.9-0.2-1.4-0.2c-0.6,0-1.2,0.1-1.8,0.4c-0.6,0.2-1.2,0.6-1.8,1.2c-0.6,0.6-1,1.3-1.3,2.3c-0.3,0.9-0.5,2.1-0.5,3.5
		c0,1.3,0.1,2.4,0.4,3.3c0.3,0.9,0.7,1.7,1.2,2.3s1.1,1,1.7,1.3s1.4,0.4,2.2,0.4c0.4,0,0.7,0,1.1-0.1c0.4-0.1,0.7-0.2,1.1-0.4
		s0.7-0.4,1-0.7c0.3-0.3,0.6-0.6,0.8-1l-1.2-0.8c-0.3,0.6-0.7,1-1.3,1.3c-0.5,0.3-1.1,0.5-1.6,0.5c-0.6,0-1.1-0.1-1.6-0.4
		s-0.9-0.7-1.3-1.2s-0.6-1.2-0.8-1.9c-0.2-0.7-0.3-1.6-0.3-2.5c0-0.9,0.1-1.8,0.3-2.5c0.2-0.7,0.5-1.4,0.8-1.9
		c0.4-0.5,0.8-0.9,1.2-1.2c0.5-0.3,1-0.4,1.5-0.4c0.6,0,1.1,0.1,1.6,0.4s0.9,0.7,1.2,1.2c0,0.1,0.1,0.2,0.1,0.4
		C786.3,92.3,786.3,92.4,786.4,92.4L786.4,92.4z"/>
	<path class="st0" d="M796.9,89.4c-0.7-0.3-1.4-0.5-2.2-0.5c-0.6,0-1.2,0.1-1.7,0.3c-0.5,0.2-1,0.5-1.4,0.8s-0.7,0.7-0.9,1.2
		c-0.2,0.5-0.3,1-0.3,1.5c0,0.4,0.1,0.8,0.2,1.2s0.3,0.7,0.7,1c0.3,0.3,0.7,0.6,1.2,0.9s1.1,0.6,1.9,0.9c0.7,0.3,1.2,0.5,1.7,0.7
		c0.4,0.2,0.7,0.4,1,0.6c0.2,0.2,0.4,0.4,0.5,0.7c0.1,0.2,0.1,0.5,0.1,0.8c0,0.4-0.1,0.7-0.2,1c-0.2,0.3-0.4,0.6-0.6,0.9
		c-0.3,0.2-0.6,0.4-0.9,0.6c-0.4,0.1-0.8,0.2-1.2,0.2c-0.8,0-1.6-0.1-2.2-0.4s-1.1-0.7-1.4-1.1c0-0.1-0.1-0.1-0.1-0.3
		c0-0.1,0-0.2-0.1-0.2l-0.9,1.7c1.1,1.2,2.6,1.8,4.5,1.8c0.8,0,1.6-0.1,2.2-0.4c0.6-0.2,1.1-0.6,1.5-1c0.4-0.4,0.7-0.8,0.9-1.3
		c0.2-0.5,0.3-1,0.3-1.5c0-0.4-0.1-0.8-0.2-1.2c-0.1-0.4-0.3-0.7-0.6-1c-0.3-0.3-0.6-0.6-1.1-0.9s-1-0.6-1.7-0.9s-1.3-0.6-1.8-0.8
		s-0.8-0.5-1-0.7s-0.4-0.5-0.5-0.7s-0.2-0.5-0.2-0.9c0-0.6,0.2-1.1,0.7-1.5c0.5-0.4,1.1-0.6,1.8-0.6c0.7,0,1.4,0.1,1.9,0.4
		s0.9,0.6,1.2,1c0,0,0,0.1,0.1,0.2c0,0.1,0,0.2,0.1,0.2l1-1.4C798.2,90.1,797.6,89.7,796.9,89.4z"/>
	<path class="st0" d="M808.4,89.4c-0.7-0.3-1.4-0.5-2.2-0.5c-0.6,0-1.2,0.1-1.7,0.3c-0.5,0.2-1,0.5-1.4,0.8s-0.7,0.7-0.9,1.2
		c-0.2,0.5-0.3,1-0.3,1.5c0,0.4,0.1,0.8,0.2,1.2s0.3,0.7,0.7,1c0.3,0.3,0.7,0.6,1.2,0.9s1.1,0.6,1.9,0.9c0.7,0.3,1.2,0.5,1.7,0.7
		c0.4,0.2,0.7,0.4,1,0.6c0.2,0.2,0.4,0.4,0.5,0.7c0.1,0.2,0.1,0.5,0.1,0.8c0,0.4-0.1,0.7-0.2,1c-0.2,0.3-0.4,0.6-0.6,0.9
		c-0.3,0.2-0.6,0.4-0.9,0.6c-0.4,0.1-0.8,0.2-1.2,0.2c-0.8,0-1.6-0.1-2.2-0.4s-1.1-0.7-1.4-1.1c0-0.1-0.1-0.1-0.1-0.3
		c0-0.1,0-0.2-0.1-0.2l-0.9,1.7c1.1,1.2,2.6,1.8,4.5,1.8c0.8,0,1.6-0.1,2.2-0.4c0.6-0.2,1.1-0.6,1.5-1c0.4-0.4,0.7-0.8,0.9-1.3
		c0.2-0.5,0.3-1,0.3-1.5c0-0.4-0.1-0.8-0.2-1.2c-0.1-0.4-0.3-0.7-0.6-1c-0.3-0.3-0.6-0.6-1.1-0.9s-1-0.6-1.7-0.9s-1.3-0.6-1.8-0.8
		s-0.8-0.5-1-0.7s-0.4-0.5-0.5-0.7s-0.2-0.5-0.2-0.9c0-0.6,0.2-1.1,0.7-1.5c0.5-0.4,1.1-0.6,1.8-0.6c0.7,0,1.4,0.1,1.9,0.4
		s0.9,0.6,1.2,1c0,0,0,0.1,0.1,0.2c0,0.1,0,0.2,0.1,0.2l1-1.4C809.7,90.1,809.1,89.7,808.4,89.4z"/>
	<path class="st0" d="M820.8,91.2c-0.2-0.4-0.5-0.8-0.8-1.2c-0.4-0.3-0.8-0.6-1.3-0.8s-1-0.3-1.6-0.3c-1.3,0-2.5,0.5-3.4,1.5l0.9,1
		c0.7-0.7,1.5-1.1,2.5-1.1c0.4,0,0.7,0.1,1,0.2c0.3,0.1,0.6,0.3,0.8,0.5c0.2,0.2,0.4,0.4,0.5,0.7c0.1,0.3,0.2,0.5,0.2,0.8
		c0,0.4-0.1,0.7-0.2,1.1c-0.1,0.3-0.3,0.6-0.6,0.9c-0.3,0.2-0.7,0.4-1.2,0.6c-0.5,0.1-1.1,0.2-1.8,0.2v1.3c0.1,0,0.2,0,0.4,0
		c0.1,0,0.2,0,0.4,0c1,0,1.8,0.2,2.5,0.7c0.6,0.5,0.9,1.1,0.9,1.9c0,0.4-0.1,0.8-0.2,1.1c-0.1,0.4-0.3,0.7-0.6,0.9
		c-0.3,0.3-0.6,0.5-0.9,0.6c-0.4,0.2-0.7,0.2-1.2,0.2c-0.4,0-0.8-0.1-1.2-0.2c-0.4-0.1-0.6-0.3-0.7-0.4l-0.3-0.3
		c-0.1-0.1-0.1-0.2-0.2-0.3c0-0.1-0.1-0.2-0.1-0.3l-1.2,1.4c1,1.1,2.2,1.6,3.6,1.6c0.7,0,1.4-0.1,1.9-0.3c0.6-0.2,1-0.5,1.4-0.9
		c0.4-0.4,0.7-0.8,0.9-1.3c0.2-0.5,0.3-1,0.3-1.6c0-0.9-0.2-1.6-0.7-2.3c-0.5-0.7-1-1.1-1.8-1.4c0.6-0.2,1.2-0.7,1.6-1.2
		c0.4-0.6,0.6-1.2,0.6-1.9C821.1,92.1,821,91.6,820.8,91.2z"/>
	<path class="st0" d="M772.6,157.3h1.7v-6.9h5.6v6.9h1.7v-13.8c0-0.1,0-0.2,0.1-0.2c0-0.1,0.1-0.1,0.1-0.2V143H780v6.1h-5.6v-5.6
		c0-0.1,0-0.2,0.1-0.3c0-0.1,0.1-0.1,0.1-0.2v-0.1h-1.8v14.4H772.6z"/>
	<path class="st0" d="M783.6,144.4h4.1v12.9h1.7v-12.9h4.2V143h-10L783.6,144.4L783.6,144.4z"/>
	<path class="st0" d="M795.4,157.3h1.5v-10.7l2.9,5.7h0.6l3.1-5.8v10.8h1.5v-14.4h-1.2l-3.6,7l-3.5-7h-1.3V157.3z"/>
	<path class="st0" d="M807.4,157.3h8.6v-1.4h-6.9v-12.1c0-0.1,0-0.3,0.1-0.4c0.1-0.1,0.1-0.3,0.1-0.4h-1.9L807.4,157.3L807.4,157.3z
		"/>
	<path class="st0" d="M819.4,150.3l1,0.4c0.4-0.4,0.8-0.8,1.2-1c0.5-0.2,1-0.4,1.4-0.4s0.8,0.1,1.1,0.2c0.4,0.2,0.7,0.4,0.9,0.7
		c0.3,0.3,0.5,0.6,0.6,1.1c0.2,0.4,0.2,0.9,0.2,1.4s-0.1,1-0.2,1.4c-0.2,0.4-0.4,0.8-0.6,1.1c-0.3,0.3-0.5,0.5-0.9,0.7
		s-0.7,0.2-1.1,0.2s-0.7,0-1-0.1s-0.6-0.2-0.8-0.4c-0.2-0.1-0.4-0.3-0.6-0.4c-0.2-0.2-0.3-0.3-0.3-0.4c0,0,0-0.1,0-0.3
		c0-0.1,0-0.2-0.1-0.3l-1.4,1.1c0.5,0.7,1.1,1.3,1.8,1.6c0.7,0.4,1.6,0.6,2.4,0.6c0.6,0,1.2-0.1,1.8-0.3c0.5-0.2,1-0.5,1.4-0.9
		s0.7-0.9,1-1.5c0.2-0.6,0.3-1.3,0.3-2s-0.1-1.4-0.3-2c-0.2-0.6-0.5-1.1-0.9-1.5s-0.9-0.7-1.4-1c-0.5-0.2-1.1-0.3-1.7-0.3
		c-0.8,0-1.6,0.2-2.3,0.6l0.2-4.1h5.9v-1.4h-7.3L819.4,150.3z"/>
	<path class="st0" d="M744.4,211.4h1.7v-7h5.3V203h-5.3v-4.5h6.6v-1.4h-8.3L744.4,211.4L744.4,211.4z"/>
	<path class="st0" d="M758.1,201.1c-0.6,0.3-1.1,0.7-1.6,1.2s-0.8,1.1-1.1,1.8c-0.3,0.7-0.4,1.4-0.4,2.2s0.1,1.5,0.4,2.2
		s0.6,1.3,1.1,1.7c0.4,0.5,1,0.9,1.6,1.1c0.6,0.3,1.2,0.4,1.9,0.4c0.7,0,1.3-0.1,1.9-0.4c0.6-0.3,1.1-0.6,1.5-1.1s0.8-1.1,1-1.7
		c0.2-0.7,0.4-1.4,0.4-2.3c0-0.8-0.1-1.6-0.4-2.3s-0.6-1.3-1-1.7c-0.4-0.5-0.9-0.8-1.5-1.1s-1.2-0.4-1.8-0.4
		S758.7,200.8,758.1,201.1z M762.8,207.9c-0.2,0.5-0.4,0.9-0.7,1.3c-0.3,0.3-0.6,0.6-1,0.8s-0.8,0.3-1.2,0.3c-0.4,0-0.8-0.1-1.2-0.3
		c-0.4-0.2-0.7-0.5-1-0.9s-0.5-0.8-0.7-1.3s-0.3-1.1-0.3-1.7c0-0.6,0.1-1.2,0.3-1.7c0.2-0.5,0.4-0.9,0.7-1.3c0.3-0.4,0.6-0.6,1-0.8
		s0.8-0.3,1.2-0.3c0.4,0,0.8,0.1,1.2,0.3c0.4,0.2,0.7,0.5,1,0.8c0.3,0.4,0.5,0.8,0.7,1.3s0.3,1.1,0.3,1.8
		C763.1,206.8,763,207.4,762.8,207.9z"/>
	<path class="st0" d="M767.1,206.7c0,0.9,0.1,1.6,0.3,2.2c0.2,0.6,0.4,1.1,0.8,1.5c0.3,0.4,0.7,0.7,1.2,0.9c0.4,0.2,0.9,0.3,1.5,0.3
		c0.7,0,1.3-0.2,1.9-0.5s1-0.8,1.4-1.4v0.8c0,0.2,0,0.3,0,0.4c0,0.1,0,0.2,0,0.4h1.7c-0.1-0.3-0.1-0.6-0.1-0.9v-9.6h-1.7v5.8
		c0,0.6-0.1,1.2-0.2,1.6c-0.2,0.4-0.4,0.8-0.6,1.1c-0.3,0.3-0.6,0.5-0.9,0.7s-0.7,0.2-1.1,0.3c-0.3,0-0.7-0.1-0.9-0.2
		c-0.3-0.1-0.5-0.3-0.8-0.6c-0.2-0.3-0.4-0.6-0.5-1.1s-0.2-1-0.2-1.7v-5.9h-1.7L767.1,206.7z"/>
	<path class="st0" d="M780.4,211.4v-6.1c0-0.5,0.1-1,0.3-1.4c0.2-0.4,0.4-0.7,0.7-1c0.3-0.3,0.6-0.5,1-0.7s0.7-0.2,1.1-0.2
		c0.5,0,1,0.2,1.4,0.7c0.4,0.4,0.6,1.2,0.6,2.3v6.3h1.7v-6.4c0-0.8-0.1-1.5-0.2-2c-0.2-0.6-0.4-1-0.7-1.4c-0.3-0.4-0.6-0.6-1-0.8
		s-0.8-0.2-1.3-0.2c-0.6,0-1.3,0.2-1.9,0.6c-0.6,0.4-1.1,0.9-1.5,1.5v-1.9h-1.7v10.5h1.5V211.4z"/>
	<path class="st0" d="M796,201.1c-0.5-0.3-1.2-0.5-1.9-0.5c-0.5,0-1.1,0.1-1.6,0.3s-1,0.5-1.4,1c-0.4,0.4-0.8,1-1,1.7
		c-0.3,0.7-0.4,1.5-0.4,2.5s0.1,1.8,0.3,2.5c0.2,0.7,0.5,1.3,0.9,1.7c0.4,0.5,0.8,0.8,1.4,1c0.5,0.2,1.1,0.3,1.6,0.3
		c0.6,0,1.2-0.2,1.8-0.5c0.6-0.3,1-0.8,1.4-1.4v0.9c0,0.3,0,0.6,0.1,0.8h1.7c-0.1-0.3-0.1-0.6-0.1-1v-13.7c0-0.1,0-0.2,0.1-0.3
		s0.1-0.2,0.1-0.3h-1.8v6.3C796.9,201.9,796.5,201.4,796,201.1z M793.2,202.1c0.3-0.1,0.7-0.2,1.1-0.2c0.2,0,0.4,0,0.7,0.1
		c0.2,0.1,0.5,0.2,0.8,0.4c0.2,0.1,0.4,0.3,0.6,0.5s0.3,0.4,0.4,0.7s0.2,0.6,0.2,1s0.1,0.9,0.1,1.5c0,0.9-0.1,1.7-0.3,2.2
		c-0.1,0.3-0.2,0.6-0.4,0.8c-0.2,0.2-0.4,0.4-0.6,0.6c-0.2,0.2-0.5,0.3-0.7,0.4c-0.3,0.1-0.5,0.1-0.7,0.1c-1,0-1.7-0.4-2.2-1.2
		s-0.7-1.9-0.7-3.2c0-1.4,0.3-2.4,1-3C792.6,202.4,792.9,202.2,793.2,202.1z"/>
	<path class="st0" d="M803.1,203.2c0.8-0.8,1.7-1.2,2.8-1.2c0.9,0,1.6,0.2,2,0.6c0.4,0.4,0.7,1.2,0.7,2.2v0.4h-2
		c-1.7,0.1-3,0.4-3.9,1s-1.4,1.4-1.4,2.5c0,0.4,0.1,0.7,0.2,1.1c0.2,0.4,0.4,0.7,0.7,0.9c0.3,0.3,0.7,0.5,1.1,0.7s0.9,0.3,1.5,0.3
		c1.4,0,2.7-0.5,3.8-1.4v1.2h1.6V205c0-1.5-0.4-2.6-1.1-3.3s-1.8-1-3-1c-1.6,0-2.8,0.5-3.7,1.5L803.1,203.2z M808.6,207.2
		c0,0.5-0.1,0.9-0.2,1.2c-0.1,0.2-0.2,0.4-0.4,0.6c-0.2,0.2-0.4,0.4-0.7,0.6c-0.3,0.2-0.6,0.4-1,0.5s-0.8,0.2-1.2,0.2
		c-0.6,0-1.2-0.2-1.6-0.5c-0.4-0.4-0.6-0.8-0.6-1.3c0-0.3,0.1-0.6,0.2-0.8s0.3-0.5,0.6-0.7c0.3-0.2,0.7-0.4,1.3-0.5
		c0.5-0.1,1.2-0.2,2.1-0.2c0.2,0,0.4,0,0.6,0s0.4,0,0.6,0h0.4v0.9H808.6z"/>
	<path class="st0" d="M815.8,200.9h-2.5v1.3h2.5c-0.1,1.1-0.2,2.1-0.2,3s0,1.6,0,2.1c0,1.5,0.2,2.6,0.7,3.3s1.3,1,2.4,1
		s2.2-0.4,3.3-1.2l-0.5-1.3c-0.9,0.6-1.6,1-2.4,1c-0.4,0-0.7-0.1-1-0.2c-0.2-0.2-0.4-0.4-0.6-0.7c-0.1-0.3-0.2-0.7-0.2-1.2
		s0-1.1,0-1.9c0-1.2,0.1-2.5,0.2-3.9h3.5v-1.3h-3.5l0.3-2.5c0-0.1,0-0.1,0.1-0.3c0-0.1,0.1-0.2,0.1-0.4l-1.8,0.3L815.8,200.9z"/>
	<path class="st0" d="M825.6,202.2h2.6v7.8h-2.7v1.3h6.8V210h-2.5v-9.2h-4.2L825.6,202.2L825.6,202.2z M827.8,197.5
		c0,0.3,0.1,0.6,0.3,0.8c0.2,0.2,0.5,0.3,0.8,0.3s0.6-0.1,0.8-0.3c0.2-0.2,0.4-0.5,0.4-0.8s-0.1-0.6-0.4-0.8
		c-0.2-0.2-0.5-0.4-0.8-0.4s-0.6,0.1-0.8,0.3C827.9,196.9,827.8,197.2,827.8,197.5L827.8,197.5z"/>
	<path class="st0" d="M838.6,201.1c-0.6,0.3-1.1,0.7-1.6,1.2s-0.8,1.1-1.1,1.8c-0.3,0.7-0.4,1.4-0.4,2.2s0.1,1.5,0.4,2.2
		s0.6,1.3,1.1,1.7c0.4,0.5,1,0.9,1.6,1.1c0.6,0.3,1.2,0.4,1.9,0.4c0.7,0,1.3-0.1,1.9-0.4c0.6-0.3,1.1-0.6,1.5-1.1s0.8-1.1,1-1.7
		c0.2-0.7,0.4-1.4,0.4-2.3c0-0.8-0.1-1.6-0.4-2.3s-0.6-1.3-1-1.7c-0.4-0.5-0.9-0.8-1.5-1.1s-1.2-0.4-1.8-0.4
		S839.2,200.8,838.6,201.1z M843.4,207.9c-0.2,0.5-0.4,0.9-0.7,1.3c-0.3,0.3-0.6,0.6-1,0.8s-0.8,0.3-1.2,0.3c-0.4,0-0.8-0.1-1.2-0.3
		c-0.4-0.2-0.7-0.5-1-0.9s-0.5-0.8-0.7-1.3s-0.3-1.1-0.3-1.7c0-0.6,0.1-1.2,0.3-1.7c0.2-0.5,0.4-0.9,0.7-1.3c0.3-0.4,0.6-0.6,1-0.8
		s0.8-0.3,1.2-0.3c0.4,0,0.8,0.1,1.2,0.3c0.4,0.2,0.7,0.5,1,0.8c0.3,0.4,0.5,0.8,0.7,1.3s0.3,1.1,0.3,1.8
		C843.6,206.8,843.5,207.4,843.4,207.9z"/>
	<path class="st0" d="M849.4,211.4v-6.1c0-0.5,0.1-1,0.3-1.4c0.2-0.4,0.4-0.7,0.7-1c0.3-0.3,0.6-0.5,1-0.7s0.7-0.2,1.1-0.2
		c0.5,0,1,0.2,1.4,0.7c0.4,0.4,0.6,1.2,0.6,2.3v6.3h1.7v-6.4c0-0.8-0.1-1.5-0.2-2c-0.2-0.6-0.4-1-0.7-1.4c-0.3-0.4-0.6-0.6-1-0.8
		s-0.8-0.2-1.3-0.2c-0.6,0-1.3,0.2-1.9,0.6c-0.6,0.4-1.1,0.9-1.5,1.5v-1.9h-1.7v10.5h1.5V211.4z"/>
	<path class="st1" d="M762.6,265.4v-11.3l6.3,11.3h1.3v-13.7c0-0.1,0-0.2,0.1-0.3s0.1-0.2,0.1-0.3h-1.7v10.7l-6-10.6h-1.6v14.3
		L762.6,265.4L762.6,265.4z"/>
	<path class="st1" d="M775.4,255.1c-0.6,0.3-1.1,0.7-1.6,1.2s-0.8,1.1-1.1,1.8c-0.3,0.7-0.4,1.4-0.4,2.2s0.1,1.5,0.4,2.2
		s0.6,1.3,1.1,1.7c0.4,0.5,1,0.9,1.6,1.1c0.6,0.3,1.2,0.4,1.9,0.4c0.7,0,1.3-0.1,1.9-0.4s1.1-0.6,1.5-1.1s0.8-1.1,1-1.7
		c0.2-0.7,0.4-1.4,0.4-2.3c0-0.8-0.1-1.6-0.4-2.3c-0.3-0.7-0.6-1.3-1-1.7c-0.4-0.5-0.9-0.8-1.5-1.1c-0.6-0.3-1.2-0.4-1.8-0.4
		S776,254.8,775.4,255.1z M780.1,262c-0.2,0.5-0.4,0.9-0.7,1.3c-0.3,0.3-0.6,0.6-1,0.8c-0.4,0.2-0.8,0.3-1.2,0.3
		c-0.4,0-0.8-0.1-1.2-0.3c-0.4-0.2-0.7-0.5-1-0.9s-0.5-0.8-0.7-1.3s-0.3-1.1-0.3-1.7s0.1-1.2,0.3-1.7c0.2-0.5,0.4-0.9,0.7-1.3
		c0.3-0.4,0.6-0.6,1-0.8c0.4-0.2,0.8-0.3,1.2-0.3c0.4,0,0.8,0.1,1.2,0.3c0.4,0.2,0.7,0.5,1,0.8c0.3,0.4,0.5,0.8,0.7,1.3
		s0.3,1.1,0.3,1.8C780.3,260.9,780.2,261.5,780.1,262z"/>
	<path class="st1" d="M790.2,255.1c-0.5-0.3-1.2-0.5-1.9-0.5c-0.5,0-1.1,0.1-1.6,0.3s-1,0.5-1.4,1c-0.4,0.4-0.8,1-1,1.7
		c-0.3,0.7-0.4,1.5-0.4,2.5s0.1,1.8,0.3,2.5c0.2,0.7,0.5,1.3,0.9,1.7c0.4,0.5,0.8,0.8,1.4,1c0.5,0.2,1.1,0.3,1.6,0.3
		c0.6,0,1.2-0.2,1.8-0.5c0.6-0.3,1-0.8,1.4-1.4v0.9c0,0.3,0,0.6,0.1,0.8h1.7c-0.1-0.3-0.1-0.6-0.1-1v-13.7c0-0.1,0-0.2,0.1-0.3
		s0.1-0.2,0.1-0.3h-1.8v6.3C791.2,255.9,790.8,255.5,790.2,255.1z M787.5,256.2c0.3-0.1,0.7-0.2,1.1-0.2c0.2,0,0.4,0,0.7,0.1
		c0.2,0.1,0.5,0.2,0.8,0.4c0.2,0.1,0.4,0.3,0.6,0.5s0.3,0.4,0.4,0.7c0.1,0.3,0.2,0.6,0.2,1s0.1,0.9,0.1,1.5c0,0.9-0.1,1.7-0.3,2.2
		c-0.1,0.3-0.2,0.6-0.4,0.8c-0.2,0.2-0.4,0.4-0.6,0.6s-0.5,0.3-0.7,0.4c-0.3,0.1-0.5,0.1-0.7,0.1c-1,0-1.7-0.4-2.2-1.2
		c-0.5-0.8-0.7-1.9-0.7-3.2c0-1.4,0.3-2.4,1-3C786.9,256.5,787.2,256.3,787.5,256.2z"/>
	<path class="st1" d="M798.5,255c-0.6,0.2-1.1,0.6-1.5,1.1s-0.8,1-1,1.7c-0.3,0.7-0.4,1.5-0.4,2.4s0.1,1.7,0.4,2.3
		c0.2,0.7,0.6,1.3,1,1.7c0.4,0.5,1,0.8,1.6,1s1.3,0.4,2.1,0.4c1.6,0,2.8-0.5,3.7-1.6l-0.9-0.9c-0.7,0.8-1.6,1.2-2.7,1.2
		c-0.4,0-0.8-0.1-1.2-0.2c-0.4-0.1-0.8-0.3-1.1-0.7c-0.3-0.3-0.6-0.7-0.8-1.2c-0.2-0.5-0.3-1.1-0.4-1.9h7.5c0-0.1,0-0.2,0-0.4
		c0-0.1,0-0.3,0-0.4c0-0.9-0.1-1.6-0.4-2.2c-0.2-0.6-0.6-1.1-0.9-1.6c-0.4-0.4-0.8-0.7-1.4-0.9c-0.5-0.2-1.1-0.3-1.6-0.3
		C799.7,254.7,799.1,254.8,798.5,255z M798.3,256.7c0.6-0.5,1.2-0.8,2-0.8c0.4,0,0.7,0.1,1.1,0.2c0.3,0.2,0.6,0.4,0.9,0.6
		c0.2,0.2,0.4,0.5,0.6,0.9c0.1,0.3,0.2,0.7,0.2,1.1c0,0.1,0,0.1,0,0.2s0,0.1,0,0.2h-5.8C797.3,258,797.7,257.2,798.3,256.7z"/>
	<path class="st2" d="M811.4,263c-0.4,0-0.7,0.1-0.9,0.4c-0.3,0.3-0.4,0.6-0.4,0.9c0,0.4,0.1,0.7,0.4,0.9c0.3,0.3,0.6,0.4,1,0.4
		s0.7-0.1,1-0.4s0.4-0.6,0.4-0.9c0-0.4-0.1-0.7-0.4-0.9C812.1,263.2,811.7,263,811.4,263L811.4,263z"/>
	<path class="st3" d="M820.3,256.3h3.9v8.8c0,1.1-0.2,1.8-0.7,2.3c-0.4,0.5-1,0.7-1.7,0.7c-0.4,0-0.7-0.1-1.1-0.3
		c-0.3-0.2-0.6-0.3-0.7-0.4s-0.2-0.2-0.3-0.3c0-0.1-0.1-0.2-0.1-0.3c0-0.1-0.1-0.2-0.1-0.2l-1.1,1.4c0.8,1,1.9,1.5,3.2,1.5
		c0.6,0,1.1-0.1,1.6-0.3c0.5-0.2,0.9-0.4,1.3-0.8s0.7-0.8,0.9-1.4c0.2-0.6,0.3-1.2,0.3-2v-10h-5.6v1.3L820.3,256.3L820.3,256.3z
		 M823.9,251.5c0,0.3,0.1,0.6,0.4,0.8c0.2,0.2,0.5,0.3,0.8,0.3s0.6-0.1,0.8-0.3c0.2-0.2,0.4-0.5,0.4-0.8s-0.1-0.6-0.4-0.9
		c-0.2-0.2-0.5-0.3-0.8-0.3s-0.6,0.1-0.9,0.3C824,250.9,823.9,251.2,823.9,251.5L823.9,251.5z"/>
	<path class="st3" d="M834.9,254.7c-0.6,0-1.1,0.1-1.6,0.2c-0.5,0.2-0.9,0.4-1.3,0.6c-0.4,0.3-0.6,0.6-0.8,0.9
		c-0.2,0.3-0.3,0.7-0.3,1.1c0,0.3,0.1,0.7,0.2,0.9c0.1,0.3,0.3,0.5,0.5,0.8c0.2,0.2,0.4,0.4,0.7,0.6s0.6,0.4,1.2,0.6
		c0.2,0.1,0.7,0.2,1.3,0.4c1,0.3,1.7,0.6,2,0.9c0.4,0.3,0.6,0.6,0.6,1c0,0.3-0.1,0.5-0.2,0.7c-0.2,0.2-0.4,0.4-0.6,0.5
		c-0.3,0.1-0.5,0.3-0.9,0.3c-0.3,0.1-0.6,0.1-0.9,0.1s-0.6,0-0.9-0.1c-0.3,0-0.6-0.1-0.8-0.2c-0.5-0.2-0.9-0.4-1.1-0.6
		s-0.4-0.3-0.5-0.5c-0.1-0.1-0.1-0.3-0.2-0.4c0-0.1,0-0.2-0.1-0.2l-0.9,1.7c1.2,1.1,2.7,1.7,4.4,1.7c0.7,0,1.3-0.1,1.8-0.3
		c0.5-0.2,1-0.4,1.4-0.7c0.4-0.3,0.7-0.7,0.9-1.1c0.2-0.4,0.3-0.9,0.3-1.3c0-0.7-0.3-1.3-0.8-1.8s-1.5-0.9-2.8-1.3
		c-0.6-0.2-1.1-0.3-1.4-0.5c-0.4-0.1-0.6-0.3-0.8-0.4c-0.2-0.1-0.3-0.3-0.4-0.4s-0.1-0.3-0.1-0.5s0.1-0.5,0.2-0.7s0.3-0.3,0.5-0.5
		c0.2-0.1,0.4-0.2,0.7-0.3c0.3-0.1,0.6-0.1,0.8-0.1c0.6,0,1.2,0.1,1.7,0.4s0.9,0.6,1.2,1c0,0,0,0.1,0,0.2s0,0.2,0.1,0.2l1-1.4
		C837.9,255.2,836.6,254.7,834.9,254.7L834.9,254.7z"/>
	<path class="st1" d="M738,319.5h4c1.9,0,3.2-0.4,4.1-1.1s1.3-1.7,1.3-2.9c0-0.4-0.1-0.8-0.2-1.2c-0.1-0.4-0.3-0.7-0.6-1
		c-0.2-0.3-0.5-0.6-0.9-0.9c-0.3-0.3-0.7-0.4-1.1-0.6c0.7-0.2,1.2-0.7,1.6-1.3c0.4-0.6,0.6-1.2,0.6-1.9c0-0.5-0.1-1-0.3-1.4
		c-0.2-0.4-0.5-0.8-0.9-1.1c-0.4-0.3-0.9-0.6-1.5-0.7c-0.6-0.2-1.3-0.2-2.2-0.2h-4.1v14.3L738,319.5L738,319.5z M742.1,306.5
		c0.6,0,1,0.1,1.4,0.2s0.7,0.3,0.9,0.5c0.2,0.2,0.4,0.5,0.5,0.7c0.1,0.3,0.2,0.6,0.2,0.9s-0.1,0.6-0.2,0.9s-0.3,0.5-0.6,0.7
		c-0.3,0.2-0.6,0.4-1,0.5s-0.9,0.2-1.6,0.2h-2.2v-4.6L742.1,306.5L742.1,306.5z M742,312.4c0.7,0,1.3,0.1,1.7,0.2
		c0.5,0.1,0.9,0.3,1.2,0.6c0.3,0.3,0.5,0.6,0.6,0.9c0.1,0.4,0.2,0.7,0.3,1.2c-0.1,0.8-0.3,1.4-0.8,2c-0.5,0.5-1.3,0.8-2.6,0.8h-2.8
		v-5.7H742z"/>
	<path class="st1" d="M751.3,311.3c0.8-0.8,1.7-1.2,2.8-1.2c0.9,0,1.6,0.2,2,0.6s0.7,1.2,0.7,2.2v0.4h-2c-1.7,0.1-3,0.4-3.9,1
		s-1.4,1.4-1.4,2.5c0,0.4,0.1,0.7,0.2,1.1c0.2,0.4,0.4,0.7,0.7,0.9c0.3,0.3,0.7,0.5,1.1,0.7s0.9,0.3,1.5,0.3c1.4,0,2.7-0.5,3.8-1.4
		v1.2h1.6v-6.5c0-1.5-0.4-2.6-1.1-3.3c-0.7-0.7-1.8-1-3-1c-1.6,0-2.8,0.5-3.7,1.5L751.3,311.3z M756.9,315.2c0,0.5-0.1,0.9-0.2,1.2
		c-0.1,0.2-0.2,0.4-0.4,0.6c-0.2,0.2-0.4,0.4-0.7,0.6c-0.3,0.2-0.6,0.4-1,0.5s-0.8,0.2-1.2,0.2c-0.6,0-1.2-0.2-1.6-0.5
		c-0.4-0.4-0.6-0.8-0.6-1.3c0-0.3,0.1-0.6,0.2-0.8c0.1-0.3,0.3-0.5,0.6-0.7c0.3-0.2,0.7-0.4,1.3-0.5c0.5-0.1,1.2-0.2,2.1-0.2
		c0.2,0,0.4,0,0.6,0s0.4,0,0.6,0h0.4v0.9L756.9,315.2L756.9,315.2z"/>
	<path class="st1" d="M768.7,309.3c-0.7-0.3-1.4-0.5-2.3-0.5c-0.8,0-1.5,0.1-2.1,0.4c-0.7,0.3-1.2,0.7-1.7,1.1
		c-0.5,0.5-0.8,1.1-1.1,1.7c-0.3,0.7-0.4,1.4-0.4,2.2c0,0.8,0.1,1.5,0.4,2.2s0.6,1.2,1.1,1.7s1,0.9,1.7,1.2c0.6,0.3,1.3,0.4,2.1,0.4
		c1.5,0,2.8-0.6,3.8-1.7l-1-1.1c-0.8,0.8-1.7,1.3-2.8,1.3c-0.5,0-1-0.1-1.5-0.3c-0.4-0.2-0.8-0.5-1.2-0.9s-0.6-0.8-0.8-1.3
		s-0.3-1.1-0.3-1.7s0.1-1.1,0.3-1.6c0.2-0.5,0.4-0.9,0.7-1.2c0.3-0.3,0.7-0.6,1.1-0.8c0.4-0.2,0.8-0.3,1.3-0.3
		c0.9,0,1.6,0.2,2.2,0.6c0.3,0.2,0.5,0.4,0.6,0.6c0.1,0.1,0.2,0.3,0.2,0.3c0,0.1,0,0.2,0,0.2c0,0.1,0,0.1,0.1,0.1l1.2-1.4
		C770,310.1,769.4,309.6,768.7,309.3z"/>
	<path class="st1" d="M772.9,319.5h1.7v-4l1.4-1.3l4.3,5.4l2.1-0.1l-5.2-6.3l4.4-4.2H781c-0.5,0-0.9,0-1.2-0.1l-5.3,4.9v-9
		c0-0.1,0-0.2,0.1-0.3c0.1-0.1,0.1-0.2,0.1-0.3h-1.9L772.9,319.5L772.9,319.5z"/>
	<path class="st1" d="M784.3,319.5h1l0.6-1.4c0.4,0.5,0.8,0.9,1.3,1.2c0.5,0.3,1.1,0.4,1.8,0.4c0.6,0,1.1-0.1,1.6-0.3
		c0.5-0.2,1-0.6,1.4-1c0.4-0.5,0.8-1.1,1-1.7c0.3-0.7,0.4-1.5,0.4-2.5c0-0.9-0.1-1.7-0.3-2.4c-0.2-0.7-0.5-1.2-0.9-1.7
		s-0.9-0.8-1.4-1s-1.1-0.3-1.7-0.3s-1.2,0.2-1.8,0.5c-0.6,0.3-1,0.8-1.4,1.4v-5.9c0-0.1,0-0.2,0.1-0.2c0.1-0.1,0.1-0.1,0.1-0.2l0,0
		h-1.9v15.1H784.3z M786.5,317.3c-0.2-0.2-0.3-0.4-0.4-0.7c-0.1-0.3-0.2-0.7-0.2-1.1s0-1,0-1.6c0-1,0.1-1.8,0.3-2.2
		c0.2-0.5,0.5-0.8,1-1.1c0.4-0.3,0.8-0.4,1.2-0.4c1.1,0,1.9,0.4,2.5,1.1s0.9,1.8,0.9,3.2c0,0.7-0.1,1.4-0.3,1.9
		c-0.2,0.5-0.5,0.9-0.8,1.2c-0.3,0.3-0.7,0.5-1,0.6c-0.4,0.1-0.7,0.2-1,0.2c-0.2,0-0.4,0-0.7-0.1c-0.2-0.1-0.5-0.2-0.8-0.3
		C786.9,317.7,786.7,317.5,786.5,317.3z"/>
	<path class="st1" d="M798.4,309.2c-0.6,0.3-1.1,0.7-1.6,1.2s-0.8,1.1-1.1,1.8c-0.3,0.7-0.4,1.4-0.4,2.2c0,0.8,0.1,1.5,0.4,2.2
		s0.6,1.3,1.1,1.7c0.4,0.5,1,0.9,1.6,1.1c0.6,0.3,1.2,0.4,1.9,0.4c0.7,0,1.3-0.1,1.9-0.4s1.1-0.6,1.5-1.1s0.8-1.1,1-1.7
		c0.2-0.7,0.4-1.4,0.4-2.3c0-0.8-0.1-1.6-0.4-2.3c-0.3-0.7-0.6-1.3-1-1.7c-0.4-0.5-0.9-0.8-1.5-1.1c-0.6-0.3-1.2-0.4-1.8-0.4
		S799,308.9,798.4,309.2z M803.1,316c-0.2,0.5-0.4,0.9-0.7,1.3c-0.3,0.3-0.6,0.6-1,0.8c-0.4,0.2-0.8,0.3-1.2,0.3
		c-0.4,0-0.8-0.1-1.2-0.3c-0.4-0.2-0.7-0.5-1-0.9s-0.5-0.8-0.7-1.3s-0.3-1.1-0.3-1.7s0.1-1.2,0.3-1.7c0.2-0.5,0.4-0.9,0.7-1.3
		c0.3-0.4,0.6-0.6,1-0.8c0.4-0.2,0.8-0.3,1.2-0.3c0.4,0,0.8,0.1,1.2,0.3c0.4,0.2,0.7,0.5,1,0.8c0.3,0.4,0.5,0.8,0.7,1.3
		s0.3,1.1,0.3,1.8C803.3,314.9,803.3,315.5,803.1,316z"/>
	<path class="st1" d="M809.1,319.5v-6.1c0-0.5,0.1-1,0.3-1.4c0.2-0.4,0.4-0.7,0.7-1c0.3-0.3,0.6-0.5,1-0.7s0.7-0.2,1.1-0.2
		c0.5,0,1,0.2,1.4,0.7c0.4,0.4,0.6,1.2,0.6,2.3v6.3h1.7V313c0-0.8-0.1-1.5-0.2-2c-0.2-0.6-0.4-1-0.7-1.4c-0.3-0.4-0.6-0.6-1-0.8
		c-0.4-0.2-0.8-0.2-1.3-0.2c-0.6,0-1.3,0.2-1.9,0.6s-1.1,0.9-1.5,1.5v-1.9h-1.7v10.5h1.5V319.5z"/>
	<path class="st1" d="M821.5,309.1c-0.6,0.2-1.1,0.6-1.5,1.1s-0.8,1-1,1.7c-0.3,0.7-0.4,1.5-0.4,2.4s0.1,1.7,0.4,2.3
		c0.2,0.7,0.6,1.3,1,1.7c0.4,0.5,1,0.8,1.6,1s1.3,0.4,2.1,0.4c1.6,0,2.8-0.5,3.7-1.6l-0.9-0.9c-0.7,0.8-1.6,1.2-2.7,1.2
		c-0.4,0-0.8-0.1-1.2-0.2c-0.4-0.1-0.8-0.3-1.1-0.7c-0.3-0.3-0.6-0.7-0.8-1.2c-0.2-0.5-0.3-1.1-0.4-1.9h7.5c0-0.1,0-0.2,0-0.4
		c0-0.1,0-0.3,0-0.4c0-0.9-0.1-1.6-0.4-2.2c-0.2-0.6-0.6-1.1-0.9-1.6c-0.4-0.4-0.8-0.7-1.4-0.9c-0.5-0.2-1.1-0.3-1.6-0.3
		C822.7,308.7,822.1,308.8,821.5,309.1z M821.3,310.7c0.6-0.5,1.2-0.8,2-0.8c0.4,0,0.7,0.1,1.1,0.2c0.3,0.2,0.6,0.4,0.9,0.6
		c0.2,0.2,0.4,0.5,0.6,0.9c0.1,0.3,0.2,0.7,0.2,1.1c0,0.1,0,0.1,0,0.2s0,0.1,0,0.2h-5.8C820.3,312,820.7,311.2,821.3,310.7z"/>
	<path class="st2" d="M834.4,317.1c-0.4,0-0.7,0.1-0.9,0.4c-0.3,0.3-0.4,0.6-0.4,0.9c0,0.4,0.1,0.7,0.4,0.9c0.3,0.3,0.6,0.4,1,0.4
		s0.7-0.1,1-0.4s0.4-0.6,0.4-0.9c0-0.4-0.1-0.7-0.4-0.9C835.1,317.2,834.7,317.1,834.4,317.1L834.4,317.1z"/>
	<path class="st3" d="M843.3,310.3h3.9v8.8c0,1.1-0.2,1.8-0.7,2.3c-0.4,0.5-1,0.7-1.7,0.7c-0.4,0-0.7-0.1-1.1-0.3
		c-0.3-0.2-0.6-0.3-0.7-0.4s-0.2-0.2-0.3-0.3c0-0.1-0.1-0.2-0.1-0.3c0-0.1-0.1-0.2-0.1-0.2l-1.1,1.4c0.8,1,1.9,1.5,3.2,1.5
		c0.6,0,1.1-0.1,1.6-0.3c0.5-0.2,0.9-0.4,1.3-0.8s0.7-0.8,0.9-1.4c0.2-0.6,0.3-1.2,0.3-2v-10h-5.6v1.3L843.3,310.3L843.3,310.3z
		 M846.9,305.6c0,0.3,0.1,0.6,0.4,0.8c0.2,0.2,0.5,0.3,0.8,0.3s0.6-0.1,0.8-0.3c0.2-0.2,0.4-0.5,0.4-0.8s-0.1-0.6-0.4-0.9
		c-0.2-0.2-0.5-0.3-0.8-0.3s-0.6,0.1-0.9,0.3C847,305,846.9,305.2,846.9,305.6L846.9,305.6z"/>
	<path class="st3" d="M857.9,308.7c-0.6,0-1.1,0.1-1.6,0.2c-0.5,0.2-0.9,0.4-1.3,0.6c-0.4,0.3-0.6,0.6-0.8,0.9
		c-0.2,0.3-0.3,0.7-0.3,1.1c0,0.3,0.1,0.7,0.2,0.9c0.1,0.3,0.3,0.5,0.5,0.8c0.2,0.2,0.4,0.4,0.7,0.6c0.2,0.2,0.6,0.4,1.2,0.6
		c0.2,0.1,0.7,0.2,1.3,0.4c1,0.3,1.7,0.6,2,0.9c0.4,0.3,0.6,0.6,0.6,1c0,0.3-0.1,0.5-0.2,0.7c-0.2,0.2-0.4,0.4-0.6,0.5
		c-0.3,0.1-0.5,0.3-0.9,0.3c-0.3,0.1-0.6,0.1-0.9,0.1s-0.6,0-0.9-0.1c-0.3,0-0.6-0.1-0.8-0.2c-0.5-0.2-0.9-0.4-1.1-0.6
		s-0.4-0.3-0.5-0.5c-0.1-0.1-0.1-0.3-0.2-0.4c0-0.1,0-0.2-0.1-0.2l-0.9,1.7c1.2,1.1,2.7,1.7,4.4,1.7c0.7,0,1.3-0.1,1.8-0.3
		c0.5-0.2,1-0.4,1.4-0.7c0.4-0.3,0.7-0.7,0.9-1.1c0.2-0.4,0.3-0.9,0.3-1.3c0-0.7-0.3-1.3-0.8-1.8s-1.5-0.9-2.8-1.3
		c-0.6-0.2-1.1-0.3-1.4-0.5c-0.4-0.1-0.6-0.3-0.8-0.4c-0.2-0.1-0.3-0.3-0.4-0.4s-0.1-0.3-0.1-0.5s0.1-0.5,0.2-0.7s0.3-0.3,0.5-0.5
		c0.2-0.1,0.4-0.2,0.7-0.3c0.3-0.1,0.6-0.1,0.8-0.1c0.6,0,1.2,0.1,1.7,0.4s0.9,0.6,1.2,1c0,0,0,0.1,0,0.2s0,0.2,0.1,0.2l1-1.4
		C860.9,309.3,859.6,308.7,857.9,308.7L857.9,308.7z"/>
	<path class="st1" d="M726.3,373.5h1.5v-10.7l2.9,5.7h0.6l3.1-5.8v10.8h1.5v-14.4h-1.2l-3.6,7l-3.5-7h-1.3V373.5z"/>
	<path class="st1" d="M739.8,365.3c0.8-0.8,1.7-1.2,2.8-1.2c0.9,0,1.6,0.2,2,0.6s0.7,1.2,0.7,2.2v0.4h-2c-1.7,0.1-3,0.4-3.9,1
		s-1.4,1.4-1.4,2.5c0,0.4,0.1,0.7,0.2,1.1c0.2,0.4,0.4,0.7,0.7,0.9c0.3,0.3,0.7,0.5,1.1,0.7s0.9,0.3,1.5,0.3c1.4,0,2.7-0.5,3.8-1.4
		v1.2h1.6v-6.5c0-1.5-0.4-2.6-1.1-3.3c-0.7-0.7-1.8-1-3-1c-1.6,0-2.8,0.5-3.7,1.5L739.8,365.3z M745.4,369.3c0,0.5-0.1,0.9-0.2,1.2
		c-0.1,0.2-0.2,0.4-0.4,0.6c-0.2,0.2-0.4,0.4-0.7,0.6c-0.3,0.2-0.6,0.4-1,0.5s-0.8,0.2-1.2,0.2c-0.6,0-1.2-0.2-1.6-0.5
		c-0.4-0.4-0.6-0.8-0.6-1.3c0-0.3,0.1-0.6,0.2-0.8s0.3-0.5,0.6-0.7c0.3-0.2,0.7-0.4,1.3-0.5c0.5-0.1,1.2-0.2,2.1-0.2
		c0.2,0,0.4,0,0.6,0s0.4,0,0.6,0h0.4v0.9L745.4,369.3L745.4,369.3z"/>
	<path class="st1" d="M750.7,373.5h1.7v-5.1c0-0.6,0.1-1.1,0.3-1.6c0.2-0.5,0.5-1,0.8-1.3c0.3-0.4,0.7-0.7,1.2-0.9
		c0.4-0.2,0.9-0.4,1.4-0.4c0.3,0,0.5,0,0.7,0.1s0.4,0.1,0.5,0.3c0.2,0.1,0.3,0.2,0.5,0.4c0.1,0.2,0.3,0.3,0.5,0.6l0.8-1.6
		c-0.7-0.8-1.7-1.2-2.8-1.2c-0.8,0-1.6,0.2-2.3,0.6s-1.2,1-1.5,1.7v-2h-1.7L750.7,373.5L750.7,373.5z"/>
	<path class="st1" d="M762.3,364.3h2.6v7.8h-2.7v1.3h6.8v-1.3h-2.5v-9.2h-4.2L762.3,364.3L762.3,364.3z M764.6,359.6
		c0,0.3,0.1,0.6,0.3,0.8c0.2,0.2,0.5,0.3,0.8,0.3s0.6-0.1,0.8-0.3c0.2-0.2,0.4-0.5,0.4-0.8s-0.1-0.6-0.4-0.8
		c-0.2-0.2-0.5-0.4-0.8-0.4s-0.6,0.1-0.8,0.3C764.7,359,764.6,359.3,764.6,359.6L764.6,359.6z"/>
	<path class="st1" d="M775.4,363.2c-0.6,0.3-1.1,0.7-1.6,1.2s-0.8,1.1-1.1,1.8c-0.3,0.7-0.4,1.4-0.4,2.2s0.1,1.5,0.4,2.2
		s0.6,1.3,1.1,1.7c0.4,0.5,1,0.9,1.6,1.1c0.6,0.3,1.2,0.4,1.9,0.4c0.7,0,1.3-0.1,1.9-0.4s1.1-0.6,1.5-1.1s0.8-1.1,1-1.7
		c0.2-0.7,0.4-1.4,0.4-2.3c0-0.8-0.1-1.6-0.4-2.3c-0.3-0.7-0.6-1.3-1-1.7c-0.4-0.5-0.9-0.8-1.5-1.1c-0.6-0.3-1.2-0.4-1.8-0.4
		S776,362.9,775.4,363.2z M780.1,370.1c-0.2,0.5-0.4,0.9-0.7,1.3c-0.3,0.3-0.6,0.6-1,0.8c-0.4,0.2-0.8,0.3-1.2,0.3
		c-0.4,0-0.8-0.1-1.2-0.3c-0.4-0.2-0.7-0.5-1-0.9s-0.5-0.8-0.7-1.3s-0.3-1.1-0.3-1.7s0.1-1.2,0.3-1.7c0.2-0.5,0.4-0.9,0.7-1.3
		c0.3-0.4,0.6-0.6,1-0.8c0.4-0.2,0.8-0.3,1.2-0.3c0.4,0,0.8,0.1,1.2,0.3c0.4,0.2,0.7,0.5,1,0.8c0.3,0.4,0.5,0.8,0.7,1.3
		s0.3,1.1,0.3,1.8C780.3,369,780.2,369.5,780.1,370.1z"/>
	<path class="st1" d="M786.1,373.5v-6.1c0-0.5,0.1-1,0.3-1.4c0.2-0.4,0.4-0.7,0.7-1c0.3-0.3,0.6-0.5,1-0.7s0.7-0.2,1.1-0.2
		c0.5,0,1,0.2,1.4,0.7c0.4,0.4,0.6,1.2,0.6,2.3v6.3h1.7V367c0-0.8-0.1-1.5-0.2-2c-0.2-0.6-0.4-1-0.7-1.4c-0.3-0.4-0.6-0.6-1-0.8
		c-0.4-0.2-0.8-0.2-1.3-0.2c-0.6,0-1.3,0.2-1.9,0.6s-1.1,0.9-1.5,1.5v-1.9h-1.7v10.5h1.5V373.5z"/>
	<path class="st1" d="M798.5,363.1c-0.6,0.2-1.1,0.6-1.5,1.1s-0.8,1-1,1.7c-0.3,0.7-0.4,1.5-0.4,2.4s0.1,1.7,0.4,2.3
		c0.2,0.7,0.6,1.3,1,1.7c0.4,0.5,1,0.8,1.6,1s1.3,0.4,2.1,0.4c1.6,0,2.8-0.5,3.7-1.6l-0.9-0.9c-0.7,0.8-1.6,1.2-2.7,1.2
		c-0.4,0-0.8-0.1-1.2-0.2c-0.4-0.1-0.8-0.3-1.1-0.7c-0.3-0.3-0.6-0.7-0.8-1.2c-0.2-0.5-0.3-1.1-0.4-1.9h7.5c0-0.1,0-0.2,0-0.4
		c0-0.1,0-0.3,0-0.4c0-0.9-0.1-1.6-0.4-2.2c-0.2-0.6-0.6-1.1-0.9-1.6c-0.4-0.4-0.8-0.7-1.4-0.9c-0.5-0.2-1.1-0.3-1.6-0.3
		C799.7,362.8,799.1,362.9,798.5,363.1z M798.3,364.8c0.6-0.5,1.2-0.8,2-0.8c0.4,0,0.7,0.1,1.1,0.2c0.3,0.2,0.6,0.4,0.9,0.6
		c0.2,0.2,0.4,0.5,0.6,0.9c0.1,0.3,0.2,0.7,0.2,1.1c0,0.1,0,0.1,0,0.2s0,0.1,0,0.2h-5.8C797.3,366.1,797.7,365.3,798.3,364.8z"/>
	<path class="st1" d="M810.1,363h-2.5v1.3h2.5c-0.1,1.1-0.2,2.1-0.2,3s0,1.6,0,2.1c0,1.5,0.2,2.6,0.7,3.3c0.5,0.7,1.3,1,2.4,1
		s2.2-0.4,3.3-1.2l-0.5-1.3c-0.9,0.6-1.6,1-2.4,1c-0.4,0-0.7-0.1-1-0.2c-0.2-0.2-0.4-0.4-0.6-0.7c-0.1-0.3-0.2-0.7-0.2-1.2
		s0-1.1,0-1.9c0-1.2,0.1-2.5,0.2-3.9h3.5V363h-3.5l0.3-2.5c0-0.1,0-0.1,0.1-0.3c0-0.1,0.1-0.2,0.1-0.4l-1.8,0.3L810.1,363z"/>
	<path class="st1" d="M821.6,363h-2.5v1.3h2.5c-0.1,1.1-0.2,2.1-0.2,3s0,1.6,0,2.1c0,1.5,0.2,2.6,0.7,3.3c0.5,0.7,1.3,1,2.4,1
		s2.2-0.4,3.3-1.2l-0.5-1.3c-0.9,0.6-1.6,1-2.4,1c-0.4,0-0.7-0.1-1-0.2c-0.2-0.2-0.4-0.4-0.6-0.7c-0.1-0.3-0.2-0.7-0.2-1.2
		s0-1.1,0-1.9c0-1.2,0.1-2.5,0.2-3.9h3.5V363h-3.5l0.3-2.5c0-0.1,0-0.1,0.1-0.3c0-0.1,0.1-0.2,0.1-0.4l-1.8,0.3L821.6,363z"/>
	<path class="st1" d="M833,363.1c-0.6,0.2-1.1,0.6-1.5,1.1s-0.8,1-1,1.7c-0.3,0.7-0.4,1.5-0.4,2.4s0.1,1.7,0.4,2.3
		c0.2,0.7,0.6,1.3,1,1.7c0.4,0.5,1,0.8,1.6,1s1.3,0.4,2.1,0.4c1.6,0,2.8-0.5,3.7-1.6l-0.9-0.9c-0.7,0.8-1.6,1.2-2.7,1.2
		c-0.4,0-0.8-0.1-1.2-0.2c-0.4-0.1-0.8-0.3-1.1-0.7c-0.3-0.3-0.6-0.7-0.8-1.2c-0.2-0.5-0.3-1.1-0.4-1.9h7.5c0-0.1,0-0.2,0-0.4
		c0-0.1,0-0.3,0-0.4c0-0.9-0.1-1.6-0.4-2.2c-0.2-0.6-0.6-1.1-0.9-1.6c-0.4-0.4-0.8-0.7-1.4-0.9c-0.5-0.2-1.1-0.3-1.6-0.3
		C834.2,362.8,833.6,362.9,833,363.1z M832.8,364.8c0.6-0.5,1.2-0.8,2-0.8c0.4,0,0.7,0.1,1.1,0.2c0.3,0.2,0.6,0.4,0.9,0.6
		c0.2,0.2,0.4,0.5,0.6,0.9c0.1,0.3,0.2,0.7,0.2,1.1c0,0.1,0,0.1,0,0.2s0,0.1,0,0.2h-5.8C831.9,366.1,832.2,365.3,832.8,364.8z"/>
	<path class="st2" d="M845.9,371.1c-0.4,0-0.7,0.1-0.9,0.4c-0.3,0.3-0.4,0.6-0.4,0.9c0,0.4,0.1,0.7,0.4,0.9c0.3,0.3,0.6,0.4,1,0.4
		s0.7-0.1,1-0.4s0.4-0.6,0.4-0.9c0-0.4-0.1-0.7-0.4-0.9C846.6,371.3,846.2,371.1,845.9,371.1L845.9,371.1z"/>
	<path class="st3" d="M854.8,364.3h3.9v8.8c0,1.1-0.2,1.8-0.7,2.3c-0.4,0.5-1,0.7-1.7,0.7c-0.4,0-0.7-0.1-1.1-0.3
		c-0.3-0.2-0.6-0.3-0.7-0.4s-0.2-0.2-0.3-0.3c0-0.1-0.1-0.2-0.1-0.3c0-0.1-0.1-0.2-0.1-0.2l-1.1,1.4c0.8,1,1.9,1.5,3.2,1.5
		c0.6,0,1.1-0.1,1.6-0.3c0.5-0.2,0.9-0.4,1.3-0.8s0.7-0.8,0.9-1.4c0.2-0.6,0.3-1.2,0.3-2v-10h-5.6v1.3L854.8,364.3L854.8,364.3z
		 M858.4,359.6c0,0.3,0.1,0.6,0.4,0.8c0.2,0.2,0.5,0.3,0.8,0.3s0.6-0.1,0.8-0.3c0.2-0.2,0.4-0.5,0.4-0.8s-0.1-0.6-0.4-0.9
		c-0.2-0.2-0.5-0.3-0.8-0.3s-0.6,0.1-0.9,0.3C858.5,359,858.4,359.3,858.4,359.6L858.4,359.6z"/>
	<path class="st3" d="M869.5,362.8c-0.6,0-1.1,0.1-1.6,0.2c-0.5,0.2-0.9,0.4-1.3,0.6c-0.4,0.3-0.6,0.6-0.8,0.9
		c-0.2,0.3-0.3,0.7-0.3,1.1c0,0.3,0.1,0.7,0.2,0.9c0.1,0.3,0.3,0.5,0.5,0.8c0.2,0.2,0.4,0.4,0.7,0.6c0.2,0.2,0.6,0.4,1.2,0.6
		c0.2,0.1,0.7,0.2,1.3,0.4c1,0.3,1.7,0.6,2,0.9c0.4,0.3,0.6,0.6,0.6,1c0,0.3-0.1,0.5-0.2,0.7c-0.2,0.2-0.4,0.4-0.6,0.5
		s-0.5,0.3-0.9,0.3c-0.3,0.1-0.6,0.1-0.9,0.1s-0.6,0-0.9-0.1c-0.3,0-0.6-0.1-0.8-0.2c-0.5-0.2-0.9-0.4-1.1-0.6s-0.4-0.3-0.5-0.5
		c-0.1-0.1-0.1-0.3-0.2-0.4c0-0.1,0-0.2-0.1-0.2l-0.9,1.7c1.2,1.1,2.7,1.7,4.4,1.7c0.7,0,1.3-0.1,1.8-0.3c0.5-0.2,1-0.4,1.4-0.7
		c0.4-0.3,0.7-0.7,0.9-1.1c0.2-0.4,0.3-0.9,0.3-1.3c0-0.7-0.3-1.3-0.8-1.8s-1.5-0.9-2.8-1.3c-0.6-0.2-1.1-0.3-1.4-0.5
		c-0.4-0.1-0.6-0.3-0.8-0.4c-0.2-0.1-0.3-0.3-0.4-0.4s-0.1-0.3-0.1-0.5s0.1-0.5,0.2-0.7s0.3-0.3,0.5-0.5c0.2-0.1,0.4-0.2,0.7-0.3
		c0.3-0.1,0.6-0.1,0.8-0.1c0.6,0,1.2,0.1,1.7,0.4s0.9,0.6,1.2,1c0,0,0,0.1,0,0.2s0,0.2,0.1,0.2l1-1.4
		C872.4,363.3,871.1,362.8,869.5,362.8L869.5,362.8z"/>
	<path class="st0" d="M743.9,427.6h1.7v-6.9h5.6v6.9h1.7v-13.8c0-0.1,0-0.2,0.1-0.2s0.1-0.1,0.1-0.2v-0.1h-1.8v6.1h-5.6v-5.6
		c0-0.1,0-0.2,0.1-0.3c0-0.1,0.1-0.1,0.1-0.2v-0.1h-1.8v14.4H743.9z"/>
	<path class="st0" d="M757,419.4c0.8-0.8,1.7-1.2,2.8-1.2c0.9,0,1.6,0.2,2,0.6s0.7,1.2,0.7,2.2v0.4h-2c-1.7,0.1-3,0.4-3.9,1
		s-1.4,1.4-1.4,2.5c0,0.4,0.1,0.7,0.2,1.1c0.2,0.4,0.4,0.7,0.7,0.9c0.3,0.3,0.7,0.5,1.1,0.7s0.9,0.3,1.5,0.3c1.4,0,2.7-0.5,3.8-1.4
		v1.2h1.6v-6.5c0-1.5-0.4-2.6-1.1-3.3c-0.7-0.7-1.8-1-3-1c-1.6,0-2.8,0.5-3.7,1.5L757,419.4z M762.6,423.3c0,0.5-0.1,0.9-0.2,1.2
		c-0.1,0.2-0.2,0.4-0.4,0.6c-0.2,0.2-0.4,0.4-0.7,0.6c-0.3,0.2-0.6,0.4-1,0.5s-0.8,0.2-1.2,0.2c-0.6,0-1.2-0.2-1.6-0.5
		c-0.4-0.4-0.6-0.8-0.6-1.3c0-0.3,0.1-0.6,0.2-0.8c0.1-0.3,0.3-0.5,0.6-0.7c0.3-0.2,0.7-0.4,1.3-0.5c0.5-0.1,1.2-0.2,2.1-0.2
		c0.2,0,0.4,0,0.6,0s0.4,0,0.6,0h0.4v0.9L762.6,423.3L762.6,423.3z"/>
	<path class="st0" d="M768.9,427.6v-6.1c0-0.5,0.1-1,0.3-1.4c0.2-0.4,0.4-0.7,0.7-1c0.3-0.3,0.6-0.5,1-0.7s0.7-0.2,1.1-0.2
		c0.5,0,1,0.2,1.4,0.7c0.4,0.4,0.6,1.2,0.6,2.3v6.3h1.7v-6.4c0-0.8-0.1-1.5-0.2-2c-0.2-0.6-0.4-1-0.7-1.4c-0.3-0.4-0.6-0.6-1-0.8
		c-0.4-0.2-0.8-0.2-1.3-0.2c-0.6,0-1.3,0.2-1.9,0.6s-1.1,0.9-1.5,1.5v-1.9h-1.7v10.5h1.5V427.6z"/>
	<path class="st0" d="M784.5,417.3c-0.5-0.3-1.2-0.5-1.9-0.5c-0.5,0-1.1,0.1-1.6,0.3c-0.5,0.2-1,0.5-1.4,1c-0.4,0.4-0.8,1-1,1.7
		c-0.3,0.7-0.4,1.5-0.4,2.5s0.1,1.8,0.3,2.5c0.2,0.7,0.5,1.3,0.9,1.7c0.4,0.5,0.8,0.8,1.4,1c0.5,0.2,1.1,0.3,1.6,0.3
		c0.6,0,1.2-0.2,1.8-0.5c0.6-0.3,1-0.8,1.4-1.4v0.9c0,0.3,0,0.6,0.1,0.8h1.7c-0.1-0.3-0.1-0.6-0.1-1v-13.7c0-0.1,0-0.2,0.1-0.3
		c0.1-0.1,0.1-0.2,0.1-0.3h-1.8v6.3C785.4,418,785,417.6,784.5,417.3z M781.7,418.3c0.3-0.1,0.7-0.2,1.1-0.2c0.2,0,0.4,0,0.7,0.1
		c0.2,0.1,0.5,0.2,0.8,0.4c0.2,0.1,0.4,0.3,0.6,0.5s0.3,0.4,0.4,0.7c0.1,0.3,0.2,0.6,0.2,1s0.1,0.9,0.1,1.5c0,0.9-0.1,1.7-0.3,2.2
		c-0.1,0.3-0.2,0.6-0.4,0.8s-0.4,0.4-0.6,0.6s-0.5,0.3-0.7,0.4c-0.3,0.1-0.5,0.1-0.7,0.1c-1,0-1.7-0.4-2.2-1.2s-0.7-1.9-0.7-3.2
		c0-1.4,0.3-2.4,1-3C781.1,418.6,781.4,418.4,781.7,418.3z"/>
	<path class="st0" d="M790.6,413.6h3v12.6h-3.1v1.3h7.8v-1.3h-3.1v-14h-4.6L790.6,413.6L790.6,413.6z"/>
	<path class="st0" d="M804.2,417.2c-0.6,0.2-1.1,0.6-1.5,1.1s-0.8,1-1,1.7c-0.3,0.7-0.4,1.5-0.4,2.4s0.1,1.7,0.4,2.3
		c0.2,0.7,0.6,1.3,1,1.7c0.4,0.5,1,0.8,1.6,1s1.3,0.4,2.1,0.4c1.6,0,2.8-0.5,3.7-1.6l-0.9-0.9c-0.7,0.8-1.6,1.2-2.7,1.2
		c-0.4,0-0.8-0.1-1.2-0.2c-0.4-0.1-0.8-0.3-1.1-0.7c-0.3-0.3-0.6-0.7-0.8-1.2c-0.2-0.5-0.3-1.1-0.4-1.9h7.5c0-0.1,0-0.2,0-0.4
		c0-0.1,0-0.3,0-0.4c0-0.9-0.1-1.6-0.4-2.2c-0.2-0.6-0.6-1.1-0.9-1.6c-0.4-0.4-0.8-0.7-1.4-0.9c-0.5-0.2-1.1-0.3-1.6-0.3
		C805.4,416.8,804.8,416.9,804.2,417.2z M804,418.8c0.6-0.5,1.2-0.8,2-0.8c0.4,0,0.7,0.1,1.1,0.2c0.3,0.2,0.6,0.4,0.9,0.6
		c0.2,0.2,0.4,0.5,0.6,0.9c0.1,0.3,0.2,0.7,0.2,1.1c0,0.1,0,0.1,0,0.2s0,0.1,0,0.2H803C803.1,420.1,803.5,419.3,804,418.8z"/>
	<path class="st0" d="M813,427.6h1l0.6-1.4c0.4,0.5,0.8,0.9,1.3,1.2s1.1,0.4,1.8,0.4c0.6,0,1.1-0.1,1.6-0.3c0.5-0.2,1-0.6,1.4-1
		c0.4-0.5,0.8-1.1,1-1.7c0.3-0.7,0.4-1.5,0.4-2.5c0-0.9-0.1-1.7-0.3-2.4c-0.2-0.7-0.5-1.2-0.9-1.7s-0.9-0.8-1.4-1s-1.1-0.3-1.7-0.3
		s-1.2,0.2-1.8,0.5c-0.6,0.3-1,0.8-1.4,1.4v-5.9c0-0.1,0-0.2,0.1-0.2c0.1-0.1,0.1-0.1,0.1-0.2l0,0h-1.9v15.1H813z M815.3,425.4
		c-0.2-0.2-0.3-0.4-0.4-0.7c-0.1-0.3-0.2-0.7-0.2-1.1s0-1,0-1.6c0-1,0.1-1.8,0.3-2.2c0.2-0.5,0.5-0.8,1-1.1c0.4-0.3,0.8-0.4,1.2-0.4
		c1.1,0,1.9,0.4,2.5,1.1s0.9,1.8,0.9,3.2c0,0.7-0.1,1.4-0.3,1.9c-0.2,0.5-0.5,0.9-0.8,1.2c-0.3,0.3-0.7,0.5-1,0.6s-0.7,0.2-1,0.2
		c-0.2,0-0.4,0-0.7-0.1s-0.5-0.2-0.8-0.3C815.7,425.8,815.5,425.6,815.3,425.4z"/>
	<path class="st0" d="M826.1,419.4c0.8-0.8,1.7-1.2,2.8-1.2c0.9,0,1.6,0.2,2,0.6s0.7,1.2,0.7,2.2v0.4h-2c-1.7,0.1-3,0.4-3.9,1
		s-1.4,1.4-1.4,2.5c0,0.4,0.1,0.7,0.2,1.1c0.2,0.4,0.4,0.7,0.7,0.9c0.3,0.3,0.7,0.5,1.1,0.7s0.9,0.3,1.5,0.3c1.4,0,2.7-0.5,3.8-1.4
		v1.2h1.6v-6.5c0-1.5-0.4-2.6-1.1-3.3c-0.7-0.7-1.8-1-3-1c-1.6,0-2.8,0.5-3.7,1.5L826.1,419.4z M831.7,423.3c0,0.5-0.1,0.9-0.2,1.2
		c-0.1,0.2-0.2,0.4-0.4,0.6c-0.2,0.2-0.4,0.4-0.7,0.6c-0.3,0.2-0.6,0.4-1,0.5s-0.8,0.2-1.2,0.2c-0.6,0-1.2-0.2-1.6-0.5
		c-0.4-0.4-0.6-0.8-0.6-1.3c0-0.3,0.1-0.6,0.2-0.8s0.3-0.5,0.6-0.7c0.3-0.2,0.7-0.4,1.3-0.5c0.5-0.1,1.2-0.2,2.1-0.2
		c0.2,0,0.4,0,0.6,0s0.4,0,0.6,0h0.4v0.9L831.7,423.3L831.7,423.3z"/>
	<path class="st0" d="M836.9,427.6h1.7v-5.1c0-0.6,0.1-1.1,0.3-1.6c0.2-0.5,0.5-1,0.8-1.3c0.3-0.4,0.7-0.7,1.2-0.9
		c0.4-0.2,0.9-0.4,1.4-0.4c0.3,0,0.5,0,0.7,0.1s0.4,0.1,0.5,0.3c0.2,0.1,0.3,0.2,0.5,0.4c0.1,0.2,0.3,0.3,0.5,0.6l0.8-1.6
		c-0.7-0.8-1.7-1.2-2.8-1.2c-0.8,0-1.6,0.2-2.3,0.6c-0.7,0.4-1.2,1-1.5,1.7v-2H837L836.9,427.6L836.9,427.6z"/>
	<path class="st0" d="M852.2,416.8c-0.6,0-1.1,0.1-1.6,0.2c-0.5,0.2-0.9,0.4-1.3,0.6c-0.4,0.3-0.6,0.6-0.8,0.9
		c-0.2,0.3-0.3,0.7-0.3,1.1c0,0.3,0.1,0.7,0.2,0.9c0.1,0.3,0.3,0.5,0.5,0.8c0.2,0.2,0.4,0.4,0.7,0.6c0.2,0.2,0.6,0.4,1.2,0.6
		c0.2,0.1,0.7,0.2,1.3,0.4c1,0.3,1.7,0.6,2,0.9c0.4,0.3,0.6,0.6,0.6,1c0,0.3-0.1,0.5-0.2,0.7c-0.2,0.2-0.4,0.4-0.6,0.5
		s-0.5,0.3-0.9,0.3c-0.3,0.1-0.6,0.1-0.9,0.1s-0.6,0-0.9-0.1c-0.3,0-0.6-0.1-0.8-0.2c-0.5-0.2-0.9-0.4-1.1-0.6s-0.4-0.3-0.5-0.5
		c-0.1-0.1-0.1-0.3-0.2-0.4c0-0.1,0-0.2-0.1-0.2l-0.9,1.7c1.2,1.1,2.7,1.7,4.4,1.7c0.7,0,1.3-0.1,1.8-0.3c0.5-0.2,1-0.4,1.4-0.7
		c0.4-0.3,0.7-0.7,0.9-1.1c0.2-0.4,0.3-0.9,0.3-1.3c0-0.7-0.3-1.3-0.8-1.8s-1.5-0.9-2.8-1.3c-0.6-0.2-1.1-0.3-1.4-0.5
		c-0.4-0.1-0.6-0.3-0.8-0.4c-0.2-0.1-0.3-0.3-0.4-0.4s-0.1-0.3-0.1-0.5s0.1-0.5,0.2-0.7s0.3-0.3,0.5-0.5c0.2-0.1,0.4-0.2,0.7-0.3
		c0.3-0.1,0.6-0.1,0.8-0.1c0.6,0,1.2,0.1,1.7,0.4s0.9,0.6,1.2,1c0,0,0,0.1,0,0.2s0,0.2,0.1,0.2l1-1.4
		C855.1,417.4,853.8,416.8,852.2,416.8L852.2,416.8z"/>
	<path class="st1" d="M762.4,467.7c-0.7-0.3-1.4-0.5-2.2-0.5c-0.6,0-1.2,0.1-1.7,0.3c-0.5,0.2-1,0.5-1.4,0.8s-0.7,0.7-0.9,1.2
		c-0.2,0.5-0.3,1-0.3,1.5c0,0.4,0.1,0.8,0.2,1.2c0.1,0.4,0.3,0.7,0.7,1c0.3,0.3,0.7,0.6,1.2,0.9s1.1,0.6,1.9,0.9
		c0.7,0.3,1.2,0.5,1.7,0.7c0.4,0.2,0.7,0.4,1,0.6c0.2,0.2,0.4,0.4,0.5,0.7c0.1,0.2,0.1,0.5,0.1,0.8c0,0.4-0.1,0.7-0.2,1
		c-0.2,0.3-0.4,0.6-0.6,0.9c-0.3,0.2-0.6,0.4-0.9,0.6c-0.4,0.1-0.8,0.2-1.2,0.2c-0.8,0-1.6-0.1-2.2-0.4s-1.1-0.7-1.4-1.1
		c0-0.1-0.1-0.1-0.1-0.3c0-0.1,0-0.2-0.1-0.2l-0.9,1.7c1.1,1.2,2.6,1.8,4.5,1.8c0.8,0,1.6-0.1,2.2-0.4c0.6-0.2,1.1-0.6,1.5-1
		s0.7-0.8,0.9-1.3c0.2-0.5,0.3-1,0.3-1.5c0-0.4-0.1-0.8-0.2-1.2c-0.1-0.4-0.3-0.7-0.6-1c-0.3-0.3-0.6-0.6-1.1-0.9s-1-0.6-1.7-0.9
		s-1.3-0.6-1.8-0.8c-0.5-0.2-0.8-0.5-1-0.7s-0.4-0.5-0.5-0.7s-0.2-0.5-0.2-0.9c0-0.6,0.2-1.1,0.7-1.5s1.1-0.6,1.8-0.6
		c0.7,0,1.4,0.1,1.9,0.4s0.9,0.6,1.2,1c0,0,0,0.1,0.1,0.2c0,0.1,0,0.2,0.1,0.2l1-1.4C763.7,468.4,763.1,468,762.4,467.7z"/>
	<path class="st1" d="M768.5,473.4c0.8-0.8,1.7-1.2,2.8-1.2c0.9,0,1.6,0.2,2,0.6s0.7,1.2,0.7,2.2v0.4h-2c-1.7,0.1-3,0.4-3.9,1
		s-1.4,1.4-1.4,2.5c0,0.4,0.1,0.7,0.2,1.1c0.2,0.4,0.4,0.7,0.7,0.9c0.3,0.3,0.7,0.5,1.1,0.7s0.9,0.3,1.5,0.3c1.4,0,2.7-0.5,3.8-1.4
		v1.2h1.6v-6.5c0-1.5-0.4-2.6-1.1-3.3c-0.7-0.7-1.8-1-3-1c-1.6,0-2.8,0.5-3.7,1.5L768.5,473.4z M774.1,477.4c0,0.5-0.1,0.9-0.2,1.2
		c-0.1,0.2-0.2,0.4-0.4,0.6c-0.2,0.2-0.4,0.4-0.7,0.6c-0.3,0.2-0.6,0.4-1,0.5s-0.8,0.2-1.2,0.2c-0.6,0-1.2-0.2-1.6-0.5
		c-0.4-0.4-0.6-0.8-0.6-1.3c0-0.3,0.1-0.6,0.2-0.8c0.1-0.3,0.3-0.5,0.6-0.7c0.3-0.2,0.7-0.4,1.3-0.5c0.5-0.1,1.2-0.2,2.1-0.2
		c0.2,0,0.4,0,0.6,0s0.4,0,0.6,0h0.4v0.9L774.1,477.4L774.1,477.4z"/>
	<path class="st1" d="M779.6,472.4h2.6v7.8h-2.7v1.3h6.8v-1.2h-2.5v-9.2h-4.2L779.6,472.4L779.6,472.4z M781.8,467.7
		c0,0.3,0.1,0.6,0.3,0.8c0.2,0.2,0.5,0.3,0.8,0.3s0.6-0.1,0.8-0.3c0.2-0.2,0.4-0.5,0.4-0.8s-0.1-0.6-0.4-0.8
		c-0.2-0.2-0.5-0.4-0.8-0.4s-0.6,0.1-0.8,0.3C781.9,467.1,781.8,467.4,781.8,467.7L781.8,467.7z"/>
	<path class="st1" d="M790.6,467.6h3v12.7h-3.1v1.3h7.8v-1.3h-3.1v-14h-4.6L790.6,467.6L790.6,467.6z"/>
	<path class="st1" d="M806.2,470.8c-0.6,0-1.1,0.1-1.6,0.2c-0.5,0.2-0.9,0.4-1.3,0.6c-0.4,0.3-0.6,0.6-0.8,0.9
		c-0.2,0.3-0.3,0.7-0.3,1.1c0,0.3,0.1,0.7,0.2,0.9s0.3,0.5,0.5,0.8c0.2,0.2,0.4,0.4,0.7,0.6c0.2,0.2,0.6,0.4,1.2,0.6
		c0.2,0.1,0.7,0.2,1.3,0.4c1,0.3,1.7,0.6,2,0.9c0.4,0.3,0.6,0.6,0.6,1c0,0.3-0.1,0.5-0.2,0.7c-0.2,0.2-0.4,0.4-0.6,0.5
		c-0.3,0.1-0.5,0.3-0.9,0.3c-0.3,0.1-0.6,0.1-0.9,0.1s-0.6,0-0.9-0.1c-0.3,0-0.6-0.1-0.8-0.2c-0.5-0.2-0.9-0.4-1.1-0.6
		s-0.4-0.3-0.5-0.5c-0.1-0.1-0.1-0.3-0.2-0.4c0-0.1,0-0.2-0.1-0.2l-0.9,1.7c1.2,1.1,2.7,1.7,4.4,1.7c0.7,0,1.3-0.1,1.8-0.3
		c0.5-0.2,1-0.4,1.4-0.7c0.4-0.3,0.7-0.7,0.9-1.1c0.2-0.4,0.3-0.9,0.3-1.3c0-0.7-0.3-1.3-0.8-1.8s-1.5-0.9-2.8-1.3
		c-0.6-0.2-1.1-0.3-1.4-0.5c-0.4-0.1-0.6-0.3-0.8-0.4c-0.2-0.1-0.3-0.3-0.4-0.4s-0.1-0.3-0.1-0.5s0.1-0.5,0.2-0.7s0.3-0.3,0.5-0.5
		c0.2-0.1,0.4-0.2,0.7-0.3c0.3-0.1,0.6-0.1,0.8-0.1c0.6,0,1.2,0.1,1.7,0.4s0.9,0.6,1.2,1c0,0,0,0.1,0,0.2s0,0.2,0.1,0.2l1-1.4
		C809.1,471.4,807.8,470.8,806.2,470.8L806.2,470.8z"/>
	<path class="st2" d="M817.1,479.2c-0.4,0-0.7,0.1-0.9,0.4c-0.3,0.3-0.4,0.6-0.4,0.9s0.1,0.7,0.4,0.9c0.3,0.3,0.6,0.4,1,0.4
		s0.7-0.1,1-0.4s0.4-0.6,0.4-0.9c0-0.4-0.1-0.7-0.4-0.9C817.8,479.4,817.5,479.2,817.1,479.2L817.1,479.2z"/>
	<path class="st3" d="M826.1,472.4h3.9v8.8c0,1.1-0.2,1.8-0.7,2.3c-0.4,0.5-1,0.7-1.7,0.7c-0.4,0-0.7-0.1-1.1-0.3
		c-0.3-0.2-0.6-0.3-0.7-0.4s-0.2-0.2-0.3-0.3c0-0.1-0.1-0.2-0.1-0.3c0-0.1-0.1-0.2-0.1-0.2l-1.1,1.4c0.8,1,1.9,1.5,3.2,1.5
		c0.6,0,1.1-0.1,1.6-0.3c0.5-0.2,0.9-0.4,1.3-0.8s0.7-0.8,0.9-1.4c0.2-0.6,0.3-1.2,0.3-2v-10h-5.6v1.3L826.1,472.4L826.1,472.4z
		 M829.6,467.7c0,0.3,0.1,0.6,0.4,0.8c0.2,0.2,0.5,0.3,0.8,0.3s0.6-0.1,0.8-0.3c0.2-0.2,0.4-0.5,0.4-0.8s-0.1-0.6-0.4-0.9
		c-0.2-0.2-0.5-0.3-0.8-0.3s-0.6,0.1-0.9,0.3C829.7,467.1,829.6,467.4,829.6,467.7L829.6,467.7z"/>
	<path class="st3" d="M840.7,470.8c-0.6,0-1.1,0.1-1.6,0.2c-0.5,0.2-0.9,0.4-1.3,0.6c-0.4,0.3-0.6,0.6-0.8,0.9
		c-0.2,0.3-0.3,0.7-0.3,1.1c0,0.3,0.1,0.7,0.2,0.9s0.3,0.5,0.5,0.8c0.2,0.2,0.4,0.4,0.7,0.6c0.2,0.2,0.6,0.4,1.2,0.6
		c0.2,0.1,0.7,0.2,1.3,0.4c1,0.3,1.7,0.6,2,0.9c0.4,0.3,0.6,0.6,0.6,1c0,0.3-0.1,0.5-0.2,0.7c-0.2,0.2-0.4,0.4-0.6,0.5
		c-0.3,0.1-0.5,0.3-0.9,0.3c-0.3,0.1-0.6,0.1-0.9,0.1s-0.6,0-0.9-0.1c-0.3,0-0.6-0.1-0.8-0.2c-0.5-0.2-0.9-0.4-1.1-0.6
		s-0.4-0.3-0.5-0.5c-0.1-0.1-0.1-0.3-0.2-0.4c0-0.1,0-0.2-0.1-0.2l-0.9,1.7c1.2,1.1,2.7,1.7,4.4,1.7c0.7,0,1.3-0.1,1.8-0.3
		c0.5-0.2,1-0.4,1.4-0.7c0.4-0.3,0.7-0.7,0.9-1.1c0.2-0.4,0.3-0.9,0.3-1.3c0-0.7-0.3-1.3-0.8-1.8s-1.5-0.9-2.8-1.3
		c-0.6-0.2-1.1-0.3-1.4-0.5c-0.4-0.1-0.6-0.3-0.8-0.4c-0.2-0.1-0.3-0.3-0.4-0.4s-0.1-0.3-0.1-0.5s0.1-0.5,0.2-0.7s0.3-0.3,0.5-0.5
		c0.2-0.1,0.4-0.2,0.7-0.3c0.3-0.1,0.6-0.1,0.8-0.1c0.6,0,1.2,0.1,1.7,0.4s0.9,0.6,1.2,1c0,0,0,0.1,0,0.2s0,0.2,0.1,0.2l1-1.4
		C843.6,471.4,842.3,470.8,840.7,470.8L840.7,470.8z"/>
	<path class="st0" d="M762.6,535.8h0.7l2.5-9.5l2.5,9.5h0.6l2.3-14.4h-1.4l-1.3,9.7l-2.3-8.7h-0.5l-2.3,8.6l-1.5-9.7h-1.5
		L762.6,535.8z"/>
	<path class="st0" d="M775.5,525.3c-0.6,0.2-1.1,0.6-1.5,1.1s-0.8,1-1,1.7c-0.3,0.7-0.4,1.5-0.4,2.4s0.1,1.7,0.4,2.3
		c0.2,0.7,0.6,1.3,1,1.7c0.4,0.5,1,0.8,1.6,1s1.3,0.4,2.1,0.4c1.6,0,2.8-0.5,3.7-1.6l-0.9-0.9c-0.7,0.8-1.6,1.2-2.7,1.2
		c-0.4,0-0.8-0.1-1.2-0.2c-0.4-0.1-0.8-0.3-1.1-0.7c-0.3-0.3-0.6-0.7-0.8-1.2c-0.2-0.5-0.3-1.1-0.4-1.9h7.5c0-0.1,0-0.2,0-0.4
		c0-0.1,0-0.3,0-0.4c0-0.9-0.1-1.6-0.4-2.2c-0.2-0.6-0.6-1.1-0.9-1.6c-0.4-0.4-0.8-0.7-1.4-0.9c-0.5-0.2-1.1-0.3-1.6-0.3
		C776.7,524.9,776.1,525,775.5,525.3z M775.3,526.9c0.6-0.5,1.2-0.8,2-0.8c0.4,0,0.7,0.1,1.1,0.2c0.3,0.2,0.6,0.4,0.9,0.6
		c0.2,0.2,0.4,0.5,0.6,0.9c0.1,0.3,0.2,0.7,0.2,1.1c0,0.1,0,0.1,0,0.2c0,0.1,0,0.1,0,0.2h-5.8C774.3,528.2,774.7,527.4,775.3,526.9z
		"/>
	<path class="st0" d="M784.3,535.8h1l0.6-1.4c0.4,0.5,0.8,0.9,1.3,1.2s1.1,0.4,1.8,0.4c0.6,0,1.1-0.1,1.6-0.3s1-0.6,1.4-1
		c0.4-0.5,0.8-1.1,1-1.7c0.3-0.7,0.4-1.5,0.4-2.5c0-0.9-0.1-1.7-0.3-2.4c-0.2-0.7-0.5-1.2-0.9-1.7s-0.9-0.8-1.4-1s-1.1-0.3-1.7-0.3
		s-1.2,0.2-1.8,0.5c-0.6,0.3-1,0.8-1.4,1.4V521c0-0.1,0-0.2,0.1-0.2c0.1-0.1,0.1-0.1,0.1-0.2l0,0h-1.9v15.1L784.3,535.8L784.3,535.8
		z M786.5,533.5c-0.2-0.2-0.3-0.4-0.4-0.7s-0.2-0.7-0.2-1.1c0-0.4,0-1,0-1.6c0-1,0.1-1.8,0.3-2.2c0.2-0.5,0.5-0.8,1-1.1
		c0.4-0.3,0.8-0.4,1.2-0.4c1.1,0,1.9,0.4,2.5,1.1c0.6,0.7,0.9,1.8,0.9,3.2c0,0.7-0.1,1.4-0.3,1.9s-0.5,0.9-0.8,1.2s-0.7,0.5-1,0.6
		c-0.4,0.1-0.7,0.2-1,0.2c-0.2,0-0.4,0-0.7-0.1c-0.2-0.1-0.5-0.2-0.8-0.3C786.9,533.9,786.7,533.8,786.5,533.5z"/>
	<path class="st0" d="M795.8,539.5h1.7v-5.2c0.4,0.5,0.8,0.9,1.4,1.2s1.2,0.4,1.8,0.4c0.6,0,1.1-0.1,1.6-0.4c0.5-0.2,1-0.6,1.4-1.1
		s0.8-1.1,1-1.8c0.3-0.7,0.4-1.5,0.4-2.4s-0.1-1.7-0.4-2.4c-0.2-0.7-0.6-1.2-1-1.7c-0.4-0.4-0.9-0.8-1.4-1s-1.1-0.3-1.7-0.3
		s-1.2,0.2-1.8,0.5c-0.6,0.3-1.1,0.8-1.4,1.3V525h-1.6V539.5z M797.4,529.8c0-0.6,0.1-1.2,0.2-1.6s0.4-0.8,0.6-1
		c0.3-0.3,0.5-0.4,0.9-0.5s0.6-0.2,1-0.2c1,0,1.8,0.4,2.4,1.2c0.6,0.7,0.8,1.8,0.8,3.1c0,0.7-0.1,1.3-0.3,1.8s-0.5,0.9-0.8,1.2
		s-0.7,0.5-1.1,0.6s-0.8,0.2-1.2,0.2c-0.7,0-1.3-0.2-1.8-0.7s-0.8-1.3-0.8-2.4v-1.7L797.4,529.8L797.4,529.8z"/>
	<path class="st0" d="M808.8,527.4c0.8-0.8,1.7-1.2,2.8-1.2c0.9,0,1.6,0.2,2,0.6c0.4,0.4,0.7,1.2,0.7,2.2v0.4h-2
		c-1.7,0.1-3,0.4-3.9,1s-1.4,1.4-1.4,2.5c0,0.4,0.1,0.7,0.2,1.1c0.2,0.4,0.4,0.7,0.7,0.9c0.3,0.3,0.7,0.5,1.1,0.7s0.9,0.3,1.5,0.3
		c1.4,0,2.7-0.5,3.8-1.4v1.2h1.6v-6.5c0-1.5-0.4-2.6-1.1-3.3s-1.8-1-3-1c-1.6,0-2.8,0.5-3.7,1.5L808.8,527.4z M814.4,531.4
		c0,0.5-0.1,0.9-0.2,1.2c-0.1,0.2-0.2,0.4-0.4,0.6c-0.2,0.2-0.4,0.4-0.7,0.6c-0.3,0.2-0.6,0.4-1,0.5s-0.8,0.2-1.2,0.2
		c-0.6,0-1.2-0.2-1.6-0.5c-0.4-0.4-0.6-0.8-0.6-1.3c0-0.3,0.1-0.6,0.2-0.8s0.3-0.5,0.6-0.7c0.3-0.2,0.7-0.4,1.3-0.5
		c0.5-0.1,1.2-0.2,2.1-0.2c0.2,0,0.4,0,0.6,0s0.4,0,0.6,0h0.4v0.9H814.4z"/>
	<path class="st0" d="M826.3,525.5c-0.7-0.3-1.4-0.5-2.3-0.5c-0.8,0-1.5,0.1-2.1,0.4c-0.7,0.3-1.2,0.7-1.7,1.1
		c-0.5,0.5-0.8,1.1-1.1,1.7c-0.3,0.7-0.4,1.4-0.4,2.2s0.1,1.5,0.4,2.2s0.6,1.2,1.1,1.7s1,0.9,1.7,1.2c0.6,0.3,1.3,0.4,2.1,0.4
		c1.5,0,2.8-0.6,3.8-1.7l-1-1.1c-0.8,0.8-1.7,1.3-2.8,1.3c-0.5,0-1-0.1-1.5-0.3c-0.4-0.2-0.8-0.5-1.2-0.9c-0.3-0.4-0.6-0.8-0.8-1.3
		c-0.2-0.5-0.3-1.1-0.3-1.7c0-0.6,0.1-1.1,0.3-1.6c0.2-0.5,0.4-0.9,0.7-1.2c0.3-0.3,0.7-0.6,1.1-0.8s0.8-0.3,1.3-0.3
		c0.9,0,1.6,0.2,2.2,0.6c0.3,0.2,0.5,0.4,0.6,0.6c0.1,0.1,0.2,0.3,0.2,0.3c0,0.1,0,0.2,0,0.2c0,0.1,0,0.1,0.1,0.1l1.2-1.4
		C827.5,526.3,826.9,525.8,826.3,525.5z"/>
	<path class="st0" d="M830.4,535.8h1.7v-4l1.4-1.3l4.3,5.4l2.1-0.1l-5.2-6.3l4.4-4.2h-0.6c-0.5,0-0.9,0-1.2-0.1l-5.3,4.9v-9
		c0-0.1,0-0.2,0.1-0.3s0.1-0.2,0.1-0.3h-1.9L830.4,535.8L830.4,535.8z"/>
	<path class="st1" d="M743.9,589.8h1.7v-6.3h2.8l3.2,6.3h1.8l-3.3-6.4c0.4-0.1,0.8-0.3,1.2-0.6c0.4-0.3,0.7-0.6,0.9-0.9
		c0.3-0.4,0.4-0.7,0.6-1.1c0.1-0.4,0.2-0.8,0.2-1.2c0-1.2-0.4-2.2-1.1-3s-2-1.1-3.6-1.1h-4.2v14.3H743.9z M748.4,576.9
		c0.5,0,1,0.1,1.3,0.2c0.4,0.1,0.7,0.3,0.9,0.6c0.2,0.2,0.4,0.5,0.5,0.8s0.2,0.6,0.2,1c0,0.8-0.2,1.4-0.7,1.8
		c-0.5,0.5-1.2,0.7-2.2,0.7h-2.8v-5.1H748.4z"/>
	<path class="st1" d="M758.2,579.3c-0.6,0.2-1.1,0.6-1.5,1.1s-0.8,1-1,1.7c-0.3,0.7-0.4,1.5-0.4,2.4s0.1,1.7,0.4,2.3
		c0.2,0.7,0.6,1.3,1,1.7c0.4,0.5,1,0.8,1.6,1s1.3,0.4,2.1,0.4c1.6,0,2.8-0.5,3.7-1.6l-0.9-0.9c-0.7,0.8-1.6,1.2-2.7,1.2
		c-0.4,0-0.8-0.1-1.2-0.2c-0.4-0.1-0.8-0.3-1.1-0.7c-0.3-0.3-0.6-0.7-0.8-1.2c-0.2-0.5-0.3-1.1-0.4-1.9h7.5c0-0.1,0-0.2,0-0.4
		c0-0.1,0-0.3,0-0.4c0-0.9-0.1-1.6-0.4-2.2c-0.2-0.6-0.6-1.1-0.9-1.6c-0.4-0.4-0.8-0.7-1.4-0.9c-0.5-0.2-1.1-0.3-1.6-0.3
		C759.4,578.9,758.8,579.1,758.2,579.3z M758,581c0.6-0.5,1.2-0.8,2-0.8c0.4,0,0.7,0.1,1.1,0.2c0.3,0.2,0.6,0.4,0.9,0.6
		c0.2,0.2,0.4,0.5,0.6,0.9c0.1,0.3,0.2,0.7,0.2,1.1c0,0.1,0,0.1,0,0.2c0,0.1,0,0.1,0,0.2H757C757.1,582.3,757.5,581.5,758,581z"/>
	<path class="st1" d="M774.1,580.5c-0.6-1-1.6-1.5-2.9-1.5c-0.6,0-1.2,0.1-1.8,0.4c-0.6,0.2-1.1,0.6-1.5,1.1s-0.8,1-1,1.7
		s-0.4,1.4-0.4,2.3c0,0.8,0.1,1.6,0.3,2.3c0.2,0.7,0.5,1.3,0.9,1.8s0.9,0.9,1.4,1.1c0.5,0.3,1.1,0.4,1.7,0.4c0.7,0,1.3-0.2,1.9-0.5
		s1-0.8,1.4-1.4v5.5h1.7v-14.4h-1.6v1.5C774.3,580.8,774.2,580.6,774.1,580.5L774.1,580.5z M773.3,581.1c0.5,0.6,0.8,1.6,0.8,3.1
		s-0.3,2.5-0.8,3.2s-1.2,1-2.1,1c-0.4,0-0.8-0.1-1.2-0.3c-0.4-0.2-0.7-0.5-1-0.8c-0.3-0.4-0.5-0.8-0.7-1.3s-0.2-1.1-0.2-1.8
		s0.1-1.2,0.2-1.7c0.2-0.5,0.4-0.9,0.6-1.2c0.3-0.3,0.6-0.6,0.9-0.7c0.4-0.2,0.7-0.2,1.1-0.2C772.1,580.2,772.8,580.5,773.3,581.1z"
		/>
	<path class="st1" d="M778.6,585.1c0,0.9,0.1,1.6,0.3,2.2c0.2,0.6,0.4,1.1,0.8,1.5c0.3,0.4,0.7,0.7,1.2,0.9c0.4,0.2,0.9,0.3,1.5,0.3
		c0.7,0,1.3-0.2,1.9-0.5s1-0.8,1.4-1.4v0.8c0,0.2,0,0.3,0,0.4c0,0.1,0,0.2,0,0.4h1.7c-0.1-0.3-0.1-0.6-0.1-0.9v-9.6h-1.7v5.8
		c0,0.6-0.1,1.2-0.2,1.6c-0.2,0.4-0.4,0.8-0.6,1.1c-0.3,0.3-0.6,0.5-0.9,0.7s-0.7,0.2-1.1,0.3c-0.3,0-0.7-0.1-0.9-0.2
		c-0.3-0.1-0.5-0.3-0.8-0.6c-0.2-0.3-0.4-0.6-0.5-1.1s-0.2-1-0.2-1.7v-5.9h-1.7L778.6,585.1z"/>
	<path class="st1" d="M791.1,580.5h2.6v7.8H791v1.3h6.8v-1.3h-2.5v-9.2h-4.2L791.1,580.5L791.1,580.5z M793.3,575.8
		c0,0.3,0.1,0.6,0.3,0.8c0.2,0.2,0.5,0.3,0.8,0.3s0.6-0.1,0.8-0.3c0.2-0.2,0.4-0.5,0.4-0.8s-0.1-0.6-0.4-0.8
		c-0.2-0.2-0.5-0.4-0.8-0.4s-0.6,0.1-0.8,0.3C793.4,575.2,793.3,575.5,793.3,575.8L793.3,575.8z"/>
	<path class="st1" d="M802.4,589.8h1.7v-5.1c0-0.6,0.1-1.1,0.3-1.6s0.5-1,0.8-1.3c0.3-0.4,0.7-0.7,1.2-0.9c0.4-0.2,0.9-0.4,1.4-0.4
		c0.3,0,0.5,0,0.7,0.1s0.4,0.1,0.5,0.3c0.2,0.1,0.3,0.2,0.5,0.4c0.1,0.2,0.3,0.3,0.5,0.6l0.8-1.6c-0.7-0.8-1.7-1.2-2.8-1.2
		c-0.8,0-1.6,0.2-2.3,0.6s-1.2,1-1.5,1.7v-2h-1.7L802.4,589.8L802.4,589.8z"/>
	<path class="st1" d="M815.7,579.3c-0.6,0.2-1.1,0.6-1.5,1.1s-0.8,1-1,1.7c-0.3,0.7-0.4,1.5-0.4,2.4s0.1,1.7,0.4,2.3
		c0.2,0.7,0.6,1.3,1,1.7c0.4,0.5,1,0.8,1.6,1s1.3,0.4,2.1,0.4c1.6,0,2.8-0.5,3.7-1.6l-0.9-0.9c-0.7,0.8-1.6,1.2-2.7,1.2
		c-0.4,0-0.8-0.1-1.2-0.2c-0.4-0.1-0.8-0.3-1.1-0.7c-0.3-0.3-0.6-0.7-0.8-1.2c-0.2-0.5-0.3-1.1-0.4-1.9h7.5c0-0.1,0-0.2,0-0.4
		c0-0.1,0-0.3,0-0.4c0-0.9-0.1-1.6-0.4-2.2c-0.2-0.6-0.6-1.1-0.9-1.6c-0.4-0.4-0.8-0.7-1.4-0.9c-0.5-0.2-1.1-0.3-1.6-0.3
		C816.9,578.9,816.3,579.1,815.7,579.3z M815.5,581c0.6-0.5,1.2-0.8,2-0.8c0.4,0,0.7,0.1,1.1,0.2c0.3,0.2,0.6,0.4,0.9,0.6
		c0.2,0.2,0.4,0.5,0.6,0.9c0.1,0.3,0.2,0.7,0.2,1.1c0,0.1,0,0.1,0,0.2c0,0.1,0,0.1,0,0.2h-5.8C814.6,582.3,815,581.5,815.5,581z"/>
	<path class="st2" d="M828.6,587.3c-0.4,0-0.7,0.1-0.9,0.4c-0.3,0.3-0.4,0.6-0.4,0.9c0,0.4,0.1,0.7,0.4,0.9c0.3,0.3,0.6,0.4,1,0.4
		s0.7-0.1,1-0.4c0.3-0.3,0.4-0.6,0.4-0.9c0-0.4-0.1-0.7-0.4-0.9C829.3,587.4,829,587.3,828.6,587.3L828.6,587.3z"/>
	<path class="st3" d="M837.6,580.5h3.9v8.8c0,1.1-0.2,1.8-0.7,2.3c-0.4,0.5-1,0.7-1.7,0.7c-0.4,0-0.7-0.1-1.1-0.3
		c-0.3-0.2-0.6-0.3-0.7-0.4c-0.1-0.1-0.2-0.2-0.3-0.3c0-0.1-0.1-0.2-0.1-0.3s-0.1-0.2-0.1-0.2l-1.1,1.4c0.8,1,1.9,1.5,3.2,1.5
		c0.6,0,1.1-0.1,1.6-0.3s0.9-0.4,1.3-0.8c0.4-0.4,0.7-0.8,0.9-1.4c0.2-0.6,0.3-1.2,0.3-2v-10h-5.6v1.3H837.6z M841.1,575.8
		c0,0.3,0.1,0.6,0.4,0.8c0.2,0.2,0.5,0.3,0.8,0.3s0.6-0.1,0.8-0.3c0.2-0.2,0.4-0.5,0.4-0.8s-0.1-0.6-0.4-0.9
		c-0.2-0.2-0.5-0.3-0.8-0.3s-0.6,0.1-0.9,0.3C841.2,575.2,841.1,575.5,841.1,575.8L841.1,575.8z"/>
	<path class="st3" d="M852.2,578.9c-0.6,0-1.1,0.1-1.6,0.2c-0.5,0.2-0.9,0.4-1.3,0.6c-0.4,0.3-0.6,0.6-0.8,0.9
		c-0.2,0.3-0.3,0.7-0.3,1.1c0,0.3,0.1,0.7,0.2,0.9c0.1,0.3,0.3,0.5,0.5,0.8c0.2,0.2,0.4,0.4,0.7,0.6c0.2,0.2,0.6,0.4,1.2,0.6
		c0.2,0.1,0.7,0.2,1.3,0.4c1,0.3,1.7,0.6,2,0.9c0.4,0.3,0.6,0.6,0.6,1c0,0.3-0.1,0.5-0.2,0.7s-0.4,0.4-0.6,0.5
		c-0.3,0.1-0.5,0.3-0.9,0.3c-0.3,0.1-0.6,0.1-0.9,0.1s-0.6,0-0.9-0.1c-0.3,0-0.6-0.1-0.8-0.2c-0.5-0.2-0.9-0.4-1.1-0.6
		c-0.2-0.2-0.4-0.3-0.5-0.5c-0.1-0.1-0.1-0.3-0.2-0.4c0-0.1,0-0.2-0.1-0.2l-0.9,1.7c1.2,1.1,2.7,1.7,4.4,1.7c0.7,0,1.3-0.1,1.8-0.3
		s1-0.4,1.4-0.7s0.7-0.7,0.9-1.1c0.2-0.4,0.3-0.9,0.3-1.3c0-0.7-0.3-1.3-0.8-1.8s-1.5-0.9-2.8-1.3c-0.6-0.2-1.1-0.3-1.4-0.5
		c-0.4-0.1-0.6-0.3-0.8-0.4c-0.2-0.1-0.3-0.3-0.4-0.4c-0.1-0.1-0.1-0.3-0.1-0.5s0.1-0.5,0.2-0.7s0.3-0.3,0.5-0.5
		c0.2-0.1,0.4-0.2,0.7-0.3c0.3-0.1,0.6-0.1,0.8-0.1c0.6,0,1.2,0.1,1.7,0.4c0.5,0.3,0.9,0.6,1.2,1c0,0,0,0.1,0,0.2
		c0,0.1,0,0.2,0.1,0.2l1-1.4C855.1,579.5,853.8,578.9,852.2,578.9L852.2,578.9z"/>
	<path class="st1" d="M763,629.9c-0.8-0.4-1.6-0.7-2.4-0.7c-0.5,0-1.1,0.1-1.7,0.3s-1.2,0.6-1.8,1.1s-1.1,1.3-1.5,2.3
		s-0.6,2.3-0.6,3.8c0,1.1,0.1,2.1,0.4,3s0.6,1.6,1.1,2.3c0.5,0.6,1.1,1.1,1.7,1.5c0.7,0.3,1.5,0.5,2.3,0.5c1.4,0,2.8-0.5,4.2-1.5
		v-5.6h-4.1v1.4h2.6v3.4c-0.8,0.6-1.7,0.9-2.7,0.9c-0.6,0-1.1-0.1-1.6-0.4c-0.5-0.3-0.9-0.7-1.3-1.2s-0.6-1.2-0.8-1.9
		c-0.2-0.8-0.3-1.6-0.3-2.6c0-1.1,0.1-2,0.4-2.7c0.2-0.7,0.5-1.3,0.9-1.8c0.4-0.4,0.8-0.8,1.3-0.9c0.5-0.2,0.9-0.3,1.4-0.3
		c0.6,0,1.2,0.2,1.7,0.5s0.8,0.7,1.1,1.2c0.1,0.2,0.2,0.4,0.3,0.4l1.1-1.2C764.3,630.9,763.7,630.4,763,629.9z"/>
	<path class="st1" d="M767.9,643.8h1.7v-5.1c0-0.6,0.1-1.1,0.3-1.6c0.2-0.5,0.5-1,0.8-1.3c0.3-0.4,0.7-0.7,1.2-0.9
		c0.4-0.2,0.9-0.4,1.4-0.4c0.3,0,0.5,0,0.7,0.1s0.4,0.1,0.5,0.3c0.2,0.1,0.3,0.2,0.5,0.4c0.1,0.2,0.3,0.3,0.5,0.6l0.8-1.6
		c-0.7-0.8-1.7-1.2-2.8-1.2c-0.8,0-1.6,0.2-2.3,0.6c-0.7,0.4-1.2,1-1.5,1.7v-2H768L767.9,643.8L767.9,643.8z"/>
	<path class="st1" d="M778.6,639.1c0,0.9,0.1,1.6,0.3,2.2c0.2,0.6,0.4,1.1,0.8,1.5c0.3,0.4,0.7,0.7,1.2,0.9c0.4,0.2,0.9,0.3,1.5,0.3
		c0.7,0,1.3-0.2,1.9-0.5s1-0.8,1.4-1.4v0.8c0,0.2,0,0.3,0,0.4c0,0.1,0,0.2,0,0.4h1.7c-0.1-0.3-0.1-0.6-0.1-0.9v-9.6h-1.7v5.8
		c0,0.6-0.1,1.2-0.2,1.6c-0.2,0.4-0.4,0.8-0.6,1.1c-0.3,0.3-0.6,0.5-0.9,0.7s-0.7,0.2-1.1,0.3c-0.3,0-0.7-0.1-0.9-0.2
		c-0.3-0.1-0.5-0.3-0.8-0.6c-0.2-0.3-0.4-0.6-0.5-1.1s-0.2-1-0.2-1.7v-5.9h-1.7L778.6,639.1z"/>
	<path class="st1" d="M791.9,643.8v-6.1c0-0.5,0.1-1,0.3-1.4c0.2-0.4,0.4-0.7,0.7-1c0.3-0.3,0.6-0.5,1-0.7s0.7-0.2,1.1-0.2
		c0.5,0,1,0.2,1.4,0.7c0.4,0.4,0.6,1.2,0.6,2.3v6.3h1.7v-6.4c0-0.8-0.1-1.5-0.2-2c-0.2-0.6-0.4-1-0.7-1.4c-0.3-0.4-0.6-0.6-1-0.8
		s-0.8-0.2-1.3-0.2c-0.6,0-1.3,0.2-1.9,0.6c-0.6,0.4-1.1,0.9-1.5,1.5V633h-1.7v10.5h1.5V643.8z"/>
	<path class="st1" d="M804.3,633.2h-2.5v1.3h2.5c-0.1,1.1-0.2,2.1-0.2,3s0,1.6,0,2.1c0,1.5,0.2,2.6,0.7,3.3s1.3,1,2.4,1
		s2.2-0.4,3.3-1.2l-0.5-1.3c-0.9,0.6-1.6,1-2.4,1c-0.4,0-0.7-0.1-1-0.2c-0.2-0.2-0.4-0.4-0.6-0.7c-0.1-0.3-0.2-0.7-0.2-1.2
		s0-1.1,0-1.9c0-1.2,0.1-2.5,0.2-3.9h3.5v-1.3H806l0.3-2.5c0-0.1,0-0.1,0.1-0.3c0-0.1,0.1-0.2,0.1-0.4l-1.8,0.3L804.3,633.2z"/>
	<path class="st2" d="M817.1,641.4c-0.4,0-0.7,0.1-0.9,0.4c-0.3,0.3-0.4,0.6-0.4,0.9c0,0.4,0.1,0.7,0.4,0.9c0.3,0.3,0.6,0.4,1,0.4
		s0.7-0.1,1-0.4c0.3-0.3,0.4-0.6,0.4-0.9c0-0.4-0.1-0.7-0.4-0.9C817.8,641.5,817.5,641.4,817.1,641.4L817.1,641.4z"/>
	<path class="st3" d="M826.1,634.6h3.9v8.8c0,1.1-0.2,1.8-0.7,2.3c-0.4,0.5-1,0.7-1.7,0.7c-0.4,0-0.7-0.1-1.1-0.3
		c-0.3-0.2-0.6-0.3-0.7-0.4c-0.1-0.1-0.2-0.2-0.3-0.3c0-0.1-0.1-0.2-0.1-0.3s-0.1-0.2-0.1-0.2l-1.1,1.4c0.8,1,1.9,1.5,3.2,1.5
		c0.6,0,1.1-0.1,1.6-0.3s0.9-0.4,1.3-0.8c0.4-0.4,0.7-0.8,0.9-1.4c0.2-0.6,0.3-1.2,0.3-2v-10h-5.6v1.3H826.1z M829.6,629.9
		c0,0.3,0.1,0.6,0.4,0.8c0.2,0.2,0.5,0.3,0.8,0.3s0.6-0.1,0.8-0.3c0.2-0.2,0.4-0.5,0.4-0.8s-0.1-0.6-0.4-0.9
		c-0.2-0.2-0.5-0.3-0.8-0.3s-0.6,0.1-0.9,0.3C829.7,629.2,829.6,629.5,829.6,629.9L829.6,629.9z"/>
	<path class="st3" d="M840.7,633c-0.6,0-1.1,0.1-1.6,0.2c-0.5,0.2-0.9,0.4-1.3,0.6c-0.4,0.3-0.6,0.6-0.8,0.9
		c-0.2,0.3-0.3,0.7-0.3,1.1c0,0.3,0.1,0.7,0.2,0.9c0.1,0.3,0.3,0.5,0.5,0.8c0.2,0.2,0.4,0.4,0.7,0.6s0.6,0.4,1.2,0.6
		c0.2,0.1,0.7,0.2,1.3,0.4c1,0.3,1.7,0.6,2,0.9c0.4,0.3,0.6,0.6,0.6,1c0,0.3-0.1,0.5-0.2,0.7s-0.4,0.4-0.6,0.5
		c-0.3,0.1-0.5,0.3-0.9,0.3c-0.3,0.1-0.6,0.1-0.9,0.1s-0.6,0-0.9-0.1c-0.3,0-0.6-0.1-0.8-0.2c-0.5-0.2-0.9-0.4-1.1-0.6
		c-0.2-0.2-0.4-0.3-0.5-0.5c-0.1-0.1-0.1-0.3-0.2-0.4c0-0.1,0-0.2-0.1-0.2l-0.9,1.7c1.2,1.1,2.7,1.7,4.4,1.7c0.7,0,1.3-0.1,1.8-0.3
		s1-0.4,1.4-0.7s0.7-0.7,0.9-1.1c0.2-0.4,0.3-0.9,0.3-1.3c0-0.7-0.3-1.3-0.8-1.8s-1.5-0.9-2.8-1.3c-0.6-0.2-1.1-0.3-1.4-0.5
		c-0.4-0.1-0.6-0.3-0.8-0.4c-0.2-0.1-0.3-0.3-0.4-0.4c-0.1-0.1-0.1-0.3-0.1-0.5s0.1-0.5,0.2-0.7s0.3-0.3,0.5-0.5
		c0.2-0.1,0.4-0.2,0.7-0.3c0.3-0.1,0.6-0.1,0.8-0.1c0.6,0,1.2,0.1,1.7,0.4c0.5,0.3,0.9,0.6,1.2,1c0,0,0,0.1,0,0.2
		c0,0.1,0,0.2,0.1,0.2l1-1.4C843.6,633.5,842.3,633,840.7,633L840.7,633z"/>
	<path class="st0" d="M760.8,697.8h1.5v-10.7l2.9,5.7h0.6l3.1-5.8v10.8h1.5v-14.4h-1.2l-3.6,7l-3.5-7h-1.3V697.8z"/>
	<path class="st0" d="M775.4,687.5c-0.6,0.3-1.1,0.7-1.6,1.2s-0.8,1.1-1.1,1.8c-0.3,0.7-0.4,1.4-0.4,2.2s0.1,1.5,0.4,2.2
		s0.6,1.3,1.1,1.7c0.4,0.5,1,0.9,1.6,1.1c0.6,0.3,1.2,0.4,1.9,0.4c0.7,0,1.3-0.1,1.9-0.4c0.6-0.3,1.1-0.6,1.5-1.1s0.8-1.1,1-1.7
		c0.2-0.7,0.4-1.4,0.4-2.3c0-0.8-0.1-1.6-0.4-2.3s-0.6-1.3-1-1.7c-0.4-0.5-0.9-0.8-1.5-1.1s-1.2-0.4-1.8-0.4S776,687.2,775.4,687.5z
		 M780.1,694.3c-0.2,0.5-0.4,0.9-0.7,1.3c-0.3,0.3-0.6,0.6-1,0.8s-0.8,0.3-1.2,0.3c-0.4,0-0.8-0.1-1.2-0.3c-0.4-0.2-0.7-0.5-1-0.9
		s-0.5-0.8-0.7-1.3s-0.3-1.1-0.3-1.7c0-0.6,0.1-1.2,0.3-1.7c0.2-0.5,0.4-0.9,0.7-1.3c0.3-0.4,0.6-0.6,1-0.8s0.8-0.3,1.2-0.3
		c0.4,0,0.8,0.1,1.2,0.3c0.4,0.2,0.7,0.5,1,0.8c0.3,0.4,0.5,0.8,0.7,1.3s0.3,1.1,0.3,1.8C780.3,693.2,780.2,693.8,780.1,694.3z"/>
	<path class="st0" d="M786.1,697.8v-6.1c0-0.5,0.1-1,0.3-1.4c0.2-0.4,0.4-0.7,0.7-1c0.3-0.3,0.6-0.5,1-0.7s0.7-0.2,1.1-0.2
		c0.5,0,1,0.2,1.4,0.7c0.4,0.4,0.6,1.2,0.6,2.3v6.3h1.7v-6.4c0-0.8-0.1-1.5-0.2-2s-0.4-1-0.7-1.4c-0.3-0.4-0.6-0.6-1-0.8
		s-0.8-0.2-1.3-0.2c-0.6,0-1.3,0.2-1.9,0.6c-0.6,0.4-1.1,0.9-1.5,1.5v-1.7h-1.7v10.5H786.1z"/>
	<path class="st0" d="M799.6,688.3c0.3,0,0.6,0.1,0.9,0.2c0.3,0.1,0.5,0.3,0.7,0.5s0.4,0.5,0.5,0.7c0.1,0.3,0.2,0.6,0.2,0.9
		c0,0.3-0.1,0.6-0.2,0.9c-0.1,0.3-0.3,0.5-0.5,0.7s-0.5,0.4-0.7,0.5c-0.3,0.1-0.6,0.2-0.9,0.2s-0.6-0.1-0.9-0.2
		c-0.3-0.1-0.5-0.3-0.7-0.5s-0.4-0.5-0.5-0.7c-0.1-0.3-0.2-0.6-0.2-0.9c0-0.3,0.1-0.6,0.2-0.9c0.1-0.3,0.3-0.5,0.5-0.8
		C798.4,688.5,799,688.3,799.6,688.3L799.6,688.3z M799.7,686.9c-0.5,0-1,0.1-1.4,0.3c-0.5,0.2-0.9,0.5-1.2,0.8
		c-0.4,0.3-0.6,0.7-0.9,1.2c-0.2,0.5-0.3,0.9-0.3,1.5s0.1,1.1,0.4,1.6s0.7,0.9,1.2,1.2c-0.8,0.7-1.2,1.3-1.2,2s0.3,1.2,0.9,1.4
		c-1.2,0.7-1.7,1.5-1.7,2.3c0,0.3,0.1,0.7,0.3,1c0.2,0.3,0.5,0.6,0.8,0.8c0.4,0.2,0.9,0.4,1.5,0.5s1.3,0.2,2.2,0.2
		c0.8,0,1.5-0.1,2.1-0.3s1.1-0.4,1.5-0.7s0.7-0.6,0.9-1c0.2-0.4,0.3-0.8,0.3-1.2s-0.1-0.7-0.2-1c-0.2-0.3-0.4-0.6-0.7-0.8
		c-0.3-0.2-0.7-0.4-1.2-0.6c-0.5-0.1-1.1-0.2-1.8-0.2c-0.3,0-0.5,0-0.8,0s-0.6,0-0.9,0c-0.5,0-0.9-0.1-1.2-0.2
		c-0.3-0.1-0.4-0.3-0.4-0.6s0.2-0.7,0.7-1.2c0.5,0.2,0.9,0.3,1.3,0.3c0.5,0,1-0.1,1.5-0.3s0.9-0.5,1.2-0.8c0.3-0.3,0.6-0.7,0.8-1.2
		c0.2-0.4,0.3-0.9,0.3-1.4c0-0.6-0.2-1.2-0.5-1.8c0.5-0.3,1.1-0.5,1.8-0.5c0.1,0,0.2,0,0.3,0c0.1,0,0.2,0,0.3,0l-0.2-1.4h-0.3
		c-1,0-1.9,0.3-2.6,0.9C801.5,687.3,800.7,686.9,799.7,686.9L799.7,686.9z M799.3,697.3c0.5,0,1,0,1.6,0c0.1,0,0.2,0,0.2,0
		c0.1,0,0.2,0,0.2,0c0.7,0,1.2,0.1,1.5,0.3s0.5,0.6,0.5,1c0,0.6-0.3,1-0.9,1.4c-0.6,0.3-1.4,0.5-2.3,0.5c-0.4,0-0.9,0-1.3-0.1
		s-0.8-0.2-1.1-0.3c-0.3-0.1-0.5-0.3-0.7-0.5s-0.3-0.5-0.3-0.8c0-0.6,0.4-1.1,1.3-1.6C798.5,697.3,798.9,697.3,799.3,697.3z"/>
	<path class="st0" d="M809.9,687.5c-0.6,0.3-1.1,0.7-1.6,1.2s-0.8,1.1-1.1,1.8c-0.3,0.7-0.4,1.4-0.4,2.2s0.1,1.5,0.4,2.2
		s0.6,1.3,1.1,1.7c0.4,0.5,1,0.9,1.6,1.1c0.6,0.3,1.2,0.4,1.9,0.4c0.7,0,1.3-0.1,1.9-0.4c0.6-0.3,1.1-0.6,1.5-1.1s0.8-1.1,1-1.7
		c0.2-0.7,0.4-1.4,0.4-2.3c0-0.8-0.1-1.6-0.4-2.3s-0.6-1.3-1-1.7c-0.4-0.5-0.9-0.8-1.5-1.1s-1.2-0.4-1.8-0.4
		C811.1,687,810.5,687.2,809.9,687.5z M814.6,694.3c-0.2,0.5-0.4,0.9-0.7,1.3c-0.3,0.3-0.6,0.6-1,0.8s-0.8,0.3-1.2,0.3
		c-0.4,0-0.8-0.1-1.2-0.3c-0.4-0.2-0.7-0.5-1-0.9s-0.5-0.8-0.7-1.3s-0.3-1.1-0.3-1.7c0-0.6,0.1-1.2,0.3-1.7c0.2-0.5,0.4-0.9,0.7-1.3
		c0.3-0.4,0.6-0.6,1-0.8s0.8-0.3,1.2-0.3s0.8,0.1,1.2,0.3c0.4,0.2,0.7,0.5,1,0.8c0.3,0.4,0.5,0.8,0.7,1.3s0.3,1.1,0.3,1.8
		C814.8,693.2,814.8,693.8,814.6,694.3z"/>
	<path class="st0" d="M818.7,697.8h3.1c1.1,0,2.1-0.2,2.9-0.5s1.4-0.8,1.9-1.4c0.5-0.6,0.9-1.4,1.1-2.2s0.4-1.9,0.4-3
		s-0.1-2.1-0.3-3c-0.2-0.9-0.6-1.6-1.1-2.3c-0.5-0.6-1.1-1.1-1.7-1.4c-0.7-0.3-1.6-0.5-2.9-0.5h-3.3L818.7,697.8L818.7,697.8z
		 M821.9,684.8c1.6,0,2.7,0.5,3.4,1.6c0.7,1.1,1,2.5,1,4.4s-0.4,3.3-1.1,4.3c-0.8,1-1.9,1.5-3.6,1.5h-1.5v-11.8H821.9z"/>
	<path class="st0" d="M830,697.8h4c1.9,0,3.2-0.4,4.1-1.1c0.9-0.7,1.3-1.7,1.3-2.9c0-0.4-0.1-0.8-0.2-1.2s-0.3-0.7-0.6-1
		c-0.2-0.3-0.5-0.6-0.9-0.9c-0.3-0.3-0.7-0.4-1.1-0.6c0.7-0.2,1.2-0.7,1.6-1.3s0.6-1.2,0.6-1.9c0-0.5-0.1-1-0.3-1.4
		c-0.2-0.4-0.5-0.8-0.9-1.1s-0.9-0.6-1.5-0.7c-0.6-0.2-1.3-0.2-2.2-0.2h-4.1v14.3L830,697.8L830,697.8z M834.1,684.8
		c0.6,0,1,0.1,1.4,0.2c0.4,0.1,0.7,0.3,0.9,0.5c0.2,0.2,0.4,0.5,0.5,0.7c0.1,0.3,0.2,0.6,0.2,0.9c0,0.3-0.1,0.6-0.2,0.9
		c-0.1,0.3-0.3,0.5-0.6,0.7c-0.3,0.2-0.6,0.4-1,0.5s-0.9,0.2-1.6,0.2h-2.2v-4.6L834.1,684.8L834.1,684.8z M834,690.8
		c0.7,0,1.3,0.1,1.7,0.2c0.5,0.1,0.9,0.3,1.2,0.6c0.3,0.3,0.5,0.6,0.6,0.9c0.1,0.4,0.2,0.7,0.3,1.2c-0.1,0.8-0.3,1.4-0.8,2
		c-0.5,0.5-1.3,0.8-2.6,0.8h-2.8v-5.7H834z"/>
	<path class="st0" d="M768.5,742.8h3.9v8.8c0,1.1-0.2,1.8-0.7,2.3c-0.4,0.5-1,0.7-1.7,0.7c-0.4,0-0.7-0.1-1.1-0.3
		c-0.3-0.2-0.6-0.3-0.7-0.4c-0.1-0.1-0.2-0.2-0.3-0.3c0-0.1-0.1-0.2-0.1-0.3s-0.1-0.2-0.1-0.2l-1.1,1.4c0.8,1,1.9,1.5,3.2,1.5
		c0.6,0,1.1-0.1,1.6-0.3s0.9-0.4,1.3-0.8c0.4-0.4,0.7-0.8,0.9-1.4c0.2-0.6,0.3-1.2,0.3-2v-10h-5.6v1.3H768.5z M772.1,737.9
		c0,0.3,0.1,0.6,0.4,0.8c0.2,0.2,0.5,0.3,0.8,0.3s0.6-0.1,0.8-0.3c0.2-0.2,0.4-0.5,0.4-0.8s-0.1-0.6-0.4-0.9
		c-0.2-0.2-0.5-0.3-0.8-0.3s-0.6,0.1-0.9,0.3C772.2,737.3,772.1,737.6,772.1,737.9L772.1,737.9z"/>
	<path class="st0" d="M781.6,739.1c0.4-0.2,0.8-0.3,1.3-0.3c0.4,0,0.8,0.1,1.2,0.3c0.4,0.2,0.8,0.5,1.2,1c0.4,0.5,0.7,1.1,0.9,1.9
		c0.2,0.8,0.3,1.9,0.3,3.2c0,1-0.1,1.9-0.3,2.6c-0.2,0.7-0.5,1.3-0.8,1.7s-0.7,0.8-1.1,0.9c-0.4,0.2-0.8,0.3-1.2,0.3
		c-0.6,0-1.1-0.2-1.5-0.5c-0.5-0.3-0.9-0.7-1.2-1.3c-0.3-0.5-0.6-1.2-0.7-1.9c-0.2-0.8-0.2-1.6-0.2-2.5c0-2,0.4-3.5,1.2-4.4
		C780.9,739.8,781.2,739.4,781.6,739.1z M787.6,741.3c-0.3-0.9-0.6-1.7-1.1-2.3s-1.1-1-1.7-1.3s-1.2-0.4-1.9-0.4
		c-0.5,0-1.1,0.1-1.7,0.4c-0.6,0.2-1.2,0.6-1.7,1.2c-0.5,0.6-0.9,1.3-1.3,2.3c-0.3,1-0.5,2.1-0.5,3.6c0,1.2,0.1,2.2,0.4,3
		c0.3,0.9,0.6,1.6,1,2.2c0.4,0.6,0.9,1.1,1.4,1.4c0.5,0.3,1.1,0.5,1.7,0.6c0,0.6,0.1,1.1,0.2,1.5s0.4,0.7,0.7,1
		c0.3,0.3,0.7,0.5,1.2,0.5c0.5,0.1,1.1,0.1,1.9,0.1h0.9v-1.6c-0.1,0-0.2,0-0.4,0c-0.2,0-0.4,0-0.6,0s-0.4,0-0.6,0s-0.3,0-0.4,0
		c-0.6,0-1.1-0.2-1.3-0.5c-0.2-0.3-0.4-0.7-0.4-1.2c1.4-0.3,2.5-1.1,3.2-2.3s1.1-2.9,1.1-5C788,743.4,787.9,742.2,787.6,741.3z"/>
	<path class="st0" d="M790.1,747.2c0,0.9,0.1,1.6,0.3,2.2c0.2,0.6,0.4,1.1,0.8,1.5c0.3,0.4,0.7,0.7,1.2,0.9c0.4,0.2,0.9,0.3,1.5,0.3
		c0.7,0,1.3-0.2,1.9-0.5s1-0.8,1.4-1.4v0.8c0,0.2,0,0.3,0,0.4c0,0.1,0,0.2,0,0.4h1.7c-0.1-0.3-0.1-0.6-0.1-0.9v-9.6h-1.7v5.8
		c0,0.6-0.1,1.2-0.2,1.6c-0.2,0.4-0.4,0.8-0.6,1.1c-0.3,0.3-0.6,0.5-0.9,0.7s-0.7,0.2-1.1,0.3c-0.3,0-0.7-0.1-0.9-0.2
		c-0.3-0.1-0.5-0.3-0.8-0.6c-0.2-0.3-0.4-0.6-0.5-1.1s-0.2-1-0.2-1.7v-5.9h-1.7L790.1,747.2z"/>
	<path class="st0" d="M804.2,741.4c-0.6,0.2-1.1,0.6-1.5,1.1s-0.8,1-1,1.7c-0.3,0.7-0.4,1.5-0.4,2.4s0.1,1.7,0.4,2.3
		c0.2,0.7,0.6,1.3,1,1.7c0.4,0.5,1,0.8,1.6,1s1.3,0.4,2.1,0.4c1.6,0,2.8-0.5,3.7-1.6l-0.9-0.9c-0.7,0.8-1.6,1.2-2.7,1.2
		c-0.4,0-0.8-0.1-1.2-0.2c-0.4-0.1-0.8-0.3-1.1-0.7c-0.3-0.3-0.6-0.7-0.8-1.2c-0.2-0.5-0.3-1.1-0.4-1.9h7.5c0-0.1,0-0.2,0-0.4
		c0-0.1,0-0.3,0-0.4c0-0.9-0.1-1.6-0.4-2.2c-0.2-0.6-0.6-1.1-0.9-1.6c-0.4-0.4-0.8-0.7-1.4-0.9c-0.5-0.2-1.1-0.3-1.6-0.3
		C805.4,741.1,804.8,741.2,804.2,741.4z M804,743.1c0.6-0.5,1.2-0.8,2-0.8c0.4,0,0.7,0.1,1.1,0.2c0.3,0.2,0.6,0.4,0.9,0.6
		c0.2,0.2,0.4,0.5,0.6,0.9c0.1,0.3,0.2,0.7,0.2,1.1c0,0.1,0,0.1,0,0.2c0,0.1,0,0.1,0,0.2H803C803.1,744.4,803.5,743.6,804,743.1z"/>
	<path class="st0" d="M813.9,751.9h1.7v-5.1c0-0.6,0.1-1.1,0.3-1.6s0.5-1,0.8-1.3c0.3-0.4,0.7-0.7,1.2-0.9c0.4-0.2,0.9-0.4,1.4-0.4
		c0.3,0,0.5,0,0.7,0.1s0.4,0.1,0.5,0.3c0.2,0.1,0.3,0.2,0.5,0.4c0.1,0.2,0.3,0.3,0.5,0.6l0.8-1.6c-0.7-0.8-1.7-1.2-2.8-1.2
		c-0.8,0-1.6,0.2-2.3,0.6c-0.7,0.4-1.2,1-1.5,1.7v-2H814L813.9,751.9L813.9,751.9z"/>
	<path class="st0" d="M828.5,751.8l-0.3,0.8c-0.3,0.7-0.7,1.2-1,1.5s-0.7,0.4-1.2,0.4c-0.2,0-0.4,0-0.5-0.1
		c-0.2-0.1-0.3-0.1-0.4-0.2c-0.1-0.1-0.2-0.2-0.3-0.3c0,0,0-0.1-0.1-0.2c0-0.1-0.1-0.2-0.1-0.2l-0.9,1.5c0.6,0.6,1.4,0.9,2.4,0.9
		c0.8,0,1.4-0.2,2-0.6c0.6-0.4,1-1.1,1.4-2.2l0.4-1.2l2.9-7.5c0.2-0.6,0.4-1.2,0.6-1.7s0.3-1,0.4-1.4h-1.7c-0.1,0.4-0.2,0.8-0.3,1.3
		c-0.1,0.5-0.3,1-0.5,1.5l-2,5.6l-3.1-7.7v-0.1c0-0.1,0-0.2,0-0.2c0-0.1,0-0.2,0-0.3h-2l0.3,0.7l0,0L828.5,751.8z"/>
	<path class="st0" d="M784.3,805.9h1.7v-6.3h3.1c0.8,0,1.4-0.1,2-0.3c0.5-0.2,1-0.5,1.3-0.8c0.3-0.4,0.6-0.8,0.8-1.3
		c0.2-0.5,0.3-1,0.3-1.6s-0.1-1.1-0.3-1.6c-0.2-0.5-0.4-0.9-0.8-1.3c-0.4-0.4-0.8-0.7-1.4-0.9s-1.2-0.3-2-0.3h-4.6L784.3,805.9
		L784.3,805.9z M788.8,793.1c0.5,0,0.9,0.1,1.3,0.2c0.4,0.1,0.7,0.3,0.9,0.6c0.2,0.2,0.4,0.5,0.5,0.8s0.2,0.6,0.2,1
		c0,0.8-0.3,1.4-0.7,1.8c-0.4,0.5-1.2,0.7-2.2,0.7h-2.9v-5.1H788.8z"/>
	<path class="st0" d="M795.6,805.9h1.7V799h5.6v6.9h1.7v-13.8c0-0.1,0-0.2,0.1-0.2c0-0.1,0.1-0.1,0.1-0.2v-0.1H803v6.1h-5.6v-5.6
		c0-0.1,0-0.2,0.1-0.3c0-0.1,0.1-0.1,0.1-0.2v-0.1h-1.8V806L795.6,805.9L795.6,805.9z"/>
	<path class="st0" d="M807.3,805.9h1.7v-6.3h3.1c0.8,0,1.4-0.1,2-0.3c0.5-0.2,1-0.5,1.3-0.8c0.3-0.4,0.6-0.8,0.8-1.3
		c0.2-0.5,0.3-1,0.3-1.6s-0.1-1.1-0.3-1.6c-0.2-0.5-0.4-0.9-0.8-1.3c-0.4-0.4-0.8-0.7-1.4-0.9s-1.2-0.3-2-0.3h-4.6L807.3,805.9
		L807.3,805.9z M811.8,793.1c0.5,0,0.9,0.1,1.3,0.2c0.4,0.1,0.7,0.3,0.9,0.6c0.2,0.2,0.4,0.5,0.5,0.8s0.2,0.6,0.2,1
		c0,0.8-0.3,1.4-0.7,1.8c-0.4,0.5-1.2,0.7-2.2,0.7h-2.9v-5.1H811.8z"/>
	<path class="st0" d="M772.3,859.9h1.5v-10.7l2.9,5.7h0.6l3.1-5.8v10.8h1.5v-14.4h-1.2l-3.6,7l-3.5-7h-1.3V859.9z"/>
	<path class="st0" d="M788.2,859.9l-0.3,0.8c-0.3,0.7-0.7,1.2-1,1.5s-0.7,0.4-1.2,0.4c-0.2,0-0.4,0-0.5-0.1
		c-0.2-0.1-0.3-0.1-0.4-0.2c-0.1-0.1-0.2-0.2-0.3-0.3c0,0,0-0.1-0.1-0.2c0-0.1-0.1-0.2-0.1-0.2l-0.9,1.5c0.6,0.6,1.4,0.9,2.4,0.9
		c0.8,0,1.4-0.2,2-0.6c0.6-0.4,1-1.1,1.4-2.2l0.4-1.2l2.9-7.5c0.2-0.6,0.4-1.2,0.6-1.7s0.3-1,0.4-1.4h-1.7c-0.1,0.4-0.2,0.8-0.3,1.3
		c-0.1,0.5-0.3,1-0.5,1.5l-2,5.6l-3.1-7.7V850c0-0.1,0-0.2,0-0.2c0-0.1,0-0.2,0-0.3h-2l0.3,0.7l0,0L788.2,859.9z"/>
	<path class="st0" d="M802.6,846c-0.7-0.3-1.4-0.5-2.2-0.5c-0.6,0-1.2,0.1-1.7,0.3s-1,0.5-1.4,0.8s-0.7,0.7-0.9,1.2
		c-0.2,0.5-0.3,1-0.3,1.5c0,0.4,0.1,0.8,0.2,1.2s0.3,0.7,0.7,1c0.3,0.3,0.7,0.6,1.2,0.9c0.5,0.3,1.1,0.6,1.9,0.9
		c0.7,0.3,1.2,0.5,1.7,0.7c0.4,0.2,0.7,0.4,1,0.6c0.2,0.2,0.4,0.4,0.5,0.7c0.1,0.2,0.1,0.5,0.1,0.8c0,0.4-0.1,0.7-0.2,1
		c-0.2,0.3-0.4,0.6-0.6,0.9c-0.3,0.2-0.6,0.4-0.9,0.6c-0.4,0.1-0.8,0.2-1.2,0.2c-0.8,0-1.6-0.1-2.2-0.4c-0.6-0.3-1.1-0.7-1.4-1.1
		c0-0.1-0.1-0.1-0.1-0.3c0-0.1,0-0.2-0.1-0.2l-0.9,1.7c1.1,1.2,2.6,1.8,4.5,1.8c0.8,0,1.6-0.1,2.2-0.4c0.6-0.2,1.1-0.6,1.5-1
		s0.7-0.8,0.9-1.3c0.2-0.5,0.3-1,0.3-1.5c0-0.4-0.1-0.8-0.2-1.2s-0.3-0.7-0.6-1c-0.3-0.3-0.6-0.6-1.1-0.9c-0.5-0.3-1-0.6-1.7-0.9
		c-0.7-0.3-1.3-0.6-1.8-0.8s-0.8-0.5-1-0.7s-0.4-0.5-0.5-0.7s-0.2-0.5-0.2-0.9c0-0.6,0.2-1.1,0.7-1.5s1.1-0.6,1.8-0.6
		c0.7,0,1.4,0.1,1.9,0.4c0.5,0.3,0.9,0.6,1.2,1c0,0,0,0.1,0.1,0.2c0,0.1,0,0.2,0.1,0.2l1-1.4C803.9,846.8,803.3,846.3,802.6,846z"/>
	<path class="st0" d="M810.4,847.2c0.4-0.2,0.8-0.3,1.3-0.3c0.4,0,0.8,0.1,1.2,0.3c0.4,0.2,0.8,0.5,1.2,1c0.4,0.5,0.7,1.1,0.9,1.9
		c0.2,0.8,0.3,1.9,0.3,3.2c0,1-0.1,1.9-0.3,2.6c-0.2,0.7-0.5,1.3-0.8,1.7s-0.7,0.8-1.1,0.9c-0.4,0.2-0.8,0.3-1.2,0.3
		c-0.6,0-1.1-0.2-1.5-0.5c-0.5-0.3-0.9-0.7-1.2-1.3c-0.3-0.5-0.6-1.2-0.7-1.9c-0.2-0.8-0.2-1.6-0.2-2.5c0-2,0.4-3.5,1.2-4.4
		C809.6,847.8,810,847.5,810.4,847.2z M816.4,849.4c-0.3-0.9-0.6-1.7-1.1-2.3s-1.1-1-1.7-1.3s-1.2-0.4-1.9-0.4
		c-0.5,0-1.1,0.1-1.7,0.4c-0.6,0.2-1.2,0.6-1.7,1.2c-0.5,0.6-0.9,1.3-1.3,2.3c-0.3,1-0.5,2.1-0.5,3.6c0,1.2,0.1,2.2,0.4,3
		c0.3,0.9,0.6,1.6,1,2.2c0.4,0.6,0.9,1.1,1.4,1.4c0.5,0.3,1.1,0.5,1.7,0.6c0,0.6,0.1,1.1,0.2,1.5s0.4,0.7,0.7,1
		c0.3,0.3,0.7,0.5,1.2,0.5c0.5,0.1,1.1,0.1,1.9,0.1h0.9v-1.6c-0.1,0-0.2,0-0.4,0c-0.2,0-0.4,0-0.6,0s-0.4,0-0.6,0s-0.3,0-0.4,0
		c-0.6,0-1.1-0.2-1.3-0.5c-0.2-0.3-0.4-0.7-0.4-1.2c1.4-0.3,2.5-1.1,3.2-2.3s1.1-2.9,1.1-5C816.7,851.4,816.6,850.3,816.4,849.4z"/>
	<path class="st0" d="M818.9,859.9h8.6v-1.4h-6.9v-12.1c0-0.1,0-0.3,0.1-0.4c0.1-0.1,0.1-0.3,0.1-0.4h-1.9L818.9,859.9L818.9,859.9z
		"/>
</g>
<g class="st4">
	<path class="st5" d="M1091.2,115.2h3.7V88.3l7.3,14.3h1.5l7.8-14.5v27.2h3.9V79.2h-3l-9,17.7l-8.9-17.6h-3.2L1091.2,115.2
		L1091.2,115.2z"/>
	<path class="st5" d="M1138.3,80.2c-1.8-0.8-3.6-1.2-5.5-1.2c-1.5,0-2.9,0.2-4.3,0.7s-2.5,1.2-3.5,2c-0.9,0.8-1.8,1.9-2.3,3
		c-0.6,1.2-0.8,2.3-0.8,3.7c0,1.1,0.1,2,0.5,2.9s0.8,1.8,1.6,2.5c0.8,0.8,1.8,1.5,3,2.2c1.3,0.7,2.8,1.5,4.7,2.2
		c1.8,0.7,3.2,1.3,4.2,1.9c1.1,0.5,1.9,1.1,2.5,1.5c0.6,0.5,0.9,1.1,1.3,1.6c0.2,0.6,0.4,1.3,0.4,2c0,0.9-0.2,1.8-0.6,2.6
		c-0.4,0.8-0.9,1.5-1.5,2.1c-0.7,0.6-1.4,1.1-2.3,1.4s-1.9,0.6-2.9,0.6c-2.1,0-4-0.4-5.4-1.2c-1.5-0.7-2.7-1.6-3.6-2.8
		c-0.1-0.1-0.1-0.4-0.1-0.6s-0.1-0.5-0.2-0.6l-2.3,4.1c2.8,3,6.6,4.6,11.2,4.6c2.1,0,4-0.4,5.4-0.9c1.5-0.6,2.7-1.4,3.7-2.3
		c0.9-0.9,1.8-2.1,2.1-3.4c0.5-1.3,0.7-2.5,0.7-3.7s-0.1-2.1-0.5-3c-0.2-0.9-0.8-1.8-1.5-2.6c-0.7-0.8-1.6-1.5-2.8-2.2
		c-1.2-0.7-2.6-1.4-4.3-2.1c-1.9-0.7-3.4-1.4-4.4-2c-1.2-0.6-2-1.2-2.6-1.8c-0.6-0.6-1.1-1.2-1.3-1.8c-0.2-0.6-0.5-1.4-0.5-2.2
		c0-1.4,0.6-2.7,1.8-3.7c1.2-1.1,2.7-1.5,4.4-1.5c1.9,0,3.4,0.4,4.7,0.9c1.3,0.7,2.2,1.5,2.9,2.6c0.1,0.1,0.1,0.4,0.1,0.6
		s0.1,0.5,0.4,0.5l2.6-3.5C1141.5,82.1,1140.1,81,1138.3,80.2z"/>
	<path class="st5" d="M1178.7,115.2h4.1V99.3h7.7c2,0,3.6-0.2,5-0.8c1.4-0.5,2.5-1.2,3.4-2.1c0.8-0.9,1.5-2,2-3.2s0.7-2.5,0.8-3.9
		c-0.1-1.4-0.4-2.7-0.8-4c-0.5-1.3-1.2-2.3-2-3.3c-0.9-0.9-2.1-1.6-3.5-2.2c-1.4-0.5-3.2-0.8-5.2-0.8h-11.6L1178.7,115.2
		L1178.7,115.2z M1190.2,83c1.3,0,2.3,0.1,3.3,0.5c0.9,0.4,1.6,0.8,2.2,1.4s1.1,1.3,1.3,2.1c0.2,0.8,0.5,1.6,0.6,2.5
		c-0.1,1.9-0.7,3.4-1.9,4.6c-1.1,1.2-2.9,1.8-5.6,1.8h-7.3V83.1L1190.2,83L1190.2,83z"/>
	<path class="st5" d="M1211.5,94.6c1.9-2,4.2-3,7.1-3c2.3,0,4,0.5,5.2,1.5c1.1,1.1,1.6,2.9,1.6,5.5v0.9h-4.9
		c-4.3,0.1-7.6,1.1-9.9,2.6s-3.4,3.6-3.4,6.3c0,0.9,0.2,1.8,0.6,2.7c0.4,0.9,0.9,1.6,1.8,2.3c0.9,0.7,1.8,1.3,2.8,1.6
		c1.1,0.5,2.3,0.6,3.7,0.6c3.5,0,6.7-1.2,9.5-3.5v2.9h4V98.6c0-3.9-0.9-6.6-2.8-8.2s-4.4-2.5-7.6-2.5c-4,0-7,1.3-9.4,3.7
		L1211.5,94.6z M1225.5,104.6c0,1.3-0.2,2.3-0.6,3.2c-0.2,0.5-0.5,0.9-0.9,1.5c-0.5,0.6-0.9,1.1-1.6,1.6s-1.5,0.9-2.5,1.3
		c-0.9,0.4-2,0.6-3.2,0.6c-1.5,0-2.9-0.5-4-1.3c-1.1-0.9-1.6-2-1.6-3.2c0-0.7,0.1-1.4,0.5-2.1c0.2-0.6,0.8-1.2,1.6-1.8
		c0.8-0.5,1.9-0.9,3.2-1.2c1.4-0.2,3-0.5,5.2-0.5c0.5,0,0.9,0,1.4,0s0.9,0,1.5,0h0.9L1225.5,104.6L1225.5,104.6L1225.5,104.6z"/>
	<path class="st5" d="M1239.2,92.1h6.4v19.7h-6.8v3.4h17.1v-3.4h-6.1V88.7h-10.5L1239.2,92.1L1239.2,92.1z M1244.7,80.3
		c0,0.8,0.2,1.5,0.8,2.1s1.3,0.8,2.1,0.8c0.8,0,1.5-0.2,2.1-0.8c0.6-0.6,0.9-1.3,0.9-2.1s-0.4-1.5-0.9-2.1c-0.6-0.6-1.3-0.9-2.1-0.9
		c-0.8,0-1.5,0.2-2.1,0.8C1245.1,78.8,1244.7,79.5,1244.7,80.3L1244.7,80.3z"/>
	<path class="st5" d="M1270,115.2V100c0-1.3,0.2-2.5,0.7-3.4c0.5-1.1,1.1-1.9,1.9-2.6c0.7-0.7,1.6-1.3,2.6-1.6
		c0.9-0.4,1.9-0.6,2.7-0.6c1.4,0,2.5,0.6,3.4,1.6c0.9,1.2,1.4,3,1.4,5.9v15.9h4.1v-16c0-2-0.2-3.7-0.6-5c-0.4-1.4-0.9-2.6-1.8-3.4
		c-0.7-0.9-1.6-1.5-2.6-2c-1.1-0.4-2.1-0.6-3.3-0.6c-1.6,0-3.3,0.5-4.8,1.4s-2.8,2.2-3.9,3.9v-4.7h-4v26.3L1270,115.2L1270,115.2z"
		/>
	<path class="st5" d="M1301.1,88.9h-6.3v3.4h6.2c-0.2,2.8-0.4,5.4-0.5,7.5s-0.1,4-0.1,5.3c-0.1,3.7,0.5,6.6,1.8,8.2s3.3,2.5,6.1,2.5
		c2.8,0,5.5-0.9,8.2-2.9l-1.3-3.3c-2.1,1.6-4.1,2.5-6,2.5c-1.1,0-1.9-0.2-2.5-0.6s-1.1-0.9-1.4-1.8c-0.4-0.7-0.6-1.8-0.6-3
		c-0.1-1.3-0.1-2.8-0.1-4.7c0-3,0.1-6.2,0.5-9.7h8.7v-3.4h-8.7l0.7-6.4c0-0.1,0.1-0.4,0.2-0.6s0.1-0.6,0.1-0.9l-4.4,0.7L1301.1,88.9
		z"/>
	<path class="st5" d="M1047.9,250.7h3.7v-26.9l7.3,14.3h1.5l7.8-14.5v27.2h3.9v-36h-3l-9,17.7l-8.9-17.6h-3.2v35.9L1047.9,250.7
		L1047.9,250.7L1047.9,250.7z"/>
	<path class="st5" d="M1081.7,230.1c1.9-2,4.2-3,7.1-3c2.3,0,4,0.5,5.2,1.5c1.1,1.1,1.6,2.9,1.6,5.5v0.9h-4.9
		c-4.3,0.1-7.6,1.1-9.9,2.6s-3.4,3.6-3.4,6.3c0,0.9,0.2,1.8,0.6,2.7s0.9,1.6,1.8,2.3s1.8,1.3,2.8,1.6c1.1,0.5,2.3,0.6,3.7,0.6
		c3.5,0,6.7-1.2,9.5-3.5v2.9h4v-16.4c0-3.9-0.9-6.6-2.8-8.2c-1.9-1.6-4.4-2.5-7.6-2.5c-4,0-7,1.3-9.4,3.7L1081.7,230.1z
		 M1095.6,240.1c0,1.3-0.2,2.3-0.6,3.2c-0.2,0.5-0.5,0.9-0.9,1.5c-0.5,0.6-0.9,1.1-1.6,1.6s-1.5,0.9-2.5,1.3c-0.9,0.4-2,0.6-3.2,0.6
		c-1.5,0-2.9-0.5-4-1.3c-1.1-0.9-1.6-2-1.6-3.2c0-0.7,0.1-1.4,0.5-2.1c0.2-0.6,0.8-1.2,1.6-1.8c0.8-0.5,1.9-0.9,3.2-1.2
		c1.4-0.2,3-0.5,5.2-0.5c0.5,0,0.9,0,1.4,0s0.9,0,1.5,0h0.9L1095.6,240.1L1095.6,240.1L1095.6,240.1z"/>
	<path class="st5" d="M1109,250.9h4.1V238c0-1.4,0.2-2.7,0.7-4s1.2-2.3,2-3.4c0.8-0.9,1.8-1.8,2.9-2.3c1.2-0.6,2.3-0.9,3.6-0.9
		c0.7,0,1.3,0.1,1.8,0.2c0.5,0.1,0.9,0.4,1.3,0.6c0.4,0.2,0.8,0.6,1.2,0.9c0.4,0.4,0.7,0.8,1.2,1.4l1.9-4c-1.9-1.9-4.2-2.9-7-2.9
		c-2,0-3.9,0.5-5.6,1.5c-1.8,0.9-3,2.3-3.9,4.2l0.1-5h-4.2L1109,250.9L1109,250.9z"/>
	<path class="st5" d="M1138.2,227.7h6.4v19.7h-6.8v3.4h17.1v-3.4h-6.1v-23.1h-10.5L1138.2,227.7L1138.2,227.7z M1143.8,215.9
		c0,0.8,0.2,1.5,0.8,2.1s1.3,0.8,2.1,0.8s1.5-0.2,2.1-0.8s0.9-1.3,0.9-2.1s-0.4-1.5-0.9-2.1c-0.6-0.6-1.3-0.9-2.1-0.9
		s-1.5,0.2-2.1,0.8C1144.1,214.3,1143.8,215,1143.8,215.9L1143.8,215.9z"/>
	<path class="st5" d="M1170.9,224.9c-1.5,0.7-2.8,1.6-4,2.9c-1.2,1.2-2,2.7-2.7,4.4s-1.1,3.6-1.1,5.5c0,2,0.4,3.7,0.9,5.5
		c0.7,1.6,1.5,3.2,2.7,4.3c1.2,1.2,2.5,2.1,3.9,2.8c1.5,0.7,3,1.1,4.8,1.1c1.6,0,3.2-0.4,4.7-0.9c1.4-0.6,2.7-1.5,3.9-2.8
		c1.1-1.2,1.9-2.7,2.6-4.3c0.6-1.6,0.9-3.6,0.9-5.7c0-2.1-0.4-4-0.9-5.7c-0.6-1.8-1.5-3.2-2.6-4.3s-2.3-2.1-3.7-2.7
		s-2.9-0.9-4.6-0.9C1173.9,223.8,1172.4,224.2,1170.9,224.9z M1182.7,242.1c-0.4,1.3-0.9,2.3-1.6,3.2c-0.7,0.8-1.5,1.5-2.5,2
		c-0.9,0.5-2,0.7-3,0.7c-1.1,0-2.1-0.2-3-0.7s-1.8-1.2-2.5-2.1c-0.7-0.9-1.3-2-1.8-3.3s-0.6-2.7-0.6-4.2s0.2-3,0.6-4.2
		c0.5-1.3,0.9-2.3,1.8-3.2c0.7-0.9,1.5-1.5,2.5-2c0.9-0.5,2-0.7,2.9-0.7c1.1,0,2,0.2,2.9,0.7s1.8,1.2,2.5,2c0.7,0.9,1.3,2,1.8,3.3
		s0.7,2.8,0.7,4.4C1183.3,239.4,1183.2,240.8,1182.7,242.1z"/>
	<path class="st5" d="M1222,250.7h4.1v-15.9h7.7c2,0,3.6-0.2,5-0.8c1.4-0.5,2.5-1.2,3.4-2.1c0.8-0.9,1.5-2,2-3.2s0.7-2.5,0.8-3.9
		c-0.1-1.4-0.4-2.7-0.8-4s-1.2-2.3-2-3.3c-0.9-0.9-2.1-1.6-3.5-2.2c-1.4-0.5-3.2-0.8-5.2-0.8h-11.6L1222,250.7L1222,250.7z
		 M1233.5,218.7c1.3,0,2.3,0.1,3.3,0.5s1.6,0.8,2.2,1.4c0.6,0.6,1.1,1.3,1.3,2.1c0.2,0.8,0.5,1.6,0.6,2.5c-0.1,1.9-0.7,3.4-1.9,4.6
		c-1.1,1.2-2.9,1.8-5.6,1.8h-7.3V219h7.4V218.7z"/>
	<path class="st5" d="M1254.8,230.1c1.9-2,4.2-3,7.1-3c2.3,0,4,0.5,5.2,1.5c1.1,1.1,1.6,2.9,1.6,5.5v0.9h-4.9
		c-4.3,0.1-7.6,1.1-9.9,2.6s-3.4,3.6-3.4,6.3c0,0.9,0.2,1.8,0.6,2.7s0.9,1.6,1.8,2.3s1.8,1.3,2.8,1.6c1.1,0.5,2.3,0.6,3.7,0.6
		c3.5,0,6.7-1.2,9.5-3.5v2.9h4v-16.4c0-3.9-0.9-6.6-2.8-8.2c-1.9-1.6-4.4-2.5-7.6-2.5c-4,0-7,1.3-9.4,3.7L1254.8,230.1z
		 M1268.7,240.1c0,1.3-0.2,2.3-0.6,3.2c-0.2,0.5-0.5,0.9-0.9,1.5c-0.5,0.6-0.9,1.1-1.6,1.6s-1.5,0.9-2.5,1.3c-0.9,0.4-2,0.6-3.2,0.6
		c-1.5,0-2.9-0.5-4-1.3c-1.1-0.9-1.6-2-1.6-3.2c0-0.7,0.1-1.4,0.5-2.1c0.2-0.6,0.8-1.2,1.6-1.8c0.8-0.5,1.9-0.9,3.2-1.2
		c1.3-0.2,3-0.5,5.2-0.5c0.5,0,0.9,0,1.4,0s0.9,0,1.5,0h0.9L1268.7,240.1L1268.7,240.1L1268.7,240.1z"/>
	<path class="st5" d="M1282.4,227.7h6.4v19.7h-6.8v3.4h17.1v-3.4h-6.2v-23.1h-10.5V227.7z M1288,215.9c0,0.8,0.2,1.5,0.8,2.1
		s1.3,0.8,2.1,0.8c0.8,0,1.5-0.2,2.1-0.8s0.9-1.3,0.9-2.1s-0.4-1.5-0.9-2.1c-0.6-0.6-1.3-0.9-2.1-0.9c-0.8,0-1.5,0.2-2.1,0.8
		C1288.4,214.3,1288,215,1288,215.9L1288,215.9z"/>
	<path class="st5" d="M1313.3,250.7v-15.2c0-1.3,0.2-2.5,0.7-3.4c0.5-1.1,1.1-1.9,1.9-2.6c0.7-0.7,1.6-1.3,2.6-1.6
		c0.9-0.4,1.9-0.6,2.7-0.6c1.4,0,2.5,0.6,3.4,1.6c0.9,1.2,1.4,3,1.4,5.9v15.9h4.1v-15.9c0-2-0.2-3.7-0.6-5c-0.4-1.4-0.9-2.6-1.8-3.4
		c-0.7-0.9-1.6-1.5-2.6-2c-1.1-0.4-2.1-0.6-3.3-0.6c-1.6,0-3.3,0.5-4.8,1.4s-2.8,2.2-3.9,3.9v-4.7h-4.1v26.3L1313.3,250.7
		L1313.3,250.7z"/>
	<path class="st5" d="M1344.5,224.4h-6.3v3.4h6.2c-0.2,2.8-0.4,5.4-0.5,7.5s-0.1,4-0.1,5.3c-0.1,3.7,0.5,6.6,1.8,8.2
		c1.3,1.6,3.3,2.5,6.1,2.5c2.8,0,5.5-0.9,8.2-2.9l-1.3-3.3c-2.1,1.6-4.1,2.5-6,2.5c-1.1,0-1.9-0.2-2.5-0.6s-1.1-0.9-1.4-1.8
		c-0.4-0.7-0.6-1.8-0.6-3c-0.1-1.3-0.1-2.8-0.1-4.7c0-3,0.1-6.2,0.5-9.7h8.7v-3.4h-8.7l0.7-6.2c0-0.1,0.1-0.4,0.2-0.6
		s0.1-0.6,0.1-0.9l-4.4,0.7L1344.5,224.4z"/>
	<path class="st5" d="M1077.8,386.3h4.1v-15.9h7.7c2,0,3.6-0.2,5-0.8c1.4-0.5,2.5-1.2,3.4-2.1c0.8-0.9,1.5-2,2-3.2s0.7-2.5,0.8-3.9
		c-0.1-1.4-0.4-2.7-0.8-4c-0.5-1.3-1.2-2.3-2-3.3c-0.9-0.9-2.1-1.6-3.5-2.2c-1.4-0.5-3.2-0.8-5.2-0.8h-11.5V386.3L1077.8,386.3z
		 M1089.2,354.2c1.3,0,2.3,0.1,3.3,0.5c0.9,0.4,1.6,0.8,2.2,1.4s1.1,1.3,1.3,2.1c0.2,0.8,0.5,1.6,0.6,2.5c-0.1,1.9-0.7,3.4-1.9,4.6
		c-1.1,1.2-2.9,1.8-5.6,1.8h-7.3v-12.8h7.4V354.2z"/>
	<path class="st5" d="M1111.4,386.3v-15.2c0-1.3,0.2-2.5,0.7-3.5c0.5-1.1,1.1-1.9,1.9-2.6s1.6-1.3,2.6-1.6s1.8-0.6,2.7-0.6
		c1.4,0,2.5,0.6,3.4,1.6c0.9,1.2,1.4,3,1.4,5.9v15.9h4.1v-16c0-2-0.2-3.7-0.6-5c-0.4-1.4-0.9-2.6-1.6-3.4c-0.7-0.9-1.6-1.5-2.6-2
		c-0.9-0.4-2.1-0.6-3.3-0.6c-1.6,0-3.2,0.5-4.8,1.4c-1.5,0.9-2.8,2.2-3.9,3.9v-15.3c0.1-0.4,0.2-0.6,0.4-0.8
		c0.1-0.2,0.2-0.4,0.2-0.5l0,0l0,0h-4.7v38.4L1111.4,386.3L1111.4,386.3L1111.4,386.3z"/>
	<path class="st5" d="M1142.1,360.4c-1.5,0.7-2.8,1.6-4,2.9c-1.2,1.2-2,2.7-2.7,4.4c-0.7,1.8-1.1,3.6-1.1,5.5c0,2,0.4,3.7,0.9,5.5
		c0.7,1.6,1.5,3.2,2.7,4.3c1.2,1.2,2.5,2.1,3.9,2.8c1.5,0.7,3,1.1,4.8,1.1c1.6,0,3.2-0.4,4.7-0.9c1.4-0.6,2.7-1.5,3.9-2.8
		c1.1-1.2,1.9-2.7,2.6-4.3c0.6-1.6,0.9-3.6,0.9-5.7s-0.4-4-0.9-5.7c-0.6-1.8-1.5-3.2-2.6-4.3s-2.3-2.1-3.7-2.7
		c-1.4-0.6-2.9-0.9-4.6-0.9C1145.2,359.5,1143.6,359.7,1142.1,360.4z M1153.9,377.6c-0.4,1.3-0.9,2.3-1.6,3.2
		c-0.7,0.8-1.5,1.5-2.5,2c-0.9,0.5-2,0.7-3,0.7c-1.1,0-2.1-0.2-3-0.7s-1.8-1.2-2.5-2.1s-1.3-2-1.8-3.3s-0.6-2.7-0.6-4.2
		s0.2-3,0.6-4.2c0.5-1.3,0.9-2.3,1.8-3.2c0.7-0.9,1.5-1.5,2.5-2c0.9-0.5,2-0.7,2.9-0.7c1.1,0,2,0.2,2.9,0.7s1.8,1.2,2.5,2
		c0.7,0.9,1.3,2,1.8,3.3s0.7,2.8,0.7,4.4C1154.5,374.9,1154.3,376.3,1153.9,377.6z"/>
	<path class="st5" d="M1171.3,359.9h-6.3v3.4h6.2c-0.2,2.8-0.4,5.4-0.5,7.5s-0.1,4-0.1,5.3c-0.1,3.7,0.5,6.6,1.8,8.2
		s3.3,2.5,6.1,2.5c2.8,0,5.5-0.9,8.2-2.9l-1.3-3.3c-2.1,1.6-4.1,2.5-6,2.5c-1.1,0-1.9-0.2-2.5-0.6s-1.1-0.9-1.4-1.8
		c-0.4-0.7-0.6-1.8-0.6-3c-0.1-1.3-0.1-2.8-0.1-4.7c0-3,0.1-6.2,0.5-9.7h8.7v-3.4h-8.7l0.7-6.2c0-0.1,0.1-0.4,0.2-0.6
		s0.1-0.6,0.1-0.9l-4.4,0.7L1171.3,359.9z"/>
	<path class="st5" d="M1199.8,360.4c-1.5,0.7-2.8,1.6-4,2.9c-1.2,1.2-2,2.7-2.7,4.4c-0.7,1.8-1.1,3.6-1.1,5.5c0,2,0.4,3.7,0.9,5.5
		c0.7,1.6,1.5,3.2,2.7,4.3c1.2,1.2,2.5,2.1,3.9,2.8c1.5,0.7,3,1.1,4.8,1.1c1.6,0,3.2-0.4,4.7-0.9c1.4-0.6,2.7-1.5,3.9-2.8
		c1.1-1.2,1.9-2.7,2.6-4.3c0.6-1.6,0.9-3.6,0.9-5.7s-0.4-4-0.9-5.7c-0.6-1.8-1.5-3.2-2.6-4.3c-1.1-1.2-2.3-2.1-3.7-2.7
		s-2.9-0.9-4.6-0.9C1202.8,359.4,1201.3,359.7,1199.8,360.4z M1211.6,377.6c-0.4,1.3-0.9,2.3-1.6,3.2s-1.5,1.5-2.5,2
		c-0.9,0.5-2,0.7-3,0.7c-1.1,0-2.1-0.2-3-0.7s-1.8-1.2-2.5-2.1s-1.3-2-1.8-3.3s-0.6-2.7-0.6-4.2s0.2-3,0.6-4.2
		c0.5-1.3,0.9-2.3,1.8-3.2c0.7-0.9,1.5-1.5,2.5-2c0.9-0.5,2-0.7,2.9-0.7c1.1,0,2,0.2,2.9,0.7s1.8,1.2,2.5,2c0.7,0.9,1.3,2,1.8,3.3
		s0.7,2.8,0.7,4.4C1212.2,374.9,1212,376.3,1211.6,377.6z"/>
	<path class="st5" d="M1233.7,359.4c-1.4,0-2.8,0.2-4.1,0.6c-1.3,0.4-2.3,0.9-3.3,1.6c-0.9,0.7-1.6,1.4-2.1,2.2
		c-0.5,0.8-0.7,1.8-0.7,2.7c0,0.8,0.1,1.6,0.5,2.3c0.4,0.7,0.7,1.4,1.2,1.9c0.5,0.6,1.1,1.1,1.6,1.4c0.6,0.4,1.6,0.9,3,1.4
		c0.6,0.2,1.6,0.6,3.4,1.1c2.5,0.7,4.2,1.4,5.2,2.1c0.9,0.7,1.4,1.5,1.4,2.6c0,0.7-0.2,1.3-0.6,1.8s-0.9,0.9-1.5,1.3
		s-1.4,0.7-2.1,0.8c-0.8,0.2-1.5,0.2-2.3,0.2c-0.7,0-1.5-0.1-2.2-0.2s-1.4-0.4-2-0.6c-1.3-0.6-2.2-1.1-2.8-1.5
		c-0.6-0.5-1.1-0.8-1.3-1.2c-0.2-0.4-0.4-0.7-0.4-0.9c0-0.2-0.1-0.5-0.2-0.6l-2.3,4.1c3,2.8,6.7,4.1,11.1,4.1c1.6,0,3.2-0.2,4.6-0.7
		s2.5-1.1,3.5-1.9c0.9-0.8,1.6-1.6,2.2-2.7c0.5-1.1,0.7-2.1,0.7-3.3c0-1.8-0.7-3.3-2.1-4.4c-1.4-1.2-3.7-2.2-7-3.2
		c-1.5-0.5-2.7-0.8-3.6-1.2c-0.9-0.4-1.6-0.7-2.1-1.1s-0.8-0.7-1.1-1.1c-0.2-0.4-0.4-0.8-0.4-1.3c0-0.6,0.1-1.2,0.5-1.6
		c0.4-0.5,0.7-0.8,1.3-1.2c0.5-0.4,1.2-0.6,1.8-0.7c0.7-0.1,1.4-0.2,2.1-0.2c1.6,0,3,0.4,4.3,1.2c1.3,0.7,2.2,1.5,2.9,2.5
		c0.1,0.1,0.1,0.4,0.1,0.6s0.1,0.5,0.2,0.5l2.5-3.6C1241.1,360.6,1237.8,359.4,1233.7,359.4L1233.7,359.4z"/>
	<path class="st5" d="M1255.7,386.3v-15.2c0-1.3,0.2-2.5,0.7-3.5c0.5-1.1,1.1-1.9,1.9-2.6s1.6-1.3,2.6-1.6s1.8-0.6,2.7-0.6
		c1.4,0,2.5,0.6,3.4,1.6c0.9,1.2,1.4,3,1.4,5.9v15.9h4.1v-16c0-2-0.2-3.7-0.6-5c-0.4-1.4-0.9-2.6-1.6-3.4c-0.7-0.9-1.6-1.5-2.6-2
		c-0.9-0.4-2.1-0.6-3.3-0.6c-1.6,0-3.2,0.5-4.8,1.4c-1.5,0.9-2.8,2.2-3.9,3.9v-15.3c0.1-0.4,0.2-0.6,0.4-0.8
		c0.1-0.2,0.2-0.4,0.2-0.5l0,0l0,0h-4.7v38.4L1255.7,386.3L1255.7,386.3L1255.7,386.3z"/>
	<path class="st5" d="M1286.3,360.4c-1.5,0.7-2.8,1.6-4,2.9c-1.2,1.2-2,2.7-2.7,4.4c-0.7,1.8-1.1,3.6-1.1,5.5c0,2,0.4,3.7,0.9,5.5
		c0.7,1.6,1.5,3.2,2.7,4.3c1.2,1.2,2.5,2.1,3.9,2.8c1.5,0.7,3,1.1,4.8,1.1c1.6,0,3.2-0.4,4.7-0.9c1.4-0.6,2.7-1.5,3.9-2.8
		c1.1-1.2,1.9-2.7,2.6-4.3c0.6-1.6,0.9-3.6,0.9-5.7s-0.4-4-0.9-5.7c-0.6-1.8-1.5-3.2-2.6-4.3c-1.1-1.2-2.3-2.1-3.7-2.7
		s-2.9-0.9-4.6-0.9C1289.3,359.4,1287.8,359.7,1286.3,360.4z M1298.1,377.6c-0.4,1.3-0.9,2.3-1.6,3.2c-0.7,0.8-1.5,1.5-2.5,2
		c-0.9,0.5-2,0.7-3,0.7c-1.1,0-2.1-0.2-3-0.7s-1.8-1.2-2.5-2.1s-1.3-2-1.8-3.3s-0.6-2.7-0.6-4.2s0.2-3,0.6-4.2
		c0.5-1.3,0.9-2.3,1.8-3.2c0.7-0.9,1.5-1.5,2.5-2c0.9-0.5,2-0.7,2.9-0.7c1.1,0,2,0.2,2.9,0.7s1.8,1.2,2.5,2c0.7,0.9,1.3,2,1.8,3.3
		s0.7,2.8,0.7,4.4C1298.7,374.9,1298.6,376.3,1298.1,377.6z"/>
	<path class="st5" d="M1308.6,396h4.1v-13.1c0.9,1.3,2,2.3,3.4,3s2.9,1.1,4.6,1.1c1.4,0,2.8-0.4,4.1-0.9c1.3-0.6,2.6-1.5,3.6-2.7
		c1.1-1.2,1.9-2.7,2.6-4.4c0.6-1.8,0.9-3.9,0.9-6.1c0-2.3-0.4-4.3-0.9-6c-0.6-1.6-1.4-3-2.5-4.2s-2.2-2-3.5-2.5
		c-1.3-0.6-2.7-0.8-4.2-0.8s-3,0.5-4.4,1.3c-1.5,0.8-2.7,2-3.6,3.4V360h-4.1L1308.6,396L1308.6,396z M1312.7,371.3
		c0-1.6,0.2-2.9,0.6-4.1c0.4-1.1,0.9-2,1.5-2.6c0.6-0.7,1.4-1.1,2.2-1.4c0.8-0.2,1.6-0.4,2.3-0.4c2.6,0.1,4.6,1.1,6,2.9
		c1.4,1.9,2.1,4.4,2.1,7.8c0,1.9-0.2,3.4-0.7,4.6s-1.2,2.2-2,2.9c-0.8,0.7-1.8,1.3-2.7,1.5c-0.9,0.4-2,0.5-2.9,0.5
		c-1.9,0-3.4-0.6-4.6-1.9c-1.3-1.2-1.9-3.3-2-6.1v-3.9h0.2V371.3z"/>
	<path class="st5" d="M1050.5,489.3h6.7v29.2h-7.1v3.4h18.7v-3.3h-7.5v-29.4h7.1v-3.4h-17.9L1050.5,489.3L1050.5,489.3z"/>
	<path class="st5" d="M1079.2,486.8h7.5v31.7h-7.8v3.4h19.7v-3.4h-7.8v-35h-11.6L1079.2,486.8L1079.2,486.8z"/>
	<path class="st5" d="M1108.1,486.8h7.5v31.7h-7.8v3.4h19.7v-3.4h-7.7v-35h-11.6L1108.1,486.8L1108.1,486.8z"/>
	<path class="st5" d="M1135.6,510.2c0,2.1,0.2,4,0.7,5.5s1.1,2.8,2,3.9c0.8,1.1,1.9,1.8,2.9,2.2c1.1,0.5,2.3,0.7,3.6,0.7
		c1.8,0,3.3-0.5,4.8-1.3c1.4-0.8,2.6-2,3.4-3.4v2c0,0.5,0,0.8,0,1.2s0.1,0.6,0.1,0.9h4.3c-0.2-0.7-0.2-1.5-0.2-2.3v-24h-4.1v14.5
		c0,1.5-0.2,2.9-0.6,4.1c-0.4,1.2-0.9,2-1.6,2.7s-1.4,1.3-2.3,1.6c-0.8,0.4-1.8,0.6-2.7,0.7c-0.8,0-1.6-0.1-2.3-0.5
		c-0.7-0.4-1.4-0.8-1.9-1.5c-0.6-0.7-1.1-1.6-1.3-2.7c-0.4-1.2-0.5-2.6-0.5-4.2v-14.7h-4.1L1135.6,510.2z"/>
	<path class="st5" d="M1176,494.9c-1.4,0-2.8,0.2-4.1,0.6c-1.3,0.4-2.3,0.9-3.3,1.6c-0.9,0.7-1.6,1.4-2.1,2.2s-0.7,1.8-0.7,2.7
		c0,0.8,0.1,1.6,0.5,2.3c0.4,0.7,0.7,1.4,1.2,1.9c0.5,0.6,1.1,1.1,1.6,1.4c0.6,0.4,1.6,0.9,3,1.4c0.6,0.2,1.6,0.6,3.4,1.1
		c2.5,0.7,4.2,1.4,5.2,2.1c0.9,0.7,1.4,1.5,1.4,2.6c0,0.7-0.2,1.3-0.6,1.8s-0.9,0.9-1.5,1.3c-0.6,0.4-1.4,0.7-2.1,0.8
		c-0.8,0.2-1.5,0.2-2.3,0.2c-0.7,0-1.5-0.1-2.2-0.2c-0.7-0.1-1.4-0.4-2-0.6c-1.3-0.6-2.2-1.1-2.8-1.5c-0.6-0.5-1.1-0.8-1.3-1.2
		c-0.2-0.4-0.4-0.7-0.4-0.9s-0.1-0.5-0.2-0.6l-2.3,4.1c3,2.8,6.7,4.1,11.1,4.1c1.6,0,3.2-0.2,4.6-0.7s2.5-1.1,3.5-1.9
		c0.9-0.8,1.6-1.6,2.2-2.7c0.5-1.1,0.7-2.1,0.7-3.3c0-1.8-0.7-3.3-2.1-4.4c-1.4-1.2-3.7-2.2-7-3.2c-1.5-0.5-2.7-0.8-3.6-1.2
		s-1.6-0.7-2.1-1.1s-0.8-0.7-1.1-1.1c-0.2-0.4-0.4-0.8-0.4-1.3c0-0.6,0.1-1.2,0.5-1.6c0.4-0.5,0.7-0.8,1.3-1.2
		c0.5-0.4,1.2-0.6,1.8-0.7c0.7-0.1,1.4-0.2,2.1-0.2c1.6,0,3,0.4,4.3,1.2c1.3,0.7,2.2,1.5,2.9,2.5c0.1,0.1,0.1,0.4,0.1,0.6
		s0.1,0.5,0.2,0.5l2.5-3.6C1183.4,496.3,1180.1,494.9,1176,494.9L1176,494.9z"/>
	<path class="st5" d="M1200.1,495.5h-6.3v3.4h6.2c-0.2,2.8-0.4,5.4-0.5,7.5s-0.1,4-0.1,5.3c-0.1,3.7,0.5,6.6,1.8,8.2
		s3.3,2.5,6.1,2.5s5.5-0.9,8.2-2.9l-1.3-3.3c-2.1,1.6-4.1,2.5-6,2.5c-1.1,0-1.9-0.2-2.5-0.6c-0.6-0.4-1.1-0.9-1.4-1.8
		c-0.4-0.7-0.6-1.8-0.6-3c-0.1-1.3-0.1-2.8-0.1-4.7c0-3,0.1-6.2,0.5-9.7h8.7v-3.4h-8.7l0.7-6.2c0-0.1,0.1-0.4,0.2-0.6
		s0.1-0.6,0.1-0.9l-4.4,0.7L1200.1,495.5z"/>
	<path class="st5" d="M1224.4,522h4.1v-13c0-1.4,0.2-2.7,0.7-4s1.2-2.3,2-3.4c0.8-0.9,1.8-1.8,2.9-2.3c1.2-0.6,2.3-0.9,3.6-0.9
		c0.7,0,1.3,0.1,1.8,0.2s0.9,0.4,1.3,0.6s0.8,0.6,1.2,0.9s0.7,0.8,1.2,1.4l1.9-4c-1.9-1.9-4.2-2.9-7-2.9c-2,0-3.9,0.5-5.6,1.5
		c-1.8,0.9-3,2.3-3.9,4.2l0.1-5h-4.2L1224.4,522L1224.4,522z"/>
	<path class="st5" d="M1254.8,501.2c1.9-2,4.2-3,7.1-3c2.3,0,4,0.5,5.2,1.5c1.1,1.1,1.6,2.9,1.6,5.5v0.9h-4.9
		c-4.3,0.1-7.6,1.1-9.9,2.6s-3.4,3.6-3.4,6.3c0,0.9,0.2,1.8,0.6,2.7s0.9,1.6,1.8,2.3c0.8,0.7,1.8,1.3,2.8,1.6
		c1.1,0.5,2.3,0.6,3.7,0.6c3.5,0,6.7-1.2,9.5-3.5v2.9h4v-16.4c0-3.9-0.9-6.6-2.8-8.2s-4.4-2.5-7.6-2.5c-4,0-7,1.3-9.4,3.7
		L1254.8,501.2z M1268.7,511.3c0,1.3-0.2,2.3-0.6,3.2c-0.2,0.5-0.5,0.9-0.9,1.5c-0.5,0.6-0.9,1.1-1.6,1.6s-1.5,0.9-2.5,1.3
		c-0.9,0.4-2,0.6-3.2,0.6c-1.5,0-2.9-0.5-4-1.3c-1.1-0.9-1.6-2-1.6-3.2c0-0.7,0.1-1.4,0.5-2.1c0.2-0.6,0.8-1.2,1.6-1.8
		c0.8-0.5,1.9-0.9,3.2-1.2c1.3-0.2,3-0.5,5.2-0.5c0.5,0,0.9,0,1.4,0s0.9,0,1.5,0h0.9v1.8h0.1V511.3z"/>
	<path class="st5" d="M1286.7,495.5h-6.3v3.4h6.2c-0.2,2.8-0.4,5.4-0.5,7.5s-0.1,4-0.1,5.3c-0.1,3.7,0.5,6.6,1.8,8.2
		s3.3,2.5,6.1,2.5c2.8,0,5.5-0.9,8.2-2.9l-1.3-3.3c-2.1,1.6-4.1,2.5-6,2.5c-1.1,0-1.9-0.2-2.5-0.6c-0.6-0.4-1.1-0.9-1.4-1.8
		c-0.4-0.7-0.6-1.8-0.6-3c-0.1-1.3-0.1-2.8-0.1-4.7c0-3,0.1-6.2,0.5-9.7h8.7v-3.4h-8.7l0.7-6.2c0-0.1,0.1-0.4,0.2-0.6
		s0.1-0.6,0.1-0.9l-4.4,0.7L1286.7,495.5z"/>
	<path class="st5" d="M1315.2,496c-1.5,0.7-2.8,1.6-4,2.9c-1.2,1.2-2,2.7-2.7,4.4c-0.7,1.8-1.1,3.6-1.1,5.5c0,2,0.4,3.7,0.9,5.5
		c0.7,1.6,1.5,3.2,2.7,4.3c1.2,1.2,2.5,2.1,3.9,2.8c1.5,0.7,3,1.1,4.8,1.1c1.6,0,3.2-0.4,4.7-0.9c1.4-0.6,2.7-1.5,3.9-2.8
		c1.1-1.2,1.9-2.7,2.6-4.3c0.6-1.6,0.9-3.6,0.9-5.7s-0.4-4-0.9-5.7c-0.6-1.8-1.5-3.2-2.6-4.3c-1.1-1.2-2.3-2.1-3.7-2.7
		s-2.9-0.9-4.6-0.9C1318.2,494.9,1316.7,495.3,1315.2,496z M1327,513.2c-0.4,1.3-0.9,2.3-1.6,3.2c-0.7,0.8-1.5,1.5-2.5,2
		s-2,0.7-3,0.7c-1.1,0-2.1-0.2-3-0.7s-1.8-1.2-2.5-2.1c-0.7-0.9-1.3-2-1.8-3.3s-0.6-2.7-0.6-4.2s0.2-3,0.6-4.2
		c0.5-1.3,0.9-2.3,1.8-3.2c0.7-0.9,1.5-1.5,2.5-2s2-0.7,2.9-0.7c1.1,0,2,0.2,2.9,0.7s1.8,1.2,2.5,2c0.7,0.9,1.3,2,1.8,3.3
		s0.7,2.8,0.7,4.4C1327.6,510.5,1327.4,511.9,1327,513.2z"/>
	<path class="st5" d="M1339.8,522h4.1v-13c0-1.4,0.2-2.7,0.7-4s1.2-2.3,2-3.4c0.8-0.9,1.8-1.8,2.9-2.3c1.2-0.6,2.3-0.9,3.6-0.9
		c0.7,0,1.3,0.1,1.8,0.2s0.9,0.4,1.3,0.6s0.8,0.6,1.2,0.9s0.7,0.8,1.2,1.4l1.9-4c-1.9-1.9-4.2-2.9-7-2.9c-2,0-3.9,0.5-5.6,1.5
		c-1.8,0.9-3,2.3-3.9,4.2l0.1-5h-4.3L1339.8,522L1339.8,522z"/>
	<path class="st5" d="M1051.7,622.5c-1.8-0.8-3.6-1.2-5.5-1.2c-1.5,0-2.9,0.2-4.3,0.7s-2.5,1.2-3.5,2c-0.9,0.8-1.8,1.9-2.3,3
		c-0.6,1.2-0.8,2.3-0.8,3.7c0,1.1,0.1,2,0.5,2.9s0.8,1.8,1.6,2.5c0.8,0.8,1.8,1.5,3,2.2c1.3,0.7,2.8,1.5,4.7,2.2
		c1.8,0.7,3.2,1.3,4.2,1.9c1.1,0.5,1.9,1.1,2.5,1.5c0.6,0.5,0.9,1.1,1.3,1.6c0.2,0.6,0.4,1.3,0.4,2c0,0.9-0.2,1.8-0.6,2.6
		s-0.9,1.5-1.5,2.1c-0.7,0.6-1.4,1.1-2.3,1.4c-0.9,0.4-1.9,0.6-2.9,0.6c-2.1,0-4-0.4-5.4-1.2c-1.5-0.7-2.7-1.6-3.6-2.8
		c-0.1-0.1-0.1-0.4-0.1-0.6c0-0.2-0.1-0.5-0.2-0.6l-2.3,4.1c2.8,3,6.6,4.6,11.2,4.6c2.1,0,4-0.4,5.4-0.9c1.5-0.6,2.7-1.4,3.7-2.3
		c0.9-0.9,1.8-2.1,2.1-3.4c0.5-1.3,0.7-2.5,0.7-3.7s-0.1-2.1-0.5-3c-0.2-0.9-0.8-1.8-1.5-2.6s-1.6-1.5-2.8-2.2s-2.6-1.4-4.3-2.1
		c-1.9-0.7-3.4-1.4-4.4-2c-1.2-0.6-2-1.2-2.6-1.8s-1.1-1.2-1.3-1.8c-0.2-0.6-0.5-1.4-0.5-2.2c0-1.4,0.6-2.7,1.8-3.7
		c1.2-1.1,2.7-1.5,4.4-1.5c1.9,0,3.4,0.4,4.7,0.9c1.3,0.7,2.2,1.5,2.9,2.6c0.1,0.1,0.1,0.4,0.1,0.6s0.1,0.5,0.4,0.5l2.6-3.5
		C1055,624.5,1053.5,623.2,1051.7,622.5z"/>
	<path class="st5" d="M1063.5,645.8c0,2.1,0.2,4,0.7,5.5s1.1,2.8,2,3.9c0.8,1.1,1.9,1.8,2.9,2.2s2.3,0.7,3.6,0.7
		c1.8,0,3.3-0.5,4.8-1.3c1.4-0.8,2.6-2,3.4-3.4v2c0,0.5,0,0.8,0,1.2s0.1,0.6,0.1,0.9h4.3c-0.2-0.7-0.2-1.5-0.2-2.3v-24h-4.1v14.5
		c0,1.5-0.2,2.9-0.6,4.1c-0.4,1.2-0.9,2-1.6,2.7s-1.4,1.3-2.3,1.6c-0.8,0.4-1.8,0.6-2.7,0.7c-0.8,0-1.6-0.1-2.3-0.5
		c-0.7-0.4-1.4-0.8-1.9-1.5c-0.6-0.7-1.1-1.6-1.3-2.7c-0.4-1.2-0.5-2.6-0.5-4.2v-14.7h-4L1063.5,645.8z"/>
	<path class="st5" d="M1092.2,657.5h2.6l1.4-3.5c0.9,1.3,2,2.2,3.4,3c1.4,0.7,2.8,1.1,4.4,1.1c1.4,0,2.7-0.2,4.1-0.8
		c1.3-0.6,2.5-1.4,3.5-2.6s1.9-2.7,2.6-4.3c0.6-1.8,0.9-3.9,0.9-6.2c0-2.2-0.2-4.2-0.8-6c-0.6-1.6-1.4-3.2-2.3-4.2
		c-1.1-1.2-2.1-2-3.5-2.6c-1.3-0.6-2.7-0.8-4.2-0.8s-2.9,0.5-4.4,1.3c-1.4,0.8-2.6,2-3.4,3.4v-14.8c0-0.2,0.1-0.5,0.4-0.6
		s0.4-0.4,0.4-0.6v-0.1h-4.9v38.3L1092.2,657.5L1092.2,657.5z M1098,652.1c-0.4-0.5-0.7-1.1-0.9-1.8s-0.4-1.6-0.5-2.8
		c-0.1-1.1-0.1-2.5-0.1-4.1c0-2.6,0.2-4.4,0.7-5.6c0.5-1.2,1.3-2.1,2.3-2.8c1.1-0.7,2.1-1.1,3-1.1c2.7,0,4.8,0.9,6.2,2.8
		c1.4,1.9,2.1,4.4,2.1,8c0,1.9-0.2,3.4-0.8,4.7c-0.5,1.2-1.2,2.2-2,2.9s-1.6,1.3-2.6,1.5c-0.9,0.2-1.8,0.5-2.6,0.5
		c-0.5,0-1.1-0.1-1.6-0.2c-0.6-0.1-1.3-0.4-2-0.8C1098.8,653,1098.3,652.6,1098,652.1z"/>
	<path class="st5" d="M1122.5,622.5h7.5v31.7h-7.8v3.4h19.6v-3.4h-7.7v-35h-11.6V622.5L1122.5,622.5z"/>
	<path class="st5" d="M1152.6,634.5h6.4v19.7h-6.8v3.4h17.1v-3.4h-6.2v-23.1h-10.5V634.5z M1158.2,622.6c0,0.8,0.2,1.5,0.8,2.1
		c0.6,0.6,1.3,0.8,2.1,0.8s1.5-0.2,2.1-0.8s0.9-1.3,0.9-2.1s-0.4-1.5-0.9-2.1c-0.6-0.6-1.3-0.9-2.1-0.9s-1.5,0.2-2.1,0.8
		C1158.5,621.1,1158.2,621.8,1158.2,622.6L1158.2,622.6z"/>
	<path class="st5" d="M1181.4,657.5V640c0-2,0.5-3.5,1.3-4.6s1.8-1.6,2.7-1.6c1.1,0,1.8,0.4,2.1,1.1c0.4,0.7,0.6,2.2,0.6,4.3v18.4
		h3.9v-17.4c0-0.7,0.1-1.5,0.4-2.2c0.2-0.8,0.6-1.5,0.9-2.1c0.4-0.6,0.8-1.2,1.3-1.5c0.5-0.4,1.1-0.6,1.5-0.6c0.5,0,0.8,0,1.1,0.1
		s0.6,0.4,0.8,0.7c0.2,0.4,0.5,0.9,0.6,1.6c0.1,0.7,0.1,1.6,0.1,2.8v18.7h3.9v-20.2c0.1-1.9-0.4-3.5-1.2-4.8c-0.8-1.3-2.2-2-4-2
		c-1.3,0-2.5,0.4-3.5,1.1c-1.1,0.7-1.9,1.6-2.3,2.8c-0.2-1.2-0.8-2-1.6-2.8c-0.8-0.7-1.9-1.1-2.9-1.1s-2.1,0.4-3,0.9
		c-0.9,0.6-1.8,1.4-2.3,2.3v-2.6h-3.9v26.3h3.7l0,0h-0.2V657.5z"/>
	<path class="st5" d="M1214.4,631.5c-1.4,0.6-2.7,1.5-3.9,2.7c-1.1,1.2-2,2.6-2.6,4.3c-0.6,1.8-0.9,3.7-0.9,6c0,2.2,0.4,4.1,0.9,5.9
		c0.6,1.8,1.5,3.2,2.6,4.3c1.2,1.2,2.5,2,4.1,2.6s3.4,0.9,5.3,0.9c4,0,7-1.4,9.2-4.1l-2.3-2.2c-1.8,2-4.1,2.9-6.8,2.9
		c-1.1,0-2.1-0.1-3.2-0.5s-2-0.8-2.8-1.6s-1.5-1.8-2.1-3c-0.6-1.3-0.8-2.8-0.9-4.7h18.7c0-0.4,0.1-0.6,0.1-0.9c0-0.4,0-0.7,0-0.9
		c0-2.1-0.4-4-0.9-5.6c-0.6-1.5-1.4-2.9-2.3-3.9c-0.9-1.1-2.1-1.8-3.4-2.2c-1.3-0.5-2.7-0.7-4.1-0.7
		C1217.5,630.5,1215.9,630.8,1214.4,631.5z M1213.9,635.5c1.4-1.3,3-1.9,4.9-1.9c0.9,0,1.9,0.2,2.7,0.6c0.8,0.4,1.5,0.9,2.1,1.5
		s1.1,1.4,1.5,2.2s0.6,1.8,0.6,2.7c0,0.2,0,0.4,0,0.5s0,0.2,0,0.5h-14.5C1211.6,638.8,1212.5,636.8,1213.9,635.5z"/>
	<path class="st5" d="M1263.7,625.1h10.2v32.4h4.1v-32.4h10.7v-3.6h-24.9L1263.7,625.1L1263.7,625.1z"/>
	<path class="st5" d="M1301,631.5c-1.4,0.6-2.7,1.5-3.9,2.7c-1.1,1.2-2,2.6-2.6,4.3s-0.9,3.7-0.9,6c0,2.2,0.4,4.1,0.9,5.9
		c0.6,1.8,1.5,3.2,2.6,4.3c1.2,1.2,2.5,2,4.1,2.6s3.4,0.9,5.3,0.9c4,0,7-1.4,9.2-4.1l-2.3-2.2c-1.8,2-4.1,2.9-6.8,2.9
		c-1.1,0-2.1-0.1-3.2-0.5s-2-0.8-2.8-1.6s-1.5-1.8-2.1-3c-0.6-1.3-0.8-2.8-0.9-4.7h18.7c0-0.4,0.1-0.6,0.1-0.9c0-0.4,0-0.7,0-0.9
		c0-2.1-0.4-4-0.9-5.6c-0.6-1.5-1.4-2.9-2.3-3.9c-0.9-1.1-2.1-1.8-3.4-2.2c-1.3-0.5-2.7-0.7-4.1-0.7
		C1304.1,630.5,1302.4,630.8,1301,631.5z M1300.6,635.5c1.4-1.3,3-1.9,4.9-1.9c0.9,0,1.9,0.2,2.7,0.6c0.8,0.4,1.5,0.9,2.1,1.5
		s1.1,1.4,1.5,2.2s0.6,1.8,0.6,2.7c0,0.2,0,0.4,0,0.5s0,0.2,0,0.5h-14.5C1298.1,638.8,1299,636.8,1300.6,635.5z"/>
	<path class="st5" d="M1333.9,641l-6.9-9.7h-4.6l9.1,13l-9.2,13.3h4.7l6.9-10.3l7.3,10.3h4.7l-9.7-13.6l8.5-12.8h-4.2L1333.9,641z"
		/>
	<path class="st5" d="M1358.8,631h-6.3v3.4h6.2c-0.2,2.8-0.4,5.4-0.5,7.5s-0.1,4-0.1,5.3c-0.1,3.7,0.5,6.6,1.8,8.2
		c1.3,1.6,3.3,2.5,6.1,2.5c2.8,0,5.5-0.9,8.2-2.9l-1.3-3.3c-2.1,1.6-4.1,2.5-6,2.5c-1.1,0-1.9-0.2-2.5-0.6s-1.1-0.9-1.4-1.8
		c-0.4-0.7-0.6-1.8-0.6-3c-0.1-1.3-0.1-2.8-0.1-4.7c0-3,0.1-6.2,0.5-9.7h8.7V631h-8.7l0.7-6.2c0-0.1,0.1-0.4,0.2-0.6
		c0.1-0.2,0.1-0.6,0.1-0.9l-4.4,0.7L1358.8,631z"/>
	<path class="st5" d="M1066.7,793.2h1.6l6.3-23.8l6.2,23.8h1.5l5.7-36.2h-3.4l-3.3,24.5l-5.9-21.8h-1.3l-5.7,21.7l-3.9-24.3h-3.7
		L1066.7,793.2z"/>
	<path class="st5" d="M1096.1,772.5c1.9-2,4.2-3,7.1-3c2.3,0,4,0.5,5.2,1.5c1.1,1.1,1.6,2.9,1.6,5.5v0.9h-4.9
		c-4.3,0.1-7.6,1.1-9.9,2.6s-3.4,3.6-3.4,6.3c0,0.9,0.2,1.8,0.6,2.7s0.9,1.6,1.8,2.3c0.8,0.7,1.8,1.3,2.8,1.6
		c1.1,0.5,2.3,0.6,3.7,0.6c3.5,0,6.7-1.2,9.5-3.5v2.9h4v-16.3c0-3.9-0.9-6.6-2.8-8.2c-1.9-1.6-4.4-2.5-7.6-2.5c-4,0-7,1.3-9.4,3.7
		L1096.1,772.5z M1110.1,782.5c0,1.3-0.2,2.3-0.6,3.2c-0.2,0.5-0.5,0.9-0.9,1.5c-0.5,0.6-0.9,1.1-1.6,1.6s-1.5,0.9-2.5,1.3
		s-2,0.6-3.2,0.6c-1.5,0-2.9-0.5-4-1.3c-1.1-0.9-1.6-2-1.6-3.2c0-0.7,0.1-1.4,0.5-2.1c0.2-0.6,0.8-1.2,1.6-1.8
		c0.8-0.5,1.9-0.9,3.2-1.2c1.4-0.2,3-0.5,5.2-0.5c0.5,0,0.9,0,1.4,0s0.9,0,1.5,0h0.9v1.8h0.1V782.5z"/>
	<path class="st5" d="M1139.9,767.5c-1.8-0.8-3.6-1.3-5.7-1.3c-1.9,0-3.7,0.4-5.4,1.1c-1.6,0.7-3,1.6-4.2,2.8s-2.1,2.7-2.7,4.3
		c-0.7,1.6-0.9,3.5-0.9,5.5s0.4,3.9,0.9,5.5c0.7,1.6,1.5,3.2,2.7,4.3c1.2,1.3,2.6,2.2,4.1,2.9c1.6,0.7,3.4,1.1,5.3,1.1
		c3.9,0,7-1.4,9.6-4.1l-2.5-2.8c-2,2.1-4.2,3.2-6.9,3.2c-1.4,0-2.6-0.2-3.7-0.8c-1.2-0.5-2.1-1.3-2.9-2.1c-0.8-0.9-1.4-2-1.9-3.3
		s-0.7-2.7-0.7-4.1c0-1.5,0.2-2.8,0.7-4.1c0.5-1.2,1.1-2.2,1.9-3.2c0.8-0.8,1.6-1.5,2.7-2s2.1-0.7,3.3-0.7c2.3,0,4.1,0.6,5.4,1.6
		c0.7,0.6,1.2,1.1,1.4,1.4c0.2,0.4,0.4,0.6,0.5,0.8c0,0.2,0.1,0.5,0.1,0.6s0.1,0.2,0.2,0.4l2.9-3.4
		C1142.9,769.5,1141.5,768.3,1139.9,767.5z"/>
	<path class="st5" d="M1156.5,767.1c-1.5,0.7-2.8,1.6-4,2.9c-1.2,1.2-2,2.7-2.7,4.4s-1.1,3.6-1.1,5.5c0,2,0.4,3.7,0.9,5.5
		c0.7,1.6,1.5,3.2,2.7,4.3c1.2,1.2,2.5,2.1,3.9,2.8c1.5,0.7,3,1.1,4.8,1.1c1.6,0,3.2-0.4,4.7-0.9c1.4-0.6,2.7-1.5,3.9-2.8
		c1.1-1.2,1.9-2.7,2.6-4.3c0.6-1.6,0.9-3.6,0.9-5.7c0-2.1-0.4-4-0.9-5.7s-1.5-3.2-2.6-4.3c-1.1-1.2-2.3-2.1-3.7-2.7
		c-1.4-0.6-2.9-0.9-4.6-0.9C1159.5,766.1,1158,766.5,1156.5,767.1z M1168.3,784.2c-0.4,1.3-0.9,2.3-1.6,3.2c-0.7,0.8-1.5,1.5-2.5,2
		s-2,0.7-3,0.7c-1.1,0-2.1-0.2-3-0.7s-1.8-1.2-2.5-2.1s-1.3-2-1.8-3.3s-0.6-2.7-0.6-4.2s0.2-3,0.6-4.2c0.5-1.3,0.9-2.3,1.8-3.2
		c0.7-0.9,1.5-1.5,2.5-2s2-0.7,2.9-0.7c1.1,0,2,0.2,2.9,0.7s1.8,1.2,2.5,2c0.7,0.9,1.3,2,1.8,3.3s0.7,2.8,0.7,4.4
		C1168.9,781.5,1168.6,783.1,1168.3,784.2z"/>
	<path class="st5" d="M1181.4,793v-17.5c0-2,0.5-3.5,1.3-4.6s1.8-1.6,2.7-1.6c1.1,0,1.8,0.4,2.1,1.1c0.4,0.7,0.6,2.2,0.6,4.3v18.4
		h3.9v-17.4c0-0.7,0.1-1.5,0.4-2.2c0.2-0.8,0.6-1.5,0.9-2.1c0.4-0.6,0.8-1.2,1.3-1.5c0.5-0.4,1.1-0.6,1.5-0.6c0.5,0,0.8,0,1.1,0.1
		s0.6,0.4,0.8,0.7c0.2,0.4,0.5,0.9,0.6,1.6c0.1,0.7,0.1,1.6,0.1,2.8v18.7h3.9V773c0.1-1.9-0.4-3.5-1.2-4.8c-0.8-1.3-2.2-2-4-2
		c-1.3,0-2.5,0.4-3.5,1.1c-1.1,0.7-1.9,1.6-2.3,2.8c-0.2-1.2-0.8-2-1.6-2.8c-0.8-0.7-1.9-1.1-2.9-1.1s-2.1,0.4-3,0.9
		c-0.9,0.6-1.8,1.4-2.3,2.3v-2.6h-3.9v26.3h3.7V793H1181.4z"/>
	<path class="st5" d="M1247.5,757l-9.4,4.9l0.9,2.2l7.3-2.1v31h4v-36L1247.5,757L1247.5,757z"/>
	<path class="st5" d="M1269.3,765c0.1-0.1,0.1-0.4,0.2-0.7c0-0.4,0.2-0.7,0.6-1.2s0.8-0.8,1.4-1.3c0.6-0.4,1.3-0.7,2.1-1.1
		c0.8-0.2,1.6-0.5,2.7-0.5c0.8,0,1.6,0.2,2.5,0.6c0.8,0.4,1.5,0.8,2.1,1.5c0.6,0.6,1.2,1.4,1.5,2.1c0.4,0.8,0.5,1.6,0.5,2.5
		c0,0.7,0,1.3-0.1,2c-0.1,0.6-0.4,1.3-0.7,2c-0.4,0.7-0.8,1.4-1.4,2.1c-0.6,0.7-1.4,1.5-2.3,2.5l-2.8,2.6c-1.5,1.4-3.2,3-4.8,5.2
		c-1.6,2-3.2,4.4-4.6,7.3v2.6h21.1V789h-0.1c-0.2,0-0.4,0.1-0.6,0.2c-0.2,0.1-0.5,0.2-0.6,0.2h-15.2c0.5-0.8,0.9-1.6,1.5-2.5
		c0.6-0.8,1.2-1.5,1.8-2.3c0.6-0.7,1.2-1.4,1.9-2.1c0.6-0.6,1.2-1.2,1.6-1.6l3.5-3.3c0.8-0.7,1.5-1.4,2.2-2.2s1.3-1.6,1.9-2.6
		s0.9-1.9,1.3-2.8c0.4-1.1,0.5-2.1,0.5-3.2c0-1.4-0.2-2.7-0.8-4s-1.3-2.3-2.2-3.3c-0.9-0.9-2.1-1.6-3.4-2.1s-2.6-0.8-4.1-0.8
		c-2.1,0-4,0.5-5.9,1.5c-1.8,1.1-3.2,2.5-4.2,4.3L1269.3,765z"/>
	<path class="st5" d="M1297.5,793.2h1.6l6.3-23.8l6.2,23.8h1.5l5.7-36.2h-3.4l-3.3,24.3l-5.9-21.8h-1.3l-5.7,21.7l-3.9-24.3h-3.5
		L1297.5,793.2z"/>
	<path class="st5" d="M1334,770.8l-7.6-13.7h-4.3l9.6,17.7l-9.8,18.4h4.3l7.7-14.3l8,14.3h4.6l-10.2-18.4l9.1-17.6h-3.9L1334,770.8z
		"/>
</g>
</svg>
