<?xml version="1.0" encoding="utf-8"?>
<!-- Generator: Adobe Illustrator 19.2.1, SVG Export Plug-In . SVG Version: 6.00 Build 0)  -->
<svg version="1.1" id="Layer_1" xmlns="http://www.w3.org/2000/svg" xmlns:xlink="http://www.w3.org/1999/xlink" x="0px" y="0px"
	 viewBox="0 0 1600 900" style="enable-background:new 0 0 1600 900;" xml:space="preserve">
<g>
	<path d="M1272.1,65.1V48.8l9.1,16.3h1.8V45.2c0-0.2,0-0.3,0.1-0.5c0.1-0.2,0.1-0.3,0.1-0.4h-2.5v15.4l-8.7-15.3h-2.3v20.7H1272.1z"
		/>
	<path d="M1290.5,50.2c-0.9,0.4-1.6,1-2.3,1.7c-0.7,0.7-1.2,1.5-1.6,2.5c-0.4,1-0.6,2.1-0.6,3.2s0.2,2.2,0.6,3.2
		c0.4,1,0.9,1.8,1.5,2.5c0.6,0.7,1.4,1.2,2.2,1.6c0.9,0.4,1.8,0.6,2.7,0.6c1,0,1.8-0.2,2.7-0.5c0.8-0.4,1.6-0.9,2.2-1.6
		c0.6-0.7,1.1-1.5,1.5-2.5c0.4-1,0.5-2.1,0.5-3.3c0-1.2-0.2-2.3-0.5-3.3c-0.4-1-0.9-1.8-1.5-2.5c-0.6-0.7-1.3-1.2-2.2-1.6
		c-0.8-0.4-1.7-0.5-2.6-0.5S1291.4,49.8,1290.5,50.2z M1297.3,60c-0.2,0.7-0.6,1.3-1,1.8c-0.4,0.5-0.9,0.9-1.4,1.1
		c-0.5,0.3-1.1,0.4-1.7,0.4c-0.6,0-1.2-0.1-1.8-0.4c-0.6-0.3-1-0.7-1.4-1.2c-0.4-0.5-0.7-1.2-1-1.9c-0.2-0.7-0.4-1.5-0.4-2.4
		c0-0.9,0.1-1.7,0.4-2.4c0.2-0.7,0.6-1.3,1-1.8c0.4-0.5,0.9-0.9,1.4-1.2c0.5-0.3,1.1-0.4,1.7-0.4s1.2,0.1,1.7,0.4
		c0.5,0.3,1,0.7,1.4,1.2c0.4,0.5,0.8,1.1,1,1.9c0.3,0.7,0.4,1.6,0.4,2.5C1297.7,58.5,1297.5,59.3,1297.3,60z"/>
	<path d="M1312,50.2c-0.8-0.5-1.7-0.7-2.7-0.7c-0.8,0-1.5,0.1-2.3,0.4s-1.4,0.8-2,1.4c-0.6,0.6-1.1,1.4-1.5,2.4
		c-0.4,1-0.6,2.2-0.6,3.6c0,1.4,0.2,2.6,0.5,3.6c0.3,1,0.8,1.8,1.3,2.5c0.6,0.7,1.2,1.2,2,1.5c0.7,0.3,1.5,0.5,2.4,0.5
		c0.9,0,1.7-0.2,2.5-0.7c0.8-0.5,1.5-1.2,2-2v1.3c0,0.5,0,0.9,0.1,1.1h2.4c-0.1-0.4-0.2-0.9-0.2-1.4l0-19.7c0-0.2,0.1-0.3,0.2-0.5
		c0.1-0.2,0.2-0.3,0.2-0.4h-2.6v9.1C1313.3,51.3,1312.7,50.7,1312,50.2z M1308,51.7c0.4-0.2,1-0.3,1.6-0.3c0.3,0,0.6,0.1,1,0.2
		c0.3,0.1,0.7,0.3,1.1,0.5c0.3,0.2,0.6,0.4,0.8,0.7c0.2,0.3,0.4,0.6,0.5,1s0.2,0.9,0.3,1.4c0.1,0.6,0.1,1.3,0.1,2.1
		c0,1.3-0.1,2.4-0.4,3.2c-0.1,0.4-0.3,0.8-0.6,1.1c-0.3,0.3-0.6,0.6-0.9,0.9c-0.3,0.2-0.7,0.4-1,0.5c-0.4,0.1-0.7,0.2-1,0.2
		c-1.4,0-2.5-0.6-3.2-1.7c-0.7-1.2-1.1-2.7-1.1-4.6c0-2.1,0.5-3.5,1.4-4.4C1307.1,52.1,1307.5,51.9,1308,51.7z"/>
	<path d="M1323.8,50c-0.8,0.4-1.6,0.9-2.2,1.5c-0.6,0.7-1.1,1.5-1.5,2.5c-0.4,1-0.5,2.1-0.5,3.4c0,1.3,0.2,2.4,0.5,3.4
		c0.4,1,0.9,1.8,1.5,2.5c0.6,0.7,1.4,1.2,2.3,1.5c0.9,0.3,1.9,0.5,3,0.5c2.3,0,4-0.8,5.3-2.3l-1.3-1.3c-1,1.1-2.3,1.7-3.9,1.7
		c-0.6,0-1.2-0.1-1.8-0.3c-0.6-0.2-1.1-0.5-1.6-0.9c-0.5-0.4-0.9-1-1.2-1.7c-0.3-0.7-0.5-1.6-0.5-2.7h10.8c0-0.2,0-0.4,0-0.5
		c0-0.2,0-0.4,0-0.5c0-1.2-0.2-2.3-0.5-3.2c-0.3-0.9-0.8-1.7-1.4-2.2c-0.6-0.6-1.2-1-2-1.3c-0.8-0.3-1.5-0.4-2.3-0.4
		C1325.6,49.5,1324.7,49.7,1323.8,50z M1323.6,52.4c0.8-0.7,1.8-1.1,2.8-1.1c0.6,0,1.1,0.1,1.5,0.3c0.5,0.2,0.9,0.5,1.2,0.9
		c0.4,0.4,0.6,0.8,0.8,1.3c0.2,0.5,0.3,1,0.3,1.6c0,0.1,0,0.2,0,0.3c0,0.1,0,0.2,0,0.2h-8.3C1322.2,54.3,1322.7,53.2,1323.6,52.4z"
		/>
	<path d="M1342.5,61.6c-0.5,0-1,0.2-1.4,0.6c-0.4,0.4-0.6,0.8-0.6,1.4s0.2,1,0.6,1.3c0.4,0.4,0.8,0.5,1.4,0.5c0.6,0,1-0.2,1.4-0.6
		c0.4-0.4,0.6-0.8,0.6-1.3c0-0.5-0.2-1-0.6-1.4C1343.4,61.8,1343,61.6,1342.5,61.6L1342.5,61.6z"/>
	<path d="M1355.3,51.8h5.7v12.6c0,1.5-0.3,2.6-1,3.3c-0.6,0.7-1.5,1-2.5,1c-0.6,0-1.1-0.1-1.6-0.4c-0.5-0.2-0.8-0.4-1-0.6
		c-0.2-0.2-0.3-0.3-0.4-0.4c-0.1-0.1-0.1-0.3-0.1-0.4c0-0.1-0.1-0.2-0.2-0.3l-1.6,2.1c1.2,1.4,2.7,2.1,4.6,2.1
		c0.8,0,1.6-0.2,2.4-0.4c0.7-0.3,1.4-0.6,1.9-1.1c0.5-0.5,1-1.2,1.3-2c0.3-0.8,0.5-1.8,0.5-2.9V49.9h-8.1V51.8z M1360.5,45
		c0,0.5,0.2,0.9,0.5,1.2c0.3,0.3,0.7,0.5,1.2,0.5c0.5,0,0.9-0.2,1.2-0.5c0.3-0.3,0.5-0.7,0.5-1.2c0-0.5-0.2-0.9-0.5-1.2
		c-0.3-0.3-0.7-0.5-1.2-0.5c-0.5,0-0.9,0.2-1.2,0.5C1360.7,44.1,1360.5,44.5,1360.5,45L1360.5,45z"/>
	<path d="M1376.5,49.5c-0.8,0-1.6,0.1-2.3,0.4c-0.7,0.2-1.3,0.5-1.9,0.9c-0.5,0.4-0.9,0.8-1.2,1.3c-0.3,0.5-0.4,1-0.4,1.5
		c0,0.5,0.1,0.9,0.3,1.3c0.2,0.4,0.4,0.8,0.7,1.1c0.3,0.3,0.6,0.6,1,0.8c0.4,0.2,0.9,0.5,1.7,0.8c0.3,0.1,1,0.3,1.9,0.6
		c1.4,0.4,2.4,0.8,2.9,1.2c0.5,0.4,0.8,0.9,0.8,1.5c0,0.4-0.1,0.7-0.3,1c-0.2,0.3-0.5,0.6-0.9,0.8c-0.4,0.2-0.8,0.4-1.2,0.5
		c-0.5,0.1-0.9,0.2-1.4,0.2c-0.4,0-0.8,0-1.3-0.1c-0.4-0.1-0.8-0.2-1.1-0.3c-0.7-0.3-1.3-0.6-1.6-0.9c-0.4-0.3-0.6-0.5-0.7-0.7
		c-0.1-0.2-0.2-0.4-0.2-0.5c0-0.1-0.1-0.3-0.1-0.3l-1.4,2.4c1.7,1.6,3.9,2.4,6.4,2.4c1,0,1.8-0.1,2.6-0.4c0.8-0.3,1.4-0.6,2-1
		c0.6-0.4,1-1,1.3-1.6c0.3-0.6,0.4-1.2,0.4-1.9c0-1-0.4-1.9-1.2-2.6c-0.8-0.7-2.1-1.3-4.1-1.8c-0.8-0.2-1.5-0.5-2.1-0.7
		c-0.5-0.2-0.9-0.4-1.2-0.6c-0.3-0.2-0.5-0.4-0.6-0.6c-0.1-0.2-0.2-0.4-0.2-0.7c0-0.4,0.1-0.7,0.3-0.9c0.2-0.3,0.4-0.5,0.7-0.7
		c0.3-0.2,0.6-0.3,1-0.4c0.4-0.1,0.8-0.1,1.2-0.1c0.9,0,1.8,0.2,2.5,0.6c0.7,0.4,1.3,0.9,1.7,1.4c0,0.1,0.1,0.2,0.1,0.3
		c0,0.2,0.1,0.2,0.2,0.3l1.4-2.1C1380.7,50.3,1378.8,49.5,1376.5,49.5L1376.5,49.5z"/>
	<path d="M1236.6,143h5.8c2.7,0,4.6-0.5,5.9-1.6c1.2-1.1,1.9-2.5,1.9-4.2c0-0.6-0.1-1.1-0.3-1.7c-0.2-0.5-0.4-1-0.8-1.5
		c-0.4-0.5-0.8-0.9-1.2-1.2c-0.5-0.4-1-0.6-1.6-0.8c1-0.4,1.7-1,2.3-1.8c0.5-0.9,0.8-1.8,0.8-2.8c0-0.7-0.1-1.4-0.4-2
		c-0.3-0.6-0.7-1.1-1.2-1.6c-0.5-0.5-1.2-0.8-2.1-1c-0.9-0.2-1.9-0.3-3.1-0.3h-5.9V143z M1242.5,124.3c0.8,0,1.5,0.1,2,0.3
		c0.5,0.2,1,0.4,1.3,0.7c0.4,0.3,0.6,0.7,0.8,1.1c0.2,0.4,0.3,0.8,0.3,1.3c0,0.5-0.2,0.9-0.3,1.3c-0.2,0.4-0.4,0.8-0.8,1.1
		c-0.4,0.3-0.8,0.5-1.4,0.7c-0.6,0.2-1.3,0.2-2.3,0.2h-3.2v-6.6H1242.5z M1242.3,132.8c1,0,1.8,0.1,2.5,0.3c0.7,0.2,1.3,0.5,1.7,0.9
		c0.4,0.4,0.7,0.8,0.9,1.3c0.2,0.5,0.3,1.1,0.4,1.7c-0.1,1.1-0.5,2.1-1.2,2.8c-0.7,0.7-1.9,1.1-3.7,1.1h-4v-8.2H1242.3z"/>
	<path d="M1255.8,131.2c1.1-1.2,2.4-1.7,4.1-1.7c1.3,0,2.3,0.3,2.9,0.9c0.6,0.6,0.9,1.7,0.9,3.2v0.6h-2.9c-2.5,0.1-4.4,0.6-5.7,1.5
		c-1.3,0.9-2,2.1-2,3.6c0,0.5,0.1,1,0.3,1.5c0.2,0.5,0.6,1,1,1.4c0.4,0.4,1,0.7,1.6,1c0.6,0.2,1.3,0.4,2.1,0.4c2,0,3.8-0.7,5.4-2
		v1.7h2.3v-9.4c0-2.2-0.5-3.8-1.6-4.7c-1.1-0.9-2.5-1.4-4.4-1.4c-2.3,0-4.1,0.7-5.4,2.1L1255.8,131.2z M1263.8,136.9
		c0,0.8-0.1,1.3-0.3,1.8c-0.1,0.2-0.3,0.5-0.5,0.8c-0.2,0.3-0.6,0.6-1,0.9s-0.9,0.6-1.4,0.8c-0.5,0.2-1.1,0.3-1.8,0.3
		c-0.9,0-1.7-0.3-2.3-0.8c-0.6-0.5-0.9-1.1-0.9-1.8c0-0.4,0.1-0.8,0.2-1.2c0.2-0.4,0.5-0.7,0.9-1c0.4-0.3,1.1-0.5,1.8-0.7
		c0.8-0.2,1.8-0.2,3-0.2c0.3,0,0.5,0,0.8,0c0.3,0,0.6,0,0.9,0h0.6V136.9z"/>
	<path d="M1280.9,128.3c-1-0.5-2.1-0.7-3.3-0.7c-1.1,0-2.1,0.2-3.1,0.6c-0.9,0.4-1.7,0.9-2.4,1.6c-0.7,0.7-1.2,1.5-1.6,2.5
		c-0.4,1-0.6,2-0.6,3.2c0,1.2,0.2,2.2,0.6,3.2c0.4,1,0.9,1.8,1.6,2.5c0.7,0.7,1.5,1.3,2.4,1.7c0.9,0.4,1.9,0.6,3,0.6
		c2.2,0,4-0.8,5.5-2.4l-1.4-1.6c-1.1,1.2-2.4,1.8-4,1.8c-0.8,0-1.5-0.1-2.1-0.4c-0.6-0.3-1.2-0.7-1.7-1.2c-0.5-0.5-0.8-1.2-1.1-1.9
		c-0.3-0.7-0.4-1.5-0.4-2.4c0-0.9,0.1-1.6,0.4-2.3c0.3-0.7,0.6-1.3,1.1-1.8c0.4-0.5,1-0.9,1.6-1.1c0.6-0.3,1.2-0.4,1.9-0.4
		c1.3,0,2.4,0.3,3.1,0.9c0.4,0.3,0.7,0.6,0.8,0.8c0.1,0.2,0.2,0.4,0.3,0.5c0,0.1,0,0.2,0,0.3c0,0.1,0,0.1,0.2,0.2l1.7-2
		C1282.7,129.5,1281.9,128.8,1280.9,128.3z"/>
	<path d="M1287,143h2.4v-5.7l2-1.9l6.2,7.7l3.1-0.1l-7.5-9.1l6.4-6h-0.9c-0.7,0-1.3-0.1-1.8-0.2l-7.6,7v-13c0-0.1,0-0.3,0.1-0.4
		c0.1-0.2,0.1-0.3,0.1-0.4h-2.7V143z"/>
	<path d="M1303.4,143h1.5l0.8-2c0.5,0.7,1.2,1.3,1.9,1.7c0.8,0.4,1.6,0.6,2.6,0.6c0.8,0,1.6-0.2,2.3-0.5c0.8-0.3,1.4-0.8,2-1.5
		c0.6-0.7,1.1-1.5,1.4-2.5c0.4-1,0.5-2.2,0.5-3.6c0-1.3-0.2-2.4-0.5-3.4c-0.3-1-0.8-1.8-1.4-2.4c-0.6-0.7-1.2-1.1-2-1.5
		c-0.8-0.3-1.6-0.5-2.4-0.5c-0.9,0-1.7,0.2-2.5,0.7c-0.8,0.5-1.5,1.1-2,2v-8.5c0-0.1,0.1-0.2,0.2-0.3c0.1-0.1,0.2-0.2,0.2-0.3V121
		h-2.8V143z M1306.6,139.9c-0.2-0.3-0.4-0.6-0.5-1c-0.1-0.4-0.2-1-0.3-1.6c0-0.6-0.1-1.4-0.1-2.3c0-1.5,0.1-2.6,0.4-3.2
		c0.3-0.7,0.7-1.2,1.4-1.6c0.6-0.4,1.2-0.6,1.8-0.6c1.6,0,2.8,0.5,3.6,1.6c0.8,1.1,1.2,2.6,1.2,4.6c0,1.1-0.2,2-0.5,2.7
		c-0.3,0.7-0.7,1.3-1.1,1.7s-1,0.7-1.5,0.9c-0.5,0.2-1,0.2-1.5,0.2c-0.3,0-0.6,0-0.9-0.1c-0.3-0.1-0.7-0.2-1.1-0.4
		C1307.1,140.4,1306.9,140.2,1306.6,139.9z"/>
	<path d="M1323.7,128.1c-0.9,0.4-1.6,1-2.3,1.7c-0.7,0.7-1.2,1.5-1.6,2.5c-0.4,1-0.6,2.1-0.6,3.2c0,1.1,0.2,2.2,0.6,3.2
		c0.4,1,0.9,1.8,1.5,2.5c0.6,0.7,1.4,1.2,2.2,1.6c0.9,0.4,1.8,0.6,2.7,0.6c1,0,1.8-0.2,2.7-0.5c0.8-0.4,1.6-0.9,2.2-1.6
		c0.6-0.7,1.1-1.5,1.5-2.5c0.4-1,0.5-2.1,0.5-3.3c0-1.2-0.2-2.3-0.5-3.3c-0.4-1-0.9-1.8-1.5-2.5c-0.6-0.7-1.3-1.2-2.2-1.6
		c-0.8-0.4-1.7-0.5-2.6-0.5C1325.5,127.5,1324.6,127.7,1323.7,128.1z M1330.5,138c-0.2,0.7-0.6,1.3-1,1.8c-0.4,0.5-0.9,0.9-1.4,1.1
		c-0.5,0.3-1.1,0.4-1.7,0.4c-0.6,0-1.2-0.1-1.8-0.4c-0.6-0.3-1-0.7-1.4-1.2c-0.4-0.5-0.7-1.2-1-1.9c-0.2-0.7-0.4-1.5-0.4-2.4
		c0-0.9,0.1-1.7,0.4-2.4c0.2-0.7,0.6-1.3,1-1.8c0.4-0.5,0.9-0.9,1.4-1.2c0.5-0.3,1.1-0.4,1.7-0.4c0.6,0,1.2,0.1,1.7,0.4
		c0.5,0.3,1,0.7,1.4,1.2c0.4,0.5,0.8,1.1,1,1.9c0.3,0.7,0.4,1.6,0.4,2.5C1330.8,136.5,1330.7,137.3,1330.5,138z"/>
	<path d="M1339.2,143v-8.7c0-0.7,0.1-1.4,0.4-2c0.3-0.6,0.6-1.1,1.1-1.5c0.4-0.4,0.9-0.7,1.5-0.9c0.5-0.2,1.1-0.3,1.6-0.3
		c0.8,0,1.4,0.3,2,1c0.5,0.6,0.8,1.8,0.8,3.4v9.1h2.4v-9.2c0-1.2-0.1-2.1-0.4-2.9c-0.2-0.8-0.6-1.4-1-2c-0.4-0.5-0.9-0.9-1.5-1.1
		c-0.6-0.2-1.2-0.3-1.9-0.3c-0.9,0-1.9,0.3-2.8,0.8c-0.9,0.6-1.6,1.3-2.2,2.2v-2.7h-2.4V143H1339.2z"/>
	<path d="M1357,128c-0.8,0.4-1.6,0.9-2.2,1.5c-0.6,0.7-1.1,1.5-1.5,2.5c-0.4,1-0.5,2.1-0.5,3.4c0,1.3,0.2,2.4,0.5,3.4
		c0.4,1,0.9,1.8,1.5,2.5c0.6,0.7,1.4,1.2,2.3,1.5c0.9,0.3,1.9,0.5,3,0.5c2.3,0,4-0.8,5.3-2.3l-1.3-1.3c-1,1.1-2.3,1.7-3.9,1.7
		c-0.6,0-1.2-0.1-1.8-0.3c-0.6-0.2-1.1-0.5-1.6-0.9c-0.5-0.4-0.9-1-1.2-1.7c-0.3-0.7-0.5-1.6-0.5-2.7h10.8c0-0.2,0-0.4,0-0.5
		c0-0.2,0-0.4,0-0.5c0-1.2-0.2-2.3-0.5-3.2c-0.3-0.9-0.8-1.7-1.4-2.2c-0.6-0.6-1.2-1-2-1.3c-0.8-0.3-1.5-0.4-2.3-0.4
		C1358.8,127.5,1357.9,127.7,1357,128z M1356.8,130.4c0.8-0.7,1.8-1.1,2.8-1.1c0.6,0,1.1,0.1,1.5,0.3c0.5,0.2,0.9,0.5,1.2,0.9
		c0.4,0.4,0.6,0.8,0.8,1.3c0.2,0.5,0.3,1,0.3,1.6c0,0.1,0,0.2,0,0.3c0,0.1,0,0.2,0,0.2h-8.3C1355.4,132.3,1355.9,131.1,1356.8,130.4
		z"/>
	<path d="M1375.7,139.6c-0.5,0-1,0.2-1.4,0.6c-0.4,0.4-0.6,0.8-0.6,1.4s0.2,1,0.6,1.3c0.4,0.4,0.8,0.5,1.4,0.5c0.6,0,1-0.2,1.4-0.6
		c0.4-0.4,0.6-0.8,0.6-1.3c0-0.5-0.2-1-0.6-1.4C1376.6,139.8,1376.2,139.6,1375.7,139.6L1375.7,139.6z"/>
	<path d="M1388.5,129.8h5.7v12.6c0,1.5-0.3,2.6-1,3.3c-0.6,0.7-1.5,1-2.5,1c-0.6,0-1.1-0.1-1.6-0.4c-0.5-0.2-0.8-0.4-1-0.6
		c-0.2-0.2-0.3-0.3-0.4-0.4c-0.1-0.1-0.1-0.3-0.1-0.4c0-0.1-0.1-0.2-0.2-0.3l-1.6,2.1c1.2,1.4,2.7,2.1,4.6,2.1
		c0.8,0,1.6-0.2,2.4-0.4c0.7-0.3,1.4-0.6,1.9-1.1c0.5-0.5,1-1.2,1.3-2c0.3-0.8,0.5-1.8,0.5-2.9v-14.4h-8.1V129.8z M1393.7,123
		c0,0.5,0.2,0.9,0.5,1.2c0.3,0.3,0.7,0.5,1.2,0.5c0.5,0,0.9-0.2,1.2-0.5c0.3-0.3,0.5-0.7,0.5-1.2c0-0.5-0.2-0.9-0.5-1.2
		c-0.3-0.3-0.7-0.5-1.2-0.5c-0.5,0-0.9,0.2-1.2,0.5S1393.7,122.5,1393.7,123L1393.7,123z"/>
	<path d="M1409.6,127.5c-0.8,0-1.6,0.1-2.3,0.4c-0.7,0.2-1.3,0.5-1.9,0.9c-0.5,0.4-0.9,0.8-1.2,1.3c-0.3,0.5-0.4,1-0.4,1.5
		c0,0.5,0.1,0.9,0.3,1.3c0.2,0.4,0.4,0.8,0.7,1.1c0.3,0.3,0.6,0.6,1,0.8s0.9,0.5,1.7,0.8c0.3,0.1,1,0.3,1.9,0.6
		c1.4,0.4,2.4,0.8,2.9,1.2c0.5,0.4,0.8,0.9,0.8,1.5c0,0.4-0.1,0.7-0.3,1c-0.2,0.3-0.5,0.6-0.9,0.8c-0.4,0.2-0.8,0.4-1.2,0.5
		c-0.5,0.1-0.9,0.2-1.4,0.2c-0.4,0-0.8,0-1.3-0.1c-0.4-0.1-0.8-0.2-1.1-0.3c-0.7-0.3-1.3-0.6-1.6-0.9c-0.4-0.3-0.6-0.5-0.7-0.7
		c-0.1-0.2-0.2-0.4-0.2-0.5c0-0.1-0.1-0.3-0.1-0.3l-1.4,2.4c1.7,1.6,3.9,2.4,6.4,2.4c1,0,1.8-0.1,2.6-0.4c0.8-0.3,1.4-0.6,2-1
		c0.6-0.4,1-1,1.3-1.6c0.3-0.6,0.4-1.2,0.4-1.9c0-1-0.4-1.9-1.2-2.6c-0.8-0.7-2.1-1.3-4.1-1.8c-0.8-0.2-1.5-0.5-2.1-0.7
		c-0.5-0.2-0.9-0.4-1.2-0.6c-0.3-0.2-0.5-0.4-0.6-0.6c-0.1-0.2-0.2-0.4-0.2-0.7c0-0.4,0.1-0.7,0.3-0.9c0.2-0.3,0.4-0.5,0.7-0.7
		c0.3-0.2,0.6-0.3,1-0.4c0.4-0.1,0.8-0.1,1.2-0.1c0.9,0,1.8,0.2,2.5,0.6c0.7,0.4,1.3,0.9,1.7,1.4c0,0.1,0.1,0.2,0.1,0.3
		c0,0.2,0.1,0.2,0.2,0.3l1.4-2.1C1413.8,128.3,1412,127.5,1409.6,127.5L1409.6,127.5z"/>
	<path d="M1219.8,221h2.2v-15.5l4.2,8.2h0.9l4.5-8.3V221h2.2v-20.7h-1.8l-5.2,10.2l-5.1-10.1h-1.8V221z"/>
	<path d="M1239.2,209.1c1.1-1.2,2.4-1.7,4.1-1.7c1.3,0,2.3,0.3,2.9,0.9c0.6,0.6,0.9,1.7,0.9,3.2v0.6h-2.9c-2.5,0.1-4.4,0.6-5.7,1.5
		c-1.3,0.9-2,2.1-2,3.6c0,0.5,0.1,1,0.3,1.5c0.2,0.5,0.6,1,1,1.4c0.4,0.4,1,0.7,1.6,1c0.6,0.2,1.3,0.4,2.1,0.4c2,0,3.8-0.7,5.4-2
		v1.7h2.3v-9.4c0-2.2-0.5-3.8-1.6-4.7c-1.1-0.9-2.5-1.4-4.4-1.4c-2.3,0-4.1,0.7-5.4,2.1L1239.2,209.1z M1247.2,214.9
		c0,0.8-0.1,1.3-0.3,1.8c-0.1,0.2-0.3,0.5-0.5,0.8c-0.2,0.3-0.6,0.6-1,0.9c-0.4,0.3-0.9,0.6-1.4,0.8c-0.5,0.2-1.1,0.3-1.8,0.3
		c-0.9,0-1.7-0.3-2.3-0.8c-0.6-0.5-0.9-1.1-0.9-1.8c0-0.4,0.1-0.8,0.2-1.2c0.2-0.4,0.5-0.7,0.9-1c0.4-0.3,1.1-0.5,1.8-0.7
		c0.8-0.2,1.8-0.2,3-0.2c0.3,0,0.5,0,0.8,0c0.3,0,0.6,0,0.9,0h0.6V214.9z"/>
	<path d="M1254.9,221h2.4v-7.4c0-0.8,0.1-1.6,0.4-2.3c0.3-0.7,0.7-1.4,1.1-1.9c0.5-0.6,1-1,1.7-1.4c0.6-0.3,1.3-0.5,2.1-0.5
		c0.4,0,0.7,0,1,0.1c0.3,0.1,0.5,0.2,0.8,0.4c0.2,0.2,0.4,0.3,0.6,0.6c0.2,0.2,0.4,0.5,0.7,0.8l1.1-2.3c-1.1-1.1-2.4-1.7-4.1-1.7
		c-1.2,0-2.2,0.3-3.2,0.8c-1,0.6-1.7,1.4-2.2,2.4l0.1-2.9h-2.5V221z"/>
	<path d="M1271.7,207.8h3.7v11.3h-3.9v1.9h9.8v-1.9h-3.6v-13.2h-6.1V207.8z M1274.9,200.9c0,0.5,0.2,0.9,0.5,1.2
		c0.3,0.3,0.7,0.5,1.2,0.5c0.5,0,0.9-0.2,1.2-0.5c0.3-0.3,0.5-0.7,0.5-1.2c0-0.5-0.2-0.9-0.5-1.2c-0.3-0.3-0.7-0.5-1.2-0.5
		c-0.5,0-0.9,0.2-1.2,0.5C1275.1,200.1,1274.9,200.5,1274.9,200.9L1274.9,200.9z"/>
	<path d="M1290.5,206.1c-0.9,0.4-1.6,1-2.3,1.7c-0.7,0.7-1.2,1.5-1.6,2.5c-0.4,1-0.6,2.1-0.6,3.2c0,1.1,0.2,2.2,0.6,3.2
		c0.4,1,0.9,1.8,1.5,2.5c0.6,0.7,1.4,1.2,2.2,1.6c0.9,0.4,1.8,0.6,2.7,0.6c1,0,1.8-0.2,2.7-0.5c0.8-0.4,1.6-0.9,2.2-1.6
		c0.6-0.7,1.1-1.5,1.5-2.5c0.4-1,0.5-2.1,0.5-3.3c0-1.2-0.2-2.3-0.5-3.3c-0.4-1-0.9-1.8-1.5-2.5c-0.6-0.7-1.3-1.2-2.2-1.6
		c-0.8-0.4-1.7-0.5-2.6-0.5S1291.4,205.7,1290.5,206.1z M1297.3,216c-0.2,0.7-0.6,1.3-1,1.8c-0.4,0.5-0.9,0.9-1.4,1.1
		c-0.5,0.3-1.1,0.4-1.7,0.4c-0.6,0-1.2-0.1-1.8-0.4c-0.6-0.3-1-0.7-1.4-1.2c-0.4-0.5-0.7-1.2-1-1.9c-0.2-0.7-0.4-1.5-0.4-2.4
		c0-0.9,0.1-1.7,0.4-2.4c0.2-0.7,0.6-1.3,1-1.8c0.4-0.5,0.9-0.9,1.4-1.2c0.5-0.3,1.1-0.4,1.7-0.4s1.2,0.1,1.7,0.4
		c0.5,0.3,1,0.7,1.4,1.2c0.4,0.5,0.8,1.1,1,1.9c0.3,0.7,0.4,1.6,0.4,2.5C1297.7,214.4,1297.5,215.3,1297.3,216z"/>
	<path d="M1306,221v-8.7c0-0.7,0.1-1.4,0.4-2c0.3-0.6,0.6-1.1,1.1-1.5c0.4-0.4,0.9-0.7,1.5-0.9c0.5-0.2,1.1-0.3,1.6-0.3
		c0.8,0,1.4,0.3,2,1c0.5,0.6,0.8,1.8,0.8,3.4v9.1h2.4v-9.2c0-1.2-0.1-2.1-0.4-2.9c-0.2-0.8-0.6-1.4-1-2c-0.4-0.5-0.9-0.9-1.5-1.1
		c-0.6-0.2-1.2-0.3-1.9-0.3c-0.9,0-1.9,0.3-2.8,0.8c-0.9,0.6-1.6,1.3-2.2,2.2v-2.7h-2.4V221H1306z"/>
	<path d="M1323.8,206c-0.8,0.4-1.6,0.9-2.2,1.5c-0.6,0.7-1.1,1.5-1.5,2.5c-0.4,1-0.5,2.1-0.5,3.4c0,1.3,0.2,2.4,0.5,3.4
		c0.4,1,0.9,1.8,1.5,2.5c0.6,0.7,1.4,1.2,2.3,1.5c0.9,0.3,1.9,0.5,3,0.5c2.3,0,4-0.8,5.3-2.3l-1.3-1.3c-1,1.1-2.3,1.7-3.9,1.7
		c-0.6,0-1.2-0.1-1.8-0.3c-0.6-0.2-1.1-0.5-1.6-0.9c-0.5-0.4-0.9-1-1.2-1.7c-0.3-0.7-0.5-1.6-0.5-2.7h10.8c0-0.2,0-0.4,0-0.5
		c0-0.2,0-0.4,0-0.5c0-1.2-0.2-2.3-0.5-3.2c-0.3-0.9-0.8-1.7-1.4-2.2c-0.6-0.6-1.2-1-2-1.3c-0.8-0.3-1.5-0.4-2.3-0.4
		C1325.6,205.5,1324.7,205.6,1323.8,206z M1323.6,208.4c0.8-0.7,1.8-1.1,2.8-1.1c0.6,0,1.1,0.1,1.5,0.3c0.5,0.2,0.9,0.5,1.2,0.9
		c0.4,0.4,0.6,0.8,0.8,1.3c0.2,0.5,0.3,1,0.3,1.6c0,0.1,0,0.2,0,0.3c0,0.1,0,0.2,0,0.2h-8.3C1322.2,210.3,1322.7,209.1,1323.6,208.4
		z"/>
	<path d="M1340.5,205.8h-3.7v1.9h3.6c-0.1,1.6-0.2,3.1-0.3,4.3c0,1.2-0.1,2.3-0.1,3.1c-0.1,2.2,0.3,3.7,1,4.7c0.7,1,1.9,1.4,3.5,1.4
		c1.6,0,3.2-0.6,4.7-1.7l-0.7-1.9c-1.2,0.9-2.4,1.4-3.4,1.4c-0.6,0-1.1-0.1-1.4-0.4c-0.4-0.2-0.6-0.6-0.8-1c-0.2-0.4-0.3-1-0.4-1.7
		c0-0.7-0.1-1.6-0.1-2.7c0-1.7,0.1-3.6,0.3-5.6h5v-1.9h-5l0.4-3.6c0-0.1,0.1-0.2,0.1-0.4c0.1-0.2,0.1-0.3,0.1-0.5l-2.6,0.4
		L1340.5,205.8z"/>
	<path d="M1357.1,205.8h-3.7v1.9h3.6c-0.1,1.6-0.2,3.1-0.3,4.3c0,1.2-0.1,2.3-0.1,3.1c-0.1,2.2,0.3,3.7,1,4.7c0.7,1,1.9,1.4,3.5,1.4
		c1.6,0,3.2-0.6,4.7-1.7l-0.7-1.9c-1.2,0.9-2.4,1.4-3.4,1.4c-0.6,0-1.1-0.1-1.4-0.4c-0.4-0.2-0.6-0.6-0.8-1c-0.2-0.4-0.3-1-0.4-1.7
		s-0.1-1.6-0.1-2.7c0-1.7,0.1-3.6,0.3-5.6h5v-1.9h-5l0.4-3.6c0-0.1,0.1-0.2,0.1-0.4c0.1-0.2,0.1-0.3,0.1-0.5l-2.6,0.4L1357.1,205.8z
		"/>
	<path d="M1373.6,206c-0.8,0.4-1.6,0.9-2.2,1.5c-0.6,0.7-1.1,1.5-1.5,2.5c-0.4,1-0.5,2.1-0.5,3.4c0,1.3,0.2,2.4,0.5,3.4
		c0.4,1,0.9,1.8,1.5,2.5c0.6,0.7,1.4,1.2,2.3,1.5c0.9,0.3,1.9,0.5,3,0.5c2.3,0,4-0.8,5.3-2.3l-1.3-1.3c-1,1.1-2.3,1.7-3.9,1.7
		c-0.6,0-1.2-0.1-1.8-0.3c-0.6-0.2-1.1-0.5-1.6-0.9c-0.5-0.4-0.9-1-1.2-1.7c-0.3-0.7-0.5-1.6-0.5-2.7h10.8c0-0.2,0-0.4,0-0.5
		c0-0.2,0-0.4,0-0.5c0-1.2-0.2-2.3-0.5-3.2c-0.3-0.9-0.8-1.7-1.4-2.2c-0.6-0.6-1.2-1-2-1.3c-0.8-0.3-1.5-0.4-2.3-0.4
		C1375.4,205.5,1374.5,205.6,1373.6,206z M1373.4,208.4c0.8-0.7,1.8-1.1,2.8-1.1c0.6,0,1.1,0.1,1.5,0.3c0.5,0.2,0.9,0.5,1.2,0.9
		c0.4,0.4,0.6,0.8,0.8,1.3c0.2,0.5,0.3,1,0.3,1.6c0,0.1,0,0.2,0,0.3c0,0.1,0,0.2,0,0.2h-8.3C1372,210.3,1372.5,209.1,1373.4,208.4z"
		/>
	<path d="M1392.3,217.5c-0.5,0-1,0.2-1.4,0.6c-0.4,0.4-0.6,0.8-0.6,1.4s0.2,1,0.6,1.3c0.4,0.4,0.8,0.5,1.4,0.5c0.6,0,1-0.2,1.4-0.6
		c0.4-0.4,0.6-0.8,0.6-1.3c0-0.5-0.2-1-0.6-1.4C1393.2,217.7,1392.8,217.5,1392.3,217.5L1392.3,217.5z"/>
	<path d="M1405.1,207.8h5.7v12.6c0,1.5-0.3,2.6-1,3.3c-0.6,0.7-1.5,1-2.5,1c-0.6,0-1.1-0.1-1.6-0.4c-0.5-0.2-0.8-0.4-1-0.6
		c-0.2-0.2-0.3-0.3-0.4-0.4c-0.1-0.1-0.1-0.3-0.1-0.4c0-0.1-0.1-0.2-0.2-0.3l-1.6,2.1c1.2,1.4,2.7,2.1,4.6,2.1
		c0.8,0,1.6-0.2,2.4-0.4c0.7-0.3,1.4-0.6,1.9-1.1c0.5-0.5,1-1.2,1.3-2c0.3-0.8,0.5-1.8,0.5-2.9v-14.4h-8.1V207.8z M1410.3,200.9
		c0,0.5,0.2,0.9,0.5,1.2c0.3,0.3,0.7,0.5,1.2,0.5c0.5,0,0.9-0.2,1.2-0.5c0.3-0.3,0.5-0.7,0.5-1.2c0-0.5-0.2-0.9-0.5-1.2
		c-0.3-0.3-0.7-0.5-1.2-0.5c-0.5,0-0.9,0.2-1.2,0.5C1410.4,200.1,1410.3,200.5,1410.3,200.9L1410.3,200.9z"/>
	<path d="M1426.2,205.5c-0.8,0-1.6,0.1-2.3,0.4c-0.7,0.2-1.3,0.5-1.9,0.9c-0.5,0.4-0.9,0.8-1.2,1.3c-0.3,0.5-0.4,1-0.4,1.5
		c0,0.5,0.1,0.9,0.3,1.3c0.2,0.4,0.4,0.8,0.7,1.1c0.3,0.3,0.6,0.6,1,0.8c0.4,0.2,0.9,0.5,1.7,0.8c0.3,0.1,1,0.3,1.9,0.6
		c1.4,0.4,2.4,0.8,2.9,1.2c0.5,0.4,0.8,0.9,0.8,1.5c0,0.4-0.1,0.7-0.3,1c-0.2,0.3-0.5,0.6-0.9,0.8c-0.4,0.2-0.8,0.4-1.2,0.5
		c-0.5,0.1-0.9,0.2-1.4,0.2c-0.4,0-0.8,0-1.3-0.1c-0.4-0.1-0.8-0.2-1.1-0.3c-0.7-0.3-1.3-0.6-1.6-0.9c-0.4-0.3-0.6-0.5-0.7-0.7
		c-0.1-0.2-0.2-0.4-0.2-0.5c0-0.1-0.1-0.3-0.1-0.3l-1.4,2.4c1.7,1.6,3.9,2.4,6.4,2.4c1,0,1.8-0.1,2.6-0.4c0.8-0.3,1.4-0.6,2-1
		c0.6-0.4,1-1,1.3-1.6c0.3-0.6,0.4-1.2,0.4-1.9c0-1-0.4-1.9-1.2-2.6c-0.8-0.7-2.1-1.3-4.1-1.8c-0.8-0.2-1.5-0.5-2.1-0.7
		c-0.5-0.2-0.9-0.4-1.2-0.6c-0.3-0.2-0.5-0.4-0.6-0.6c-0.1-0.2-0.2-0.4-0.2-0.7c0-0.4,0.1-0.7,0.3-0.9c0.2-0.3,0.4-0.5,0.7-0.7
		c0.3-0.2,0.6-0.3,1-0.4c0.4-0.1,0.8-0.1,1.2-0.1c0.9,0,1.8,0.2,2.5,0.6c0.7,0.4,1.3,0.9,1.7,1.4c0,0.1,0.1,0.2,0.1,0.3
		c0,0.2,0.1,0.2,0.2,0.3l1.4-2.1C1430.4,206.3,1428.6,205.5,1426.2,205.5L1426.2,205.5z"/>
	<path d="M1245.1,299h2.4v-9.9h8.1v9.9h2.4v-20c0-0.1,0.1-0.2,0.1-0.3c0.1-0.1,0.1-0.2,0.1-0.3c0,0,0-0.1,0-0.1h-2.6v8.9h-8.1v-8.1
		c0-0.2,0.1-0.3,0.1-0.4c0.1-0.1,0.1-0.2,0.1-0.3c0,0,0-0.1,0-0.1h-2.6V299z"/>
	<path d="M1264.1,287.1c1.1-1.2,2.4-1.7,4.1-1.7c1.3,0,2.3,0.3,2.9,0.9c0.6,0.6,0.9,1.7,0.9,3.2v0.6h-2.9c-2.5,0.1-4.4,0.6-5.7,1.5
		c-1.3,0.9-2,2.1-2,3.6c0,0.5,0.1,1,0.3,1.5c0.2,0.5,0.6,1,1,1.4c0.4,0.4,1,0.7,1.6,1c0.6,0.2,1.3,0.4,2.1,0.4c2,0,3.8-0.7,5.4-2
		v1.7h2.3v-9.4c0-2.2-0.5-3.8-1.6-4.7c-1.1-0.9-2.5-1.4-4.4-1.4c-2.3,0-4.1,0.7-5.4,2.1L1264.1,287.1z M1272.1,292.9
		c0,0.8-0.1,1.3-0.3,1.8c-0.1,0.2-0.3,0.5-0.5,0.8c-0.2,0.3-0.6,0.6-1,0.9c-0.4,0.3-0.9,0.6-1.4,0.8c-0.5,0.2-1.1,0.3-1.8,0.3
		c-0.9,0-1.7-0.3-2.3-0.8c-0.6-0.5-0.9-1.1-0.9-1.8c0-0.4,0.1-0.8,0.2-1.2c0.2-0.4,0.5-0.7,0.9-1c0.4-0.3,1.1-0.5,1.8-0.7
		c0.8-0.2,1.8-0.2,3-0.2c0.3,0,0.5,0,0.8,0c0.3,0,0.6,0,0.9,0h0.6V292.9z"/>
	<path d="M1281.1,299v-8.7c0-0.7,0.1-1.4,0.4-2c0.3-0.6,0.6-1.1,1.1-1.5c0.4-0.4,0.9-0.7,1.5-0.9c0.5-0.2,1.1-0.3,1.6-0.3
		c0.8,0,1.4,0.3,2,1c0.5,0.6,0.8,1.8,0.8,3.4v9.1h2.4v-9.2c0-1.2-0.1-2.1-0.4-2.9c-0.2-0.8-0.6-1.4-1-2c-0.4-0.5-0.9-0.9-1.5-1.1
		c-0.6-0.2-1.2-0.3-1.9-0.3c-0.9,0-1.9,0.3-2.8,0.8c-0.9,0.6-1.6,1.3-2.2,2.2v-2.7h-2.4V299H1281.1z"/>
	<path d="M1303.7,284.1c-0.8-0.5-1.7-0.7-2.7-0.7c-0.8,0-1.5,0.1-2.3,0.4s-1.4,0.8-2,1.4c-0.6,0.6-1.1,1.4-1.5,2.4
		c-0.4,1-0.6,2.2-0.6,3.6c0,1.4,0.2,2.6,0.5,3.6c0.3,1,0.8,1.8,1.3,2.5c0.6,0.7,1.2,1.2,2,1.5c0.7,0.3,1.5,0.5,2.4,0.5
		c0.9,0,1.7-0.2,2.5-0.7c0.8-0.5,1.5-1.2,2-2v1.3c0,0.5,0,0.9,0.1,1.1h2.4c-0.1-0.4-0.2-0.9-0.2-1.4l0-19.7c0-0.2,0.1-0.3,0.2-0.5
		c0.1-0.2,0.2-0.3,0.2-0.4h-2.6v9.1C1305,285.2,1304.4,284.6,1303.7,284.1z M1299.7,285.6c0.4-0.2,1-0.3,1.6-0.3
		c0.3,0,0.6,0.1,1,0.2c0.3,0.1,0.7,0.3,1.1,0.5c0.3,0.2,0.6,0.4,0.8,0.7c0.2,0.3,0.4,0.6,0.5,1c0.1,0.4,0.2,0.9,0.3,1.4
		c0.1,0.6,0.1,1.3,0.1,2.1c0,1.3-0.1,2.4-0.4,3.2c-0.1,0.4-0.3,0.8-0.6,1.1c-0.3,0.3-0.6,0.6-0.9,0.9c-0.3,0.2-0.7,0.4-1,0.5
		c-0.4,0.1-0.7,0.2-1,0.2c-1.4,0-2.5-0.6-3.2-1.7s-1.1-2.7-1.1-4.6c0-2.1,0.5-3.5,1.4-4.4C1298.8,286.1,1299.3,285.8,1299.7,285.6z"
		/>
	<path d="M1312.5,278.8h4.3V297h-4.5v1.9h11.3V297h-4.4v-20.1h-6.7V278.8z"/>
	<path d="M1332.1,284c-0.8,0.4-1.6,0.9-2.2,1.5c-0.6,0.7-1.1,1.5-1.5,2.5c-0.4,1-0.5,2.1-0.5,3.4c0,1.3,0.2,2.4,0.5,3.4
		c0.4,1,0.9,1.8,1.5,2.5c0.6,0.7,1.4,1.2,2.3,1.5c0.9,0.3,1.9,0.5,3,0.5c2.3,0,4-0.8,5.3-2.3l-1.3-1.3c-1,1.1-2.3,1.7-3.9,1.7
		c-0.6,0-1.2-0.1-1.8-0.3c-0.6-0.2-1.1-0.5-1.6-0.9c-0.5-0.4-0.9-1-1.2-1.7c-0.3-0.7-0.5-1.6-0.5-2.7h10.8c0-0.2,0-0.4,0-0.5
		c0-0.2,0-0.4,0-0.5c0-1.2-0.2-2.3-0.5-3.2c-0.3-0.9-0.8-1.7-1.4-2.2c-0.6-0.6-1.2-1-2-1.3c-0.8-0.3-1.5-0.4-2.3-0.4
		C1333.9,283.4,1333,283.6,1332.1,284z M1331.9,286.4c0.8-0.7,1.8-1.1,2.8-1.1c0.6,0,1.1,0.1,1.5,0.3c0.5,0.2,0.9,0.5,1.2,0.9
		c0.4,0.4,0.6,0.8,0.8,1.3c0.2,0.5,0.3,1,0.3,1.6c0,0.1,0,0.2,0,0.3c0,0.1,0,0.2,0,0.2h-8.3C1330.5,288.2,1331,287.1,1331.9,286.4z"
		/>
	<path d="M1344.9,299h1.5l0.8-2c0.5,0.7,1.2,1.3,1.9,1.7c0.8,0.4,1.6,0.6,2.6,0.6c0.8,0,1.6-0.2,2.3-0.5c0.8-0.3,1.4-0.8,2-1.5
		c0.6-0.7,1.1-1.5,1.4-2.5c0.4-1,0.5-2.2,0.5-3.6c0-1.3-0.2-2.4-0.5-3.4c-0.3-1-0.8-1.8-1.4-2.4c-0.6-0.7-1.2-1.1-2-1.5
		c-0.8-0.3-1.6-0.5-2.4-0.5c-0.9,0-1.7,0.2-2.5,0.7c-0.8,0.5-1.5,1.1-2,2v-8.5c0-0.1,0.1-0.2,0.2-0.3c0.1-0.1,0.2-0.2,0.2-0.3v-0.1
		h-2.8V299z M1348.1,295.9c-0.2-0.3-0.4-0.6-0.5-1c-0.1-0.4-0.2-1-0.3-1.6c0-0.6-0.1-1.4-0.1-2.3c0-1.5,0.1-2.6,0.4-3.2
		c0.3-0.7,0.7-1.2,1.4-1.6c0.6-0.4,1.2-0.6,1.8-0.6c1.6,0,2.8,0.5,3.6,1.6c0.8,1.1,1.2,2.6,1.2,4.6c0,1.1-0.2,2-0.5,2.7
		s-0.7,1.3-1.1,1.7c-0.5,0.4-1,0.7-1.5,0.9c-0.5,0.2-1,0.2-1.5,0.2c-0.3,0-0.6,0-0.9-0.1c-0.3-0.1-0.7-0.2-1.1-0.4
		C1348.6,296.4,1348.3,296.2,1348.1,295.9z"/>
	<path d="M1363.6,287.1c1.1-1.2,2.4-1.7,4.1-1.7c1.3,0,2.3,0.3,2.9,0.9c0.6,0.6,0.9,1.7,0.9,3.2v0.6h-2.9c-2.5,0.1-4.4,0.6-5.7,1.5
		c-1.3,0.9-2,2.1-2,3.6c0,0.5,0.1,1,0.3,1.5c0.2,0.5,0.6,1,1,1.4c0.4,0.4,1,0.7,1.6,1c0.6,0.2,1.3,0.4,2.1,0.4c2,0,3.8-0.7,5.4-2
		v1.7h2.3v-9.4c0-2.2-0.5-3.8-1.6-4.7c-1.1-0.9-2.5-1.4-4.4-1.4c-2.3,0-4.1,0.7-5.4,2.1L1363.6,287.1z M1371.7,292.9
		c0,0.8-0.1,1.3-0.3,1.8c-0.1,0.2-0.3,0.5-0.5,0.8c-0.2,0.3-0.6,0.6-1,0.9c-0.4,0.3-0.9,0.6-1.4,0.8c-0.5,0.2-1.1,0.3-1.8,0.3
		c-0.9,0-1.7-0.3-2.3-0.8c-0.6-0.5-0.9-1.1-0.9-1.8c0-0.4,0.1-0.8,0.2-1.2s0.5-0.7,0.9-1c0.4-0.3,1.1-0.5,1.8-0.7
		c0.8-0.2,1.8-0.2,3-0.2c0.3,0,0.5,0,0.8,0c0.3,0,0.6,0,0.9,0h0.6V292.9z"/>
	<path d="M1379.3,299h2.4v-7.4c0-0.8,0.1-1.6,0.4-2.3c0.3-0.7,0.7-1.4,1.1-1.9c0.5-0.6,1-1,1.7-1.4c0.6-0.3,1.3-0.5,2.1-0.5
		c0.4,0,0.7,0,1,0.1c0.3,0.1,0.5,0.2,0.8,0.4c0.2,0.2,0.4,0.3,0.6,0.6c0.2,0.2,0.4,0.5,0.7,0.8l1.1-2.3c-1.1-1.1-2.4-1.7-4.1-1.7
		c-1.2,0-2.2,0.3-3.2,0.8c-1,0.6-1.7,1.4-2.2,2.4l0.1-2.9h-2.5V299z"/>
	<path d="M1401.3,283.4c-0.8,0-1.6,0.1-2.3,0.4c-0.7,0.2-1.3,0.5-1.9,0.9c-0.5,0.4-0.9,0.8-1.2,1.3c-0.3,0.5-0.4,1-0.4,1.5
		c0,0.5,0.1,0.9,0.3,1.3c0.2,0.4,0.4,0.8,0.7,1.1c0.3,0.3,0.6,0.6,1,0.8s0.9,0.5,1.7,0.8c0.3,0.1,1,0.3,1.9,0.6
		c1.4,0.4,2.4,0.8,2.9,1.2c0.5,0.4,0.8,0.9,0.8,1.5c0,0.4-0.1,0.7-0.3,1c-0.2,0.3-0.5,0.6-0.9,0.8c-0.4,0.2-0.8,0.4-1.2,0.5
		c-0.5,0.1-0.9,0.2-1.4,0.2c-0.4,0-0.8,0-1.3-0.1c-0.4-0.1-0.8-0.2-1.1-0.3c-0.7-0.3-1.3-0.6-1.6-0.9c-0.4-0.3-0.6-0.5-0.7-0.7
		c-0.1-0.2-0.2-0.4-0.2-0.5c0-0.1-0.1-0.3-0.1-0.3l-1.4,2.4c1.7,1.6,3.9,2.4,6.4,2.4c1,0,1.8-0.1,2.6-0.4c0.8-0.3,1.4-0.6,2-1
		c0.6-0.4,1-1,1.3-1.6c0.3-0.6,0.4-1.2,0.4-1.9c0-1-0.4-1.9-1.2-2.6c-0.8-0.7-2.1-1.3-4.1-1.8c-0.8-0.2-1.5-0.5-2.1-0.7
		c-0.5-0.2-0.9-0.4-1.2-0.6c-0.3-0.2-0.5-0.4-0.6-0.6c-0.1-0.2-0.2-0.4-0.2-0.7c0-0.4,0.1-0.7,0.3-0.9c0.2-0.3,0.4-0.5,0.7-0.7
		c0.3-0.2,0.6-0.3,1-0.4c0.4-0.1,0.8-0.1,1.2-0.1c0.9,0,1.8,0.2,2.5,0.6c0.7,0.4,1.3,0.9,1.7,1.4c0,0.1,0.1,0.2,0.1,0.3
		c0,0.2,0.1,0.2,0.2,0.3l1.4-2.1C1405.6,284.2,1403.7,283.4,1401.3,283.4L1401.3,283.4z"/>
	<path d="M1271.8,356.8c-1-0.5-2.1-0.7-3.2-0.7c-0.9,0-1.7,0.1-2.5,0.4c-0.8,0.3-1.4,0.7-2,1.2c-0.6,0.5-1,1.1-1.3,1.7
		c-0.3,0.7-0.5,1.4-0.5,2.1c0,0.6,0.1,1.2,0.3,1.7c0.2,0.5,0.5,1,0.9,1.4c0.4,0.4,1,0.9,1.7,1.3c0.7,0.4,1.6,0.9,2.7,1.3
		c1,0.4,1.8,0.7,2.4,1c0.6,0.3,1.1,0.6,1.4,0.9c0.3,0.3,0.6,0.6,0.7,1c0.1,0.3,0.2,0.7,0.2,1.1c0,0.5-0.1,1-0.3,1.5
		c-0.2,0.5-0.5,0.9-0.9,1.2c-0.4,0.3-0.8,0.6-1.3,0.8c-0.5,0.2-1.1,0.3-1.7,0.3c-1.2,0-2.3-0.2-3.1-0.6c-0.9-0.4-1.5-1-2.1-1.6
		c-0.1-0.1-0.1-0.2-0.1-0.4c0-0.2-0.1-0.3-0.2-0.3l-1.4,2.4c1.6,1.8,3.8,2.7,6.5,2.7c1.2,0,2.3-0.2,3.1-0.5c0.9-0.4,1.6-0.8,2.1-1.4
		c0.6-0.6,1-1.2,1.2-1.9c0.3-0.7,0.4-1.4,0.4-2.1c0-0.6-0.1-1.2-0.2-1.7c-0.2-0.5-0.4-1-0.8-1.5c-0.4-0.5-0.9-0.9-1.6-1.3
		c-0.7-0.4-1.5-0.8-2.5-1.2c-1.1-0.4-1.9-0.8-2.6-1.1c-0.7-0.3-1.2-0.7-1.5-1c-0.3-0.3-0.6-0.7-0.8-1c-0.2-0.4-0.2-0.8-0.2-1.3
		c0-0.8,0.3-1.5,1-2.1c0.7-0.6,1.5-0.9,2.5-0.9c1.1,0,2,0.2,2.7,0.6c0.7,0.4,1.3,0.9,1.7,1.5c0,0.1,0.1,0.2,0.1,0.3
		c0,0.1,0.1,0.2,0.2,0.3l1.5-2C1273.6,357.9,1272.8,357.3,1271.8,356.8z"/>
	<path d="M1280.7,365.1c1.1-1.2,2.4-1.7,4.1-1.7c1.3,0,2.3,0.3,2.9,0.9c0.6,0.6,0.9,1.7,0.9,3.2v0.6h-2.9c-2.5,0.1-4.4,0.6-5.7,1.5
		c-1.3,0.9-2,2.1-2,3.6c0,0.5,0.1,1,0.3,1.5c0.2,0.5,0.6,1,1,1.4c0.4,0.4,1,0.7,1.6,1c0.6,0.2,1.3,0.4,2.1,0.4c2,0,3.8-0.7,5.4-2
		v1.7h2.3v-9.4c0-2.2-0.5-3.8-1.6-4.7c-1.1-0.9-2.5-1.4-4.4-1.4c-2.3,0-4.1,0.7-5.4,2.1L1280.7,365.1z M1288.7,370.8
		c0,0.8-0.1,1.3-0.3,1.8c-0.1,0.2-0.3,0.5-0.5,0.8c-0.2,0.3-0.6,0.6-1,0.9c-0.4,0.3-0.9,0.6-1.4,0.8c-0.5,0.2-1.1,0.3-1.8,0.3
		c-0.9,0-1.7-0.3-2.3-0.8c-0.6-0.5-0.9-1.1-0.9-1.8c0-0.4,0.1-0.8,0.2-1.2c0.2-0.4,0.5-0.7,0.9-1c0.4-0.3,1.1-0.5,1.8-0.7
		c0.8-0.2,1.8-0.2,3-0.2c0.3,0,0.5,0,0.8,0c0.3,0,0.6,0,0.9,0h0.6V370.8z"/>
	<path d="M1296.6,363.7h3.7V375h-3.9v1.9h9.8V375h-3.6v-13.2h-6.1V363.7z M1299.8,356.9c0,0.5,0.2,0.9,0.5,1.2
		c0.3,0.3,0.7,0.5,1.2,0.5c0.5,0,0.9-0.2,1.2-0.5c0.3-0.3,0.5-0.7,0.5-1.2c0-0.5-0.2-0.9-0.5-1.2c-0.3-0.3-0.7-0.5-1.2-0.5
		c-0.5,0-0.9,0.2-1.2,0.5C1300,356,1299.8,356.4,1299.8,356.9L1299.8,356.9z"/>
	<path d="M1312.5,356.8h4.3V375h-4.5v1.9h11.3V375h-4.4v-20.1h-6.7V356.8z"/>
	<path d="M1335,361.4c-0.8,0-1.6,0.1-2.3,0.4c-0.7,0.2-1.3,0.5-1.9,0.9c-0.5,0.4-0.9,0.8-1.2,1.3c-0.3,0.5-0.4,1-0.4,1.5
		c0,0.5,0.1,0.9,0.3,1.3c0.2,0.4,0.4,0.8,0.7,1.1c0.3,0.3,0.6,0.6,1,0.8c0.4,0.2,0.9,0.5,1.7,0.8c0.3,0.1,1,0.3,1.9,0.6
		c1.4,0.4,2.4,0.8,2.9,1.2c0.5,0.4,0.8,0.9,0.8,1.5c0,0.4-0.1,0.7-0.3,1c-0.2,0.3-0.5,0.6-0.9,0.8c-0.4,0.2-0.8,0.4-1.2,0.5
		c-0.5,0.1-0.9,0.2-1.4,0.2c-0.4,0-0.8,0-1.3-0.1c-0.4-0.1-0.8-0.2-1.1-0.3c-0.7-0.3-1.3-0.6-1.6-0.9c-0.4-0.3-0.6-0.5-0.7-0.7
		c-0.1-0.2-0.2-0.4-0.2-0.5c0-0.1-0.1-0.3-0.1-0.3l-1.4,2.4c1.7,1.6,3.9,2.4,6.4,2.4c1,0,1.8-0.1,2.6-0.4c0.8-0.3,1.4-0.6,2-1
		c0.6-0.4,1-1,1.3-1.6c0.3-0.6,0.4-1.2,0.4-1.9c0-1-0.4-1.9-1.2-2.6c-0.8-0.7-2.1-1.3-4.1-1.8c-0.8-0.2-1.5-0.5-2.1-0.7
		c-0.5-0.2-0.9-0.4-1.2-0.6c-0.3-0.2-0.5-0.4-0.6-0.6c-0.1-0.2-0.2-0.4-0.2-0.7c0-0.4,0.1-0.7,0.3-0.9c0.2-0.3,0.4-0.5,0.7-0.7
		c0.3-0.2,0.6-0.3,1-0.4c0.4-0.1,0.8-0.1,1.2-0.1c0.9,0,1.8,0.2,2.5,0.6c0.7,0.4,1.3,0.9,1.7,1.4c0,0.1,0.1,0.2,0.1,0.3
		c0,0.2,0.1,0.2,0.2,0.3l1.4-2.1C1339.2,362.2,1337.3,361.4,1335,361.4L1335,361.4z"/>
	<path d="M1350.8,373.5c-0.5,0-1,0.2-1.4,0.6c-0.4,0.4-0.6,0.8-0.6,1.4c0,0.5,0.2,1,0.6,1.3c0.4,0.4,0.8,0.5,1.4,0.5
		c0.6,0,1-0.2,1.4-0.6c0.4-0.4,0.6-0.8,0.6-1.3c0-0.5-0.2-1-0.6-1.4C1351.7,373.7,1351.3,373.5,1350.8,373.5L1350.8,373.5z"/>
	<path d="M1363.6,363.7h5.7v12.6c0,1.5-0.3,2.6-1,3.3c-0.6,0.7-1.5,1-2.5,1c-0.6,0-1.1-0.1-1.6-0.4c-0.5-0.2-0.8-0.4-1-0.6
		c-0.2-0.2-0.3-0.3-0.4-0.4c-0.1-0.1-0.1-0.3-0.1-0.4c0-0.1-0.1-0.2-0.2-0.3l-1.6,2.1c1.2,1.4,2.7,2.1,4.6,2.1
		c0.8,0,1.6-0.2,2.4-0.4c0.7-0.3,1.4-0.6,1.9-1.1c0.5-0.5,1-1.2,1.3-2c0.3-0.8,0.5-1.8,0.5-2.9v-14.4h-8.1V363.7z M1368.8,356.9
		c0,0.5,0.2,0.9,0.5,1.2c0.3,0.3,0.7,0.5,1.2,0.5c0.5,0,0.9-0.2,1.2-0.5c0.3-0.3,0.5-0.7,0.5-1.2c0-0.5-0.2-0.9-0.5-1.2
		c-0.3-0.3-0.7-0.5-1.2-0.5c-0.5,0-0.9,0.2-1.2,0.5C1369,356,1368.8,356.4,1368.8,356.9L1368.8,356.9z"/>
	<path d="M1384.8,361.4c-0.8,0-1.6,0.1-2.3,0.4c-0.7,0.2-1.3,0.5-1.9,0.9c-0.5,0.4-0.9,0.8-1.2,1.3c-0.3,0.5-0.4,1-0.4,1.5
		c0,0.5,0.1,0.9,0.3,1.3c0.2,0.4,0.4,0.8,0.7,1.1c0.3,0.3,0.6,0.6,1,0.8c0.4,0.2,0.9,0.5,1.7,0.8c0.3,0.1,1,0.3,1.9,0.6
		c1.4,0.4,2.4,0.8,2.9,1.2c0.5,0.4,0.8,0.9,0.8,1.5c0,0.4-0.1,0.7-0.3,1c-0.2,0.3-0.5,0.6-0.9,0.8c-0.4,0.2-0.8,0.4-1.2,0.5
		c-0.5,0.1-0.9,0.2-1.4,0.2c-0.4,0-0.8,0-1.3-0.1c-0.4-0.1-0.8-0.2-1.1-0.3c-0.7-0.3-1.3-0.6-1.6-0.9c-0.4-0.3-0.6-0.5-0.7-0.7
		c-0.1-0.2-0.2-0.4-0.2-0.5c0-0.1-0.1-0.3-0.1-0.3l-1.4,2.4c1.7,1.6,3.9,2.4,6.4,2.4c1,0,1.8-0.1,2.6-0.4c0.8-0.3,1.4-0.6,2-1
		c0.6-0.4,1-1,1.3-1.6c0.3-0.6,0.4-1.2,0.4-1.9c0-1-0.4-1.9-1.2-2.6c-0.8-0.7-2.1-1.3-4.1-1.8c-0.8-0.2-1.5-0.5-2.1-0.7
		c-0.5-0.2-0.9-0.4-1.2-0.6c-0.3-0.2-0.5-0.4-0.6-0.6c-0.1-0.2-0.2-0.4-0.2-0.7c0-0.4,0.1-0.7,0.3-0.9c0.2-0.3,0.4-0.5,0.7-0.7
		c0.3-0.2,0.6-0.3,1-0.4c0.4-0.1,0.8-0.1,1.2-0.1c0.9,0,1.8,0.2,2.5,0.6c0.7,0.4,1.3,0.9,1.7,1.4c0,0.1,0.1,0.2,0.1,0.3
		c0,0.2,0.1,0.2,0.2,0.3l1.4-2.1C1389,362.2,1387.1,361.4,1384.8,361.4L1384.8,361.4z"/>
	<path d="M1272.1,455h1l3.6-13.6l3.6,13.6h0.9l3.3-20.8h-2l-1.9,14l-3.4-12.5h-0.7l-3.3,12.4l-2.2-14h-2.2L1272.1,455z"/>
	<path d="M1290.7,439.9c-0.8,0.4-1.6,0.9-2.2,1.5c-0.6,0.7-1.1,1.5-1.5,2.5c-0.4,1-0.5,2.1-0.5,3.4c0,1.3,0.2,2.4,0.5,3.4
		c0.4,1,0.9,1.8,1.5,2.5c0.6,0.7,1.4,1.2,2.3,1.5c0.9,0.3,1.9,0.5,3,0.5c2.3,0,4-0.8,5.3-2.3l-1.3-1.3c-1,1.1-2.3,1.7-3.9,1.7
		c-0.6,0-1.2-0.1-1.8-0.3c-0.6-0.2-1.1-0.5-1.6-0.9c-0.5-0.4-0.9-1-1.2-1.7c-0.3-0.7-0.5-1.6-0.5-2.7h10.8c0-0.2,0-0.4,0-0.5
		c0-0.2,0-0.4,0-0.5c0-1.2-0.2-2.3-0.5-3.2c-0.3-0.9-0.8-1.7-1.4-2.2c-0.6-0.6-1.2-1-2-1.3c-0.8-0.3-1.5-0.4-2.3-0.4
		C1292.4,439.4,1291.5,439.6,1290.7,439.9z M1290.4,442.3c0.8-0.7,1.8-1.1,2.8-1.1c0.6,0,1.1,0.1,1.5,0.3c0.5,0.2,0.9,0.5,1.2,0.9
		c0.4,0.4,0.6,0.8,0.8,1.3c0.2,0.5,0.3,1,0.3,1.6c0,0.1,0,0.2,0,0.3c0,0.1,0,0.2,0,0.2h-8.3C1289,444.2,1289.5,443,1290.4,442.3z"/>
	<path d="M1303.4,454.9h1.5l0.8-2c0.5,0.7,1.2,1.3,1.9,1.7c0.8,0.4,1.6,0.6,2.6,0.6c0.8,0,1.6-0.2,2.3-0.5c0.8-0.3,1.4-0.8,2-1.5
		c0.6-0.7,1.1-1.5,1.4-2.5c0.4-1,0.5-2.2,0.5-3.6c0-1.3-0.2-2.4-0.5-3.4c-0.3-1-0.8-1.8-1.4-2.4c-0.6-0.7-1.2-1.1-2-1.5
		c-0.8-0.3-1.6-0.5-2.4-0.5c-0.9,0-1.7,0.2-2.5,0.7c-0.8,0.5-1.5,1.1-2,2v-8.5c0-0.1,0.1-0.2,0.2-0.3c0.1-0.1,0.2-0.2,0.2-0.3v-0.1
		h-2.8V454.9z M1306.6,451.8c-0.2-0.3-0.4-0.6-0.5-1c-0.1-0.4-0.2-1-0.3-1.6c0-0.6-0.1-1.4-0.1-2.3c0-1.5,0.1-2.6,0.4-3.2
		c0.3-0.7,0.7-1.2,1.4-1.6c0.6-0.4,1.2-0.6,1.8-0.6c1.6,0,2.8,0.5,3.6,1.6c0.8,1.1,1.2,2.6,1.2,4.6c0,1.1-0.2,2-0.5,2.7
		c-0.3,0.7-0.7,1.3-1.1,1.7c-0.5,0.4-1,0.7-1.5,0.9c-0.5,0.2-1,0.2-1.5,0.2c-0.3,0-0.6,0-0.9-0.1c-0.3-0.1-0.7-0.2-1.1-0.4
		C1307.1,452.3,1306.9,452.1,1306.6,451.8z"/>
	<path d="M1320,460.5h2.4v-7.5c0.5,0.8,1.2,1.3,2,1.8c0.8,0.4,1.7,0.6,2.6,0.6c0.8,0,1.6-0.2,2.4-0.5s1.5-0.9,2.1-1.5
		c0.6-0.7,1.1-1.5,1.5-2.5c0.4-1,0.6-2.2,0.6-3.5s-0.2-2.5-0.5-3.5c-0.3-1-0.8-1.8-1.4-2.4c-0.6-0.6-1.3-1.1-2-1.4
		c-0.8-0.3-1.6-0.5-2.4-0.5c-0.9,0-1.7,0.2-2.6,0.7c-0.9,0.5-1.5,1.1-2.1,1.9v-2.3h-2.4V460.5z M1322.3,446.3c0-0.9,0.1-1.7,0.4-2.3
		s0.5-1.1,0.9-1.5c0.4-0.4,0.8-0.6,1.3-0.8c0.5-0.2,0.9-0.2,1.4-0.2c1.5,0,2.6,0.6,3.4,1.7c0.8,1.1,1.2,2.6,1.2,4.5
		c0,1.1-0.1,1.9-0.4,2.6s-0.7,1.3-1.1,1.7c-0.5,0.4-1,0.7-1.5,0.9c-0.6,0.2-1.1,0.3-1.7,0.3c-1,0-1.9-0.4-2.6-1.1
		c-0.7-0.7-1.1-1.9-1.1-3.5V446.3z"/>
	<path d="M1338.7,443.1c1.1-1.2,2.4-1.7,4.1-1.7c1.3,0,2.3,0.3,2.9,0.9c0.6,0.6,0.9,1.7,0.9,3.2v0.6h-2.9c-2.5,0.1-4.4,0.6-5.7,1.5
		c-1.3,0.9-2,2.1-2,3.6c0,0.5,0.1,1,0.3,1.5c0.2,0.5,0.6,1,1,1.4c0.4,0.4,1,0.7,1.6,1c0.6,0.2,1.3,0.4,2.1,0.4c2,0,3.8-0.7,5.4-2
		v1.7h2.3v-9.4c0-2.2-0.5-3.8-1.6-4.7c-1.1-0.9-2.5-1.4-4.4-1.4c-2.3,0-4.1,0.7-5.4,2.1L1338.7,443.1z M1346.8,448.8
		c0,0.8-0.1,1.3-0.3,1.8c-0.1,0.2-0.3,0.5-0.5,0.8c-0.2,0.3-0.6,0.6-1,0.9c-0.4,0.3-0.9,0.6-1.4,0.8c-0.5,0.2-1.1,0.3-1.8,0.3
		c-0.9,0-1.7-0.3-2.3-0.8c-0.6-0.5-0.9-1.1-0.9-1.8c0-0.4,0.1-0.8,0.2-1.2c0.2-0.4,0.5-0.7,0.9-1c0.4-0.3,1.1-0.5,1.8-0.7
		c0.8-0.2,1.8-0.2,3-0.2c0.3,0,0.5,0,0.8,0c0.3,0,0.6,0,0.9,0h0.6V448.8z"/>
	<path d="M1363.9,440.2c-1-0.5-2.1-0.7-3.3-0.7c-1.1,0-2.1,0.2-3.1,0.6c-0.9,0.4-1.7,0.9-2.4,1.6c-0.7,0.7-1.2,1.5-1.6,2.5
		c-0.4,1-0.6,2-0.6,3.2c0,1.2,0.2,2.2,0.6,3.2c0.4,1,0.9,1.8,1.6,2.5c0.7,0.7,1.5,1.3,2.4,1.7c0.9,0.4,1.9,0.6,3,0.6
		c2.2,0,4-0.8,5.5-2.4l-1.4-1.6c-1.1,1.2-2.4,1.8-4,1.8c-0.8,0-1.5-0.1-2.1-0.4c-0.6-0.3-1.2-0.7-1.7-1.2c-0.5-0.5-0.8-1.2-1.1-1.9
		c-0.3-0.7-0.4-1.5-0.4-2.4c0-0.9,0.1-1.6,0.4-2.3c0.3-0.7,0.6-1.3,1.1-1.8c0.4-0.5,1-0.9,1.6-1.1c0.6-0.3,1.2-0.4,1.9-0.4
		c1.3,0,2.4,0.3,3.1,0.9c0.4,0.3,0.7,0.6,0.8,0.8c0.1,0.2,0.2,0.4,0.3,0.5s0,0.2,0,0.3c0,0.1,0,0.1,0.2,0.2l1.7-2
		C1365.7,441.4,1364.9,440.7,1363.9,440.2z"/>
	<path d="M1369.9,454.9h2.4v-5.7l2-1.9l6.2,7.7l3.1-0.1l-7.5-9.1l6.4-6h-0.9c-0.7,0-1.3-0.1-1.8-0.2l-7.6,7v-13c0-0.1,0-0.3,0.1-0.4
		c0.1-0.2,0.1-0.3,0.1-0.4h-2.7V454.9z"/>
	<path d="M1245.2,532.9h2.4v-9.1h4l4.6,9.1h2.6l-4.8-9.2c0.6-0.2,1.2-0.4,1.7-0.8c0.5-0.4,1-0.8,1.3-1.3c0.4-0.5,0.6-1.1,0.8-1.6
		c0.2-0.6,0.3-1.2,0.3-1.8c0-1.8-0.5-3.2-1.6-4.3c-1.1-1.1-2.8-1.6-5.3-1.6h-6.1V532.9z M1251.5,514.4c0.7,0,1.4,0.1,1.9,0.3
		c0.5,0.2,1,0.5,1.3,0.8c0.3,0.3,0.6,0.7,0.7,1.2c0.2,0.4,0.3,0.9,0.3,1.5c0,1.1-0.3,2-1,2.6c-0.7,0.7-1.7,1-3.2,1h-4v-7.3H1251.5z"
		/>
	<path d="M1265.8,517.9c-0.8,0.4-1.6,0.9-2.2,1.5c-0.6,0.7-1.1,1.5-1.5,2.5s-0.5,2.1-0.5,3.4c0,1.3,0.2,2.4,0.5,3.4
		c0.4,1,0.9,1.8,1.5,2.5c0.6,0.7,1.4,1.2,2.3,1.5c0.9,0.3,1.9,0.5,3,0.5c2.3,0,4-0.8,5.3-2.3l-1.3-1.3c-1,1.1-2.3,1.7-3.9,1.7
		c-0.6,0-1.2-0.1-1.8-0.3c-0.6-0.2-1.1-0.5-1.6-0.9c-0.5-0.4-0.9-1-1.2-1.7c-0.3-0.7-0.5-1.6-0.5-2.7h10.8c0-0.2,0-0.4,0-0.5
		c0-0.2,0-0.4,0-0.5c0-1.2-0.2-2.3-0.5-3.2c-0.3-0.9-0.8-1.7-1.4-2.2c-0.6-0.6-1.2-1-2-1.3c-0.8-0.3-1.5-0.4-2.3-0.4
		C1267.5,517.3,1266.6,517.5,1265.8,517.9z M1265.5,520.3c0.8-0.7,1.8-1.1,2.8-1.1c0.6,0,1.1,0.1,1.5,0.3c0.5,0.2,0.9,0.5,1.2,0.9
		c0.4,0.4,0.6,0.8,0.8,1.3c0.2,0.5,0.3,1,0.3,1.6c0,0.1,0,0.2,0,0.3c0,0.1,0,0.2,0,0.2h-8.3C1264.1,522.2,1264.7,521,1265.5,520.3z"
		/>
	<path d="M1288.7,519.5c-0.9-1.5-2.3-2.2-4.1-2.2c-0.9,0-1.8,0.2-2.6,0.5c-0.8,0.4-1.5,0.9-2.1,1.5c-0.6,0.7-1.1,1.5-1.4,2.5
		c-0.4,1-0.5,2.1-0.5,3.3c0,1.2,0.2,2.3,0.5,3.3c0.3,1,0.8,1.8,1.3,2.6c0.6,0.7,1.2,1.3,2,1.6c0.8,0.4,1.6,0.6,2.4,0.6
		c1,0,1.8-0.2,2.7-0.7c0.8-0.5,1.5-1.2,2-2v8h2.4v-20.7h-2.3v2.2C1288.9,519.9,1288.8,519.8,1288.7,519.5L1288.7,519.5z
		 M1287.6,520.5c0.8,0.9,1.1,2.4,1.1,4.5c0,2.1-0.4,3.7-1.1,4.6s-1.7,1.4-3,1.4c-0.6,0-1.2-0.1-1.7-0.4c-0.5-0.3-1-0.7-1.4-1.2
		c-0.4-0.5-0.7-1.2-0.9-1.9c-0.2-0.8-0.3-1.6-0.3-2.6c0-1,0.1-1.8,0.3-2.5c0.2-0.7,0.5-1.3,0.9-1.8s0.8-0.8,1.3-1
		c0.5-0.2,1.1-0.3,1.6-0.3C1285.8,519.2,1286.8,519.7,1287.6,520.5z"/>
	<path d="M1295.1,526.2c0,1.2,0.1,2.3,0.4,3.2c0.3,0.9,0.6,1.6,1.1,2.2c0.5,0.6,1.1,1,1.7,1.3c0.6,0.3,1.3,0.4,2.1,0.4
		c1,0,1.9-0.2,2.7-0.7c0.8-0.5,1.5-1.1,2-2l0,1.2c0,0.2,0,0.5,0,0.6c0,0.2,0,0.4,0.1,0.5h2.5c-0.1-0.4-0.2-0.9-0.2-1.4v-13.8h-2.4
		v8.4c0,0.9-0.1,1.7-0.3,2.3c-0.2,0.6-0.5,1.2-0.9,1.6c-0.4,0.4-0.8,0.7-1.3,0.9c-0.5,0.2-1,0.4-1.5,0.4c-0.5,0-0.9-0.1-1.3-0.3
		c-0.4-0.2-0.8-0.5-1.1-0.9c-0.3-0.4-0.6-0.9-0.8-1.6c-0.2-0.7-0.3-1.5-0.3-2.4v-8.5h-2.4L1295.1,526.2z"/>
	<path d="M1313.2,519.6h3.7V531h-3.9v1.9h9.8V531h-3.6v-13.2h-6.1V519.6z M1316.4,512.8c0,0.5,0.2,0.9,0.5,1.2
		c0.3,0.3,0.7,0.5,1.2,0.5c0.5,0,0.9-0.2,1.2-0.5c0.3-0.3,0.5-0.7,0.5-1.2s-0.2-0.9-0.5-1.2c-0.3-0.3-0.7-0.5-1.2-0.5
		c-0.5,0-0.9,0.2-1.2,0.5C1316.6,511.9,1316.4,512.3,1316.4,512.8L1316.4,512.8z"/>
	<path d="M1329.6,532.9h2.4v-7.4c0-0.8,0.1-1.6,0.4-2.3c0.3-0.7,0.7-1.4,1.1-1.9c0.5-0.6,1-1,1.7-1.4c0.6-0.3,1.3-0.5,2.1-0.5
		c0.4,0,0.7,0,1,0.1c0.3,0.1,0.5,0.2,0.8,0.4c0.2,0.2,0.4,0.3,0.6,0.6c0.2,0.2,0.4,0.5,0.7,0.8l1.1-2.3c-1.1-1.1-2.4-1.7-4.1-1.7
		c-1.2,0-2.2,0.3-3.2,0.8c-1,0.6-1.7,1.4-2.2,2.4l0.1-2.9h-2.5V532.9z"/>
	<path d="M1348.7,517.9c-0.8,0.4-1.6,0.9-2.2,1.5c-0.6,0.7-1.1,1.5-1.5,2.5c-0.4,1-0.5,2.1-0.5,3.4c0,1.3,0.2,2.4,0.5,3.4
		c0.4,1,0.9,1.8,1.5,2.5c0.6,0.7,1.4,1.2,2.3,1.5c0.9,0.3,1.9,0.5,3,0.5c2.3,0,4-0.8,5.3-2.3l-1.3-1.3c-1,1.1-2.3,1.7-3.9,1.7
		c-0.6,0-1.2-0.1-1.8-0.3c-0.6-0.2-1.1-0.5-1.6-0.9c-0.5-0.4-0.9-1-1.2-1.7c-0.3-0.7-0.5-1.6-0.5-2.7h10.8c0-0.2,0-0.4,0-0.5
		c0-0.2,0-0.4,0-0.5c0-1.2-0.2-2.3-0.5-3.2c-0.3-0.9-0.8-1.7-1.4-2.2c-0.6-0.6-1.2-1-2-1.3c-0.8-0.3-1.5-0.4-2.3-0.4
		C1350.5,517.3,1349.6,517.5,1348.7,517.9z M1348.5,520.3c0.8-0.7,1.8-1.1,2.8-1.1c0.6,0,1.1,0.1,1.5,0.3c0.5,0.2,0.9,0.5,1.2,0.9
		c0.4,0.4,0.6,0.8,0.8,1.3c0.2,0.5,0.3,1,0.3,1.6c0,0.1,0,0.2,0,0.3c0,0.1,0,0.2,0,0.2h-8.3C1347.1,522.2,1347.6,521,1348.5,520.3z"
		/>
	<path d="M1367.4,529.4c-0.5,0-1,0.2-1.4,0.6c-0.4,0.4-0.6,0.8-0.6,1.4s0.2,1,0.6,1.3c0.4,0.4,0.8,0.5,1.4,0.5c0.6,0,1-0.2,1.4-0.6
		c0.4-0.4,0.6-0.8,0.6-1.3c0-0.5-0.2-1-0.6-1.4C1368.3,529.6,1367.9,529.4,1367.4,529.4L1367.4,529.4z"/>
	<path d="M1380.2,519.6h5.7v12.6c0,1.5-0.3,2.6-1,3.3c-0.6,0.7-1.5,1-2.5,1c-0.6,0-1.1-0.1-1.6-0.4c-0.5-0.2-0.8-0.4-1-0.6
		c-0.2-0.2-0.3-0.3-0.4-0.4c-0.1-0.1-0.1-0.3-0.1-0.4c0-0.1-0.1-0.2-0.2-0.3l-1.6,2.1c1.2,1.4,2.7,2.1,4.6,2.1
		c0.8,0,1.6-0.2,2.4-0.4c0.7-0.3,1.4-0.6,1.9-1.1c0.5-0.5,1-1.2,1.3-2c0.3-0.8,0.5-1.8,0.5-2.9v-14.4h-8.1V519.6z M1385.4,512.8
		c0,0.5,0.2,0.9,0.5,1.2c0.3,0.3,0.7,0.5,1.2,0.5c0.5,0,0.9-0.2,1.2-0.5c0.3-0.3,0.5-0.7,0.5-1.2c0-0.5-0.2-0.9-0.5-1.2
		c-0.3-0.3-0.7-0.5-1.2-0.5c-0.5,0-0.9,0.2-1.2,0.5C1385.5,511.9,1385.4,512.3,1385.4,512.8L1385.4,512.8z"/>
	<path d="M1401.3,517.3c-0.8,0-1.6,0.1-2.3,0.4c-0.7,0.2-1.3,0.5-1.9,0.9c-0.5,0.4-0.9,0.8-1.2,1.3c-0.3,0.5-0.4,1-0.4,1.5
		c0,0.5,0.1,0.9,0.3,1.3c0.2,0.4,0.4,0.8,0.7,1.1c0.3,0.3,0.6,0.6,1,0.8c0.4,0.2,0.9,0.5,1.7,0.8c0.3,0.1,1,0.3,1.9,0.6
		c1.4,0.4,2.4,0.8,2.9,1.2c0.5,0.4,0.8,0.9,0.8,1.5c0,0.4-0.1,0.7-0.3,1c-0.2,0.3-0.5,0.6-0.9,0.8s-0.8,0.4-1.2,0.5
		c-0.5,0.1-0.9,0.2-1.4,0.2c-0.4,0-0.8,0-1.3-0.1c-0.4-0.1-0.8-0.2-1.1-0.3c-0.7-0.3-1.3-0.6-1.6-0.9c-0.4-0.3-0.6-0.5-0.7-0.7
		c-0.1-0.2-0.2-0.4-0.2-0.5c0-0.1-0.1-0.3-0.1-0.3l-1.4,2.4c1.7,1.6,3.9,2.4,6.4,2.4c1,0,1.8-0.1,2.6-0.4c0.8-0.3,1.4-0.6,2-1
		c0.6-0.4,1-1,1.3-1.6c0.3-0.6,0.4-1.2,0.4-1.9c0-1-0.4-1.9-1.2-2.6c-0.8-0.7-2.1-1.3-4.1-1.8c-0.8-0.2-1.5-0.5-2.1-0.7
		c-0.5-0.2-0.9-0.4-1.2-0.6c-0.3-0.2-0.5-0.4-0.6-0.6c-0.1-0.2-0.2-0.4-0.2-0.7c0-0.4,0.1-0.7,0.3-0.9c0.2-0.3,0.4-0.5,0.7-0.7
		c0.3-0.2,0.6-0.3,1-0.4s0.8-0.1,1.2-0.1c0.9,0,1.8,0.2,2.5,0.6c0.7,0.4,1.3,0.9,1.7,1.4c0,0.1,0.1,0.2,0.1,0.3
		c0,0.2,0.1,0.2,0.2,0.3l1.4-2.1C1405.6,518.1,1403.7,517.3,1401.3,517.3L1401.3,517.3z"/>
	<path d="M1272.6,590.9c-1.1-0.6-2.3-0.9-3.5-0.9c-0.7,0-1.5,0.1-2.4,0.4c-0.9,0.3-1.8,0.8-2.6,1.6c-0.9,0.8-1.6,1.9-2.1,3.3
		c-0.5,1.5-0.8,3.3-0.8,5.4c0,1.6,0.2,3,0.5,4.3c0.4,1.3,0.9,2.4,1.6,3.3c0.7,0.9,1.5,1.6,2.5,2.1c1,0.5,2.1,0.7,3.3,0.7
		c2.1,0,4.1-0.7,6.1-2.2v-8.1h-5.9v2h3.8v4.9c-1.2,0.8-2.5,1.3-3.9,1.3c-0.8,0-1.6-0.2-2.3-0.6c-0.7-0.4-1.3-1-1.8-1.7
		c-0.5-0.7-0.9-1.7-1.2-2.8c-0.3-1.1-0.4-2.4-0.4-3.8c0-1.6,0.2-2.9,0.5-4c0.3-1.1,0.8-1.9,1.3-2.5c0.6-0.6,1.2-1.1,1.8-1.4
		c0.7-0.3,1.3-0.4,2-0.4c0.9,0,1.7,0.2,2.4,0.7c0.7,0.5,1.2,1,1.5,1.8c0.2,0.3,0.3,0.5,0.4,0.6l1.6-1.7
		C1274.5,592.4,1273.7,591.6,1272.6,590.9z"/>
	<path d="M1279.8,610.9h2.4v-7.4c0-0.8,0.1-1.6,0.4-2.3c0.3-0.7,0.7-1.4,1.1-1.9c0.5-0.6,1-1,1.7-1.4c0.6-0.3,1.3-0.5,2.1-0.5
		c0.4,0,0.7,0,1,0.1c0.3,0.1,0.5,0.2,0.8,0.4c0.2,0.2,0.4,0.3,0.6,0.6c0.2,0.2,0.4,0.5,0.7,0.8l1.1-2.3c-1.1-1.1-2.4-1.7-4.1-1.7
		c-1.2,0-2.2,0.3-3.2,0.8s-1.7,1.4-2.2,2.4l0.1-2.9h-2.5V610.9z"/>
	<path d="M1295.1,604.1c0,1.2,0.1,2.3,0.4,3.2c0.3,0.9,0.6,1.6,1.1,2.2c0.5,0.6,1.1,1,1.7,1.3c0.6,0.3,1.3,0.4,2.1,0.4
		c1,0,1.9-0.2,2.7-0.7c0.8-0.5,1.5-1.1,2-2l0,1.2c0,0.2,0,0.5,0,0.6c0,0.2,0,0.4,0.1,0.5h2.5c-0.1-0.4-0.2-0.9-0.2-1.4v-13.8h-2.4
		v8.4c0,0.9-0.1,1.7-0.3,2.3c-0.2,0.6-0.5,1.2-0.9,1.6c-0.4,0.4-0.8,0.7-1.3,0.9c-0.5,0.2-1,0.4-1.5,0.4c-0.5,0-0.9-0.1-1.3-0.3
		c-0.4-0.2-0.8-0.5-1.1-0.9c-0.3-0.4-0.6-0.9-0.8-1.6c-0.2-0.7-0.3-1.5-0.3-2.4v-8.5h-2.4L1295.1,604.1z"/>
	<path d="M1314.3,610.9v-8.7c0-0.7,0.1-1.4,0.4-2c0.3-0.6,0.6-1.1,1.1-1.5c0.4-0.4,0.9-0.7,1.5-0.9c0.5-0.2,1.1-0.3,1.6-0.3
		c0.8,0,1.4,0.3,2,1c0.5,0.6,0.8,1.8,0.8,3.4v9.1h2.4v-9.2c0-1.2-0.1-2.1-0.4-2.9c-0.2-0.8-0.6-1.4-1-2c-0.4-0.5-0.9-0.9-1.5-1.1
		c-0.6-0.2-1.2-0.3-1.9-0.3c-0.9,0-1.9,0.3-2.8,0.8c-0.9,0.6-1.6,1.3-2.2,2.2v-2.7h-2.4v15.2H1314.3z"/>
	<path d="M1332.2,595.7h-3.7v1.9h3.6c-0.1,1.6-0.2,3.1-0.3,4.3c0,1.2-0.1,2.3-0.1,3.1c-0.1,2.2,0.3,3.7,1,4.7c0.7,1,1.9,1.4,3.5,1.4
		c1.6,0,3.2-0.6,4.7-1.7l-0.7-1.9c-1.2,0.9-2.4,1.4-3.4,1.4c-0.6,0-1.1-0.1-1.4-0.4c-0.4-0.2-0.6-0.6-0.8-1c-0.2-0.4-0.3-1-0.4-1.7
		c0-0.7-0.1-1.6-0.1-2.7c0-1.7,0.1-3.6,0.3-5.6h5v-1.9h-5l0.4-3.6c0-0.1,0.1-0.2,0.1-0.4c0.1-0.2,0.1-0.3,0.1-0.5l-2.6,0.4
		L1332.2,595.7z"/>
	<path d="M1350.8,607.4c-0.5,0-1,0.2-1.4,0.6c-0.4,0.4-0.6,0.8-0.6,1.4c0,0.5,0.2,1,0.6,1.3c0.4,0.4,0.8,0.5,1.4,0.5
		c0.6,0,1-0.2,1.4-0.6c0.4-0.4,0.6-0.8,0.6-1.3c0-0.5-0.2-1-0.6-1.4C1351.7,607.6,1351.3,607.4,1350.8,607.4L1350.8,607.4z"/>
	<path d="M1363.6,597.6h5.7v12.6c0,1.5-0.3,2.6-1,3.3c-0.6,0.7-1.5,1-2.5,1c-0.6,0-1.1-0.1-1.6-0.4c-0.5-0.2-0.8-0.4-1-0.6
		c-0.2-0.2-0.3-0.3-0.4-0.4c-0.1-0.1-0.1-0.3-0.1-0.4c0-0.1-0.1-0.2-0.2-0.3l-1.6,2.1c1.2,1.4,2.7,2.1,4.6,2.1
		c0.8,0,1.6-0.2,2.4-0.4c0.7-0.3,1.4-0.6,1.9-1.1c0.5-0.5,1-1.2,1.3-2c0.3-0.8,0.5-1.8,0.5-2.9v-14.4h-8.1V597.6z M1368.8,590.8
		c0,0.5,0.2,0.9,0.5,1.2c0.3,0.3,0.7,0.5,1.2,0.5c0.5,0,0.9-0.2,1.2-0.5c0.3-0.3,0.5-0.7,0.5-1.2c0-0.5-0.2-0.9-0.5-1.2
		c-0.3-0.3-0.7-0.5-1.2-0.5c-0.5,0-0.9,0.2-1.2,0.5C1369,589.9,1368.8,590.3,1368.8,590.8L1368.8,590.8z"/>
	<path d="M1384.8,595.3c-0.8,0-1.6,0.1-2.3,0.4c-0.7,0.2-1.3,0.5-1.9,0.9c-0.5,0.4-0.9,0.8-1.2,1.3c-0.3,0.5-0.4,1-0.4,1.5
		c0,0.5,0.1,0.9,0.3,1.3c0.2,0.4,0.4,0.8,0.7,1.1c0.3,0.3,0.6,0.6,1,0.8c0.4,0.2,0.9,0.5,1.7,0.8c0.3,0.1,1,0.3,1.9,0.6
		c1.4,0.4,2.4,0.8,2.9,1.2c0.5,0.4,0.8,0.9,0.8,1.5c0,0.4-0.1,0.7-0.3,1s-0.5,0.6-0.9,0.8c-0.4,0.2-0.8,0.4-1.2,0.5
		c-0.5,0.1-0.9,0.2-1.4,0.2c-0.4,0-0.8,0-1.3-0.1c-0.4-0.1-0.8-0.2-1.1-0.3c-0.7-0.3-1.3-0.6-1.6-0.9s-0.6-0.5-0.7-0.7
		c-0.1-0.2-0.2-0.4-0.2-0.5c0-0.1-0.1-0.3-0.1-0.3l-1.4,2.4c1.7,1.6,3.9,2.4,6.4,2.4c1,0,1.8-0.1,2.6-0.4c0.8-0.3,1.4-0.6,2-1
		c0.6-0.4,1-1,1.3-1.6c0.3-0.6,0.4-1.2,0.4-1.9c0-1-0.4-1.9-1.2-2.6c-0.8-0.7-2.1-1.3-4.1-1.8c-0.8-0.2-1.5-0.5-2.1-0.7
		s-0.9-0.4-1.2-0.6c-0.3-0.2-0.5-0.4-0.6-0.6c-0.1-0.2-0.2-0.4-0.2-0.7c0-0.4,0.1-0.7,0.3-0.9c0.2-0.3,0.4-0.5,0.7-0.7
		c0.3-0.2,0.6-0.3,1-0.4s0.8-0.1,1.2-0.1c0.9,0,1.8,0.2,2.5,0.6c0.7,0.4,1.3,0.9,1.7,1.4c0,0.1,0.1,0.2,0.1,0.3
		c0,0.2,0.1,0.2,0.2,0.3l1.4-2.1C1389,596.1,1387.1,595.3,1384.8,595.3L1384.8,595.3z"/>
	<path d="M1269.5,688.8h2.2v-15.5l4.2,8.2h0.9l4.5-8.3v15.6h2.2v-20.7h-1.8l-5.2,10.2l-5.1-10.1h-1.8V688.8z"/>
	<path d="M1290.5,673.9c-0.9,0.4-1.6,1-2.3,1.7c-0.7,0.7-1.2,1.5-1.6,2.5c-0.4,1-0.6,2.1-0.6,3.2s0.2,2.2,0.6,3.2
		c0.4,1,0.9,1.8,1.5,2.5c0.6,0.7,1.4,1.2,2.2,1.6c0.9,0.4,1.8,0.6,2.7,0.6c1,0,1.8-0.2,2.7-0.5c0.8-0.4,1.6-0.9,2.2-1.6
		c0.6-0.7,1.1-1.5,1.5-2.5c0.4-1,0.5-2.1,0.5-3.3c0-1.2-0.2-2.3-0.5-3.3c-0.4-1-0.9-1.8-1.5-2.5c-0.6-0.7-1.3-1.2-2.2-1.6
		c-0.8-0.4-1.7-0.5-2.6-0.5S1291.4,673.5,1290.5,673.9z M1297.3,683.8c-0.2,0.7-0.6,1.3-1,1.8c-0.4,0.5-0.9,0.9-1.4,1.1
		c-0.5,0.3-1.1,0.4-1.7,0.4c-0.6,0-1.2-0.1-1.8-0.4c-0.6-0.3-1-0.7-1.4-1.2c-0.4-0.5-0.7-1.2-1-1.9c-0.2-0.7-0.4-1.5-0.4-2.4
		c0-0.9,0.1-1.7,0.4-2.4c0.2-0.7,0.6-1.3,1-1.8c0.4-0.5,0.9-0.9,1.4-1.2c0.5-0.3,1.1-0.4,1.7-0.4s1.2,0.1,1.7,0.4
		c0.5,0.3,1,0.7,1.4,1.2c0.4,0.5,0.8,1.1,1,1.9c0.3,0.7,0.4,1.6,0.4,2.5C1297.7,682.3,1297.5,683.1,1297.3,683.8z"/>
	<path d="M1306,688.8v-8.7c0-0.7,0.1-1.4,0.4-2c0.3-0.6,0.6-1.1,1.1-1.5c0.4-0.4,0.9-0.7,1.5-0.9c0.5-0.2,1.1-0.3,1.6-0.3
		c0.8,0,1.4,0.3,2,1c0.5,0.6,0.8,1.8,0.8,3.4v9.1h2.4v-9.2c0-1.2-0.1-2.1-0.4-2.9s-0.6-1.4-1-2c-0.4-0.5-0.9-0.9-1.5-1.1
		c-0.6-0.2-1.2-0.3-1.9-0.3c-0.9,0-1.9,0.3-2.8,0.8c-0.9,0.6-1.6,1.3-2.2,2.2v-2.7h-2.4v15.2H1306z"/>
	<path d="M1325.5,675.1c0.4,0,0.9,0.1,1.3,0.3c0.4,0.2,0.8,0.4,1.1,0.7c0.3,0.3,0.6,0.7,0.7,1.1c0.2,0.4,0.3,0.8,0.3,1.3
		s-0.1,0.9-0.3,1.3c-0.2,0.4-0.4,0.7-0.7,1.1c-0.3,0.3-0.7,0.6-1.1,0.7c-0.4,0.2-0.8,0.3-1.3,0.3c-0.4,0-0.9-0.1-1.3-0.3
		c-0.4-0.2-0.8-0.4-1.1-0.7c-0.3-0.3-0.5-0.6-0.7-1.1c-0.2-0.4-0.3-0.8-0.3-1.3s0.1-0.9,0.2-1.3c0.2-0.4,0.4-0.8,0.7-1.1
		C1323.8,675.4,1324.6,675.1,1325.5,675.1L1325.5,675.1z M1325.5,673.2c-0.7,0-1.4,0.1-2.1,0.4c-0.7,0.3-1.3,0.7-1.8,1.1
		c-0.5,0.5-0.9,1.1-1.2,1.7c-0.3,0.7-0.5,1.4-0.5,2.1c0,0.8,0.2,1.6,0.6,2.3c0.4,0.7,1,1.3,1.7,1.8c-1.2,1-1.7,1.9-1.7,2.9
		c0,1,0.4,1.7,1.2,2.1c-1.7,1-2.5,2.2-2.5,3.4c0,0.5,0.1,0.9,0.4,1.4c0.3,0.4,0.7,0.8,1.2,1.1c0.5,0.3,1.2,0.6,2.1,0.8
		c0.9,0.2,1.9,0.3,3.1,0.3c1.2,0,2.2-0.1,3.1-0.4c0.9-0.3,1.6-0.6,2.2-1c0.6-0.4,1-0.9,1.3-1.5c0.3-0.6,0.4-1.1,0.4-1.7
		c0-0.5-0.1-1-0.3-1.5c-0.2-0.5-0.6-0.9-1-1.2c-0.4-0.3-1-0.6-1.7-0.8c-0.7-0.2-1.6-0.3-2.6-0.3c-0.4,0-0.8,0-1.2,0
		c-0.4,0-0.9,0-1.3,0c-0.8,0-1.3-0.1-1.8-0.3c-0.4-0.2-0.6-0.5-0.6-0.9c0-0.5,0.4-1,1.1-1.7c0.7,0.2,1.3,0.4,1.9,0.4
		c0.8,0,1.5-0.1,2.1-0.4c0.7-0.3,1.2-0.7,1.7-1.1c0.5-0.5,0.9-1,1.2-1.7c0.3-0.6,0.4-1.3,0.4-2c0-0.9-0.3-1.8-0.8-2.6
		c0.8-0.5,1.6-0.7,2.6-0.7c0.2,0,0.3,0,0.4,0c0.1,0,0.3,0,0.4,0l-0.3-2h-0.4c-1.5,0-2.7,0.5-3.8,1.4
		C1328.2,673.6,1327,673.2,1325.5,673.2L1325.5,673.2z M1325.1,688.1c0.7,0,1.4,0,2.3,0c0.1,0,0.2,0,0.3,0c0.1,0,0.2,0,0.3,0
		c1,0,1.7,0.2,2.1,0.5c0.5,0.3,0.7,0.8,0.7,1.4c0,0.8-0.4,1.5-1.3,2c-0.9,0.5-2,0.7-3.4,0.7c-0.6,0-1.3,0-1.8-0.1
		c-0.6-0.1-1.1-0.2-1.5-0.4c-0.4-0.2-0.8-0.4-1-0.7c-0.3-0.3-0.4-0.7-0.4-1.1c0-0.8,0.6-1.6,1.9-2.3
		C1323.8,688.1,1324.4,688.1,1325.1,688.1z"/>
	<path d="M1340.3,673.9c-0.9,0.4-1.6,1-2.3,1.7c-0.7,0.7-1.2,1.5-1.6,2.5c-0.4,1-0.6,2.1-0.6,3.2s0.2,2.2,0.6,3.2
		c0.4,1,0.9,1.8,1.5,2.5c0.6,0.7,1.4,1.2,2.2,1.6c0.9,0.4,1.8,0.6,2.7,0.6c1,0,1.8-0.2,2.7-0.5c0.8-0.4,1.6-0.9,2.2-1.6
		c0.6-0.7,1.1-1.5,1.5-2.5c0.4-1,0.5-2.1,0.5-3.3c0-1.2-0.2-2.3-0.5-3.3c-0.4-1-0.9-1.8-1.5-2.5c-0.6-0.7-1.3-1.2-2.2-1.6
		c-0.8-0.4-1.7-0.5-2.6-0.5S1341.2,673.5,1340.3,673.9z M1347.1,683.8c-0.2,0.7-0.6,1.3-1,1.8c-0.4,0.5-0.9,0.9-1.4,1.1
		c-0.5,0.3-1.1,0.4-1.7,0.4c-0.6,0-1.2-0.1-1.8-0.4c-0.6-0.3-1-0.7-1.4-1.2c-0.4-0.5-0.7-1.2-1-1.9c-0.2-0.7-0.4-1.5-0.4-2.4
		c0-0.9,0.1-1.7,0.4-2.4c0.2-0.7,0.6-1.3,1-1.8c0.4-0.5,0.9-0.9,1.4-1.2c0.5-0.3,1.1-0.4,1.7-0.4s1.2,0.1,1.7,0.4
		c0.5,0.3,1,0.7,1.4,1.2c0.4,0.5,0.8,1.1,1,1.9c0.3,0.7,0.4,1.6,0.4,2.5C1347.4,682.3,1347.3,683.1,1347.1,683.8z"/>
	<path d="M1353,688.9h4.4c1.6,0,3-0.2,4.1-0.7c1.1-0.5,2-1.1,2.7-2c0.7-0.9,1.2-2,1.6-3.2c0.4-1.3,0.6-2.7,0.6-4.3
		c0-1.6-0.2-3.1-0.5-4.3c-0.3-1.3-0.8-2.4-1.5-3.3c-0.7-0.9-1.5-1.6-2.5-2.1c-1-0.5-2.4-0.7-4.1-0.7h-4.8V688.9z M1357.6,670.1
		c2.3,0,3.9,0.8,4.9,2.3s1.5,3.6,1.5,6.4c0,2.7-0.5,4.7-1.6,6.2c-1.1,1.4-2.8,2.1-5.2,2.1h-2.1v-17H1357.6z"/>
	<path d="M1369.4,688.8h5.8c2.7,0,4.6-0.5,5.9-1.6c1.2-1.1,1.9-2.5,1.9-4.2c0-0.6-0.1-1.1-0.3-1.7c-0.2-0.5-0.4-1-0.8-1.5
		c-0.4-0.5-0.8-0.9-1.2-1.2c-0.5-0.4-1-0.6-1.6-0.8c1-0.4,1.7-1,2.3-1.8c0.5-0.9,0.8-1.8,0.8-2.8c0-0.7-0.1-1.4-0.4-2
		c-0.3-0.6-0.7-1.1-1.2-1.6c-0.5-0.5-1.2-0.8-2.1-1c-0.9-0.2-1.9-0.3-3.1-0.3h-5.9V688.8z M1375.2,670.1c0.8,0,1.5,0.1,2,0.3
		c0.5,0.2,1,0.4,1.3,0.7s0.6,0.7,0.8,1.1c0.2,0.4,0.3,0.8,0.3,1.3c0,0.5-0.2,0.9-0.3,1.3c-0.2,0.4-0.4,0.8-0.8,1.1
		c-0.4,0.3-0.8,0.5-1.4,0.7c-0.6,0.2-1.3,0.2-2.3,0.2h-3.2v-6.6H1375.2z M1375.1,678.6c1,0,1.8,0.1,2.5,0.3c0.7,0.2,1.3,0.5,1.7,0.9
		c0.4,0.4,0.7,0.8,0.9,1.3c0.2,0.5,0.3,1.1,0.4,1.7c-0.1,1.1-0.5,2.1-1.2,2.8c-0.7,0.7-1.9,1.1-3.7,1.1h-4v-8.2H1375.1z"/>
	<path d="M1305,746.7c-1-0.5-2.1-0.7-3.2-0.7c-0.9,0-1.7,0.1-2.5,0.4c-0.8,0.3-1.4,0.7-2,1.2c-0.6,0.5-1,1.1-1.3,1.7
		c-0.3,0.7-0.5,1.4-0.5,2.1c0,0.6,0.1,1.2,0.3,1.7c0.2,0.5,0.5,1,0.9,1.4c0.4,0.4,1,0.9,1.7,1.3c0.7,0.4,1.6,0.9,2.7,1.3
		c1,0.4,1.8,0.7,2.4,1c0.6,0.3,1.1,0.6,1.4,0.9c0.3,0.3,0.6,0.6,0.7,1c0.1,0.3,0.2,0.7,0.2,1.1c0,0.5-0.1,1-0.3,1.5
		c-0.2,0.5-0.5,0.9-0.9,1.2c-0.4,0.3-0.8,0.6-1.3,0.8c-0.5,0.2-1.1,0.3-1.7,0.3c-1.2,0-2.3-0.2-3.1-0.6c-0.9-0.4-1.5-1-2.1-1.6
		c-0.1-0.1-0.1-0.2-0.1-0.4c0-0.2-0.1-0.3-0.2-0.3l-1.4,2.4c1.6,1.8,3.8,2.7,6.5,2.7c1.2,0,2.3-0.2,3.1-0.5c0.9-0.4,1.6-0.8,2.1-1.4
		c0.6-0.6,1-1.2,1.2-1.9c0.3-0.7,0.4-1.4,0.4-2.1c0-0.6-0.1-1.2-0.2-1.7c-0.2-0.5-0.4-1-0.8-1.5c-0.4-0.5-0.9-0.9-1.6-1.3
		c-0.7-0.4-1.5-0.8-2.5-1.2c-1.1-0.4-1.9-0.8-2.6-1.1c-0.7-0.3-1.2-0.7-1.5-1c-0.3-0.3-0.6-0.7-0.8-1c-0.2-0.4-0.2-0.8-0.2-1.3
		c0-0.8,0.3-1.5,1-2.1c0.7-0.6,1.5-0.9,2.5-0.9c1.1,0,2,0.2,2.7,0.6c0.7,0.4,1.3,0.9,1.7,1.5c0,0.1,0.1,0.2,0.1,0.3
		c0,0.1,0.1,0.2,0.2,0.3l1.5-2C1306.8,747.8,1306,747.1,1305,746.7z"/>
	<path d="M1312.5,766.8l2-6h6.6l2.3,6h2.4l-8-21h-0.3l-7.3,21H1312.5z M1314.9,759l2.7-7.9l2.9,7.9H1314.9z"/>
	<path d="M1338.2,746.7c-1-0.5-2.1-0.7-3.2-0.7c-0.9,0-1.7,0.1-2.5,0.4c-0.8,0.3-1.4,0.7-2,1.2c-0.6,0.5-1,1.1-1.3,1.7
		c-0.3,0.7-0.5,1.4-0.5,2.1c0,0.6,0.1,1.2,0.3,1.7c0.2,0.5,0.5,1,0.9,1.4c0.4,0.4,1,0.9,1.7,1.3c0.7,0.4,1.6,0.9,2.7,1.3
		c1,0.4,1.8,0.7,2.4,1c0.6,0.3,1.1,0.6,1.4,0.9c0.3,0.3,0.6,0.6,0.7,1c0.1,0.3,0.2,0.7,0.2,1.1c0,0.5-0.1,1-0.3,1.5
		c-0.2,0.5-0.5,0.9-0.9,1.2c-0.4,0.3-0.8,0.6-1.3,0.8c-0.5,0.2-1.1,0.3-1.7,0.3c-1.2,0-2.3-0.2-3.1-0.6c-0.9-0.4-1.5-1-2.1-1.6
		c-0.1-0.1-0.1-0.2-0.1-0.4c0-0.2-0.1-0.3-0.2-0.3l-1.4,2.4c1.6,1.8,3.8,2.7,6.5,2.7c1.2,0,2.3-0.2,3.1-0.5c0.9-0.4,1.6-0.8,2.1-1.4
		s1-1.2,1.2-1.9c0.3-0.7,0.4-1.4,0.4-2.1c0-0.6-0.1-1.2-0.2-1.7c-0.2-0.5-0.4-1-0.8-1.5c-0.4-0.5-0.9-0.9-1.6-1.3
		c-0.7-0.4-1.5-0.8-2.5-1.2c-1.1-0.4-1.9-0.8-2.6-1.1c-0.7-0.3-1.2-0.7-1.5-1c-0.3-0.3-0.6-0.7-0.8-1c-0.2-0.4-0.2-0.8-0.2-1.3
		c0-0.8,0.3-1.5,1-2.1c0.7-0.6,1.5-0.9,2.5-0.9c1.1,0,2,0.2,2.7,0.6c0.7,0.4,1.3,0.9,1.7,1.5c0,0.1,0.1,0.2,0.1,0.3
		c0,0.1,0.1,0.2,0.2,0.3l1.5-2C1340,747.8,1339.1,747.1,1338.2,746.7z"/>
	<path d="M1354.7,746.7c-1-0.5-2.1-0.7-3.2-0.7c-0.9,0-1.7,0.1-2.5,0.4c-0.8,0.3-1.4,0.7-2,1.2s-1,1.1-1.3,1.7
		c-0.3,0.7-0.5,1.4-0.5,2.1c0,0.6,0.1,1.2,0.3,1.7c0.2,0.5,0.5,1,0.9,1.4c0.4,0.4,1,0.9,1.7,1.3c0.7,0.4,1.6,0.9,2.7,1.3
		c1,0.4,1.8,0.7,2.4,1c0.6,0.3,1.1,0.6,1.4,0.9c0.3,0.3,0.6,0.6,0.7,1c0.1,0.3,0.2,0.7,0.2,1.1c0,0.5-0.1,1-0.3,1.5
		c-0.2,0.5-0.5,0.9-0.9,1.2c-0.4,0.3-0.8,0.6-1.3,0.8c-0.5,0.2-1.1,0.3-1.7,0.3c-1.2,0-2.3-0.2-3.1-0.6c-0.9-0.4-1.5-1-2.1-1.6
		c-0.1-0.1-0.1-0.2-0.1-0.4c0-0.2-0.1-0.3-0.2-0.3l-1.4,2.4c1.6,1.8,3.8,2.7,6.5,2.7c1.2,0,2.3-0.2,3.1-0.5c0.9-0.4,1.6-0.8,2.1-1.4
		s1-1.2,1.2-1.9c0.3-0.7,0.4-1.4,0.4-2.1c0-0.6-0.1-1.2-0.2-1.7c-0.2-0.5-0.4-1-0.8-1.5c-0.4-0.5-0.9-0.9-1.6-1.3
		c-0.7-0.4-1.5-0.8-2.5-1.2c-1.1-0.4-1.9-0.8-2.6-1.1c-0.7-0.3-1.2-0.7-1.5-1c-0.3-0.3-0.6-0.7-0.8-1c-0.2-0.4-0.2-0.8-0.2-1.3
		c0-0.8,0.3-1.5,1-2.1c0.7-0.6,1.5-0.9,2.5-0.9c1.1,0,2,0.2,2.7,0.6c0.7,0.4,1.3,0.9,1.7,1.5c0,0.1,0.1,0.2,0.1,0.3
		c0,0.1,0.1,0.2,0.2,0.3l1.5-2C1356.6,747.8,1355.7,747.1,1354.7,746.7z"/>
	<path d="M1306.4,829.1l2.2-1.1c-0.3-0.6-0.6-1.2-1.1-1.7c-0.4-0.5-0.9-0.9-1.5-1.3c-0.6-0.4-1.2-0.6-1.8-0.8
		c-0.7-0.2-1.3-0.3-2-0.3c-0.8,0-1.7,0.2-2.6,0.5c-0.9,0.3-1.7,0.9-2.5,1.7c-0.8,0.8-1.4,1.9-1.9,3.3c-0.5,1.4-0.7,3.1-0.7,5.1
		c0,1.8,0.2,3.4,0.6,4.7c0.4,1.3,1,2.4,1.8,3.3c0.8,0.9,1.6,1.5,2.5,1.9c0.9,0.4,2,0.6,3.2,0.6c0.5,0,1.1-0.1,1.6-0.2
		c0.5-0.1,1-0.4,1.6-0.6c0.5-0.3,1-0.6,1.5-1.1c0.5-0.4,0.9-0.9,1.2-1.5l-1.7-1.1c-0.5,0.8-1.1,1.4-1.8,1.9
		c-0.8,0.5-1.6,0.7-2.4,0.7c-0.8,0-1.5-0.2-2.2-0.6c-0.7-0.4-1.3-1-1.8-1.8c-0.5-0.8-0.9-1.7-1.2-2.8c-0.3-1.1-0.4-2.3-0.4-3.6
		c0-1.3,0.1-2.6,0.4-3.6c0.3-1.1,0.7-2,1.2-2.7c0.5-0.7,1.1-1.3,1.8-1.7c0.7-0.4,1.4-0.6,2.1-0.6c0.8,0,1.5,0.2,2.3,0.6
		c0.7,0.4,1.3,1,1.7,1.7c0.1,0.1,0.1,0.3,0.1,0.6C1306.3,828.9,1306.3,829,1306.4,829.1L1306.4,829.1z"/>
	<path d="M1321.6,824.6c-1-0.5-2.1-0.7-3.2-0.7c-0.9,0-1.7,0.1-2.5,0.4c-0.8,0.3-1.4,0.7-2,1.2s-1,1.1-1.3,1.7
		c-0.3,0.7-0.5,1.4-0.5,2.1c0,0.6,0.1,1.2,0.3,1.7c0.2,0.5,0.5,1,0.9,1.4c0.4,0.4,1,0.9,1.7,1.3c0.7,0.4,1.6,0.9,2.7,1.3
		c1,0.4,1.8,0.7,2.4,1c0.6,0.3,1.1,0.6,1.4,0.9s0.6,0.6,0.7,1c0.1,0.3,0.2,0.7,0.2,1.1c0,0.5-0.1,1-0.3,1.5
		c-0.2,0.5-0.5,0.9-0.9,1.2c-0.4,0.3-0.8,0.6-1.3,0.8c-0.5,0.2-1.1,0.3-1.7,0.3c-1.2,0-2.3-0.2-3.1-0.6s-1.5-1-2.1-1.6
		c-0.1-0.1-0.1-0.2-0.1-0.4c0-0.2-0.1-0.3-0.2-0.3l-1.4,2.4c1.6,1.8,3.8,2.7,6.5,2.7c1.2,0,2.3-0.2,3.1-0.5c0.9-0.4,1.6-0.8,2.1-1.4
		c0.6-0.6,1-1.2,1.2-1.9c0.3-0.7,0.4-1.4,0.4-2.1c0-0.6-0.1-1.2-0.2-1.7c-0.2-0.5-0.4-1-0.8-1.5c-0.4-0.5-0.9-0.9-1.6-1.3
		c-0.7-0.4-1.5-0.8-2.5-1.2c-1.1-0.4-1.9-0.8-2.6-1.1c-0.7-0.3-1.2-0.7-1.5-1c-0.3-0.3-0.6-0.7-0.8-1c-0.2-0.4-0.2-0.8-0.2-1.3
		c0-0.8,0.3-1.5,1-2.1c0.7-0.6,1.5-0.9,2.5-0.9c1.1,0,2,0.2,2.7,0.6c0.7,0.4,1.3,0.9,1.7,1.5c0,0.1,0.1,0.2,0.1,0.3
		c0,0.1,0.1,0.2,0.2,0.3l1.5-2C1323.4,825.7,1322.6,825.1,1321.6,824.6z"/>
	<path d="M1338.2,824.6c-1-0.5-2.1-0.7-3.2-0.7c-0.9,0-1.7,0.1-2.5,0.4c-0.8,0.3-1.4,0.7-2,1.2c-0.6,0.5-1,1.1-1.3,1.7
		c-0.3,0.7-0.5,1.4-0.5,2.1c0,0.6,0.1,1.2,0.3,1.7c0.2,0.5,0.5,1,0.9,1.4c0.4,0.4,1,0.9,1.7,1.3c0.7,0.4,1.6,0.9,2.7,1.3
		c1,0.4,1.8,0.7,2.4,1c0.6,0.3,1.1,0.6,1.4,0.9s0.6,0.6,0.7,1c0.1,0.3,0.2,0.7,0.2,1.1c0,0.5-0.1,1-0.3,1.5
		c-0.2,0.5-0.5,0.9-0.9,1.2c-0.4,0.3-0.8,0.6-1.3,0.8c-0.5,0.2-1.1,0.3-1.7,0.3c-1.2,0-2.3-0.2-3.1-0.6c-0.9-0.4-1.5-1-2.1-1.6
		c-0.1-0.1-0.1-0.2-0.1-0.4c0-0.2-0.1-0.3-0.2-0.3l-1.4,2.4c1.6,1.8,3.8,2.7,6.5,2.7c1.2,0,2.3-0.2,3.1-0.5c0.9-0.4,1.6-0.8,2.1-1.4
		s1-1.2,1.2-1.9c0.3-0.7,0.4-1.4,0.4-2.1c0-0.6-0.1-1.2-0.2-1.7c-0.2-0.5-0.4-1-0.8-1.5c-0.4-0.5-0.9-0.9-1.6-1.3
		c-0.7-0.4-1.5-0.8-2.5-1.2c-1.1-0.4-1.9-0.8-2.6-1.1c-0.7-0.3-1.2-0.7-1.5-1c-0.3-0.3-0.6-0.7-0.8-1c-0.2-0.4-0.2-0.8-0.2-1.3
		c0-0.8,0.3-1.5,1-2.1c0.7-0.6,1.5-0.9,2.5-0.9c1.1,0,2,0.2,2.7,0.6c0.7,0.4,1.3,0.9,1.7,1.5c0,0.1,0.1,0.2,0.1,0.3
		c0,0.1,0.1,0.2,0.2,0.3l1.5-2C1340,825.7,1339.1,825.1,1338.2,824.6z"/>
	<path d="M1356.1,827.3c-0.3-0.6-0.7-1.2-1.2-1.7c-0.5-0.5-1.1-0.9-1.8-1.1c-0.7-0.3-1.4-0.4-2.2-0.4c-1.9,0-3.6,0.7-4.9,2.2
		l1.3,1.4c1-1.1,2.1-1.6,3.6-1.6c0.5,0,1,0.1,1.5,0.3c0.4,0.2,0.8,0.4,1.1,0.7c0.3,0.3,0.6,0.6,0.7,1c0.2,0.4,0.3,0.7,0.3,1.1
		c0,0.6-0.1,1.1-0.3,1.5c-0.2,0.5-0.5,0.9-0.9,1.2c-0.4,0.4-1,0.6-1.7,0.8c-0.7,0.2-1.5,0.3-2.6,0.3v1.9c0.2,0,0.3,0,0.5,0
		c0.2,0,0.3,0,0.5,0c1.5,0,2.6,0.3,3.5,1c0.9,0.7,1.3,1.6,1.3,2.8c0,0.6-0.1,1.1-0.3,1.6c-0.2,0.5-0.5,1-0.9,1.3
		c-0.4,0.4-0.8,0.7-1.3,0.9c-0.5,0.2-1.1,0.3-1.7,0.3c-0.6,0-1.1-0.1-1.7-0.3c-0.5-0.2-0.9-0.4-1.1-0.6l-0.5-0.4
		c-0.1-0.1-0.2-0.3-0.2-0.5c0-0.2-0.1-0.3-0.2-0.4l-1.8,2.1c1.4,1.6,3.2,2.4,5.2,2.4c1,0,2-0.2,2.8-0.5c0.8-0.3,1.5-0.8,2.1-1.3
		c0.6-0.6,1-1.2,1.3-1.9c0.3-0.7,0.4-1.5,0.4-2.3c0-1.2-0.3-2.3-1-3.3c-0.7-1-1.5-1.6-2.6-2c0.9-0.4,1.7-0.9,2.2-1.8
		c0.6-0.8,0.8-1.7,0.8-2.7C1356.5,828.6,1356.4,827.9,1356.1,827.3z"/>
</g>
</svg>
