<svg id="014f93d4-1f8f-4f17-9fc9-ca3c3a7e3fbb" data-name="Layer 1" xmlns="http://www.w3.org/2000/svg" viewBox="0 0 523.09 79.86">
  <defs>
    <style>
      .\37 b9a6618-bb08-4caf-b49c-a3be7067dd1a {
        fill: #231f20;
      }
    </style>
  </defs>
  <title>Untitled-1</title>
  <g>
    <path class="7b9a6618-bb08-4caf-b49c-a3be7067dd1a" d="M9.61,26.33h3.27V15L22.43,1.38H18.78l-4.2,6.07c-1.14,1.65-2.21,3.2-3.24,4.79H11.27C10.2,10.61,9.1,9,8,7.48L3.79,1.38H0L9.61,15.06V26.33Z"/>
    <path class="7b9a6618-bb08-4caf-b49c-a3be7067dd1a" d="M20.13,17.85a8.73,8.73,0,0,0,9,8.86,8.73,8.73,0,0,0,9-8.86,8.73,8.73,0,0,0-9-8.86A8.73,8.73,0,0,0,20.13,17.85Zm3.1,0a5.86,5.86,0,1,1,11.72,0A5.86,5.86,0,1,1,23.23,17.85Z"/>
    <path class="7b9a6618-bb08-4caf-b49c-a3be7067dd1a" d="M43.63,24.81a6.06,6.06,0,0,0,4.62,1.9,8.31,8.31,0,0,0,5.86-2.55l0.07,0v2.14h3.1v-17h-3.1V21a7.25,7.25,0,0,1-5.31,2.89,3.31,3.31,0,0,1-2.69-1.17C45.59,22,45.35,21,45.35,19.16V9.37h-3.1V19.75C42.25,22.16,42.66,23.67,43.63,24.81Z"/>
    <path class="7b9a6618-bb08-4caf-b49c-a3be7067dd1a" d="M62.17,10h2.1L67.1,0.76h-3Z"/>
    <path class="7b9a6618-bb08-4caf-b49c-a3be7067dd1a" d="M72,26.33h3.1V0H72V26.33Z"/>
    <path class="7b9a6618-bb08-4caf-b49c-a3be7067dd1a" d="M80.5,26.33h3.1V0H80.5V26.33Z"/>
    <path class="7b9a6618-bb08-4caf-b49c-a3be7067dd1a" d="M100.49,25.81l0.07,0a9.56,9.56,0,0,0,4.17.93,8.58,8.58,0,0,0,8.86-8.93c0-5.24-3.65-8.79-8.2-8.79a8.37,8.37,0,0,0-4.82,1.52l-0.07,0V9.37h-3.1V33.91h3.1v-8.1Zm0-3V13.34a7.07,7.07,0,0,1,4.38-1.55c3.38,0,5.58,2.79,5.58,6.24s-2.27,6-5.65,6A9.33,9.33,0,0,1,100.49,22.81Z"/>
    <path class="7b9a6618-bb08-4caf-b49c-a3be7067dd1a" d="M117.89,26.33H121v-11a5.55,5.55,0,0,1,5-3,5,5,0,0,1,1.21.14V9.37a4.2,4.2,0,0,0-1.1-.14,6.18,6.18,0,0,0-5,2.65l-0.07,0V9.37h-3.1v17Z"/>
    <path class="7b9a6618-bb08-4caf-b49c-a3be7067dd1a" d="M129,17.85a9,9,0,0,0,17.92,0A9,9,0,0,0,129,17.85Zm3.1,0a5.86,5.86,0,1,1,11.72,0A5.86,5.86,0,1,1,132.06,17.85Z"/>
    <path class="7b9a6618-bb08-4caf-b49c-a3be7067dd1a" d="M151.15,26.33l3-.52a11.07,11.07,0,0,0,4.24.9,8.77,8.77,0,0,0,9-9.1c0-5.13-3.69-8.62-8.27-8.62a9,9,0,0,0-4.79,1.38l-0.07,0V0h-3.1V26.33Zm3.1-3.45V13.37a7,7,0,0,1,4.48-1.59c3.34,0,5.51,2.58,5.51,6s-2.31,6.2-5.75,6.2A9.11,9.11,0,0,1,154.25,22.88Z"/>
    <path class="7b9a6618-bb08-4caf-b49c-a3be7067dd1a" d="M176.34,26.71a8,8,0,0,0,5.2-1.86h0.07a3.6,3.6,0,0,0,3.27,1.79,4.42,4.42,0,0,0,1.65-.31V23.74a2.37,2.37,0,0,1-1,.24c-0.93,0-1.31-.76-1.31-1.79V15a5.71,5.71,0,0,0-1.69-4.45A7.37,7.37,0,0,0,177.48,9a10.67,10.67,0,0,0-5.65,1.45v3a8.84,8.84,0,0,1,5.2-1.69,4.6,4.6,0,0,1,3.14.93,3.66,3.66,0,0,1,1,2.79v1.41a14.86,14.86,0,0,0-3.62-.45,8.85,8.85,0,0,0-4.76,1.14,4.71,4.71,0,0,0-2.24,4.14,4.52,4.52,0,0,0,1.79,3.76A6.77,6.77,0,0,0,176.34,26.71ZM176.89,24c-1.83,0-3.24-.83-3.24-2.48,0-2,2.07-2.62,4.17-2.62a12.79,12.79,0,0,1,3.31.45v3.17A7.07,7.07,0,0,1,176.89,24Z"/>
    <path class="7b9a6618-bb08-4caf-b49c-a3be7067dd1a" d="M190,26.33l3-.52a11.07,11.07,0,0,0,4.24.9,8.77,8.77,0,0,0,9-9.1c0-5.13-3.69-8.62-8.27-8.62a9,9,0,0,0-4.79,1.38l-0.07,0V0H190V26.33Zm3.1-3.45V13.37a7,7,0,0,1,4.48-1.59c3.34,0,5.51,2.58,5.51,6s-2.31,6.2-5.75,6.2A9.11,9.11,0,0,1,193.09,22.88Z"/>
    <path class="7b9a6618-bb08-4caf-b49c-a3be7067dd1a" d="M210.49,26.33h3.1V0h-3.1V26.33Z"/>
    <path class="7b9a6618-bb08-4caf-b49c-a3be7067dd1a" d="M222.93,33.91L234.41,9.37h-3.27l-3,6.41c-0.79,1.72-1.55,3.41-2.31,5.1h-0.07c-0.69-1.55-1.52-3.38-2.31-5.1l-3-6.41h-3.45l7.06,15.13-4.58,9.41h3.38Z"/>
    <path class="7b9a6618-bb08-4caf-b49c-a3be7067dd1a" d="M250.4,26.33h3.1l2.65-7.27c0.59-1.55,1.17-3.27,1.65-4.76h0.07c0.48,1.48,1.07,3.2,1.65,4.76l2.65,7.27h3.07l5.89-17H267.9L265.39,17c-0.59,1.76-1.14,3.48-1.65,5.2h-0.07c-0.59-1.72-1.21-3.48-1.86-5.24L259,9.37h-2.21L254,16.92c-0.62,1.69-1.28,3.52-1.86,5.24h-0.07c-0.55-1.76-1.1-3.48-1.69-5.24l-2.52-7.55H244.5Z"/>
    <path class="7b9a6618-bb08-4caf-b49c-a3be7067dd1a" d="M278.66,26.71a8,8,0,0,0,5.2-1.86h0.07a3.6,3.6,0,0,0,3.27,1.79,4.42,4.42,0,0,0,1.65-.31V23.74a2.37,2.37,0,0,1-1,.24c-0.93,0-1.31-.76-1.31-1.79V15a5.71,5.71,0,0,0-1.69-4.45A7.37,7.37,0,0,0,279.79,9a10.67,10.67,0,0,0-5.65,1.45v3a8.84,8.84,0,0,1,5.2-1.69,4.6,4.6,0,0,1,3.14.93,3.66,3.66,0,0,1,1,2.79v1.41a14.86,14.86,0,0,0-3.62-.45,8.85,8.85,0,0,0-4.76,1.14,4.71,4.71,0,0,0-2.24,4.14,4.52,4.52,0,0,0,1.79,3.76A6.77,6.77,0,0,0,278.66,26.71ZM279.21,24c-1.83,0-3.24-.83-3.24-2.48,0-2,2.07-2.62,4.17-2.62a12.79,12.79,0,0,1,3.31.45v3.17A7.07,7.07,0,0,1,279.21,24Z"/>
    <path class="7b9a6618-bb08-4caf-b49c-a3be7067dd1a" d="M292.3,26.33h3.1V14.71a7.14,7.14,0,0,1,5.31-2.83,3.51,3.51,0,0,1,2.72,1.1c0.55,0.65.79,1.69,0.79,3.45v9.89h3.1V15.85c0-2.62-.48-3.93-1.41-5A5.86,5.86,0,0,0,301.4,9a8.41,8.41,0,0,0-5.93,2.55l-0.07,0V9.37h-3.1v17Z"/>
    <path class="7b9a6618-bb08-4caf-b49c-a3be7067dd1a" d="M315.29,25.12a4.92,4.92,0,0,0,3.86,1.59,7.54,7.54,0,0,0,3.07-.62V23.16a5.13,5.13,0,0,1-2.55.72c-2.24,0-2.55-1.93-2.55-4V12.16h5.1V9.37h-5.1V4.24l-3.1.52V9.37h-3.14v2.79H314v8.27C314,22.81,314.46,24.19,315.29,25.12Z"/>
    <path class="7b9a6618-bb08-4caf-b49c-a3be7067dd1a" d="M337,25.12a4.92,4.92,0,0,0,3.86,1.59,7.54,7.54,0,0,0,3.07-.62V23.16a5.13,5.13,0,0,1-2.55.72c-2.24,0-2.55-1.93-2.55-4V12.16H344V9.37h-5.1V4.24l-3.1.52V9.37h-3.14v2.79h3.14v8.27C335.76,22.81,336.21,24.19,337,25.12Z"/>
    <path class="7b9a6618-bb08-4caf-b49c-a3be7067dd1a" d="M346.27,17.85a9,9,0,0,0,17.92,0A9,9,0,0,0,346.27,17.85Zm3.1,0a5.86,5.86,0,1,1,11.72,0A5.86,5.86,0,1,1,349.37,17.85Z"/>
    <path class="7b9a6618-bb08-4caf-b49c-a3be7067dd1a" d="M376.8,26.33h3.1V14.71a7.4,7.4,0,0,1,5.41-2.83A3.22,3.22,0,0,1,387.9,13c0.59,0.65.83,1.55,0.83,3.45v9.89h3.1V15.85c0-2.62-.48-3.93-1.41-5A5.86,5.86,0,0,0,385.9,9,8.41,8.41,0,0,0,380,11.54l-0.07,0V0h-3.1V26.33Z"/>
    <path class="7b9a6618-bb08-4caf-b49c-a3be7067dd1a" d="M396.58,3.55a2.17,2.17,0,1,0,2.17-2.17A2.16,2.16,0,0,0,396.58,3.55Zm0.62,22.78h3.1v-17h-3.1v17Z"/>
    <path class="7b9a6618-bb08-4caf-b49c-a3be7067dd1a" d="M405.75,26.33h3.1v-11a5.55,5.55,0,0,1,5-3,5,5,0,0,1,1.21.14V9.37a4.2,4.2,0,0,0-1.1-.14,6.18,6.18,0,0,0-5,2.65l-0.07,0V9.37h-3.1v17Z"/>
    <path class="7b9a6618-bb08-4caf-b49c-a3be7067dd1a" d="M432.87,18.75a10.64,10.64,0,0,0,.1-1.55c0-5.31-3.58-8.2-7.72-8.2a8.45,8.45,0,0,0-8.44,8.86c0,5.34,3.93,8.86,9.17,8.86A12,12,0,0,0,432,25.12V21.81a9.66,9.66,0,0,1-5.86,2.1c-3.34,0-5.82-1.83-6.27-5.17h13Zm-7.68-7A4.59,4.59,0,0,1,430,16.3H420A5.18,5.18,0,0,1,425.19,11.79Z"/>
    <path class="7b9a6618-bb08-4caf-b49c-a3be7067dd1a" d="M469.06,26.33h3.1V15.75c0-2.31-.38-3.83-1.41-5A5.79,5.79,0,0,0,466.3,9a9.19,9.19,0,0,0-6.44,2.93A5.61,5.61,0,0,0,454.65,9a8.16,8.16,0,0,0-5.75,2.48l-0.07,0V9.37h-3.1v17h3.1V14.54A7.19,7.19,0,0,1,454,11.89,3.27,3.27,0,0,1,456.58,13c0.59,0.69.79,1.52,0.79,3.34v10h3.1V15.75c0-.41,0-0.83,0-1.21a7.38,7.38,0,0,1,5.17-2.65,3.4,3.4,0,0,1,2.58,1,5,5,0,0,1,.86,3.38v10Z"/>
    <path class="7b9a6618-bb08-4caf-b49c-a3be7067dd1a" d="M492.42,18.75a10.64,10.64,0,0,0,.1-1.55c0-5.31-3.58-8.2-7.72-8.2a8.45,8.45,0,0,0-8.44,8.86c0,5.34,3.93,8.86,9.17,8.86a12,12,0,0,0,6.07-1.59V21.81a9.66,9.66,0,0,1-5.86,2.1c-3.34,0-5.82-1.83-6.27-5.17h13Zm-7.68-7a4.59,4.59,0,0,1,4.79,4.51h-10A5.18,5.18,0,0,1,484.74,11.79Z"/>
    <path class="7b9a6618-bb08-4caf-b49c-a3be7067dd1a" d="M497,24.43a2.27,2.27,0,1,0,2.27-2.27A2.29,2.29,0,0,0,497,24.43Z"/>
    <path class="7b9a6618-bb08-4caf-b49c-a3be7067dd1a" d="M507.79,24.43a2.27,2.27,0,1,0,2.27-2.27A2.29,2.29,0,0,0,507.79,24.43Z"/>
    <path class="7b9a6618-bb08-4caf-b49c-a3be7067dd1a" d="M518.54,24.43a2.27,2.27,0,1,0,2.27-2.27A2.29,2.29,0,0,0,518.54,24.43Z"/>
    <path class="7b9a6618-bb08-4caf-b49c-a3be7067dd1a" d="M9.61,72.28h3.27V61l9.55-13.65H18.78l-4.2,6.07c-1.14,1.65-2.21,3.2-3.24,4.79H11.27C10.2,56.56,9.1,55,8,53.43l-4.24-6.1H0L9.61,61V72.28Z"/>
    <path class="7b9a6618-bb08-4caf-b49c-a3be7067dd1a" d="M20.13,63.8a8.73,8.73,0,0,0,9,8.86,8.86,8.86,0,1,0,0-17.71A8.73,8.73,0,0,0,20.13,63.8Zm3.1,0a5.86,5.86,0,1,1,5.86,6A5.81,5.81,0,0,1,23.23,63.8Z"/>
    <path class="7b9a6618-bb08-4caf-b49c-a3be7067dd1a" d="M43.63,70.76a6.06,6.06,0,0,0,4.62,1.9,8.31,8.31,0,0,0,5.86-2.55l0.07,0v2.14h3.1v-17h-3.1V66.9a7.25,7.25,0,0,1-5.31,2.89,3.31,3.31,0,0,1-2.69-1.17c-0.59-.69-0.83-1.65-0.83-3.51V55.32h-3.1V65.7C42.25,68.11,42.66,69.62,43.63,70.76Z"/>
    <path class="7b9a6618-bb08-4caf-b49c-a3be7067dd1a" d="M74.16,71.76l0.07,0a9.56,9.56,0,0,0,4.17.93,8.58,8.58,0,0,0,8.86-8.93c0-5.24-3.65-8.79-8.2-8.79a8.36,8.36,0,0,0-4.82,1.52l-0.07,0v-1.1h-3.1V79.86h3.1v-8.1Zm0-3V59.29a7.07,7.07,0,0,1,4.38-1.55c3.38,0,5.58,2.79,5.58,6.24s-2.27,6-5.65,6A9.33,9.33,0,0,1,74.16,68.76Z"/>
    <path class="7b9a6618-bb08-4caf-b49c-a3be7067dd1a" d="M91.56,72.28h3.1v-11a5.55,5.55,0,0,1,5-3,5,5,0,0,1,1.21.14V55.32a4.2,4.2,0,0,0-1.1-.14,6.18,6.18,0,0,0-5,2.65l-0.07,0V55.32h-3.1v17Z"/>
    <path class="7b9a6618-bb08-4caf-b49c-a3be7067dd1a" d="M102.63,63.8a9,9,0,1,0,9-8.86A8.73,8.73,0,0,0,102.63,63.8Zm3.1,0a5.86,5.86,0,1,1,5.86,6A5.81,5.81,0,0,1,105.73,63.8Z"/>
    <path class="7b9a6618-bb08-4caf-b49c-a3be7067dd1a" d="M124.82,72.28l3-.52a11.07,11.07,0,0,0,4.24.9,8.77,8.77,0,0,0,9-9.1c0-5.13-3.69-8.62-8.27-8.62A9,9,0,0,0,128,56.32l-0.07,0V45.95h-3.1V72.28Zm3.1-3.45V59.32a7,7,0,0,1,4.48-1.59c3.34,0,5.51,2.58,5.51,6s-2.31,6.2-5.75,6.2A9.11,9.11,0,0,1,127.92,68.83Z"/>
    <path class="7b9a6618-bb08-4caf-b49c-a3be7067dd1a" d="M150,72.66a8,8,0,0,0,5.2-1.86h0.07a3.6,3.6,0,0,0,3.27,1.79,4.42,4.42,0,0,0,1.65-.31V69.69a2.37,2.37,0,0,1-1,.24c-0.93,0-1.31-.76-1.31-1.79v-7.2a5.71,5.71,0,0,0-1.69-4.45,7.37,7.37,0,0,0-5.07-1.55,10.67,10.67,0,0,0-5.65,1.45v3a8.84,8.84,0,0,1,5.2-1.69,4.6,4.6,0,0,1,3.14.93,3.66,3.66,0,0,1,1,2.79v1.41a14.86,14.86,0,0,0-3.62-.45,8.85,8.85,0,0,0-4.76,1.14,4.71,4.71,0,0,0-2.24,4.14A4.52,4.52,0,0,0,146,71.45,6.77,6.77,0,0,0,150,72.66Zm0.55-2.76c-1.83,0-3.24-.83-3.24-2.48,0-2,2.07-2.62,4.17-2.62a12.78,12.78,0,0,1,3.31.45v3.17A7.07,7.07,0,0,1,150.56,69.9Z"/>
    <path class="7b9a6618-bb08-4caf-b49c-a3be7067dd1a" d="M163.66,72.28l3-.52a11.07,11.07,0,0,0,4.24.9,8.77,8.77,0,0,0,9-9.1c0-5.13-3.69-8.62-8.27-8.62a9,9,0,0,0-4.79,1.38l-0.07,0V45.95h-3.1V72.28Zm3.1-3.45V59.32a7,7,0,0,1,4.48-1.59c3.34,0,5.51,2.58,5.51,6s-2.31,6.2-5.75,6.2A9.11,9.11,0,0,1,166.76,68.83Z"/>
    <path class="7b9a6618-bb08-4caf-b49c-a3be7067dd1a" d="M184.16,72.28h3.1V45.95h-3.1V72.28Z"/>
    <path class="7b9a6618-bb08-4caf-b49c-a3be7067dd1a" d="M196.6,79.86l11.48-24.54H204.8l-3,6.41c-0.79,1.72-1.55,3.41-2.31,5.1h-0.07c-0.69-1.55-1.52-3.38-2.31-5.1l-3-6.41h-3.45l7.06,15.13-4.58,9.41h3.38Z"/>
    <path class="7b9a6618-bb08-4caf-b49c-a3be7067dd1a" d="M219.52,71.28a14.26,14.26,0,0,0,6.34,1.38c3.62,0,7.13-1.48,7.13-5.41,0-3.51-2.69-4.41-5.93-5-2.52-.45-4.93-0.45-4.93-2.38,0-1.52,1.52-2.17,3.69-2.17a12.88,12.88,0,0,1,6.2,1.65v-3.1A13.72,13.72,0,0,0,226,54.94c-3.93,0-6.93,1.69-7,5.2,0,3.34,2.55,4.31,5.79,4.86,2.62,0.45,5.07.48,5.07,2.52,0,1.65-1.52,2.34-3.86,2.34A12.4,12.4,0,0,1,219.52,68v3.24Z"/>
    <path class="7b9a6618-bb08-4caf-b49c-a3be7067dd1a" d="M237.2,72.28h3.1V60.66a7.4,7.4,0,0,1,5.41-2.83,3.22,3.22,0,0,1,2.58,1.1c0.59,0.65.83,1.55,0.83,3.45v9.89h3.1V61.8c0-2.62-.48-3.93-1.41-5a5.86,5.86,0,0,0-4.51-1.86,8.41,8.41,0,0,0-5.93,2.55l-0.07,0V45.95h-3.1V72.28Z"/>
    <path class="7b9a6618-bb08-4caf-b49c-a3be7067dd1a" d="M256.43,63.8a9,9,0,1,0,9-8.86A8.73,8.73,0,0,0,256.43,63.8Zm3.1,0a5.86,5.86,0,1,1,5.86,6A5.81,5.81,0,0,1,259.53,63.8Z"/>
    <path class="7b9a6618-bb08-4caf-b49c-a3be7067dd1a" d="M279.93,70.76a6.06,6.06,0,0,0,4.62,1.9,8.31,8.31,0,0,0,5.86-2.55l0.07,0v2.14h3.1v-17h-3.1V66.9a7.25,7.25,0,0,1-5.31,2.89,3.31,3.31,0,0,1-2.69-1.17c-0.59-.69-0.83-1.65-0.83-3.51V55.32h-3.1V65.7C278.55,68.11,279,69.62,279.93,70.76Z"/>
    <path class="7b9a6618-bb08-4caf-b49c-a3be7067dd1a" d="M299,72.28h3.1V45.95H299V72.28Z"/>
    <path class="7b9a6618-bb08-4caf-b49c-a3be7067dd1a" d="M306.47,64.08a8.36,8.36,0,0,0,13.06,7.13l0.07,0v1h3.1V45.95h-3.1v9.86l-0.07,0a9.72,9.72,0,0,0-4.07-.9A8.74,8.74,0,0,0,306.47,64.08Zm3.14-.17c0-3.48,2.24-6.2,5.82-6.2a9.45,9.45,0,0,1,4.17,1.07v9.68a7.84,7.84,0,0,1-4.41,1.45C311.7,69.9,309.6,67.28,309.6,63.9Z"/>
    <path class="7b9a6618-bb08-4caf-b49c-a3be7067dd1a" d="M328.25,70.38a2.27,2.27,0,1,0,2.27-2.27A2.29,2.29,0,0,0,328.25,70.38Z"/>
  </g>
</svg>
