<?xml version="1.0" encoding="utf-8"?>
<!-- Generator: Adobe Illustrator 19.2.1, SVG Export Plug-In . SVG Version: 6.00 Build 0)  -->
<svg version="1.1" id="Layer_1" xmlns="http://www.w3.org/2000/svg" xmlns:xlink="http://www.w3.org/1999/xlink" x="0px" y="0px"
	 viewBox="0 0 1600 900" style="enable-background:new 0 0 1600 900;" xml:space="preserve">
<style type="text/css">
	.st0{display:none;fill:#DE935E;}
	.st1{fill:#414042;}
</style>
<path class="st0" d="M1222.2,860.6h8.6v-1.4h-6.9v-12.1c0-0.1,0-0.3,0.1-0.4c0.1-0.1,0.1-0.3,0.1-0.4h-1.9L1222.2,860.6
	L1222.2,860.6z"/>
<path class="st1" d="M398.4,129.7h3.7v-26.9l7.3,14.3h1.5l7.8-14.5v27.2h3.9V93.7h-3l-9,17.7l-8.9-17.6h-3.2v35.9H398.4z"/>
<path class="st1" d="M445.5,94.7c-1.8-0.8-3.6-1.2-5.5-1.2c-1.5,0-2.9,0.2-4.3,0.7c-1.4,0.5-2.5,1.2-3.5,2c-0.9,0.8-1.8,1.9-2.3,3
	c-0.6,1.2-0.8,2.3-0.8,3.7c0,1.1,0.1,2,0.5,2.9c0.4,0.9,0.8,1.8,1.6,2.5c0.8,0.8,1.8,1.5,3,2.2c1.3,0.7,2.8,1.5,4.7,2.2
	c1.8,0.7,3.2,1.3,4.2,1.9c1.1,0.5,1.9,1.1,2.5,1.5c0.6,0.5,0.9,1.1,1.3,1.6c0.2,0.6,0.4,1.3,0.4,2c0,0.9-0.2,1.8-0.6,2.6
	c-0.4,0.8-0.9,1.5-1.5,2.1c-0.7,0.6-1.4,1.1-2.3,1.4s-1.9,0.6-2.9,0.6c-2.1,0-4-0.4-5.4-1.2c-1.5-0.7-2.7-1.6-3.6-2.8
	c-0.1-0.1-0.1-0.4-0.1-0.6s-0.1-0.5-0.2-0.6l-2.3,4.1c2.8,3,6.6,4.6,11.2,4.6c2.1,0,4-0.4,5.4-0.9c1.5-0.6,2.7-1.4,3.7-2.3
	c0.9-0.9,1.8-2.1,2.1-3.4c0.5-1.3,0.7-2.5,0.7-3.7c0-1.2-0.1-2.1-0.5-3c-0.2-0.9-0.8-1.8-1.5-2.6c-0.7-0.8-1.6-1.5-2.8-2.2
	c-1.2-0.7-2.6-1.4-4.3-2.1c-1.9-0.7-3.4-1.4-4.4-2c-1.2-0.6-2-1.2-2.6-1.8c-0.6-0.6-1.1-1.2-1.3-1.8c-0.2-0.6-0.5-1.4-0.5-2.2
	c0-1.4,0.6-2.7,1.8-3.7c1.2-1.1,2.7-1.5,4.4-1.5c1.9,0,3.4,0.4,4.7,0.9c1.3,0.7,2.2,1.5,2.9,2.6c0.1,0.1,0.1,0.4,0.1,0.6
	c0,0.2,0.1,0.5,0.4,0.5l2.6-3.5C448.7,96.6,447.3,95.5,445.5,94.7z"/>
<path class="st1" d="M485.9,129.7h4.1v-15.9h7.7c2,0,3.6-0.2,5-0.8c1.4-0.5,2.5-1.2,3.4-2.1c0.8-0.9,1.5-2,2-3.2
	c0.5-1.2,0.7-2.5,0.8-3.9c-0.1-1.4-0.4-2.7-0.8-4c-0.5-1.3-1.2-2.3-2-3.3c-0.9-0.9-2.1-1.6-3.5-2.2c-1.4-0.5-3.2-0.8-5.2-0.8h-11.6
	L485.9,129.7L485.9,129.7z M497.4,97.5c1.3,0,2.3,0.1,3.3,0.5c0.9,0.4,1.6,0.8,2.2,1.4s1.1,1.3,1.3,2.1c0.2,0.8,0.5,1.6,0.6,2.5
	c-0.1,1.9-0.7,3.4-1.9,4.6c-1.1,1.2-2.9,1.8-5.6,1.8H490V97.6h7.4V97.5z"/>
<path class="st1" d="M518.7,109.1c1.9-2,4.2-3,7.1-3c2.3,0,4,0.5,5.2,1.5c1.1,1.1,1.6,2.9,1.6,5.5v0.9h-4.9
	c-4.3,0.1-7.6,1.1-9.9,2.6c-2.3,1.5-3.4,3.6-3.4,6.3c0,0.9,0.2,1.8,0.6,2.7c0.4,0.9,0.9,1.6,1.8,2.3s1.8,1.3,2.8,1.6
	c1.1,0.5,2.3,0.6,3.7,0.6c3.5,0,6.7-1.2,9.5-3.5v2.9h4v-16.4c0-3.9-0.9-6.6-2.8-8.2c-1.9-1.6-4.4-2.5-7.6-2.5c-4,0-7,1.3-9.4,3.7
	L518.7,109.1z M532.7,119.1c0,1.3-0.2,2.3-0.6,3.2c-0.2,0.5-0.5,0.9-0.9,1.5c-0.5,0.6-0.9,1.1-1.6,1.6c-0.7,0.5-1.5,0.9-2.5,1.3
	c-0.9,0.4-2,0.6-3.2,0.6c-1.5,0-2.9-0.5-4-1.3c-1.1-0.9-1.6-2-1.6-3.2c0-0.7,0.1-1.4,0.5-2.1c0.2-0.6,0.8-1.2,1.6-1.8
	c0.8-0.5,1.9-0.9,3.2-1.2c1.4-0.2,3-0.5,5.2-0.5c0.5,0,0.9,0,1.4,0s0.9,0,1.5,0h0.9v1.8H532.7z"/>
<path class="st1" d="M546.4,106.6h6.4v19.7h-6.8v3.4h17.1v-3.4H557v-23.1h-10.5V106.6z M551.9,94.8c0,0.8,0.2,1.5,0.8,2.1
	c0.6,0.6,1.3,0.8,2.1,0.8c0.8,0,1.5-0.2,2.1-0.8c0.6-0.6,0.9-1.3,0.9-2.1s-0.4-1.5-0.9-2.1c-0.6-0.6-1.3-0.9-2.1-0.9
	c-0.8,0-1.5,0.2-2.1,0.8C552.3,93.3,551.9,94,551.9,94.8L551.9,94.8z"/>
<path class="st1" d="M577.2,129.7v-15.2c0-1.3,0.2-2.5,0.7-3.4c0.5-1.1,1.1-1.9,1.9-2.6c0.7-0.7,1.6-1.3,2.6-1.6
	c0.9-0.4,1.9-0.6,2.7-0.6c1.4,0,2.5,0.6,3.4,1.6c0.9,1.2,1.4,3,1.4,5.9v15.9h4.1v-16c0-2-0.2-3.7-0.6-5c-0.4-1.4-0.9-2.6-1.8-3.4
	c-0.7-0.9-1.6-1.5-2.6-2c-1.1-0.4-2.1-0.6-3.3-0.6c-1.6,0-3.3,0.5-4.8,1.4c-1.5,0.9-2.8,2.2-3.9,3.9v-4.7H573v26.3h4.2V129.7z"/>
<path class="st1" d="M608.3,103.4H602v3.4h6.2c-0.2,2.8-0.4,5.4-0.5,7.5c-0.1,2.1-0.1,4-0.1,5.3c-0.1,3.7,0.5,6.6,1.8,8.2
	s3.3,2.5,6.1,2.5c2.8,0,5.5-0.9,8.2-2.9l-1.3-3.3c-2.1,1.6-4.1,2.5-6,2.5c-1.1,0-1.9-0.2-2.5-0.6c-0.6-0.4-1.1-0.9-1.4-1.8
	c-0.4-0.7-0.6-1.8-0.6-3c-0.1-1.3-0.1-2.8-0.1-4.7c0-3,0.1-6.2,0.5-9.7h8.7v-3.4h-8.7L613,97c0-0.1,0.1-0.4,0.2-0.6
	c0.1-0.2,0.1-0.6,0.1-0.9l-4.4,0.7L608.3,103.4z"/>
<path class="st1" d="M355.1,265.2h3.7v-26.9l7.3,14.3h1.5l7.8-14.5v27.2h3.9v-36h-3l-9,17.7l-8.9-17.6h-3.2v35.9H355.1z"/>
<path class="st1" d="M388.9,244.6c1.9-2,4.2-3,7.1-3c2.3,0,4,0.5,5.2,1.5c1.1,1.1,1.6,2.9,1.6,5.5v0.9h-4.9
	c-4.3,0.1-7.6,1.1-9.9,2.6c-2.3,1.5-3.4,3.6-3.4,6.3c0,0.9,0.2,1.8,0.6,2.7s0.9,1.6,1.8,2.3s1.8,1.3,2.8,1.6
	c1.1,0.5,2.3,0.6,3.7,0.6c3.5,0,6.7-1.2,9.5-3.5v2.9h4v-16.4c0-3.9-0.9-6.6-2.8-8.2c-1.9-1.6-4.4-2.5-7.6-2.5c-4,0-7,1.3-9.4,3.7
	L388.9,244.6z M402.8,254.6c0,1.3-0.2,2.3-0.6,3.2c-0.2,0.5-0.5,0.9-0.9,1.5c-0.5,0.6-0.9,1.1-1.6,1.6c-0.7,0.5-1.5,0.9-2.5,1.3
	c-0.9,0.4-2,0.6-3.2,0.6c-1.5,0-2.9-0.5-4-1.3c-1.1-0.9-1.6-2-1.6-3.2c0-0.7,0.1-1.4,0.5-2.1c0.2-0.6,0.8-1.2,1.6-1.8
	c0.8-0.5,1.9-0.9,3.2-1.2c1.4-0.2,3-0.5,5.2-0.5c0.5,0,0.9,0,1.4,0s0.9,0,1.5,0h0.9v1.8H402.8z"/>
<path class="st1" d="M416.2,265.4h4.1v-12.9c0-1.4,0.2-2.7,0.7-4c0.5-1.3,1.2-2.3,2-3.4c0.8-0.9,1.8-1.8,2.9-2.3
	c1.2-0.6,2.3-0.9,3.6-0.9c0.7,0,1.3,0.1,1.8,0.2c0.5,0.1,0.9,0.4,1.3,0.6c0.4,0.2,0.8,0.6,1.2,0.9c0.4,0.4,0.7,0.8,1.2,1.4l1.9-4
	c-1.9-1.9-4.2-2.9-7-2.9c-2,0-3.9,0.5-5.6,1.5c-1.8,0.9-3,2.3-3.9,4.2l0.1-5h-4.2L416.2,265.4L416.2,265.4z"/>
<path class="st1" d="M445.4,242.2h6.4v19.7h-6.8v3.4h17.1v-3.4H456v-23.1h-10.5V242.2z M451,230.4c0,0.8,0.2,1.5,0.8,2.1
	c0.6,0.6,1.3,0.8,2.1,0.8s1.5-0.2,2.1-0.8c0.6-0.6,0.9-1.3,0.9-2.1c0-0.8-0.4-1.5-0.9-2.1c-0.6-0.6-1.3-0.9-2.1-0.9
	s-1.5,0.2-2.1,0.8C451.3,228.8,451,229.5,451,230.4L451,230.4z"/>
<path class="st1" d="M478.1,239.4c-1.5,0.7-2.8,1.6-4,2.9c-1.2,1.2-2,2.7-2.7,4.4s-1.1,3.6-1.1,5.5c0,2,0.4,3.7,0.9,5.5
	c0.7,1.6,1.5,3.2,2.7,4.3c1.2,1.2,2.5,2.1,3.9,2.8c1.5,0.7,3,1.1,4.8,1.1c1.6,0,3.2-0.4,4.7-0.9c1.4-0.6,2.7-1.5,3.9-2.8
	c1.1-1.2,1.9-2.7,2.6-4.3c0.6-1.6,0.9-3.6,0.9-5.7c0-2.1-0.4-4-0.9-5.7c-0.6-1.8-1.5-3.2-2.6-4.3s-2.3-2.1-3.7-2.7
	c-1.4-0.6-2.9-0.9-4.6-0.9C481.1,238.3,479.6,238.7,478.1,239.4z M489.9,256.6c-0.4,1.3-0.9,2.3-1.6,3.2c-0.7,0.8-1.5,1.5-2.5,2
	c-0.9,0.5-2,0.7-3,0.7c-1.1,0-2.1-0.2-3-0.7s-1.8-1.2-2.5-2.1c-0.7-0.9-1.3-2-1.8-3.3c-0.5-1.3-0.6-2.7-0.6-4.2c0-1.5,0.2-3,0.6-4.2
	c0.5-1.3,0.9-2.3,1.8-3.2c0.7-0.9,1.5-1.5,2.5-2c0.9-0.5,2-0.7,2.9-0.7c1.1,0,2,0.2,2.9,0.7c0.9,0.5,1.8,1.2,2.5,2
	c0.7,0.9,1.3,2,1.8,3.3c0.5,1.3,0.7,2.8,0.7,4.4C490.5,253.9,490.4,255.3,489.9,256.6z"/>
<path class="st1" d="M529.2,265.2h4.1v-15.9h7.7c2,0,3.6-0.2,5-0.8c1.4-0.5,2.5-1.2,3.4-2.1c0.8-0.9,1.5-2,2-3.2s0.7-2.5,0.8-3.9
	c-0.1-1.4-0.4-2.7-0.8-4s-1.2-2.3-2-3.3c-0.9-0.9-2.1-1.6-3.5-2.2c-1.4-0.5-3.2-0.8-5.2-0.8h-11.6L529.2,265.2L529.2,265.2z
	 M540.7,233.2c1.3,0,2.3,0.1,3.3,0.5s1.6,0.8,2.2,1.4c0.6,0.6,1.1,1.3,1.3,2.1c0.2,0.8,0.5,1.6,0.6,2.5c-0.1,1.9-0.7,3.4-1.9,4.6
	c-1.1,1.2-2.9,1.8-5.6,1.8h-7.3v-12.6h7.4V233.2z"/>
<path class="st1" d="M562,244.6c1.9-2,4.2-3,7.1-3c2.3,0,4,0.5,5.2,1.5c1.1,1.1,1.6,2.9,1.6,5.5v0.9H571c-4.3,0.1-7.6,1.1-9.9,2.6
	c-2.3,1.5-3.4,3.6-3.4,6.3c0,0.9,0.2,1.8,0.6,2.7c0.4,0.9,0.9,1.6,1.8,2.3s1.8,1.3,2.8,1.6c1.1,0.5,2.3,0.6,3.7,0.6
	c3.5,0,6.7-1.2,9.5-3.5v2.9h4v-16.4c0-3.9-0.9-6.6-2.8-8.2s-4.4-2.5-7.6-2.5c-4,0-7,1.3-9.4,3.7L562,244.6z M575.9,254.6
	c0,1.3-0.2,2.3-0.6,3.2c-0.2,0.5-0.5,0.9-0.9,1.5c-0.5,0.6-0.9,1.1-1.6,1.6c-0.7,0.5-1.5,0.9-2.5,1.3c-0.9,0.4-2,0.6-3.2,0.6
	c-1.5,0-2.9-0.5-4-1.3c-1.1-0.9-1.6-2-1.6-3.2c0-0.7,0.1-1.4,0.5-2.1c0.2-0.6,0.8-1.2,1.6-1.8c0.8-0.5,1.9-0.9,3.2-1.2
	c1.3-0.2,3-0.5,5.2-0.5c0.5,0,0.9,0,1.4,0s0.9,0,1.5,0h0.9v1.8H575.9z"/>
<path class="st1" d="M589.6,242.2h6.4v19.7h-6.8v3.4h17.1v-3.4h-6.2v-23.1h-10.5V242.2z M595.2,230.4c0,0.8,0.2,1.5,0.8,2.1
	c0.6,0.6,1.3,0.8,2.1,0.8c0.8,0,1.5-0.2,2.1-0.8c0.6-0.6,0.9-1.3,0.9-2.1c0-0.8-0.4-1.5-0.9-2.1c-0.6-0.6-1.3-0.9-2.1-0.9
	c-0.8,0-1.5,0.2-2.1,0.8C595.6,228.8,595.2,229.5,595.2,230.4L595.2,230.4z"/>
<path class="st1" d="M620.5,265.2V250c0-1.3,0.2-2.5,0.7-3.4c0.5-1.1,1.1-1.9,1.9-2.6c0.7-0.7,1.6-1.3,2.6-1.6
	c0.9-0.4,1.9-0.6,2.7-0.6c1.4,0,2.5,0.6,3.4,1.6c0.9,1.2,1.4,3,1.4,5.9v15.9h4.1v-15.9c0-2-0.2-3.7-0.6-5c-0.4-1.4-0.9-2.6-1.8-3.4
	c-0.7-0.9-1.6-1.5-2.6-2c-1.1-0.4-2.1-0.6-3.3-0.6c-1.6,0-3.3,0.5-4.8,1.4c-1.5,0.9-2.8,2.2-3.9,3.9v-4.7h-4.1v26.3H620.5z"/>
<path class="st1" d="M651.7,238.9h-6.3v3.4h6.2c-0.2,2.8-0.4,5.4-0.5,7.5c-0.1,2.1-0.1,4-0.1,5.3c-0.1,3.7,0.5,6.6,1.8,8.2
	c1.3,1.6,3.3,2.5,6.1,2.5c2.8,0,5.5-0.9,8.2-2.9l-1.3-3.3c-2.1,1.6-4.1,2.5-6,2.5c-1.1,0-1.9-0.2-2.5-0.6c-0.6-0.4-1.1-0.9-1.4-1.8
	c-0.4-0.7-0.6-1.8-0.6-3c-0.1-1.3-0.1-2.8-0.1-4.7c0-3,0.1-6.2,0.5-9.7h8.7v-3.4h-8.7l0.7-6.2c0-0.1,0.1-0.4,0.2-0.6
	c0.1-0.2,0.1-0.6,0.1-0.9l-4.4,0.7L651.7,238.9z"/>
<path class="st1" d="M385,400.8h4.1v-15.9h7.7c2,0,3.6-0.2,5-0.8c1.4-0.5,2.5-1.2,3.4-2.1c0.8-0.9,1.5-2,2-3.2
	c0.5-1.2,0.7-2.5,0.8-3.9c-0.1-1.4-0.4-2.7-0.8-4c-0.5-1.3-1.2-2.3-2-3.3c-0.9-0.9-2.1-1.6-3.5-2.2c-1.4-0.5-3.2-0.8-5.2-0.8H385
	L385,400.8L385,400.8z M396.4,368.7c1.3,0,2.3,0.1,3.3,0.5c0.9,0.4,1.6,0.8,2.2,1.4c0.6,0.6,1.1,1.3,1.3,2.1
	c0.2,0.8,0.5,1.6,0.6,2.5c-0.1,1.9-0.7,3.4-1.9,4.6c-1.1,1.2-2.9,1.8-5.6,1.8H389v-12.8H396.4z"/>
<path class="st1" d="M418.6,400.8v-15.2c0-1.3,0.2-2.5,0.7-3.5c0.5-1.1,1.1-1.9,1.9-2.6c0.8-0.7,1.6-1.3,2.6-1.6s1.8-0.6,2.7-0.6
	c1.4,0,2.5,0.6,3.4,1.6c0.9,1.2,1.4,3,1.4,5.9v15.9h4.1v-16c0-2-0.2-3.7-0.6-5c-0.4-1.4-0.9-2.6-1.6-3.4c-0.7-0.9-1.6-1.5-2.6-2
	c-0.9-0.4-2.1-0.6-3.3-0.6c-1.6,0-3.2,0.5-4.8,1.4c-1.5,0.9-2.8,2.2-3.9,3.9v-15.3c0.1-0.4,0.2-0.6,0.4-0.8c0.1-0.2,0.2-0.4,0.2-0.5
	l0,0l0,0h-4.7v38.4h4.1V400.8z"/>
<path class="st1" d="M449.3,374.9c-1.5,0.7-2.8,1.6-4,2.9c-1.2,1.2-2,2.7-2.7,4.4c-0.7,1.8-1.1,3.6-1.1,5.5c0,2,0.4,3.7,0.9,5.5
	c0.7,1.6,1.5,3.2,2.7,4.3c1.2,1.2,2.5,2.1,3.9,2.8c1.5,0.7,3,1.1,4.8,1.1c1.6,0,3.2-0.4,4.7-0.9c1.4-0.6,2.7-1.5,3.9-2.8
	c1.1-1.2,1.9-2.7,2.6-4.3c0.6-1.6,0.9-3.6,0.9-5.7s-0.4-4-0.9-5.7c-0.6-1.8-1.5-3.2-2.6-4.3s-2.3-2.1-3.7-2.7
	c-1.4-0.6-2.9-0.9-4.6-0.9C452.4,374,450.8,374.2,449.3,374.9z M461.1,392.1c-0.4,1.3-0.9,2.3-1.6,3.2c-0.7,0.8-1.5,1.5-2.5,2
	c-0.9,0.5-2,0.7-3,0.7c-1.1,0-2.1-0.2-3-0.7s-1.8-1.2-2.5-2.1s-1.3-2-1.8-3.3c-0.5-1.3-0.6-2.7-0.6-4.2c0-1.5,0.2-3,0.6-4.2
	c0.5-1.3,0.9-2.3,1.8-3.2c0.7-0.9,1.5-1.5,2.5-2c0.9-0.5,2-0.7,2.9-0.7c1.1,0,2,0.2,2.9,0.7c0.9,0.5,1.8,1.2,2.5,2
	c0.7,0.9,1.3,2,1.8,3.3c0.5,1.3,0.7,2.8,0.7,4.4C461.7,389.4,461.5,390.8,461.1,392.1z"/>
<path class="st1" d="M478.5,374.4h-6.3v3.4h6.2c-0.2,2.8-0.4,5.4-0.5,7.5c-0.1,2.1-0.1,4-0.1,5.3c-0.1,3.7,0.5,6.6,1.8,8.2
	c1.3,1.6,3.3,2.5,6.1,2.5c2.8,0,5.5-0.9,8.2-2.9l-1.3-3.3c-2.1,1.6-4.1,2.5-6,2.5c-1.1,0-1.9-0.2-2.5-0.6s-1.1-0.9-1.4-1.8
	c-0.4-0.7-0.6-1.8-0.6-3c-0.1-1.3-0.1-2.8-0.1-4.7c0-3,0.1-6.2,0.5-9.7h8.7v-3.4h-8.7l0.7-6.2c0-0.1,0.1-0.4,0.2-0.6
	c0.1-0.2,0.1-0.6,0.1-0.9l-4.4,0.7L478.5,374.4z"/>
<path class="st1" d="M507,374.9c-1.5,0.7-2.8,1.6-4,2.9c-1.2,1.2-2,2.7-2.7,4.4c-0.7,1.8-1.1,3.6-1.1,5.5c0,2,0.4,3.7,0.9,5.5
	c0.7,1.6,1.5,3.2,2.7,4.3c1.2,1.2,2.5,2.1,3.9,2.8c1.5,0.7,3,1.1,4.8,1.1c1.6,0,3.2-0.4,4.7-0.9c1.4-0.6,2.7-1.5,3.9-2.8
	c1.1-1.2,1.9-2.7,2.6-4.3c0.6-1.6,0.9-3.6,0.9-5.7s-0.4-4-0.9-5.7c-0.6-1.8-1.5-3.2-2.6-4.3c-1.1-1.2-2.3-2.1-3.7-2.7
	c-1.4-0.6-2.9-0.9-4.6-0.9C510,373.9,508.5,374.2,507,374.9z M518.8,392.1c-0.4,1.3-0.9,2.3-1.6,3.2s-1.5,1.5-2.5,2
	c-0.9,0.5-2,0.7-3,0.7c-1.1,0-2.1-0.2-3-0.7s-1.8-1.2-2.5-2.1c-0.7-0.9-1.3-2-1.8-3.3c-0.5-1.3-0.6-2.7-0.6-4.2c0-1.5,0.2-3,0.6-4.2
	c0.5-1.3,0.9-2.3,1.8-3.2c0.7-0.9,1.5-1.5,2.5-2c0.9-0.5,2-0.7,2.9-0.7c1.1,0,2,0.2,2.9,0.7c0.9,0.5,1.8,1.2,2.5,2
	c0.7,0.9,1.3,2,1.8,3.3c0.5,1.3,0.7,2.8,0.7,4.4C519.4,389.4,519.2,390.8,518.8,392.1z"/>
<path class="st1" d="M540.9,373.9c-1.4,0-2.8,0.2-4.1,0.6c-1.3,0.4-2.3,0.9-3.3,1.6c-0.9,0.7-1.6,1.4-2.1,2.2
	c-0.5,0.8-0.7,1.8-0.7,2.7c0,0.8,0.1,1.6,0.5,2.3c0.4,0.7,0.7,1.4,1.2,1.9c0.5,0.6,1.1,1.1,1.6,1.4c0.6,0.4,1.6,0.9,3,1.4
	c0.6,0.2,1.6,0.6,3.4,1.1c2.5,0.7,4.2,1.4,5.2,2.1c0.9,0.7,1.4,1.5,1.4,2.6c0,0.7-0.2,1.3-0.6,1.8c-0.4,0.5-0.9,0.9-1.5,1.3
	s-1.4,0.7-2.1,0.8c-0.8,0.2-1.5,0.2-2.3,0.2c-0.7,0-1.5-0.1-2.2-0.2c-0.7-0.1-1.4-0.4-2-0.6c-1.3-0.6-2.2-1.1-2.8-1.5
	c-0.6-0.5-1.1-0.8-1.3-1.2c-0.2-0.4-0.4-0.7-0.4-0.9c0-0.2-0.1-0.5-0.2-0.6l-2.3,4.1c3,2.8,6.7,4.1,11.1,4.1c1.6,0,3.2-0.2,4.6-0.7
	s2.5-1.1,3.5-1.9c0.9-0.8,1.6-1.6,2.2-2.7c0.5-1.1,0.7-2.1,0.7-3.3c0-1.8-0.7-3.3-2.1-4.4c-1.4-1.2-3.7-2.2-7-3.2
	c-1.5-0.5-2.7-0.8-3.6-1.2c-0.9-0.4-1.6-0.7-2.1-1.1c-0.5-0.4-0.8-0.7-1.1-1.1c-0.2-0.4-0.4-0.8-0.4-1.3c0-0.6,0.1-1.2,0.5-1.6
	c0.4-0.5,0.7-0.8,1.3-1.2c0.5-0.4,1.2-0.6,1.8-0.7c0.7-0.1,1.4-0.2,2.1-0.2c1.6,0,3,0.4,4.3,1.2c1.3,0.7,2.2,1.5,2.9,2.5
	c0.1,0.1,0.1,0.4,0.1,0.6s0.1,0.5,0.2,0.5l2.5-3.6C548.3,375.1,545,373.9,540.9,373.9L540.9,373.9z"/>
<path class="st1" d="M562.9,400.8v-15.2c0-1.3,0.2-2.5,0.7-3.5c0.5-1.1,1.1-1.9,1.9-2.6c0.8-0.7,1.6-1.3,2.6-1.6s1.8-0.6,2.7-0.6
	c1.4,0,2.5,0.6,3.4,1.6c0.9,1.2,1.4,3,1.4,5.9v15.9h4.1v-16c0-2-0.2-3.7-0.6-5c-0.4-1.4-0.9-2.6-1.6-3.4c-0.7-0.9-1.6-1.5-2.6-2
	c-0.9-0.4-2.1-0.6-3.3-0.6c-1.6,0-3.2,0.5-4.8,1.4c-1.5,0.9-2.8,2.2-3.9,3.9v-15.3c0.1-0.4,0.2-0.6,0.4-0.8c0.1-0.2,0.2-0.4,0.2-0.5
	l0,0l0,0h-4.7v38.4h4.1V400.8z"/>
<path class="st1" d="M593.5,374.9c-1.5,0.7-2.8,1.6-4,2.9c-1.2,1.2-2,2.7-2.7,4.4c-0.7,1.8-1.1,3.6-1.1,5.5c0,2,0.4,3.7,0.9,5.5
	c0.7,1.6,1.5,3.2,2.7,4.3c1.2,1.2,2.5,2.1,3.9,2.8c1.5,0.7,3,1.1,4.8,1.1c1.6,0,3.2-0.4,4.7-0.9c1.4-0.6,2.7-1.5,3.9-2.8
	c1.1-1.2,1.9-2.7,2.6-4.3c0.6-1.6,0.9-3.6,0.9-5.7s-0.4-4-0.9-5.7c-0.6-1.8-1.5-3.2-2.6-4.3c-1.1-1.2-2.3-2.1-3.7-2.7
	c-1.4-0.6-2.9-0.9-4.6-0.9C596.5,373.9,595,374.2,593.5,374.9z M605.3,392.1c-0.4,1.3-0.9,2.3-1.6,3.2c-0.7,0.8-1.5,1.5-2.5,2
	c-0.9,0.5-2,0.7-3,0.7c-1.1,0-2.1-0.2-3-0.7c-0.9-0.5-1.8-1.2-2.5-2.1s-1.3-2-1.8-3.3c-0.5-1.3-0.6-2.7-0.6-4.2c0-1.5,0.2-3,0.6-4.2
	c0.5-1.3,0.9-2.3,1.8-3.2c0.7-0.9,1.5-1.5,2.5-2c0.9-0.5,2-0.7,2.9-0.7c1.1,0,2,0.2,2.9,0.7s1.8,1.2,2.5,2c0.7,0.9,1.3,2,1.8,3.3
	c0.5,1.3,0.7,2.8,0.7,4.4C605.9,389.4,605.8,390.8,605.3,392.1z"/>
<path class="st1" d="M615.8,410.5h4.1v-13.1c0.9,1.3,2,2.3,3.4,3c1.4,0.7,2.9,1.1,4.6,1.1c1.4,0,2.8-0.4,4.1-0.9
	c1.3-0.6,2.6-1.5,3.6-2.7c1.1-1.2,1.9-2.7,2.6-4.4c0.6-1.8,0.9-3.9,0.9-6.1c0-2.3-0.4-4.3-0.9-6c-0.6-1.6-1.4-3-2.5-4.2
	c-1.1-1.2-2.2-2-3.5-2.5c-1.3-0.6-2.7-0.8-4.2-0.8c-1.5,0-3,0.5-4.4,1.3c-1.5,0.8-2.7,2-3.6,3.4v-4.1h-4.1L615.8,410.5L615.8,410.5z
	 M619.9,385.8c0-1.6,0.2-2.9,0.6-4.1c0.4-1.1,0.9-2,1.5-2.6c0.6-0.7,1.4-1.1,2.2-1.4c0.8-0.2,1.6-0.4,2.3-0.4c2.6,0.1,4.6,1.1,6,2.9
	c1.4,1.9,2.1,4.4,2.1,7.8c0,1.9-0.2,3.4-0.7,4.6c-0.5,1.2-1.2,2.2-2,2.9s-1.8,1.3-2.7,1.5c-0.9,0.4-2,0.5-2.9,0.5
	c-1.9,0-3.4-0.6-4.6-1.9c-1.3-1.2-1.9-3.3-2-6.1v-3.9H619.9z"/>
<path class="st1" d="M357.7,503.8h6.7V533h-7.1v3.4H376v-3.3h-7.5v-29.4h7.1v-3.4h-17.9V503.8z"/>
<path class="st1" d="M386.4,501.3h7.5V533h-7.8v3.4h19.7V533H398v-35h-11.6V501.3z"/>
<path class="st1" d="M415.3,501.3h7.5V533H415v3.4h19.7V533h-7.7v-35h-11.6V501.3z"/>
<path class="st1" d="M442.8,524.7c0,2.1,0.2,4,0.7,5.5c0.5,1.5,1.1,2.8,2,3.9c0.8,1.1,1.9,1.8,2.9,2.2c1.1,0.5,2.3,0.7,3.6,0.7
	c1.8,0,3.3-0.5,4.8-1.3c1.4-0.8,2.6-2,3.4-3.4v2c0,0.5,0,0.8,0,1.2c0,0.4,0.1,0.6,0.1,0.9h4.3c-0.2-0.7-0.2-1.5-0.2-2.3v-24h-4.1
	v14.5c0,1.5-0.2,2.9-0.6,4.1c-0.4,1.2-0.9,2-1.6,2.7c-0.7,0.7-1.4,1.3-2.3,1.6c-0.8,0.4-1.8,0.6-2.7,0.7c-0.8,0-1.6-0.1-2.3-0.5
	c-0.7-0.4-1.4-0.8-1.9-1.5c-0.6-0.7-1.1-1.6-1.3-2.7c-0.4-1.2-0.5-2.6-0.5-4.2v-14.7h-4.1L442.8,524.7z"/>
<path class="st1" d="M483.2,509.4c-1.4,0-2.8,0.2-4.1,0.6s-2.3,0.9-3.3,1.6c-0.9,0.7-1.6,1.4-2.1,2.2c-0.5,0.8-0.7,1.8-0.7,2.7
	c0,0.8,0.1,1.6,0.5,2.3c0.4,0.7,0.7,1.4,1.2,1.9c0.5,0.6,1.1,1.1,1.6,1.4c0.6,0.4,1.6,0.9,3,1.4c0.6,0.2,1.6,0.6,3.4,1.1
	c2.5,0.7,4.2,1.4,5.2,2.1c0.9,0.7,1.4,1.5,1.4,2.6c0,0.7-0.2,1.3-0.6,1.8c-0.4,0.5-0.9,0.9-1.5,1.3c-0.6,0.4-1.4,0.7-2.1,0.8
	c-0.8,0.2-1.5,0.2-2.3,0.2c-0.7,0-1.5-0.1-2.2-0.2c-0.7-0.1-1.4-0.4-2-0.6c-1.3-0.6-2.2-1.1-2.8-1.5c-0.6-0.5-1.1-0.8-1.3-1.2
	c-0.2-0.4-0.4-0.7-0.4-0.9c0-0.2-0.1-0.5-0.2-0.6l-2.3,4.1c3,2.8,6.7,4.1,11.1,4.1c1.6,0,3.2-0.2,4.6-0.7c1.4-0.5,2.5-1.1,3.5-1.9
	c0.9-0.8,1.6-1.6,2.2-2.7c0.5-1.1,0.7-2.1,0.7-3.3c0-1.8-0.7-3.3-2.1-4.4c-1.4-1.2-3.7-2.2-7-3.2c-1.5-0.5-2.7-0.8-3.6-1.2
	c-0.9-0.4-1.6-0.7-2.1-1.1c-0.5-0.4-0.8-0.7-1.1-1.1c-0.2-0.4-0.4-0.8-0.4-1.3c0-0.6,0.1-1.2,0.5-1.6c0.4-0.5,0.7-0.8,1.3-1.2
	c0.5-0.4,1.2-0.6,1.8-0.7c0.7-0.1,1.4-0.2,2.1-0.2c1.6,0,3,0.4,4.3,1.2c1.3,0.7,2.2,1.5,2.9,2.5c0.1,0.1,0.1,0.4,0.1,0.6
	s0.1,0.5,0.2,0.5l2.5-3.6C490.6,510.8,487.3,509.4,483.2,509.4L483.2,509.4z"/>
<path class="st1" d="M507.3,510H501v3.4h6.2c-0.2,2.8-0.4,5.4-0.5,7.5c-0.1,2.1-0.1,4-0.1,5.3c-0.1,3.7,0.5,6.6,1.8,8.2
	c1.3,1.6,3.3,2.5,6.1,2.5c2.8,0,5.5-0.9,8.2-2.9l-1.3-3.3c-2.1,1.6-4.1,2.5-6,2.5c-1.1,0-1.9-0.2-2.5-0.6c-0.6-0.4-1.1-0.9-1.4-1.8
	c-0.4-0.7-0.6-1.8-0.6-3c-0.1-1.3-0.1-2.8-0.1-4.7c0-3,0.1-6.2,0.5-9.7h8.7v-3.4h-8.7l0.7-6.2c0-0.1,0.1-0.4,0.2-0.6
	c0.1-0.2,0.1-0.6,0.1-0.9l-4.4,0.7L507.3,510z"/>
<path class="st1" d="M531.6,536.4h4.1v-12.9c0-1.4,0.2-2.7,0.7-4c0.5-1.3,1.2-2.3,2-3.4c0.8-0.9,1.8-1.8,2.9-2.3
	c1.2-0.6,2.3-0.9,3.6-0.9c0.7,0,1.3,0.1,1.8,0.2c0.5,0.1,0.9,0.4,1.3,0.6c0.4,0.2,0.8,0.6,1.2,0.9s0.7,0.8,1.2,1.4l1.9-4
	c-1.9-1.9-4.2-2.9-7-2.9c-2,0-3.9,0.5-5.6,1.5c-1.8,0.9-3,2.3-3.9,4.2l0.1-5h-4.2L531.6,536.4L531.6,536.4z"/>
<path class="st1" d="M562,515.7c1.9-2,4.2-3,7.1-3c2.3,0,4,0.5,5.2,1.5c1.1,1.1,1.6,2.9,1.6,5.5v0.9H571c-4.3,0.1-7.6,1.1-9.9,2.6
	c-2.3,1.5-3.4,3.6-3.4,6.3c0,0.9,0.2,1.8,0.6,2.7c0.4,0.9,0.9,1.6,1.8,2.3c0.8,0.7,1.8,1.3,2.8,1.6c1.1,0.5,2.3,0.6,3.7,0.6
	c3.5,0,6.7-1.2,9.5-3.5v2.9h4v-16.4c0-3.9-0.9-6.6-2.8-8.2s-4.4-2.5-7.6-2.5c-4,0-7,1.3-9.4,3.7L562,515.7z M575.9,525.8
	c0,1.3-0.2,2.3-0.6,3.2c-0.2,0.5-0.5,0.9-0.9,1.5c-0.5,0.6-0.9,1.1-1.6,1.6c-0.7,0.5-1.5,0.9-2.5,1.3c-0.9,0.4-2,0.6-3.2,0.6
	c-1.5,0-2.9-0.5-4-1.3c-1.1-0.9-1.6-2-1.6-3.2c0-0.7,0.1-1.4,0.5-2.1c0.2-0.6,0.8-1.2,1.6-1.8c0.8-0.5,1.9-0.9,3.2-1.2
	c1.3-0.2,3-0.5,5.2-0.5c0.5,0,0.9,0,1.4,0s0.9,0,1.5,0h0.9v1.8H575.9z"/>
<path class="st1" d="M593.9,510h-6.3v3.4h6.2c-0.2,2.8-0.4,5.4-0.5,7.5c-0.1,2.1-0.1,4-0.1,5.3c-0.1,3.7,0.5,6.6,1.8,8.2
	s3.3,2.5,6.1,2.5c2.8,0,5.5-0.9,8.2-2.9l-1.3-3.3c-2.1,1.6-4.1,2.5-6,2.5c-1.1,0-1.9-0.2-2.5-0.6c-0.6-0.4-1.1-0.9-1.4-1.8
	c-0.4-0.7-0.6-1.8-0.6-3c-0.1-1.3-0.1-2.8-0.1-4.7c0-3,0.1-6.2,0.5-9.7h8.7v-3.4h-8.7l0.7-6.2c0-0.1,0.1-0.4,0.2-0.6
	s0.1-0.6,0.1-0.9l-4.4,0.7L593.9,510z"/>
<path class="st1" d="M622.4,510.5c-1.5,0.7-2.8,1.6-4,2.9c-1.2,1.2-2,2.7-2.7,4.4c-0.7,1.8-1.1,3.6-1.1,5.5c0,2,0.4,3.7,0.9,5.5
	c0.7,1.6,1.5,3.2,2.7,4.3c1.2,1.2,2.5,2.1,3.9,2.8c1.5,0.7,3,1.1,4.8,1.1c1.6,0,3.2-0.4,4.7-0.9c1.4-0.6,2.7-1.5,3.9-2.8
	c1.1-1.2,1.9-2.7,2.6-4.3c0.6-1.6,0.9-3.6,0.9-5.7c0-2.1-0.4-4-0.9-5.7c-0.6-1.8-1.5-3.2-2.6-4.3c-1.1-1.2-2.3-2.1-3.7-2.7
	c-1.4-0.6-2.9-0.9-4.6-0.9C625.4,509.4,623.9,509.8,622.4,510.5z M634.2,527.7c-0.4,1.3-0.9,2.3-1.6,3.2c-0.7,0.8-1.5,1.5-2.5,2
	s-2,0.7-3,0.7c-1.1,0-2.1-0.2-3-0.7c-0.9-0.5-1.8-1.2-2.5-2.1c-0.7-0.9-1.3-2-1.8-3.3s-0.6-2.7-0.6-4.2c0-1.5,0.2-3,0.6-4.2
	c0.5-1.3,0.9-2.3,1.8-3.2c0.7-0.9,1.5-1.5,2.5-2s2-0.7,2.9-0.7c1.1,0,2,0.2,2.9,0.7c0.9,0.5,1.8,1.2,2.5,2c0.7,0.9,1.3,2,1.8,3.3
	s0.7,2.8,0.7,4.4C634.8,525,634.6,526.4,634.2,527.7z"/>
<path class="st1" d="M647,536.4h4.1v-12.9c0-1.4,0.2-2.7,0.7-4c0.5-1.3,1.2-2.3,2-3.4c0.8-0.9,1.8-1.8,2.9-2.3
	c1.2-0.6,2.3-0.9,3.6-0.9c0.7,0,1.3,0.1,1.8,0.2c0.5,0.1,0.9,0.4,1.3,0.6c0.4,0.2,0.8,0.6,1.2,0.9s0.7,0.8,1.2,1.4l1.9-4
	c-1.9-1.9-4.2-2.9-7-2.9c-2,0-3.9,0.5-5.6,1.5c-1.8,0.9-3,2.3-3.9,4.2l0.1-5H647L647,536.4L647,536.4z"/>
<path class="st1" d="M358.9,637c-1.8-0.8-3.6-1.2-5.5-1.2c-1.5,0-2.9,0.2-4.3,0.7c-1.4,0.5-2.5,1.2-3.5,2c-0.9,0.8-1.8,1.9-2.3,3
	c-0.6,1.2-0.8,2.3-0.8,3.7c0,1.1,0.1,2,0.5,2.9c0.4,0.9,0.8,1.8,1.6,2.5c0.8,0.8,1.8,1.5,3,2.2c1.3,0.7,2.8,1.5,4.7,2.2
	c1.8,0.7,3.2,1.3,4.2,1.9c1.1,0.5,1.9,1.1,2.5,1.5c0.6,0.5,0.9,1.1,1.3,1.6c0.2,0.6,0.4,1.3,0.4,2c0,0.9-0.2,1.8-0.6,2.6
	c-0.4,0.8-0.9,1.5-1.5,2.1c-0.7,0.6-1.4,1.1-2.3,1.4c-0.9,0.4-1.9,0.6-2.9,0.6c-2.1,0-4-0.4-5.4-1.2c-1.5-0.7-2.7-1.6-3.6-2.8
	c-0.1-0.1-0.1-0.4-0.1-0.6c0-0.2-0.1-0.5-0.2-0.6l-2.3,4.1c2.8,3,6.6,4.6,11.2,4.6c2.1,0,4-0.4,5.4-0.9c1.5-0.6,2.7-1.4,3.7-2.3
	c0.9-0.9,1.8-2.1,2.1-3.4c0.5-1.3,0.7-2.5,0.7-3.7c0-1.2-0.1-2.1-0.5-3c-0.2-0.9-0.8-1.8-1.5-2.6s-1.6-1.5-2.8-2.2
	c-1.2-0.7-2.6-1.4-4.3-2.1c-1.9-0.7-3.4-1.4-4.4-2c-1.2-0.6-2-1.2-2.6-1.8c-0.6-0.6-1.1-1.2-1.3-1.8c-0.2-0.6-0.5-1.4-0.5-2.2
	c0-1.4,0.6-2.7,1.8-3.7c1.2-1.1,2.7-1.5,4.4-1.5c1.9,0,3.4,0.4,4.7,0.9c1.3,0.7,2.2,1.5,2.9,2.6c0.1,0.1,0.1,0.4,0.1,0.6
	s0.1,0.5,0.4,0.5l2.6-3.5C362.2,638.9,360.7,637.7,358.9,637z"/>
<path class="st1" d="M370.7,660.3c0,2.1,0.2,4,0.7,5.5c0.5,1.5,1.1,2.8,2,3.9c0.8,1.1,1.9,1.8,2.9,2.2s2.3,0.7,3.6,0.7
	c1.8,0,3.3-0.5,4.8-1.3c1.4-0.8,2.6-2,3.4-3.4v2c0,0.5,0,0.8,0,1.2s0.1,0.6,0.1,0.9h4.3c-0.2-0.7-0.2-1.5-0.2-2.3v-24h-4.1v14.5
	c0,1.5-0.2,2.9-0.6,4.1c-0.4,1.2-0.9,2-1.6,2.7c-0.7,0.7-1.4,1.3-2.3,1.6c-0.8,0.4-1.8,0.6-2.7,0.7c-0.8,0-1.6-0.1-2.3-0.5
	c-0.7-0.4-1.4-0.8-1.9-1.5c-0.6-0.7-1.1-1.6-1.3-2.7c-0.4-1.2-0.5-2.6-0.5-4.2v-14.7H371L370.7,660.3z"/>
<path class="st1" d="M399.4,672h2.6l1.4-3.5c0.9,1.3,2,2.2,3.4,3c1.4,0.7,2.8,1.1,4.4,1.1c1.4,0,2.7-0.2,4.1-0.8
	c1.3-0.6,2.5-1.4,3.5-2.6s1.9-2.7,2.6-4.3c0.6-1.8,0.9-3.9,0.9-6.2c0-2.2-0.2-4.2-0.8-6c-0.6-1.6-1.4-3.2-2.3-4.2
	c-1.1-1.2-2.1-2-3.5-2.6c-1.3-0.6-2.7-0.8-4.2-0.8s-2.9,0.5-4.4,1.3c-1.4,0.8-2.6,2-3.4,3.4V635c0-0.2,0.1-0.5,0.4-0.6
	s0.4-0.4,0.4-0.6v-0.1h-4.9V672z M405.2,666.6c-0.4-0.5-0.7-1.1-0.9-1.8c-0.2-0.7-0.4-1.6-0.5-2.8c-0.1-1.1-0.1-2.5-0.1-4.1
	c0-2.6,0.2-4.4,0.7-5.6c0.5-1.2,1.3-2.1,2.3-2.8c1.1-0.7,2.1-1.1,3-1.1c2.7,0,4.8,0.9,6.2,2.8c1.4,1.9,2.1,4.4,2.1,8
	c0,1.9-0.2,3.4-0.8,4.7c-0.5,1.2-1.2,2.2-2,2.9c-0.8,0.7-1.6,1.3-2.6,1.5c-0.9,0.2-1.8,0.5-2.6,0.5c-0.5,0-1.1-0.1-1.6-0.2
	c-0.6-0.1-1.3-0.4-2-0.8C406,667.4,405.5,667.1,405.2,666.6z"/>
<path class="st1" d="M429.7,636.9h7.5v31.7h-7.8v3.4H449v-3.4h-7.7v-35h-11.6V636.9z"/>
<path class="st1" d="M459.8,648.9h6.4v19.7h-6.8v3.4h17.1v-3.4h-6.2v-23.1h-10.5V648.9z M465.4,637.1c0,0.8,0.2,1.5,0.8,2.1
	c0.6,0.6,1.3,0.8,2.1,0.8s1.5-0.2,2.1-0.8s0.9-1.3,0.9-2.1s-0.4-1.5-0.9-2.1c-0.6-0.6-1.3-0.9-2.1-0.9s-1.5,0.2-2.1,0.8
	C465.7,635.6,465.4,636.3,465.4,637.1L465.4,637.1z"/>
<path class="st1" d="M488.6,672v-17.6c0-2,0.5-3.5,1.3-4.6c0.8-1.1,1.8-1.6,2.7-1.6c1.1,0,1.8,0.4,2.1,1.1c0.4,0.7,0.6,2.2,0.6,4.3
	V672h3.9v-17.4c0-0.7,0.1-1.5,0.4-2.2c0.2-0.8,0.6-1.5,0.9-2.1c0.4-0.6,0.8-1.2,1.3-1.5c0.5-0.4,1.1-0.6,1.5-0.6
	c0.5,0,0.8,0,1.1,0.1s0.6,0.4,0.8,0.7c0.2,0.4,0.5,0.9,0.6,1.6c0.1,0.7,0.1,1.6,0.1,2.8v18.7h3.9v-20.2c0.1-1.9-0.4-3.5-1.2-4.8
	c-0.8-1.3-2.2-2-4-2c-1.3,0-2.5,0.4-3.5,1.1c-1.1,0.7-1.9,1.6-2.3,2.8c-0.2-1.2-0.8-2-1.6-2.8c-0.8-0.7-1.9-1.1-2.9-1.1
	s-2.1,0.4-3,0.9c-0.9,0.6-1.8,1.4-2.3,2.3v-2.6h-3.9v26.3h3.7V672z"/>
<path class="st1" d="M521.6,645.9c-1.4,0.6-2.7,1.5-3.9,2.7c-1.1,1.2-2,2.6-2.6,4.3c-0.6,1.8-0.9,3.7-0.9,6c0,2.2,0.4,4.1,0.9,5.9
	c0.6,1.8,1.5,3.2,2.6,4.3c1.2,1.2,2.5,2,4.1,2.6c1.6,0.6,3.4,0.9,5.3,0.9c4,0,7-1.4,9.2-4.1l-2.3-2.2c-1.8,2-4.1,2.9-6.8,2.9
	c-1.1,0-2.1-0.1-3.2-0.5c-1.1-0.4-2-0.8-2.8-1.6s-1.5-1.8-2.1-3c-0.6-1.3-0.8-2.8-0.9-4.7h18.7c0-0.4,0.1-0.6,0.1-0.9
	c0-0.4,0-0.7,0-0.9c0-2.1-0.4-4-0.9-5.6c-0.6-1.5-1.4-2.9-2.3-3.9c-0.9-1.1-2.1-1.8-3.4-2.2c-1.3-0.5-2.7-0.7-4.1-0.7
	C524.7,644.9,523.1,645.3,521.6,645.9z M521.1,650c1.4-1.3,3-1.9,4.9-1.9c0.9,0,1.9,0.2,2.7,0.6s1.5,0.9,2.1,1.5
	c0.6,0.6,1.1,1.4,1.5,2.2c0.4,0.8,0.6,1.8,0.6,2.7c0,0.2,0,0.4,0,0.5s0,0.2,0,0.5h-14.5C518.8,653.2,519.7,651.3,521.1,650z"/>
<path class="st1" d="M570.9,639.6h10.2V672h4.1v-32.4h10.7v-3.6h-24.9V639.6z"/>
<path class="st1" d="M608.2,645.9c-1.4,0.6-2.7,1.5-3.9,2.7c-1.1,1.2-2,2.6-2.6,4.3s-0.9,3.7-0.9,6c0,2.2,0.4,4.1,0.9,5.9
	c0.6,1.8,1.5,3.2,2.6,4.3c1.2,1.2,2.5,2,4.1,2.6c1.6,0.6,3.4,0.9,5.3,0.9c4,0,7-1.4,9.2-4.1l-2.3-2.2c-1.8,2-4.1,2.9-6.8,2.9
	c-1.1,0-2.1-0.1-3.2-0.5c-1.1-0.4-2-0.8-2.8-1.6s-1.5-1.8-2.1-3c-0.6-1.3-0.8-2.8-0.9-4.7h18.7c0-0.4,0.1-0.6,0.1-0.9
	c0-0.4,0-0.7,0-0.9c0-2.1-0.4-4-0.9-5.6c-0.6-1.5-1.4-2.9-2.3-3.9c-0.9-1.1-2.1-1.8-3.4-2.2c-1.3-0.5-2.7-0.7-4.1-0.7
	C611.3,644.9,609.6,645.3,608.2,645.9z M607.8,650c1.4-1.3,3-1.9,4.9-1.9c0.9,0,1.9,0.2,2.7,0.6s1.5,0.9,2.1,1.5
	c0.6,0.6,1.1,1.4,1.5,2.2c0.4,0.8,0.6,1.8,0.6,2.7c0,0.2,0,0.4,0,0.5s0,0.2,0,0.5h-14.5C605.3,653.2,606.2,651.3,607.8,650z"/>
<path class="st1" d="M641.1,655.4l-6.9-9.7h-4.6l9.1,13l-9.2,13.3h4.7l6.9-10.3l7.3,10.3h4.7l-9.7-13.6l8.5-12.8h-4.2L641.1,655.4z"
	/>
<path class="st1" d="M666,645.5h-6.3v3.4h6.2c-0.2,2.8-0.4,5.4-0.5,7.5c-0.1,2.1-0.1,4-0.1,5.3c-0.1,3.7,0.5,6.6,1.8,8.2
	s3.3,2.5,6.1,2.5c2.8,0,5.5-0.9,8.2-2.9l-1.3-3.3c-2.1,1.6-4.1,2.5-6,2.5c-1.1,0-1.9-0.2-2.5-0.6s-1.1-0.9-1.4-1.8
	c-0.4-0.7-0.6-1.8-0.6-3c-0.1-1.3-0.1-2.8-0.1-4.7c0-3,0.1-6.2,0.5-9.7h8.7v-3.4H670l0.7-6.2c0-0.1,0.1-0.4,0.2-0.6
	c0.1-0.2,0.1-0.6,0.1-0.9l-4.4,0.7L666,645.5z"/>
<path class="st1" d="M373.9,807.7h1.6l6.3-23.8l6.2,23.8h1.5l5.7-36.2h-3.4l-3.3,24.5l-5.9-21.8h-1.3l-5.7,21.7l-3.9-24.3h-3.7
	L373.9,807.7z"/>
<path class="st1" d="M403.3,786.9c1.9-2,4.2-3,7.1-3c2.3,0,4,0.5,5.2,1.5c1.1,1.1,1.6,2.9,1.6,5.5v0.9h-4.9
	c-4.3,0.1-7.6,1.1-9.9,2.6c-2.3,1.5-3.4,3.6-3.4,6.3c0,0.9,0.2,1.8,0.6,2.7c0.4,0.9,0.9,1.6,1.8,2.3c0.8,0.7,1.8,1.3,2.8,1.6
	c1.1,0.5,2.3,0.6,3.7,0.6c3.5,0,6.7-1.2,9.5-3.5v2.9h4V791c0-3.9-0.9-6.6-2.8-8.2c-1.9-1.6-4.4-2.5-7.6-2.5c-4,0-7,1.3-9.4,3.7
	L403.3,786.9z M417.3,796.9c0,1.3-0.2,2.3-0.6,3.2c-0.2,0.5-0.5,0.9-0.9,1.5c-0.5,0.6-0.9,1.1-1.6,1.6c-0.7,0.5-1.5,0.9-2.5,1.3
	s-2,0.6-3.2,0.6c-1.5,0-2.9-0.5-4-1.3c-1.1-0.9-1.6-2-1.6-3.2c0-0.7,0.1-1.4,0.5-2.1c0.2-0.6,0.8-1.2,1.6-1.8
	c0.8-0.5,1.9-0.9,3.2-1.2c1.4-0.2,3-0.5,5.2-0.5c0.5,0,0.9,0,1.4,0c0.5,0,0.9,0,1.5,0h0.9v1.8H417.3z"/>
<path class="st1" d="M447.1,781.9c-1.8-0.8-3.6-1.3-5.7-1.3c-1.9,0-3.7,0.4-5.4,1.1c-1.6,0.7-3,1.6-4.2,2.8
	c-1.2,1.2-2.1,2.7-2.7,4.3c-0.7,1.6-0.9,3.5-0.9,5.5c0,2,0.4,3.9,0.9,5.5c0.7,1.6,1.5,3.2,2.7,4.3c1.2,1.3,2.6,2.2,4.1,2.9
	c1.6,0.7,3.4,1.1,5.3,1.1c3.9,0,7-1.4,9.6-4.1l-2.5-2.8c-2,2.1-4.2,3.2-6.9,3.2c-1.4,0-2.6-0.2-3.7-0.8c-1.2-0.5-2.1-1.3-2.9-2.1
	c-0.8-0.9-1.4-2-1.9-3.3c-0.5-1.3-0.7-2.7-0.7-4.1c0-1.5,0.2-2.8,0.7-4.1c0.5-1.2,1.1-2.2,1.9-3.2c0.8-0.8,1.6-1.5,2.7-2
	c1.1-0.5,2.1-0.7,3.3-0.7c2.3,0,4.1,0.6,5.4,1.6c0.7,0.6,1.2,1.1,1.4,1.4c0.2,0.4,0.4,0.6,0.5,0.8c0,0.2,0.1,0.5,0.1,0.6
	c0,0.1,0.1,0.2,0.2,0.4l2.9-3.4C450.1,784,448.7,782.8,447.1,781.9z"/>
<path class="st1" d="M463.7,781.6c-1.5,0.7-2.8,1.6-4,2.9c-1.2,1.2-2,2.7-2.7,4.4s-1.1,3.6-1.1,5.5c0,2,0.4,3.7,0.9,5.5
	c0.7,1.6,1.5,3.2,2.7,4.3c1.2,1.2,2.5,2.1,3.9,2.8c1.5,0.7,3,1.1,4.8,1.1c1.6,0,3.2-0.4,4.7-0.9c1.4-0.6,2.7-1.5,3.9-2.8
	c1.1-1.2,1.9-2.7,2.6-4.3c0.6-1.6,0.9-3.6,0.9-5.7c0-2.1-0.4-4-0.9-5.7s-1.5-3.2-2.6-4.3c-1.1-1.2-2.3-2.1-3.7-2.7
	c-1.4-0.6-2.9-0.9-4.6-0.9C466.7,780.6,465.2,780.9,463.7,781.6z M475.5,798.7c-0.4,1.3-0.9,2.3-1.6,3.2c-0.7,0.8-1.5,1.5-2.5,2
	s-2,0.7-3,0.7c-1.1,0-2.1-0.2-3-0.7c-0.9-0.5-1.8-1.2-2.5-2.1s-1.3-2-1.8-3.3c-0.5-1.3-0.6-2.7-0.6-4.2c0-1.5,0.2-3,0.6-4.2
	c0.5-1.3,0.9-2.3,1.8-3.2c0.7-0.9,1.5-1.5,2.5-2s2-0.7,2.9-0.7c1.1,0,2,0.2,2.9,0.7c0.9,0.5,1.8,1.2,2.5,2c0.7,0.9,1.3,2,1.8,3.3
	s0.7,2.8,0.7,4.4C476.1,796,475.8,797.6,475.5,798.7z"/>
<path class="st1" d="M488.6,807.5V790c0-2,0.5-3.5,1.3-4.6c0.8-1.1,1.8-1.6,2.7-1.6c1.1,0,1.8,0.4,2.1,1.1c0.4,0.7,0.6,2.2,0.6,4.3
	v18.4h3.9v-17.4c0-0.7,0.1-1.5,0.4-2.2c0.2-0.8,0.6-1.5,0.9-2.1c0.4-0.6,0.8-1.2,1.3-1.5c0.5-0.4,1.1-0.6,1.5-0.6
	c0.5,0,0.8,0,1.1,0.1s0.6,0.4,0.8,0.7c0.2,0.4,0.5,0.9,0.6,1.6c0.1,0.7,0.1,1.6,0.1,2.8v18.7h3.9v-20.2c0.1-1.9-0.4-3.5-1.2-4.8
	c-0.8-1.3-2.2-2-4-2c-1.3,0-2.5,0.4-3.5,1.1c-1.1,0.7-1.9,1.6-2.3,2.8c-0.2-1.2-0.8-2-1.6-2.8c-0.8-0.7-1.9-1.1-2.9-1.1
	s-2.1,0.4-3,0.9c-0.9,0.6-1.8,1.4-2.3,2.3v-2.6h-3.9v26.3h3.7V807.5z"/>
<path class="st1" d="M554.7,771.5l-9.4,4.9l0.9,2.2l7.3-2.1v31h4v-36L554.7,771.5L554.7,771.5z"/>
<path class="st1" d="M576.5,779.4c0.1-0.1,0.1-0.4,0.2-0.7c0-0.4,0.2-0.7,0.6-1.2c0.4-0.5,0.8-0.8,1.4-1.3c0.6-0.4,1.3-0.7,2.1-1.1
	c0.8-0.2,1.6-0.5,2.7-0.5c0.8,0,1.6,0.2,2.5,0.6c0.8,0.4,1.5,0.8,2.1,1.5c0.6,0.6,1.2,1.4,1.5,2.1c0.4,0.8,0.5,1.6,0.5,2.5
	c0,0.7,0,1.3-0.1,2c-0.1,0.6-0.4,1.3-0.7,2c-0.4,0.7-0.8,1.4-1.4,2.1c-0.6,0.7-1.4,1.5-2.3,2.5l-2.8,2.6c-1.5,1.4-3.2,3-4.8,5.2
	c-1.6,2-3.2,4.4-4.6,7.3v2.6h21.1v-4.1h-0.1c-0.2,0-0.4,0.1-0.6,0.2c-0.2,0.1-0.5,0.2-0.6,0.2H578c0.5-0.8,0.9-1.6,1.5-2.5
	c0.6-0.8,1.2-1.5,1.8-2.3c0.6-0.7,1.2-1.4,1.9-2.1c0.6-0.6,1.2-1.2,1.6-1.6l3.5-3.3c0.8-0.7,1.5-1.4,2.2-2.2
	c0.7-0.8,1.3-1.6,1.9-2.6s0.9-1.9,1.3-2.8c0.4-1.1,0.5-2.1,0.5-3.2c0-1.4-0.2-2.7-0.8-4c-0.6-1.3-1.3-2.3-2.2-3.3
	c-0.9-0.9-2.1-1.6-3.4-2.1c-1.3-0.5-2.6-0.8-4.1-0.8c-2.1,0-4,0.5-5.9,1.5c-1.8,1.1-3.2,2.5-4.2,4.3L576.5,779.4z"/>
<path class="st1" d="M604.7,807.7h1.6l6.3-23.8l6.2,23.8h1.5l5.7-36.2h-3.4l-3.3,24.3l-5.9-21.8h-1.3l-5.7,21.7l-3.9-24.3H599
	L604.7,807.7z"/>
<path class="st1" d="M641.2,785.2l-7.6-13.7h-4.3l9.6,17.7l-9.8,18.4h4.3l7.7-14.3l8,14.3h4.6l-10.2-18.4l9.1-17.6h-3.9L641.2,785.2
	z"/>
</svg>
