<?xml version="1.0" encoding="utf-8"?>
<!-- Generator: Adobe Illustrator 19.2.1, SVG Export Plug-In . SVG Version: 6.00 Build 0)  -->
<svg version="1.1" id="Layer_1" xmlns="http://www.w3.org/2000/svg" xmlns:xlink="http://www.w3.org/1999/xlink" x="0px" y="0px"
	 viewBox="0 0 1600 900" style="enable-background:new 0 0 1600 900;" xml:space="preserve">
<style type="text/css">
	.st0{fill:#DE935E;}
	.st1{fill:#7D9DB8;}
	.st2{fill:#8ABEB7;}
	.st3{fill:#B294BA;}
	.st4{display:none;fill:#DE935E;}
</style>
<path class="st0" d="M1188.7,36c-0.7-0.3-1.4-0.5-2.2-0.5c-0.6,0-1.2,0.1-1.7,0.3c-0.5,0.2-1,0.5-1.4,0.8c-0.4,0.3-0.7,0.7-0.9,1.2
	c-0.2,0.5-0.3,1-0.3,1.5c0,0.4,0.1,0.8,0.2,1.2c0.1,0.4,0.3,0.7,0.7,1c0.3,0.3,0.7,0.6,1.2,0.9c0.5,0.3,1.1,0.6,1.9,0.9
	c0.7,0.3,1.2,0.5,1.7,0.7c0.4,0.2,0.7,0.4,1,0.6c0.2,0.2,0.4,0.4,0.5,0.7c0.1,0.2,0.1,0.5,0.1,0.8c0,0.4-0.1,0.7-0.2,1
	c-0.2,0.3-0.4,0.6-0.6,0.9c-0.3,0.2-0.6,0.4-0.9,0.6c-0.4,0.1-0.8,0.2-1.2,0.2c-0.8,0-1.6-0.1-2.2-0.4s-1.1-0.7-1.4-1.1
	c0-0.1-0.1-0.1-0.1-0.3c0-0.1,0-0.2-0.1-0.2l-0.9,1.7c1.1,1.2,2.6,1.8,4.5,1.8c0.8,0,1.6-0.1,2.2-0.4c0.6-0.2,1.1-0.6,1.5-1
	c0.4-0.4,0.7-0.8,0.9-1.3c0.2-0.5,0.3-1,0.3-1.5c0-0.4-0.1-0.8-0.2-1.2c-0.1-0.4-0.3-0.7-0.6-1c-0.3-0.3-0.6-0.6-1.1-0.9
	c-0.5-0.3-1-0.6-1.7-0.9c-0.7-0.3-1.3-0.6-1.8-0.8c-0.5-0.2-0.8-0.5-1-0.7c-0.2-0.2-0.4-0.5-0.5-0.7c-0.1-0.2-0.2-0.5-0.2-0.9
	c0-0.6,0.2-1.1,0.7-1.5c0.5-0.4,1.1-0.6,1.8-0.6c0.7,0,1.4,0.1,1.9,0.4c0.5,0.3,0.9,0.6,1.2,1c0,0,0,0.1,0.1,0.2
	c0,0.1,0,0.2,0.1,0.2l1-1.4C1190,36.8,1189.4,36.3,1188.7,36z"/>
<path class="st0" d="M1193.9,50l1.4-4.2h4.6l1.6,4.2h1.7l-5.5-14.6h-0.2l-5.1,14.6H1193.9z M1195.6,44.5l1.8-5.5l2,5.5H1195.6z"/>
<path class="st0" d="M1211.7,36c-0.7-0.3-1.4-0.5-2.2-0.5c-0.6,0-1.2,0.1-1.7,0.3c-0.5,0.2-1,0.5-1.4,0.8c-0.4,0.3-0.7,0.7-0.9,1.2
	c-0.2,0.5-0.3,1-0.3,1.5c0,0.4,0.1,0.8,0.2,1.2c0.1,0.4,0.3,0.7,0.7,1c0.3,0.3,0.7,0.6,1.2,0.9c0.5,0.3,1.1,0.6,1.9,0.9
	c0.7,0.3,1.2,0.5,1.7,0.7c0.4,0.2,0.7,0.4,1,0.6c0.2,0.2,0.4,0.4,0.5,0.7c0.1,0.2,0.1,0.5,0.1,0.8c0,0.4-0.1,0.7-0.2,1
	c-0.2,0.3-0.4,0.6-0.6,0.9c-0.3,0.2-0.6,0.4-0.9,0.6c-0.4,0.1-0.8,0.2-1.2,0.2c-0.8,0-1.6-0.1-2.2-0.4s-1.1-0.7-1.4-1.1
	c0-0.1-0.1-0.1-0.1-0.3c0-0.1,0-0.2-0.1-0.2l-0.9,1.7c1.1,1.2,2.6,1.8,4.5,1.8c0.8,0,1.6-0.1,2.2-0.4c0.6-0.2,1.1-0.6,1.5-1
	c0.4-0.4,0.7-0.8,0.9-1.3c0.2-0.5,0.3-1,0.3-1.5c0-0.4-0.1-0.8-0.2-1.2c-0.1-0.4-0.3-0.7-0.6-1c-0.3-0.3-0.6-0.6-1.1-0.9
	c-0.5-0.3-1-0.6-1.7-0.9c-0.7-0.3-1.3-0.6-1.8-0.8c-0.5-0.2-0.8-0.5-1-0.7c-0.2-0.2-0.4-0.5-0.5-0.7c-0.1-0.2-0.2-0.5-0.2-0.9
	c0-0.6,0.2-1.1,0.7-1.5c0.5-0.4,1.1-0.6,1.8-0.6c0.7,0,1.4,0.1,1.9,0.4c0.5,0.3,0.9,0.6,1.2,1c0,0,0,0.1,0.1,0.2
	c0,0.1,0,0.2,0.1,0.2l1-1.4C1213,36.8,1212.4,36.3,1211.7,36z"/>
<path class="st0" d="M1223.2,36c-0.7-0.3-1.4-0.5-2.2-0.5c-0.6,0-1.2,0.1-1.7,0.3c-0.5,0.2-1,0.5-1.4,0.8c-0.4,0.3-0.7,0.7-0.9,1.2
	c-0.2,0.5-0.3,1-0.3,1.5c0,0.4,0.1,0.8,0.2,1.2c0.1,0.4,0.3,0.7,0.7,1c0.3,0.3,0.7,0.6,1.2,0.9c0.5,0.3,1.1,0.6,1.9,0.9
	c0.7,0.3,1.2,0.5,1.7,0.7c0.4,0.2,0.7,0.4,1,0.6c0.2,0.2,0.4,0.4,0.5,0.7c0.1,0.2,0.1,0.5,0.1,0.8c0,0.4-0.1,0.7-0.2,1
	c-0.2,0.3-0.4,0.6-0.6,0.9c-0.3,0.2-0.6,0.4-0.9,0.6c-0.4,0.1-0.8,0.2-1.2,0.2c-0.8,0-1.6-0.1-2.2-0.4s-1.1-0.7-1.4-1.1
	c0-0.1-0.1-0.1-0.1-0.3c0-0.1,0-0.2-0.1-0.2l-0.9,1.7c1.1,1.2,2.6,1.8,4.5,1.8c0.8,0,1.6-0.1,2.2-0.4c0.6-0.2,1.1-0.6,1.5-1
	c0.4-0.4,0.7-0.8,0.9-1.3c0.2-0.5,0.3-1,0.3-1.5c0-0.4-0.1-0.8-0.2-1.2c-0.1-0.4-0.3-0.7-0.6-1c-0.3-0.3-0.6-0.6-1.1-0.9
	c-0.5-0.3-1-0.6-1.7-0.9c-0.7-0.3-1.3-0.6-1.8-0.8c-0.5-0.2-0.8-0.5-1-0.7c-0.2-0.2-0.4-0.5-0.5-0.7c-0.1-0.2-0.2-0.5-0.2-0.9
	c0-0.6,0.2-1.1,0.7-1.5c0.5-0.4,1.1-0.6,1.8-0.6c0.7,0,1.4,0.1,1.9,0.4c0.5,0.3,0.9,0.6,1.2,1c0,0,0,0.1,0.1,0.2
	c0,0.1,0,0.2,0.1,0.2l1-1.4C1224.5,36.8,1223.9,36.3,1223.2,36z"/>
<path class="st0" d="M1189.7,93.1l1.5-0.8c-0.2-0.4-0.4-0.8-0.7-1.2c-0.3-0.3-0.7-0.6-1-0.9c-0.4-0.2-0.8-0.4-1.3-0.6
	c-0.5-0.1-0.9-0.2-1.4-0.2c-0.6,0-1.2,0.1-1.8,0.4c-0.6,0.2-1.2,0.6-1.8,1.2c-0.6,0.6-1,1.3-1.3,2.3c-0.3,0.9-0.5,2.1-0.5,3.5
	c0,1.3,0.1,2.4,0.4,3.3c0.3,0.9,0.7,1.7,1.2,2.3c0.5,0.6,1.1,1,1.7,1.3c0.6,0.3,1.4,0.4,2.2,0.4c0.4,0,0.7,0,1.1-0.1
	c0.4-0.1,0.7-0.2,1.1-0.4c0.4-0.2,0.7-0.4,1-0.7c0.3-0.3,0.6-0.6,0.8-1l-1.2-0.8c-0.3,0.6-0.7,1-1.3,1.3c-0.5,0.3-1.1,0.5-1.6,0.5
	c-0.6,0-1.1-0.1-1.6-0.4c-0.5-0.3-0.9-0.7-1.3-1.2c-0.4-0.5-0.6-1.2-0.8-1.9c-0.2-0.7-0.3-1.6-0.3-2.5c0-0.9,0.1-1.8,0.3-2.5
	c0.2-0.7,0.5-1.4,0.8-1.9c0.4-0.5,0.8-0.9,1.2-1.2c0.5-0.3,1-0.4,1.5-0.4c0.6,0,1.1,0.1,1.6,0.4c0.5,0.3,0.9,0.7,1.2,1.2
	c0,0.1,0.1,0.2,0.1,0.4C1189.6,93,1189.6,93.1,1189.7,93.1L1189.7,93.1z"/>
<path class="st0" d="M1200.2,90.1c-0.7-0.3-1.4-0.5-2.2-0.5c-0.6,0-1.2,0.1-1.7,0.3c-0.5,0.2-1,0.5-1.4,0.8
	c-0.4,0.3-0.7,0.7-0.9,1.2c-0.2,0.5-0.3,1-0.3,1.5c0,0.4,0.1,0.8,0.2,1.2c0.1,0.4,0.3,0.7,0.7,1c0.3,0.3,0.7,0.6,1.2,0.9
	c0.5,0.3,1.1,0.6,1.9,0.9c0.7,0.3,1.2,0.5,1.7,0.7c0.4,0.2,0.7,0.4,1,0.6c0.2,0.2,0.4,0.4,0.5,0.7c0.1,0.2,0.1,0.5,0.1,0.8
	c0,0.4-0.1,0.7-0.2,1c-0.2,0.3-0.4,0.6-0.6,0.9c-0.3,0.2-0.6,0.4-0.9,0.6c-0.4,0.1-0.8,0.2-1.2,0.2c-0.8,0-1.6-0.1-2.2-0.4
	c-0.6-0.3-1.1-0.7-1.4-1.1c0-0.1-0.1-0.1-0.1-0.3c0-0.1,0-0.2-0.1-0.2l-0.9,1.7c1.1,1.2,2.6,1.8,4.5,1.8c0.8,0,1.6-0.1,2.2-0.4
	c0.6-0.2,1.1-0.6,1.5-1c0.4-0.4,0.7-0.8,0.9-1.3c0.2-0.5,0.3-1,0.3-1.5c0-0.4-0.1-0.8-0.2-1.2c-0.1-0.4-0.3-0.7-0.6-1
	c-0.3-0.3-0.6-0.6-1.1-0.9c-0.5-0.3-1-0.6-1.7-0.9c-0.7-0.3-1.3-0.6-1.8-0.8c-0.5-0.2-0.8-0.5-1-0.7c-0.2-0.2-0.4-0.5-0.5-0.7
	c-0.1-0.2-0.2-0.5-0.2-0.9c0-0.6,0.2-1.1,0.7-1.5c0.5-0.4,1.1-0.6,1.8-0.6c0.7,0,1.4,0.1,1.9,0.4c0.5,0.3,0.9,0.6,1.2,1
	c0,0,0,0.1,0.1,0.2c0,0.1,0,0.2,0.1,0.2l1-1.4C1201.5,90.8,1200.9,90.4,1200.2,90.1z"/>
<path class="st0" d="M1211.7,90.1c-0.7-0.3-1.4-0.5-2.2-0.5c-0.6,0-1.2,0.1-1.7,0.3c-0.5,0.2-1,0.5-1.4,0.8
	c-0.4,0.3-0.7,0.7-0.9,1.2c-0.2,0.5-0.3,1-0.3,1.5c0,0.4,0.1,0.8,0.2,1.2c0.1,0.4,0.3,0.7,0.7,1c0.3,0.3,0.7,0.6,1.2,0.9
	c0.5,0.3,1.1,0.6,1.9,0.9c0.7,0.3,1.2,0.5,1.7,0.7c0.4,0.2,0.7,0.4,1,0.6c0.2,0.2,0.4,0.4,0.5,0.7c0.1,0.2,0.1,0.5,0.1,0.8
	c0,0.4-0.1,0.7-0.2,1c-0.2,0.3-0.4,0.6-0.6,0.9c-0.3,0.2-0.6,0.4-0.9,0.6c-0.4,0.1-0.8,0.2-1.2,0.2c-0.8,0-1.6-0.1-2.2-0.4
	c-0.6-0.3-1.1-0.7-1.4-1.1c0-0.1-0.1-0.1-0.1-0.3c0-0.1,0-0.2-0.1-0.2l-0.9,1.7c1.1,1.2,2.6,1.8,4.5,1.8c0.8,0,1.6-0.1,2.2-0.4
	c0.6-0.2,1.1-0.6,1.5-1c0.4-0.4,0.7-0.8,0.9-1.3c0.2-0.5,0.3-1,0.3-1.5c0-0.4-0.1-0.8-0.2-1.2c-0.1-0.4-0.3-0.7-0.6-1
	c-0.3-0.3-0.6-0.6-1.1-0.9c-0.5-0.3-1-0.6-1.7-0.9c-0.7-0.3-1.3-0.6-1.8-0.8c-0.5-0.2-0.8-0.5-1-0.7c-0.2-0.2-0.4-0.5-0.5-0.7
	c-0.1-0.2-0.2-0.5-0.2-0.9c0-0.6,0.2-1.1,0.7-1.5c0.5-0.4,1.1-0.6,1.8-0.6c0.7,0,1.4,0.1,1.9,0.4c0.5,0.3,0.9,0.6,1.2,1
	c0,0,0,0.1,0.1,0.2c0,0.1,0,0.2,0.1,0.2l1-1.4C1213,90.8,1212.4,90.4,1211.7,90.1z"/>
<path class="st0" d="M1224.1,91.9c-0.2-0.4-0.5-0.8-0.8-1.2c-0.4-0.3-0.8-0.6-1.3-0.8c-0.5-0.2-1-0.3-1.6-0.3
	c-1.3,0-2.5,0.5-3.4,1.5l0.9,1c0.7-0.7,1.5-1.1,2.5-1.1c0.4,0,0.7,0.1,1,0.2c0.3,0.1,0.6,0.3,0.8,0.5c0.2,0.2,0.4,0.4,0.5,0.7
	c0.1,0.3,0.2,0.5,0.2,0.8c0,0.4-0.1,0.7-0.2,1.1c-0.1,0.3-0.3,0.6-0.6,0.9c-0.3,0.2-0.7,0.4-1.2,0.6c-0.5,0.1-1.1,0.2-1.8,0.2v1.3
	c0.1,0,0.2,0,0.4,0c0.1,0,0.2,0,0.4,0c1,0,1.8,0.2,2.5,0.7c0.6,0.5,0.9,1.1,0.9,1.9c0,0.4-0.1,0.8-0.2,1.1c-0.1,0.4-0.3,0.7-0.6,0.9
	c-0.3,0.3-0.6,0.5-0.9,0.6c-0.4,0.2-0.7,0.2-1.2,0.2c-0.4,0-0.8-0.1-1.2-0.2c-0.4-0.1-0.6-0.3-0.7-0.4l-0.3-0.3
	c-0.1-0.1-0.1-0.2-0.2-0.3c0-0.1-0.1-0.2-0.1-0.3l-1.2,1.4c1,1.1,2.2,1.6,3.6,1.6c0.7,0,1.4-0.1,1.9-0.3c0.6-0.2,1-0.5,1.4-0.9
	c0.4-0.4,0.7-0.8,0.9-1.3c0.2-0.5,0.3-1,0.3-1.6c0-0.9-0.2-1.6-0.7-2.3c-0.5-0.7-1-1.1-1.8-1.4c0.6-0.2,1.2-0.7,1.6-1.2
	c0.4-0.6,0.6-1.2,0.6-1.9C1224.4,92.8,1224.3,92.3,1224.1,91.9z"/>
<path class="st0" d="M1175.9,158h1.7v-6.9h5.6v6.9h1.7v-13.8c0-0.1,0-0.2,0.1-0.2c0-0.1,0.1-0.1,0.1-0.2c0,0,0-0.1,0-0.1h-1.8v6.1
	h-5.6v-5.6c0-0.1,0-0.2,0.1-0.3c0-0.1,0.1-0.1,0.1-0.2c0,0,0-0.1,0-0.1h-1.8V158z"/>
<path class="st0" d="M1186.9,145.1h4.1V158h1.7v-12.9h4.2v-1.4h-10V145.1z"/>
<path class="st0" d="M1198.7,158h1.5v-10.7l2.9,5.7h0.6l3.1-5.8V158h1.5v-14.4h-1.2l-3.6,7l-3.5-7h-1.3V158z"/>
<path class="st0" d="M1210.7,158h8.6v-1.4h-6.9v-12.1c0-0.1,0-0.3,0.1-0.4c0.1-0.1,0.1-0.3,0.1-0.4h-1.9V158z"/>
<path class="st0" d="M1222.7,151l1,0.4c0.4-0.4,0.8-0.8,1.2-1c0.5-0.2,1-0.4,1.4-0.4c0.4,0,0.8,0.1,1.1,0.2c0.4,0.2,0.7,0.4,0.9,0.7
	c0.3,0.3,0.5,0.6,0.6,1.1c0.2,0.4,0.2,0.9,0.2,1.4c0,0.5-0.1,1-0.2,1.4c-0.2,0.4-0.4,0.8-0.6,1.1c-0.3,0.3-0.5,0.5-0.9,0.7
	s-0.7,0.2-1.1,0.2c-0.4,0-0.7,0-1-0.1c-0.3-0.1-0.6-0.2-0.8-0.4c-0.2-0.1-0.4-0.3-0.6-0.4c-0.2-0.2-0.3-0.3-0.3-0.4c0,0,0-0.1,0-0.3
	c0-0.1,0-0.2-0.1-0.3l-1.4,1.1c0.5,0.7,1.1,1.3,1.8,1.6c0.7,0.4,1.6,0.6,2.4,0.6c0.6,0,1.2-0.1,1.8-0.3c0.5-0.2,1-0.5,1.4-0.9
	c0.4-0.4,0.7-0.9,1-1.5c0.2-0.6,0.3-1.3,0.3-2s-0.1-1.4-0.3-2c-0.2-0.6-0.5-1.1-0.9-1.5c-0.4-0.4-0.9-0.7-1.4-1
	c-0.5-0.2-1.1-0.3-1.7-0.3c-0.8,0-1.6,0.2-2.3,0.6l0.2-4.1h5.9v-1.4h-7.3L1222.7,151z"/>
<path class="st0" d="M1147.7,212.1h1.7v-7h5.3v-1.4h-5.3v-4.5h6.6v-1.4h-8.3V212.1z"/>
<path class="st0" d="M1161.4,201.8c-0.6,0.3-1.1,0.7-1.6,1.2c-0.5,0.5-0.8,1.1-1.1,1.8c-0.3,0.7-0.4,1.4-0.4,2.2
	c0,0.8,0.1,1.5,0.4,2.2c0.3,0.7,0.6,1.3,1.1,1.7c0.4,0.5,1,0.9,1.6,1.1c0.6,0.3,1.2,0.4,1.9,0.4c0.7,0,1.3-0.1,1.9-0.4
	c0.6-0.3,1.1-0.6,1.5-1.1c0.4-0.5,0.8-1.1,1-1.7c0.2-0.7,0.4-1.4,0.4-2.3c0-0.8-0.1-1.6-0.4-2.3c-0.3-0.7-0.6-1.3-1-1.7
	c-0.4-0.5-0.9-0.8-1.5-1.1c-0.6-0.3-1.2-0.4-1.8-0.4S1162,201.5,1161.4,201.8z M1166.1,208.6c-0.2,0.5-0.4,0.9-0.7,1.3
	c-0.3,0.3-0.6,0.6-1,0.8c-0.4,0.2-0.8,0.3-1.2,0.3c-0.4,0-0.8-0.1-1.2-0.3c-0.4-0.2-0.7-0.5-1-0.9c-0.3-0.4-0.5-0.8-0.7-1.3
	c-0.2-0.5-0.3-1.1-0.3-1.7c0-0.6,0.1-1.2,0.3-1.7c0.2-0.5,0.4-0.9,0.7-1.3c0.3-0.4,0.6-0.6,1-0.8c0.4-0.2,0.8-0.3,1.2-0.3
	c0.4,0,0.8,0.1,1.2,0.3c0.4,0.2,0.7,0.5,1,0.8c0.3,0.4,0.5,0.8,0.7,1.3c0.2,0.5,0.3,1.1,0.3,1.8
	C1166.4,207.5,1166.3,208.1,1166.1,208.6z"/>
<path class="st0" d="M1170.4,207.4c0,0.9,0.1,1.6,0.3,2.2c0.2,0.6,0.4,1.1,0.8,1.5c0.3,0.4,0.7,0.7,1.2,0.9c0.4,0.2,0.9,0.3,1.5,0.3
	c0.7,0,1.3-0.2,1.9-0.5c0.6-0.3,1-0.8,1.4-1.4l0,0.8c0,0.2,0,0.3,0,0.4c0,0.1,0,0.2,0,0.4h1.7c-0.1-0.3-0.1-0.6-0.1-0.9v-9.6h-1.7
	v5.8c0,0.6-0.1,1.2-0.2,1.6c-0.2,0.4-0.4,0.8-0.6,1.1c-0.3,0.3-0.6,0.5-0.9,0.7c-0.3,0.2-0.7,0.2-1.1,0.3c-0.3,0-0.7-0.1-0.9-0.2
	c-0.3-0.1-0.5-0.3-0.8-0.6c-0.2-0.3-0.4-0.6-0.5-1.1c-0.1-0.5-0.2-1-0.2-1.7v-5.9h-1.7L1170.4,207.4z"/>
<path class="st0" d="M1183.7,212.1V206c0-0.5,0.1-1,0.3-1.4c0.2-0.4,0.4-0.7,0.7-1c0.3-0.3,0.6-0.5,1-0.7c0.4-0.2,0.7-0.2,1.1-0.2
	c0.5,0,1,0.2,1.4,0.7c0.4,0.4,0.6,1.2,0.6,2.3v6.3h1.7v-6.4c0-0.8-0.1-1.5-0.2-2c-0.2-0.6-0.4-1-0.7-1.4c-0.3-0.4-0.6-0.6-1-0.8
	c-0.4-0.2-0.8-0.2-1.3-0.2c-0.6,0-1.3,0.2-1.9,0.6c-0.6,0.4-1.1,0.9-1.5,1.5v-1.9h-1.7v10.5H1183.7z"/>
<path class="st0" d="M1199.3,201.8c-0.5-0.3-1.2-0.5-1.9-0.5c-0.5,0-1.1,0.1-1.6,0.3c-0.5,0.2-1,0.5-1.4,1c-0.4,0.4-0.8,1-1,1.7
	c-0.3,0.7-0.4,1.5-0.4,2.5c0,1,0.1,1.8,0.3,2.5c0.2,0.7,0.5,1.3,0.9,1.7c0.4,0.5,0.8,0.8,1.4,1c0.5,0.2,1.1,0.3,1.6,0.3
	c0.6,0,1.2-0.2,1.8-0.5c0.6-0.3,1-0.8,1.4-1.4v0.9c0,0.3,0,0.6,0.1,0.8h1.7c-0.1-0.3-0.1-0.6-0.1-1l0-13.7c0-0.1,0-0.2,0.1-0.3
	c0.1-0.1,0.1-0.2,0.1-0.3h-1.8v6.3C1200.2,202.6,1199.8,202.1,1199.3,201.8z M1196.5,202.8c0.3-0.1,0.7-0.2,1.1-0.2
	c0.2,0,0.4,0,0.7,0.1c0.2,0.1,0.5,0.2,0.8,0.4c0.2,0.1,0.4,0.3,0.6,0.5c0.2,0.2,0.3,0.4,0.4,0.7c0.1,0.3,0.2,0.6,0.2,1
	c0,0.4,0.1,0.9,0.1,1.5c0,0.9-0.1,1.7-0.3,2.2c-0.1,0.3-0.2,0.6-0.4,0.8c-0.2,0.2-0.4,0.4-0.6,0.6c-0.2,0.2-0.5,0.3-0.7,0.4
	c-0.3,0.1-0.5,0.1-0.7,0.1c-1,0-1.7-0.4-2.2-1.2c-0.5-0.8-0.7-1.9-0.7-3.2c0-1.4,0.3-2.4,1-3
	C1195.9,203.1,1196.2,202.9,1196.5,202.8z"/>
<path class="st0" d="M1206.4,203.9c0.8-0.8,1.7-1.2,2.8-1.2c0.9,0,1.6,0.2,2,0.6c0.4,0.4,0.7,1.2,0.7,2.2v0.4h-2
	c-1.7,0.1-3,0.4-3.9,1c-0.9,0.6-1.4,1.4-1.4,2.5c0,0.4,0.1,0.7,0.2,1.1c0.2,0.4,0.4,0.7,0.7,0.9c0.3,0.3,0.7,0.5,1.1,0.7
	c0.4,0.2,0.9,0.3,1.5,0.3c1.4,0,2.7-0.5,3.8-1.4v1.2h1.6v-6.5c0-1.5-0.4-2.6-1.1-3.3c-0.7-0.7-1.8-1-3-1c-1.6,0-2.8,0.5-3.7,1.5
	L1206.4,203.9z M1211.9,207.9c0,0.5-0.1,0.9-0.2,1.2c-0.1,0.2-0.2,0.4-0.4,0.6c-0.2,0.2-0.4,0.4-0.7,0.6c-0.3,0.2-0.6,0.4-1,0.5
	c-0.4,0.1-0.8,0.2-1.2,0.2c-0.6,0-1.2-0.2-1.6-0.5c-0.4-0.4-0.6-0.8-0.6-1.3c0-0.3,0.1-0.6,0.2-0.8s0.3-0.5,0.6-0.7
	c0.3-0.2,0.7-0.4,1.3-0.5c0.5-0.1,1.2-0.2,2.1-0.2c0.2,0,0.4,0,0.6,0c0.2,0,0.4,0,0.6,0h0.4V207.9z"/>
<path class="st0" d="M1219.1,201.6h-2.5v1.3h2.5c-0.1,1.1-0.2,2.1-0.2,3c0,0.9,0,1.6,0,2.1c0,1.5,0.2,2.6,0.7,3.3
	c0.5,0.7,1.3,1,2.4,1c1.1,0,2.2-0.4,3.3-1.2l-0.5-1.3c-0.9,0.6-1.6,1-2.4,1c-0.4,0-0.7-0.1-1-0.2c-0.2-0.2-0.4-0.4-0.6-0.7
	c-0.1-0.3-0.2-0.7-0.2-1.2s0-1.1,0-1.9c0-1.2,0.1-2.5,0.2-3.9h3.5v-1.3h-3.5l0.3-2.5c0-0.1,0-0.1,0.1-0.3c0-0.1,0.1-0.2,0.1-0.4
	l-1.8,0.3L1219.1,201.6z"/>
<path class="st0" d="M1228.9,202.9h2.6v7.8h-2.7v1.3h6.8v-1.3h-2.5v-9.2h-4.2V202.9z M1231.1,198.2c0,0.3,0.1,0.6,0.3,0.8
	c0.2,0.2,0.5,0.3,0.8,0.3c0.3,0,0.6-0.1,0.8-0.3c0.2-0.2,0.4-0.5,0.4-0.8c0-0.3-0.1-0.6-0.4-0.8c-0.2-0.2-0.5-0.4-0.8-0.4
	c-0.3,0-0.6,0.1-0.8,0.3C1231.2,197.6,1231.1,197.9,1231.1,198.2L1231.1,198.2z"/>
<path class="st0" d="M1241.9,201.8c-0.6,0.3-1.1,0.7-1.6,1.2c-0.5,0.5-0.8,1.1-1.1,1.8c-0.3,0.7-0.4,1.4-0.4,2.2
	c0,0.8,0.1,1.5,0.4,2.2c0.3,0.7,0.6,1.3,1.1,1.7c0.4,0.5,1,0.9,1.6,1.1c0.6,0.3,1.2,0.4,1.9,0.4c0.7,0,1.3-0.1,1.9-0.4
	c0.6-0.3,1.1-0.6,1.5-1.1c0.4-0.5,0.8-1.1,1-1.7c0.2-0.7,0.4-1.4,0.4-2.3c0-0.8-0.1-1.6-0.4-2.3c-0.3-0.7-0.6-1.3-1-1.7
	c-0.4-0.5-0.9-0.8-1.5-1.1c-0.6-0.3-1.2-0.4-1.8-0.4S1242.5,201.5,1241.9,201.8z M1246.7,208.6c-0.2,0.5-0.4,0.9-0.7,1.3
	c-0.3,0.3-0.6,0.6-1,0.8c-0.4,0.2-0.8,0.3-1.2,0.3c-0.4,0-0.8-0.1-1.2-0.3c-0.4-0.2-0.7-0.5-1-0.9c-0.3-0.4-0.5-0.8-0.7-1.3
	c-0.2-0.5-0.3-1.1-0.3-1.7c0-0.6,0.1-1.2,0.3-1.7c0.2-0.5,0.4-0.9,0.7-1.3c0.3-0.4,0.6-0.6,1-0.8c0.4-0.2,0.8-0.3,1.2-0.3
	c0.4,0,0.8,0.1,1.2,0.3c0.4,0.2,0.7,0.5,1,0.8c0.3,0.4,0.5,0.8,0.7,1.3c0.2,0.5,0.3,1.1,0.3,1.8
	C1246.9,207.5,1246.8,208.1,1246.7,208.6z"/>
<path class="st0" d="M1252.7,212.1V206c0-0.5,0.1-1,0.3-1.4c0.2-0.4,0.4-0.7,0.7-1c0.3-0.3,0.6-0.5,1-0.7c0.4-0.2,0.7-0.2,1.1-0.2
	c0.5,0,1,0.2,1.4,0.7c0.4,0.4,0.6,1.2,0.6,2.3v6.3h1.7v-6.4c0-0.8-0.1-1.5-0.2-2c-0.2-0.6-0.4-1-0.7-1.4c-0.3-0.4-0.6-0.6-1-0.8
	c-0.4-0.2-0.8-0.2-1.3-0.2c-0.6,0-1.3,0.2-1.9,0.6c-0.6,0.4-1.1,0.9-1.5,1.5v-1.9h-1.7v10.5H1252.7z"/>
<path class="st1" d="M1165.9,266.1v-11.3l6.3,11.3h1.3v-13.7c0-0.1,0-0.2,0.1-0.3c0.1-0.1,0.1-0.2,0.1-0.3h-1.7v10.7l-6-10.6h-1.6
	v14.3H1165.9z"/>
<path class="st1" d="M1178.7,255.8c-0.6,0.3-1.1,0.7-1.6,1.2c-0.5,0.5-0.8,1.1-1.1,1.8c-0.3,0.7-0.4,1.4-0.4,2.2s0.1,1.5,0.4,2.2
	c0.3,0.7,0.6,1.3,1.1,1.7c0.4,0.5,1,0.9,1.6,1.1c0.6,0.3,1.2,0.4,1.9,0.4c0.7,0,1.3-0.1,1.9-0.4c0.6-0.3,1.1-0.6,1.5-1.1
	c0.4-0.5,0.8-1.1,1-1.7c0.2-0.7,0.4-1.4,0.4-2.3c0-0.8-0.1-1.6-0.4-2.3c-0.3-0.7-0.6-1.3-1-1.7c-0.4-0.5-0.9-0.8-1.5-1.1
	c-0.6-0.3-1.2-0.4-1.8-0.4S1179.3,255.5,1178.7,255.8z M1183.4,262.7c-0.2,0.5-0.4,0.9-0.7,1.3c-0.3,0.3-0.6,0.6-1,0.8
	c-0.4,0.2-0.8,0.3-1.2,0.3c-0.4,0-0.8-0.1-1.2-0.3c-0.4-0.2-0.7-0.5-1-0.9c-0.3-0.4-0.5-0.8-0.7-1.3c-0.2-0.5-0.3-1.1-0.3-1.7
	c0-0.6,0.1-1.2,0.3-1.7c0.2-0.5,0.4-0.9,0.7-1.3c0.3-0.4,0.6-0.6,1-0.8c0.4-0.2,0.8-0.3,1.2-0.3c0.4,0,0.8,0.1,1.2,0.3
	c0.4,0.2,0.7,0.5,1,0.8c0.3,0.4,0.5,0.8,0.7,1.3c0.2,0.5,0.3,1.1,0.3,1.8C1183.6,261.6,1183.5,262.2,1183.4,262.7z"/>
<path class="st1" d="M1193.5,255.8c-0.5-0.3-1.2-0.5-1.9-0.5c-0.5,0-1.1,0.1-1.6,0.3c-0.5,0.2-1,0.5-1.4,1c-0.4,0.4-0.8,1-1,1.7
	c-0.3,0.7-0.4,1.5-0.4,2.5c0,1,0.1,1.8,0.3,2.5c0.2,0.7,0.5,1.3,0.9,1.7c0.4,0.5,0.8,0.8,1.4,1c0.5,0.2,1.1,0.3,1.6,0.3
	c0.6,0,1.2-0.2,1.8-0.5c0.6-0.3,1-0.8,1.4-1.4v0.9c0,0.3,0,0.6,0.1,0.8h1.7c-0.1-0.3-0.1-0.6-0.1-1l0-13.7c0-0.1,0-0.2,0.1-0.3
	c0.1-0.1,0.1-0.2,0.1-0.3h-1.8v6.3C1194.5,256.6,1194.1,256.2,1193.5,255.8z M1190.8,256.9c0.3-0.1,0.7-0.2,1.1-0.2
	c0.2,0,0.4,0,0.7,0.1c0.2,0.1,0.5,0.2,0.8,0.4c0.2,0.1,0.4,0.3,0.6,0.5c0.2,0.2,0.3,0.4,0.4,0.7c0.1,0.3,0.2,0.6,0.2,1
	c0,0.4,0.1,0.9,0.1,1.5c0,0.9-0.1,1.7-0.3,2.2c-0.1,0.3-0.2,0.6-0.4,0.8c-0.2,0.2-0.4,0.4-0.6,0.6c-0.2,0.2-0.5,0.3-0.7,0.4
	c-0.3,0.1-0.5,0.1-0.7,0.1c-1,0-1.7-0.4-2.2-1.2c-0.5-0.8-0.7-1.9-0.7-3.2c0-1.4,0.3-2.4,1-3C1190.2,257.2,1190.5,257,1190.8,256.9z
	"/>
<path class="st1" d="M1201.8,255.7c-0.6,0.2-1.1,0.6-1.5,1.1c-0.4,0.5-0.8,1-1,1.7c-0.3,0.7-0.4,1.5-0.4,2.4c0,0.9,0.1,1.7,0.4,2.3
	c0.2,0.7,0.6,1.3,1,1.7c0.4,0.5,1,0.8,1.6,1c0.6,0.2,1.3,0.4,2.1,0.4c1.6,0,2.8-0.5,3.7-1.6l-0.9-0.9c-0.7,0.8-1.6,1.2-2.7,1.2
	c-0.4,0-0.8-0.1-1.2-0.2c-0.4-0.1-0.8-0.3-1.1-0.7c-0.3-0.3-0.6-0.7-0.8-1.2c-0.2-0.5-0.3-1.1-0.4-1.9h7.5c0-0.1,0-0.2,0-0.4
	c0-0.1,0-0.3,0-0.4c0-0.9-0.1-1.6-0.4-2.2c-0.2-0.6-0.6-1.1-0.9-1.6c-0.4-0.4-0.8-0.7-1.4-0.9c-0.5-0.2-1.1-0.3-1.6-0.3
	C1203,255.4,1202.4,255.5,1201.8,255.7z M1201.6,257.4c0.6-0.5,1.2-0.8,2-0.8c0.4,0,0.7,0.1,1.1,0.2c0.3,0.2,0.6,0.4,0.9,0.6
	c0.2,0.2,0.4,0.5,0.6,0.9c0.1,0.3,0.2,0.7,0.2,1.1c0,0.1,0,0.1,0,0.2c0,0.1,0,0.1,0,0.2h-5.8C1200.6,258.7,1201,257.9,1201.6,257.4z
	"/>
<path class="st2" d="M1214.7,263.7c-0.4,0-0.7,0.1-0.9,0.4c-0.3,0.3-0.4,0.6-0.4,0.9c0,0.4,0.1,0.7,0.4,0.9c0.3,0.3,0.6,0.4,1,0.4
	c0.4,0,0.7-0.1,1-0.4c0.3-0.3,0.4-0.6,0.4-0.9c0-0.4-0.1-0.7-0.4-0.9C1215.4,263.9,1215,263.7,1214.7,263.7L1214.7,263.7z"/>
<path class="st3" d="M1223.6,257h3.9v8.8c0,1.1-0.2,1.8-0.7,2.3c-0.4,0.5-1,0.7-1.7,0.7c-0.4,0-0.7-0.1-1.1-0.3
	c-0.3-0.2-0.6-0.3-0.7-0.4c-0.1-0.1-0.2-0.2-0.3-0.3c0-0.1-0.1-0.2-0.1-0.3c0-0.1-0.1-0.2-0.1-0.2l-1.1,1.4c0.8,1,1.9,1.5,3.2,1.5
	c0.6,0,1.1-0.1,1.6-0.3c0.5-0.2,0.9-0.4,1.3-0.8c0.4-0.4,0.7-0.8,0.9-1.4c0.2-0.6,0.3-1.2,0.3-2v-10h-5.6V257z M1227.2,252.2
	c0,0.3,0.1,0.6,0.4,0.8c0.2,0.2,0.5,0.3,0.8,0.3s0.6-0.1,0.8-0.3c0.2-0.2,0.4-0.5,0.4-0.8c0-0.3-0.1-0.6-0.4-0.9
	c-0.2-0.2-0.5-0.3-0.8-0.3c-0.3,0-0.6,0.1-0.9,0.3C1227.3,251.6,1227.2,251.9,1227.2,252.2L1227.2,252.2z"/>
<path class="st3" d="M1238.2,255.4c-0.6,0-1.1,0.1-1.6,0.2c-0.5,0.2-0.9,0.4-1.3,0.6c-0.4,0.3-0.6,0.6-0.8,0.9
	c-0.2,0.3-0.3,0.7-0.3,1.1c0,0.3,0.1,0.7,0.2,0.9c0.1,0.3,0.3,0.5,0.5,0.8c0.2,0.2,0.4,0.4,0.7,0.6s0.6,0.4,1.2,0.6
	c0.2,0.1,0.7,0.2,1.3,0.4c1,0.3,1.7,0.6,2,0.9c0.4,0.3,0.6,0.6,0.6,1c0,0.3-0.1,0.5-0.2,0.7c-0.2,0.2-0.4,0.4-0.6,0.5
	c-0.3,0.1-0.5,0.3-0.9,0.3c-0.3,0.1-0.6,0.1-0.9,0.1c-0.3,0-0.6,0-0.9-0.1c-0.3,0-0.6-0.1-0.8-0.2c-0.5-0.2-0.9-0.4-1.1-0.6
	c-0.2-0.2-0.4-0.3-0.5-0.5c-0.1-0.1-0.1-0.3-0.2-0.4c0-0.1,0-0.2-0.1-0.2l-0.9,1.7c1.2,1.1,2.7,1.7,4.4,1.7c0.7,0,1.3-0.1,1.8-0.3
	c0.5-0.2,1-0.4,1.4-0.7c0.4-0.3,0.7-0.7,0.9-1.1c0.2-0.4,0.3-0.9,0.3-1.3c0-0.7-0.3-1.3-0.8-1.8c-0.5-0.5-1.5-0.9-2.8-1.3
	c-0.6-0.2-1.1-0.3-1.4-0.5c-0.4-0.1-0.6-0.3-0.8-0.4c-0.2-0.1-0.3-0.3-0.4-0.4c-0.1-0.1-0.1-0.3-0.1-0.5c0-0.2,0.1-0.5,0.2-0.7
	c0.1-0.2,0.3-0.3,0.5-0.5c0.2-0.1,0.4-0.2,0.7-0.3c0.3-0.1,0.6-0.1,0.8-0.1c0.6,0,1.2,0.1,1.7,0.4c0.5,0.3,0.9,0.6,1.2,1
	c0,0,0,0.1,0,0.2c0,0.1,0,0.2,0.1,0.2l1-1.4C1241.2,255.9,1239.9,255.4,1238.2,255.4L1238.2,255.4z"/>
<path class="st1" d="M1141.3,320.2h4c1.9,0,3.2-0.4,4.1-1.1c0.9-0.7,1.3-1.7,1.3-2.9c0-0.4-0.1-0.8-0.2-1.2c-0.1-0.4-0.3-0.7-0.6-1
	c-0.2-0.3-0.5-0.6-0.9-0.9c-0.3-0.3-0.7-0.4-1.1-0.6c0.7-0.2,1.2-0.7,1.6-1.3c0.4-0.6,0.6-1.2,0.6-1.9c0-0.5-0.1-1-0.3-1.4
	c-0.2-0.4-0.5-0.8-0.9-1.1c-0.4-0.3-0.9-0.6-1.5-0.7c-0.6-0.2-1.3-0.2-2.2-0.2h-4.1V320.2z M1145.4,307.2c0.6,0,1,0.1,1.4,0.2
	c0.4,0.1,0.7,0.3,0.9,0.5c0.2,0.2,0.4,0.5,0.5,0.7c0.1,0.3,0.2,0.6,0.2,0.9c0,0.3-0.1,0.6-0.2,0.9c-0.1,0.3-0.3,0.5-0.6,0.7
	c-0.3,0.2-0.6,0.4-1,0.5c-0.4,0.1-0.9,0.2-1.6,0.2h-2.2v-4.6H1145.4z M1145.3,313.1c0.7,0,1.3,0.1,1.7,0.2c0.5,0.1,0.9,0.3,1.2,0.6
	c0.3,0.3,0.5,0.6,0.6,0.9c0.1,0.4,0.2,0.7,0.3,1.2c-0.1,0.8-0.3,1.4-0.8,2c-0.5,0.5-1.3,0.8-2.6,0.8h-2.8v-5.7H1145.3z"/>
<path class="st1" d="M1154.6,312c0.8-0.8,1.7-1.2,2.8-1.2c0.9,0,1.6,0.2,2,0.6c0.4,0.4,0.7,1.2,0.7,2.2v0.4h-2c-1.7,0.1-3,0.4-3.9,1
	c-0.9,0.6-1.4,1.4-1.4,2.5c0,0.4,0.1,0.7,0.2,1.1c0.2,0.4,0.4,0.7,0.7,0.9c0.3,0.3,0.7,0.5,1.1,0.7c0.4,0.2,0.9,0.3,1.5,0.3
	c1.4,0,2.7-0.5,3.8-1.4v1.2h1.6v-6.5c0-1.5-0.4-2.6-1.1-3.3c-0.7-0.7-1.8-1-3-1c-1.6,0-2.8,0.5-3.7,1.5L1154.6,312z M1160.2,315.9
	c0,0.5-0.1,0.9-0.2,1.2c-0.1,0.2-0.2,0.4-0.4,0.6c-0.2,0.2-0.4,0.4-0.7,0.6c-0.3,0.2-0.6,0.4-1,0.5c-0.4,0.1-0.8,0.2-1.2,0.2
	c-0.6,0-1.2-0.2-1.6-0.5c-0.4-0.4-0.6-0.8-0.6-1.3c0-0.3,0.1-0.6,0.2-0.8c0.1-0.3,0.3-0.5,0.6-0.7c0.3-0.2,0.7-0.4,1.3-0.5
	c0.5-0.1,1.2-0.2,2.1-0.2c0.2,0,0.4,0,0.6,0c0.2,0,0.4,0,0.6,0h0.4V315.9z"/>
<path class="st1" d="M1172,310c-0.7-0.3-1.4-0.5-2.3-0.5c-0.8,0-1.5,0.1-2.1,0.4c-0.7,0.3-1.2,0.7-1.7,1.1c-0.5,0.5-0.8,1.1-1.1,1.7
	c-0.3,0.7-0.4,1.4-0.4,2.2c0,0.8,0.1,1.5,0.4,2.2c0.3,0.7,0.6,1.2,1.1,1.7c0.5,0.5,1,0.9,1.7,1.2c0.6,0.3,1.3,0.4,2.1,0.4
	c1.5,0,2.8-0.6,3.8-1.7l-1-1.1c-0.8,0.8-1.7,1.3-2.8,1.3c-0.5,0-1-0.1-1.5-0.3c-0.4-0.2-0.8-0.5-1.2-0.9s-0.6-0.8-0.8-1.3
	s-0.3-1.1-0.3-1.7c0-0.6,0.1-1.1,0.3-1.6c0.2-0.5,0.4-0.9,0.7-1.2c0.3-0.3,0.7-0.6,1.1-0.8c0.4-0.2,0.8-0.3,1.3-0.3
	c0.9,0,1.6,0.2,2.2,0.6c0.3,0.2,0.5,0.4,0.6,0.6c0.1,0.1,0.2,0.3,0.2,0.3c0,0.1,0,0.2,0,0.2c0,0.1,0,0.1,0.1,0.1l1.2-1.4
	C1173.3,310.8,1172.7,310.3,1172,310z"/>
<path class="st1" d="M1176.2,320.2h1.7v-4l1.4-1.3l4.3,5.4l2.1-0.1l-5.2-6.3l4.4-4.2h-0.6c-0.5,0-0.9,0-1.2-0.1l-5.3,4.9v-9
	c0-0.1,0-0.2,0.1-0.3c0.1-0.1,0.1-0.2,0.1-0.3h-1.9V320.2z"/>
<path class="st1" d="M1187.6,320.2h1l0.6-1.4c0.4,0.5,0.8,0.9,1.3,1.2c0.5,0.3,1.1,0.4,1.8,0.4c0.6,0,1.1-0.1,1.6-0.3
	c0.5-0.2,1-0.6,1.4-1c0.4-0.5,0.8-1.1,1-1.7c0.3-0.7,0.4-1.5,0.4-2.5c0-0.9-0.1-1.7-0.3-2.4c-0.2-0.7-0.5-1.2-0.9-1.7
	c-0.4-0.5-0.9-0.8-1.4-1c-0.5-0.2-1.1-0.3-1.7-0.3c-0.6,0-1.2,0.2-1.8,0.5c-0.6,0.3-1,0.8-1.4,1.4v-5.9c0-0.1,0-0.2,0.1-0.2
	c0.1-0.1,0.1-0.1,0.1-0.2v0h-1.9V320.2z M1189.8,318c-0.2-0.2-0.3-0.4-0.4-0.7c-0.1-0.3-0.2-0.7-0.2-1.1c0-0.4,0-1,0-1.6
	c0-1,0.1-1.8,0.3-2.2c0.2-0.5,0.5-0.8,1-1.1c0.4-0.3,0.8-0.4,1.2-0.4c1.1,0,1.9,0.4,2.5,1.1c0.6,0.7,0.9,1.8,0.9,3.2
	c0,0.7-0.1,1.4-0.3,1.9c-0.2,0.5-0.5,0.9-0.8,1.2c-0.3,0.3-0.7,0.5-1,0.6c-0.4,0.1-0.7,0.2-1,0.2c-0.2,0-0.4,0-0.7-0.1
	c-0.2-0.1-0.5-0.2-0.8-0.3C1190.2,318.4,1190,318.2,1189.8,318z"/>
<path class="st1" d="M1201.7,309.9c-0.6,0.3-1.1,0.7-1.6,1.2c-0.5,0.5-0.8,1.1-1.1,1.8c-0.3,0.7-0.4,1.4-0.4,2.2
	c0,0.8,0.1,1.5,0.4,2.2c0.3,0.7,0.6,1.3,1.1,1.7c0.4,0.5,1,0.9,1.6,1.1c0.6,0.3,1.2,0.4,1.9,0.4c0.7,0,1.3-0.1,1.9-0.4
	c0.6-0.3,1.1-0.6,1.5-1.1c0.4-0.5,0.8-1.1,1-1.7c0.2-0.7,0.4-1.4,0.4-2.3c0-0.8-0.1-1.6-0.4-2.3c-0.3-0.7-0.6-1.3-1-1.7
	c-0.4-0.5-0.9-0.8-1.5-1.1c-0.6-0.3-1.2-0.4-1.8-0.4S1202.3,309.6,1201.7,309.9z M1206.4,316.7c-0.2,0.5-0.4,0.9-0.7,1.3
	c-0.3,0.3-0.6,0.6-1,0.8c-0.4,0.2-0.8,0.3-1.2,0.3c-0.4,0-0.8-0.1-1.2-0.3c-0.4-0.2-0.7-0.5-1-0.9c-0.3-0.4-0.5-0.8-0.7-1.3
	c-0.2-0.5-0.3-1.1-0.3-1.7c0-0.6,0.1-1.2,0.3-1.7c0.2-0.5,0.4-0.9,0.7-1.3c0.3-0.4,0.6-0.6,1-0.8c0.4-0.2,0.8-0.3,1.2-0.3
	c0.4,0,0.8,0.1,1.2,0.3c0.4,0.2,0.7,0.5,1,0.8c0.3,0.4,0.5,0.8,0.7,1.3c0.2,0.5,0.3,1.1,0.3,1.8
	C1206.6,315.6,1206.6,316.2,1206.4,316.7z"/>
<path class="st1" d="M1212.4,320.2v-6.1c0-0.5,0.1-1,0.3-1.4c0.2-0.4,0.4-0.7,0.7-1c0.3-0.3,0.6-0.5,1-0.7c0.4-0.2,0.7-0.2,1.1-0.2
	c0.5,0,1,0.2,1.4,0.7c0.4,0.4,0.6,1.2,0.6,2.3v6.3h1.7v-6.4c0-0.8-0.1-1.5-0.2-2c-0.2-0.6-0.4-1-0.7-1.4c-0.3-0.4-0.6-0.6-1-0.8
	c-0.4-0.2-0.8-0.2-1.3-0.2c-0.6,0-1.3,0.2-1.9,0.6c-0.6,0.4-1.1,0.9-1.5,1.5v-1.9h-1.7v10.5H1212.4z"/>
<path class="st1" d="M1224.8,309.8c-0.6,0.2-1.1,0.6-1.5,1.1c-0.4,0.5-0.8,1-1,1.7c-0.3,0.7-0.4,1.5-0.4,2.4c0,0.9,0.1,1.7,0.4,2.3
	c0.2,0.7,0.6,1.3,1,1.7c0.4,0.5,1,0.8,1.6,1c0.6,0.2,1.3,0.4,2.1,0.4c1.6,0,2.8-0.5,3.7-1.6l-0.9-0.9c-0.7,0.8-1.6,1.2-2.7,1.2
	c-0.4,0-0.8-0.1-1.2-0.2c-0.4-0.1-0.8-0.3-1.1-0.7c-0.3-0.3-0.6-0.7-0.8-1.2c-0.2-0.5-0.3-1.1-0.4-1.9h7.5c0-0.1,0-0.2,0-0.4
	c0-0.1,0-0.3,0-0.4c0-0.9-0.1-1.6-0.4-2.2c-0.2-0.6-0.6-1.1-0.9-1.6c-0.4-0.4-0.8-0.7-1.4-0.9c-0.5-0.2-1.1-0.3-1.6-0.3
	C1226,309.4,1225.4,309.5,1224.8,309.8z M1224.6,311.4c0.6-0.5,1.2-0.8,2-0.8c0.4,0,0.7,0.1,1.1,0.2c0.3,0.2,0.6,0.4,0.9,0.6
	c0.2,0.2,0.4,0.5,0.6,0.9c0.1,0.3,0.2,0.7,0.2,1.1c0,0.1,0,0.1,0,0.2c0,0.1,0,0.1,0,0.2h-5.8C1223.6,312.7,1224,311.9,1224.6,311.4z
	"/>
<path class="st2" d="M1237.7,317.8c-0.4,0-0.7,0.1-0.9,0.4c-0.3,0.3-0.4,0.6-0.4,0.9c0,0.4,0.1,0.7,0.4,0.9c0.3,0.3,0.6,0.4,1,0.4
	c0.4,0,0.7-0.1,1-0.4c0.3-0.3,0.4-0.6,0.4-0.9c0-0.4-0.1-0.7-0.4-0.9C1238.4,317.9,1238,317.8,1237.7,317.8L1237.7,317.8z"/>
<path class="st3" d="M1246.6,311h3.9v8.8c0,1.1-0.2,1.8-0.7,2.3c-0.4,0.5-1,0.7-1.7,0.7c-0.4,0-0.7-0.1-1.1-0.3
	c-0.3-0.2-0.6-0.3-0.7-0.4s-0.2-0.2-0.3-0.3c0-0.1-0.1-0.2-0.1-0.3c0-0.1-0.1-0.2-0.1-0.2l-1.1,1.4c0.8,1,1.9,1.5,3.2,1.5
	c0.6,0,1.1-0.1,1.6-0.3c0.5-0.2,0.9-0.4,1.3-0.8c0.4-0.4,0.7-0.8,0.9-1.4c0.2-0.6,0.3-1.2,0.3-2v-10h-5.6V311z M1250.2,306.3
	c0,0.3,0.1,0.6,0.4,0.8c0.2,0.2,0.5,0.3,0.8,0.3c0.3,0,0.6-0.1,0.8-0.3c0.2-0.2,0.4-0.5,0.4-0.8c0-0.3-0.1-0.6-0.4-0.9
	c-0.2-0.2-0.5-0.3-0.8-0.3c-0.3,0-0.6,0.1-0.9,0.3C1250.3,305.7,1250.2,305.9,1250.2,306.3L1250.2,306.3z"/>
<path class="st3" d="M1261.2,309.4c-0.6,0-1.1,0.1-1.6,0.2c-0.5,0.2-0.9,0.4-1.3,0.6c-0.4,0.3-0.6,0.6-0.8,0.9
	c-0.2,0.3-0.3,0.7-0.3,1.1c0,0.3,0.1,0.7,0.2,0.9c0.1,0.3,0.3,0.5,0.5,0.8c0.2,0.2,0.4,0.4,0.7,0.6c0.2,0.2,0.6,0.4,1.2,0.6
	c0.2,0.1,0.7,0.2,1.3,0.4c1,0.3,1.7,0.6,2,0.9c0.4,0.3,0.6,0.6,0.6,1c0,0.3-0.1,0.5-0.2,0.7c-0.2,0.2-0.4,0.4-0.6,0.5
	c-0.3,0.1-0.5,0.3-0.9,0.3c-0.3,0.1-0.6,0.1-0.9,0.1c-0.3,0-0.6,0-0.9-0.1c-0.3,0-0.6-0.1-0.8-0.2c-0.5-0.2-0.9-0.4-1.1-0.6
	c-0.2-0.2-0.4-0.3-0.5-0.5c-0.1-0.1-0.1-0.3-0.2-0.4c0-0.1,0-0.2-0.1-0.2l-0.9,1.7c1.2,1.1,2.7,1.7,4.4,1.7c0.7,0,1.3-0.1,1.8-0.3
	c0.5-0.2,1-0.4,1.4-0.7c0.4-0.3,0.7-0.7,0.9-1.1c0.2-0.4,0.3-0.9,0.3-1.3c0-0.7-0.3-1.3-0.8-1.8c-0.5-0.5-1.5-0.9-2.8-1.3
	c-0.6-0.2-1.1-0.3-1.4-0.5c-0.4-0.1-0.6-0.3-0.8-0.4c-0.2-0.1-0.3-0.3-0.4-0.4c-0.1-0.1-0.1-0.3-0.1-0.5c0-0.2,0.1-0.5,0.2-0.7
	c0.1-0.2,0.3-0.3,0.5-0.5c0.2-0.1,0.4-0.2,0.7-0.3c0.3-0.1,0.6-0.1,0.8-0.1c0.6,0,1.2,0.1,1.7,0.4c0.5,0.3,0.9,0.6,1.2,1
	c0,0,0,0.1,0,0.2c0,0.1,0,0.2,0.1,0.2l1-1.4C1264.2,310,1262.9,309.4,1261.2,309.4L1261.2,309.4z"/>
<path class="st1" d="M1129.6,374.2h1.5v-10.7l2.9,5.7h0.6l3.1-5.8v10.8h1.5v-14.4h-1.2l-3.6,7l-3.5-7h-1.3V374.2z"/>
<path class="st1" d="M1143.1,366c0.8-0.8,1.7-1.2,2.8-1.2c0.9,0,1.6,0.2,2,0.6s0.7,1.2,0.7,2.2v0.4h-2c-1.7,0.1-3,0.4-3.9,1
	c-0.9,0.6-1.4,1.4-1.4,2.5c0,0.4,0.1,0.7,0.2,1.1c0.2,0.4,0.4,0.7,0.7,0.9c0.3,0.3,0.7,0.5,1.1,0.7c0.4,0.2,0.9,0.3,1.5,0.3
	c1.4,0,2.7-0.5,3.8-1.4v1.2h1.6v-6.5c0-1.5-0.4-2.6-1.1-3.3c-0.7-0.7-1.8-1-3-1c-1.6,0-2.8,0.5-3.7,1.5L1143.1,366z M1148.7,370
	c0,0.5-0.1,0.9-0.2,1.2c-0.1,0.2-0.2,0.4-0.4,0.6c-0.2,0.2-0.4,0.4-0.7,0.6c-0.3,0.2-0.6,0.4-1,0.5c-0.4,0.1-0.8,0.2-1.2,0.2
	c-0.6,0-1.2-0.2-1.6-0.5c-0.4-0.4-0.6-0.8-0.6-1.3c0-0.3,0.1-0.6,0.2-0.8s0.3-0.5,0.6-0.7c0.3-0.2,0.7-0.4,1.3-0.5
	c0.5-0.1,1.2-0.2,2.1-0.2c0.2,0,0.4,0,0.6,0c0.2,0,0.4,0,0.6,0h0.4V370z"/>
<path class="st1" d="M1154,374.2h1.7v-5.1c0-0.6,0.1-1.1,0.3-1.6c0.2-0.5,0.5-1,0.8-1.3c0.3-0.4,0.7-0.7,1.2-0.9
	c0.4-0.2,0.9-0.4,1.4-0.4c0.3,0,0.5,0,0.7,0.1c0.2,0.1,0.4,0.1,0.5,0.3c0.2,0.1,0.3,0.2,0.5,0.4c0.1,0.2,0.3,0.3,0.5,0.6l0.8-1.6
	c-0.7-0.8-1.7-1.2-2.8-1.2c-0.8,0-1.6,0.2-2.3,0.6s-1.2,1-1.5,1.7l0-2h-1.7V374.2z"/>
<path class="st1" d="M1165.6,365h2.6v7.8h-2.7v1.3h6.8v-1.3h-2.5v-9.2h-4.2V365z M1167.9,360.3c0,0.3,0.1,0.6,0.3,0.8
	c0.2,0.2,0.5,0.3,0.8,0.3c0.3,0,0.6-0.1,0.8-0.3c0.2-0.2,0.4-0.5,0.4-0.8c0-0.3-0.1-0.6-0.4-0.8c-0.2-0.2-0.5-0.4-0.8-0.4
	c-0.3,0-0.6,0.1-0.8,0.3C1168,359.7,1167.9,360,1167.9,360.3L1167.9,360.3z"/>
<path class="st1" d="M1178.7,363.9c-0.6,0.3-1.1,0.7-1.6,1.2c-0.5,0.5-0.8,1.1-1.1,1.8c-0.3,0.7-0.4,1.4-0.4,2.2s0.1,1.5,0.4,2.2
	c0.3,0.7,0.6,1.3,1.1,1.7c0.4,0.5,1,0.9,1.6,1.1c0.6,0.3,1.2,0.4,1.9,0.4c0.7,0,1.3-0.1,1.9-0.4c0.6-0.3,1.1-0.6,1.5-1.1
	c0.4-0.5,0.8-1.1,1-1.7c0.2-0.7,0.4-1.4,0.4-2.3c0-0.8-0.1-1.6-0.4-2.3c-0.3-0.7-0.6-1.3-1-1.7c-0.4-0.5-0.9-0.8-1.5-1.1
	c-0.6-0.3-1.2-0.4-1.8-0.4S1179.3,363.6,1178.7,363.9z M1183.4,370.8c-0.2,0.5-0.4,0.9-0.7,1.3c-0.3,0.3-0.6,0.6-1,0.8
	c-0.4,0.2-0.8,0.3-1.2,0.3c-0.4,0-0.8-0.1-1.2-0.3c-0.4-0.2-0.7-0.5-1-0.9c-0.3-0.4-0.5-0.8-0.7-1.3c-0.2-0.5-0.3-1.1-0.3-1.7
	c0-0.6,0.1-1.2,0.3-1.7c0.2-0.5,0.4-0.9,0.7-1.3c0.3-0.4,0.6-0.6,1-0.8c0.4-0.2,0.8-0.3,1.2-0.3c0.4,0,0.8,0.1,1.2,0.3
	c0.4,0.2,0.7,0.5,1,0.8c0.3,0.4,0.5,0.8,0.7,1.3c0.2,0.5,0.3,1.1,0.3,1.8C1183.6,369.7,1183.5,370.2,1183.4,370.8z"/>
<path class="st1" d="M1189.4,374.2v-6.1c0-0.5,0.1-1,0.3-1.4c0.2-0.4,0.4-0.7,0.7-1c0.3-0.3,0.6-0.5,1-0.7c0.4-0.2,0.7-0.2,1.1-0.2
	c0.5,0,1,0.2,1.4,0.7c0.4,0.4,0.6,1.2,0.6,2.3v6.3h1.7v-6.4c0-0.8-0.1-1.5-0.2-2c-0.2-0.6-0.4-1-0.7-1.4c-0.3-0.4-0.6-0.6-1-0.8
	c-0.4-0.2-0.8-0.2-1.3-0.2c-0.6,0-1.3,0.2-1.9,0.6c-0.6,0.4-1.1,0.9-1.5,1.5v-1.9h-1.7v10.5H1189.4z"/>
<path class="st1" d="M1201.8,363.8c-0.6,0.2-1.1,0.6-1.5,1.1c-0.4,0.5-0.8,1-1,1.7c-0.3,0.7-0.4,1.5-0.4,2.4c0,0.9,0.1,1.7,0.4,2.3
	c0.2,0.7,0.6,1.3,1,1.7c0.4,0.5,1,0.8,1.6,1c0.6,0.2,1.3,0.4,2.1,0.4c1.6,0,2.8-0.5,3.7-1.6l-0.9-0.9c-0.7,0.8-1.6,1.2-2.7,1.2
	c-0.4,0-0.8-0.1-1.2-0.2c-0.4-0.1-0.8-0.3-1.1-0.7c-0.3-0.3-0.6-0.7-0.8-1.2c-0.2-0.5-0.3-1.1-0.4-1.9h7.5c0-0.1,0-0.2,0-0.4
	c0-0.1,0-0.3,0-0.4c0-0.9-0.1-1.6-0.4-2.2c-0.2-0.6-0.6-1.1-0.9-1.6c-0.4-0.4-0.8-0.7-1.4-0.9c-0.5-0.2-1.1-0.3-1.6-0.3
	C1203,363.5,1202.4,363.6,1201.8,363.8z M1201.6,365.5c0.6-0.5,1.2-0.8,2-0.8c0.4,0,0.7,0.1,1.1,0.2c0.3,0.2,0.6,0.4,0.9,0.6
	c0.2,0.2,0.4,0.5,0.6,0.9c0.1,0.3,0.2,0.7,0.2,1.1c0,0.1,0,0.1,0,0.2c0,0.1,0,0.1,0,0.2h-5.8C1200.6,366.8,1201,366,1201.6,365.5z"
	/>
<path class="st1" d="M1213.4,363.7h-2.5v1.3h2.5c-0.1,1.1-0.2,2.1-0.2,3c0,0.9,0,1.6,0,2.1c0,1.5,0.2,2.6,0.7,3.3
	c0.5,0.7,1.3,1,2.4,1c1.1,0,2.2-0.4,3.3-1.2l-0.5-1.3c-0.9,0.6-1.6,1-2.4,1c-0.4,0-0.7-0.1-1-0.2c-0.2-0.2-0.4-0.4-0.6-0.7
	c-0.1-0.3-0.2-0.7-0.2-1.2c0-0.5,0-1.1,0-1.9c0-1.2,0.1-2.5,0.2-3.9h3.5v-1.3h-3.5l0.3-2.5c0-0.1,0-0.1,0.1-0.3
	c0-0.1,0.1-0.2,0.1-0.4l-1.8,0.3L1213.4,363.7z"/>
<path class="st1" d="M1224.9,363.7h-2.5v1.3h2.5c-0.1,1.1-0.2,2.1-0.2,3c0,0.9,0,1.6,0,2.1c0,1.5,0.2,2.6,0.7,3.3
	c0.5,0.7,1.3,1,2.4,1c1.1,0,2.2-0.4,3.3-1.2l-0.5-1.3c-0.9,0.6-1.6,1-2.4,1c-0.4,0-0.7-0.1-1-0.2c-0.2-0.2-0.4-0.4-0.6-0.7
	c-0.1-0.3-0.2-0.7-0.2-1.2c0-0.5,0-1.1,0-1.9c0-1.2,0.1-2.5,0.2-3.9h3.5v-1.3h-3.5l0.3-2.5c0-0.1,0-0.1,0.1-0.3
	c0-0.1,0.1-0.2,0.1-0.4l-1.8,0.3L1224.9,363.7z"/>
<path class="st1" d="M1236.3,363.8c-0.6,0.2-1.1,0.6-1.5,1.1c-0.4,0.5-0.8,1-1,1.7c-0.3,0.7-0.4,1.5-0.4,2.4c0,0.9,0.1,1.7,0.4,2.3
	c0.2,0.7,0.6,1.3,1,1.7c0.4,0.5,1,0.8,1.6,1c0.6,0.2,1.3,0.4,2.1,0.4c1.6,0,2.8-0.5,3.7-1.6l-0.9-0.9c-0.7,0.8-1.6,1.2-2.7,1.2
	c-0.4,0-0.8-0.1-1.2-0.2c-0.4-0.1-0.8-0.3-1.1-0.7c-0.3-0.3-0.6-0.7-0.8-1.2c-0.2-0.5-0.3-1.1-0.4-1.9h7.5c0-0.1,0-0.2,0-0.4
	c0-0.1,0-0.3,0-0.4c0-0.9-0.1-1.6-0.4-2.2c-0.2-0.6-0.6-1.1-0.9-1.6c-0.4-0.4-0.8-0.7-1.4-0.9c-0.5-0.2-1.1-0.3-1.6-0.3
	C1237.5,363.5,1236.9,363.6,1236.3,363.8z M1236.1,365.5c0.6-0.5,1.2-0.8,2-0.8c0.4,0,0.7,0.1,1.1,0.2c0.3,0.2,0.6,0.4,0.9,0.6
	c0.2,0.2,0.4,0.5,0.6,0.9c0.1,0.3,0.2,0.7,0.2,1.1c0,0.1,0,0.1,0,0.2c0,0.1,0,0.1,0,0.2h-5.8C1235.2,366.8,1235.5,366,1236.1,365.5z
	"/>
<path class="st2" d="M1249.2,371.8c-0.4,0-0.7,0.1-0.9,0.4c-0.3,0.3-0.4,0.6-0.4,0.9c0,0.4,0.1,0.7,0.4,0.9c0.3,0.3,0.6,0.4,1,0.4
	c0.4,0,0.7-0.1,1-0.4c0.3-0.3,0.4-0.6,0.4-0.9c0-0.4-0.1-0.7-0.4-0.9C1249.9,372,1249.5,371.8,1249.2,371.8L1249.2,371.8z"/>
<path class="st3" d="M1258.1,365h3.9v8.8c0,1.1-0.2,1.8-0.7,2.3c-0.4,0.5-1,0.7-1.7,0.7c-0.4,0-0.7-0.1-1.1-0.3
	c-0.3-0.2-0.6-0.3-0.7-0.4c-0.1-0.1-0.2-0.2-0.3-0.3c0-0.1-0.1-0.2-0.1-0.3c0-0.1-0.1-0.2-0.1-0.2l-1.1,1.4c0.8,1,1.9,1.5,3.2,1.5
	c0.6,0,1.1-0.1,1.6-0.3c0.5-0.2,0.9-0.4,1.3-0.8c0.4-0.4,0.7-0.8,0.9-1.4c0.2-0.6,0.3-1.2,0.3-2v-10h-5.6V365z M1261.7,360.3
	c0,0.3,0.1,0.6,0.4,0.8c0.2,0.2,0.5,0.3,0.8,0.3c0.3,0,0.6-0.1,0.8-0.3c0.2-0.2,0.4-0.5,0.4-0.8c0-0.3-0.1-0.6-0.4-0.9
	c-0.2-0.2-0.5-0.3-0.8-0.3c-0.3,0-0.6,0.1-0.9,0.3C1261.8,359.7,1261.7,360,1261.7,360.3L1261.7,360.3z"/>
<path class="st3" d="M1272.8,363.5c-0.6,0-1.1,0.1-1.6,0.2c-0.5,0.2-0.9,0.4-1.3,0.6c-0.4,0.3-0.6,0.6-0.8,0.9
	c-0.2,0.3-0.3,0.7-0.3,1.1c0,0.3,0.1,0.7,0.2,0.9c0.1,0.3,0.3,0.5,0.5,0.8c0.2,0.2,0.4,0.4,0.7,0.6c0.2,0.2,0.6,0.4,1.2,0.6
	c0.2,0.1,0.7,0.2,1.3,0.4c1,0.3,1.7,0.6,2,0.9c0.4,0.3,0.6,0.6,0.6,1c0,0.3-0.1,0.5-0.2,0.7c-0.2,0.2-0.4,0.4-0.6,0.5
	s-0.5,0.3-0.9,0.3c-0.3,0.1-0.6,0.1-0.9,0.1c-0.3,0-0.6,0-0.9-0.1c-0.3,0-0.6-0.1-0.8-0.2c-0.5-0.2-0.9-0.4-1.1-0.6
	c-0.2-0.2-0.4-0.3-0.5-0.5c-0.1-0.1-0.1-0.3-0.2-0.4c0-0.1,0-0.2-0.1-0.2l-0.9,1.7c1.2,1.1,2.7,1.7,4.4,1.7c0.7,0,1.3-0.1,1.8-0.3
	c0.5-0.2,1-0.4,1.4-0.7c0.4-0.3,0.7-0.7,0.9-1.1c0.2-0.4,0.3-0.9,0.3-1.3c0-0.7-0.3-1.3-0.8-1.8c-0.5-0.5-1.5-0.9-2.8-1.3
	c-0.6-0.2-1.1-0.3-1.4-0.5c-0.4-0.1-0.6-0.3-0.8-0.4c-0.2-0.1-0.3-0.3-0.4-0.4c-0.1-0.1-0.1-0.3-0.1-0.5c0-0.2,0.1-0.5,0.2-0.7
	c0.1-0.2,0.3-0.3,0.5-0.5c0.2-0.1,0.4-0.2,0.7-0.3c0.3-0.1,0.6-0.1,0.8-0.1c0.6,0,1.2,0.1,1.7,0.4c0.5,0.3,0.9,0.6,1.2,1
	c0,0,0,0.1,0,0.2c0,0.1,0,0.2,0.1,0.2l1-1.4C1275.7,364,1274.4,363.5,1272.8,363.5L1272.8,363.5z"/>
<path class="st0" d="M1147.2,428.3h1.7v-6.9h5.6v6.9h1.7v-13.8c0-0.1,0-0.2,0.1-0.2s0.1-0.1,0.1-0.2c0,0,0-0.1,0-0.1h-1.8v6.1h-5.6
	v-5.6c0-0.1,0-0.2,0.1-0.3c0-0.1,0.1-0.1,0.1-0.2c0,0,0-0.1,0-0.1h-1.8V428.3z"/>
<path class="st0" d="M1160.3,420.1c0.8-0.8,1.7-1.2,2.8-1.2c0.9,0,1.6,0.2,2,0.6c0.4,0.4,0.7,1.2,0.7,2.2v0.4h-2
	c-1.7,0.1-3,0.4-3.9,1c-0.9,0.6-1.4,1.4-1.4,2.5c0,0.4,0.1,0.7,0.2,1.1c0.2,0.4,0.4,0.7,0.7,0.9c0.3,0.3,0.7,0.5,1.1,0.7
	c0.4,0.2,0.9,0.3,1.5,0.3c1.4,0,2.7-0.5,3.8-1.4v1.2h1.6v-6.5c0-1.5-0.4-2.6-1.1-3.3c-0.7-0.7-1.8-1-3-1c-1.6,0-2.8,0.5-3.7,1.5
	L1160.3,420.1z M1165.9,424c0,0.5-0.1,0.9-0.2,1.2c-0.1,0.2-0.2,0.4-0.4,0.6c-0.2,0.2-0.4,0.4-0.7,0.6c-0.3,0.2-0.6,0.4-1,0.5
	c-0.4,0.1-0.8,0.2-1.2,0.2c-0.6,0-1.2-0.2-1.6-0.5c-0.4-0.4-0.6-0.8-0.6-1.3c0-0.3,0.1-0.6,0.2-0.8c0.1-0.3,0.3-0.5,0.6-0.7
	c0.3-0.2,0.7-0.4,1.3-0.5c0.5-0.1,1.2-0.2,2.1-0.2c0.2,0,0.4,0,0.6,0c0.2,0,0.4,0,0.6,0h0.4V424z"/>
<path class="st0" d="M1172.2,428.3v-6.1c0-0.5,0.1-1,0.3-1.4c0.2-0.4,0.4-0.7,0.7-1c0.3-0.3,0.6-0.5,1-0.7c0.4-0.2,0.7-0.2,1.1-0.2
	c0.5,0,1,0.2,1.4,0.7c0.4,0.4,0.6,1.2,0.6,2.3v6.3h1.7v-6.4c0-0.8-0.1-1.5-0.2-2c-0.2-0.6-0.4-1-0.7-1.4c-0.3-0.4-0.6-0.6-1-0.8
	c-0.4-0.2-0.8-0.2-1.3-0.2c-0.6,0-1.3,0.2-1.9,0.6c-0.6,0.4-1.1,0.9-1.5,1.5v-1.9h-1.7v10.5H1172.2z"/>
<path class="st0" d="M1187.8,418c-0.5-0.3-1.2-0.5-1.9-0.5c-0.5,0-1.1,0.1-1.6,0.3c-0.5,0.2-1,0.5-1.4,1c-0.4,0.4-0.8,1-1,1.7
	c-0.3,0.7-0.4,1.5-0.4,2.5c0,1,0.1,1.8,0.3,2.5c0.2,0.7,0.5,1.3,0.9,1.7c0.4,0.5,0.8,0.8,1.4,1c0.5,0.2,1.1,0.3,1.6,0.3
	c0.6,0,1.2-0.2,1.8-0.5c0.6-0.3,1-0.8,1.4-1.4v0.9c0,0.3,0,0.6,0.1,0.8h1.7c-0.1-0.3-0.1-0.6-0.1-1l0-13.7c0-0.1,0-0.2,0.1-0.3
	c0.1-0.1,0.1-0.2,0.1-0.3h-1.8v6.3C1188.7,418.7,1188.3,418.3,1187.8,418z M1185,419c0.3-0.1,0.7-0.2,1.1-0.2c0.2,0,0.4,0,0.7,0.1
	c0.2,0.1,0.5,0.2,0.8,0.4c0.2,0.1,0.4,0.3,0.6,0.5c0.2,0.2,0.3,0.4,0.4,0.7c0.1,0.3,0.2,0.6,0.2,1c0,0.4,0.1,0.9,0.1,1.5
	c0,0.9-0.1,1.7-0.3,2.2c-0.1,0.3-0.2,0.6-0.4,0.8s-0.4,0.4-0.6,0.6c-0.2,0.2-0.5,0.3-0.7,0.4c-0.3,0.1-0.5,0.1-0.7,0.1
	c-1,0-1.7-0.4-2.2-1.2s-0.7-1.9-0.7-3.2c0-1.4,0.3-2.4,1-3C1184.4,419.3,1184.7,419.1,1185,419z"/>
<path class="st0" d="M1193.9,414.3h3v12.6h-3.1v1.3h7.8v-1.3h-3.1v-14h-4.6V414.3z"/>
<path class="st0" d="M1207.5,417.9c-0.6,0.2-1.1,0.6-1.5,1.1c-0.4,0.5-0.8,1-1,1.7c-0.3,0.7-0.4,1.5-0.4,2.4c0,0.9,0.1,1.7,0.4,2.3
	c0.2,0.7,0.6,1.3,1,1.7c0.4,0.5,1,0.8,1.6,1c0.6,0.2,1.3,0.4,2.1,0.4c1.6,0,2.8-0.5,3.7-1.6l-0.9-0.9c-0.7,0.8-1.6,1.2-2.7,1.2
	c-0.4,0-0.8-0.1-1.2-0.2c-0.4-0.1-0.8-0.3-1.1-0.7c-0.3-0.3-0.6-0.7-0.8-1.2c-0.2-0.5-0.3-1.1-0.4-1.9h7.5c0-0.1,0-0.2,0-0.4
	c0-0.1,0-0.3,0-0.4c0-0.9-0.1-1.6-0.4-2.2c-0.2-0.6-0.6-1.1-0.9-1.6c-0.4-0.4-0.8-0.7-1.4-0.9c-0.5-0.2-1.1-0.3-1.6-0.3
	C1208.7,417.5,1208.1,417.6,1207.5,417.9z M1207.3,419.5c0.6-0.5,1.2-0.8,2-0.8c0.4,0,0.7,0.1,1.1,0.2c0.3,0.2,0.6,0.4,0.9,0.6
	c0.2,0.2,0.4,0.5,0.6,0.9c0.1,0.3,0.2,0.7,0.2,1.1c0,0.1,0,0.1,0,0.2c0,0.1,0,0.1,0,0.2h-5.8C1206.4,420.8,1206.8,420,1207.3,419.5z
	"/>
<path class="st0" d="M1216.3,428.3h1l0.6-1.4c0.4,0.5,0.8,0.9,1.3,1.2s1.1,0.4,1.8,0.4c0.6,0,1.1-0.1,1.6-0.3c0.5-0.2,1-0.6,1.4-1
	c0.4-0.5,0.8-1.1,1-1.7c0.3-0.7,0.4-1.5,0.4-2.5c0-0.9-0.1-1.7-0.3-2.4c-0.2-0.7-0.5-1.2-0.9-1.7c-0.4-0.5-0.9-0.8-1.4-1
	c-0.5-0.2-1.1-0.3-1.7-0.3c-0.6,0-1.2,0.2-1.8,0.5c-0.6,0.3-1,0.8-1.4,1.4v-5.9c0-0.1,0-0.2,0.1-0.2c0.1-0.1,0.1-0.1,0.1-0.2v0h-1.9
	V428.3z M1218.6,426.1c-0.2-0.2-0.3-0.4-0.4-0.7c-0.1-0.3-0.2-0.7-0.2-1.1c0-0.4,0-1,0-1.6c0-1,0.1-1.8,0.3-2.2
	c0.2-0.5,0.5-0.8,1-1.1c0.4-0.3,0.8-0.4,1.2-0.4c1.1,0,1.9,0.4,2.5,1.1c0.6,0.7,0.9,1.8,0.9,3.2c0,0.7-0.1,1.4-0.3,1.9
	c-0.2,0.5-0.5,0.9-0.8,1.2c-0.3,0.3-0.7,0.5-1,0.6s-0.7,0.2-1,0.2c-0.2,0-0.4,0-0.7-0.1s-0.5-0.2-0.8-0.3
	C1219,426.5,1218.8,426.3,1218.6,426.1z"/>
<path class="st0" d="M1229.4,420.1c0.8-0.8,1.7-1.2,2.8-1.2c0.9,0,1.6,0.2,2,0.6c0.4,0.4,0.7,1.2,0.7,2.2v0.4h-2
	c-1.7,0.1-3,0.4-3.9,1c-0.9,0.6-1.4,1.4-1.4,2.5c0,0.4,0.1,0.7,0.2,1.1c0.2,0.4,0.4,0.7,0.7,0.9c0.3,0.3,0.7,0.5,1.1,0.7
	c0.4,0.2,0.9,0.3,1.5,0.3c1.4,0,2.7-0.5,3.8-1.4v1.2h1.6v-6.5c0-1.5-0.4-2.6-1.1-3.3c-0.7-0.7-1.8-1-3-1c-1.6,0-2.8,0.5-3.7,1.5
	L1229.4,420.1z M1235,424c0,0.5-0.1,0.9-0.2,1.2c-0.1,0.2-0.2,0.4-0.4,0.6c-0.2,0.2-0.4,0.4-0.7,0.6c-0.3,0.2-0.6,0.4-1,0.5
	c-0.4,0.1-0.8,0.2-1.2,0.2c-0.6,0-1.2-0.2-1.6-0.5c-0.4-0.4-0.6-0.8-0.6-1.3c0-0.3,0.1-0.6,0.2-0.8s0.3-0.5,0.6-0.7
	c0.3-0.2,0.7-0.4,1.3-0.5c0.5-0.1,1.2-0.2,2.1-0.2c0.2,0,0.4,0,0.6,0c0.2,0,0.4,0,0.6,0h0.4V424z"/>
<path class="st0" d="M1240.2,428.3h1.7v-5.1c0-0.6,0.1-1.1,0.3-1.6c0.2-0.5,0.5-1,0.8-1.3c0.3-0.4,0.7-0.7,1.2-0.9
	c0.4-0.2,0.9-0.4,1.4-0.4c0.3,0,0.5,0,0.7,0.1c0.2,0.1,0.4,0.1,0.5,0.3c0.2,0.1,0.3,0.2,0.5,0.4c0.1,0.2,0.3,0.3,0.5,0.6l0.8-1.6
	c-0.7-0.8-1.7-1.2-2.8-1.2c-0.8,0-1.6,0.2-2.3,0.6c-0.7,0.4-1.2,1-1.5,1.7l0-2h-1.7V428.3z"/>
<path class="st0" d="M1255.5,417.5c-0.6,0-1.1,0.1-1.6,0.2c-0.5,0.2-0.9,0.4-1.3,0.6c-0.4,0.3-0.6,0.6-0.8,0.9
	c-0.2,0.3-0.3,0.7-0.3,1.1c0,0.3,0.1,0.7,0.2,0.9c0.1,0.3,0.3,0.5,0.5,0.8c0.2,0.2,0.4,0.4,0.7,0.6c0.2,0.2,0.6,0.4,1.2,0.6
	c0.2,0.1,0.7,0.2,1.3,0.4c1,0.3,1.7,0.6,2,0.9c0.4,0.3,0.6,0.6,0.6,1c0,0.3-0.1,0.5-0.2,0.7c-0.2,0.2-0.4,0.4-0.6,0.5
	s-0.5,0.3-0.9,0.3c-0.3,0.1-0.6,0.1-0.9,0.1c-0.3,0-0.6,0-0.9-0.1c-0.3,0-0.6-0.1-0.8-0.2c-0.5-0.2-0.9-0.4-1.1-0.6
	c-0.2-0.2-0.4-0.3-0.5-0.5c-0.1-0.1-0.1-0.3-0.2-0.4c0-0.1,0-0.2-0.1-0.2l-0.9,1.7c1.2,1.1,2.7,1.7,4.4,1.7c0.7,0,1.3-0.1,1.8-0.3
	c0.5-0.2,1-0.4,1.4-0.7c0.4-0.3,0.7-0.7,0.9-1.1c0.2-0.4,0.3-0.9,0.3-1.3c0-0.7-0.3-1.3-0.8-1.8c-0.5-0.5-1.5-0.9-2.8-1.3
	c-0.6-0.2-1.1-0.3-1.4-0.5c-0.4-0.1-0.6-0.3-0.8-0.4c-0.2-0.1-0.3-0.3-0.4-0.4c-0.1-0.1-0.1-0.3-0.1-0.5c0-0.2,0.1-0.5,0.2-0.7
	c0.1-0.2,0.3-0.3,0.5-0.5c0.2-0.1,0.4-0.2,0.7-0.3c0.3-0.1,0.6-0.1,0.8-0.1c0.6,0,1.2,0.1,1.7,0.4c0.5,0.3,0.9,0.6,1.2,1
	c0,0,0,0.1,0,0.2c0,0.1,0,0.2,0.1,0.2l1-1.4C1258.4,418.1,1257.1,417.5,1255.5,417.5L1255.5,417.5z"/>
<path class="st1" d="M1165.7,468.4c-0.7-0.3-1.4-0.5-2.2-0.5c-0.6,0-1.2,0.1-1.7,0.3c-0.5,0.2-1,0.5-1.4,0.8
	c-0.4,0.3-0.7,0.7-0.9,1.2c-0.2,0.5-0.3,1-0.3,1.5c0,0.4,0.1,0.8,0.2,1.2c0.1,0.4,0.3,0.7,0.7,1c0.3,0.3,0.7,0.6,1.2,0.9
	c0.5,0.3,1.1,0.6,1.9,0.9c0.7,0.3,1.2,0.5,1.7,0.7c0.4,0.2,0.7,0.4,1,0.6c0.2,0.2,0.4,0.4,0.5,0.7c0.1,0.2,0.1,0.5,0.1,0.8
	c0,0.4-0.1,0.7-0.2,1c-0.2,0.3-0.4,0.6-0.6,0.9c-0.3,0.2-0.6,0.4-0.9,0.6c-0.4,0.1-0.8,0.2-1.2,0.2c-0.8,0-1.6-0.1-2.2-0.4
	s-1.1-0.7-1.4-1.1c0-0.1-0.1-0.1-0.1-0.3c0-0.1,0-0.2-0.1-0.2l-0.9,1.7c1.1,1.2,2.6,1.8,4.5,1.8c0.8,0,1.6-0.1,2.2-0.4
	c0.6-0.2,1.1-0.6,1.5-1c0.4-0.4,0.7-0.8,0.9-1.3c0.2-0.5,0.3-1,0.3-1.5c0-0.4-0.1-0.8-0.2-1.2c-0.1-0.4-0.3-0.7-0.6-1
	c-0.3-0.3-0.6-0.6-1.1-0.9c-0.5-0.3-1-0.6-1.7-0.9c-0.7-0.3-1.3-0.6-1.8-0.8c-0.5-0.2-0.8-0.5-1-0.7c-0.2-0.2-0.4-0.5-0.5-0.7
	c-0.1-0.2-0.2-0.5-0.2-0.9c0-0.6,0.2-1.1,0.7-1.5c0.5-0.4,1.1-0.6,1.8-0.6c0.7,0,1.4,0.1,1.9,0.4c0.5,0.3,0.9,0.6,1.2,1
	c0,0,0,0.1,0.1,0.2c0,0.1,0,0.2,0.1,0.2l1-1.4C1167,469.1,1166.4,468.7,1165.7,468.4z"/>
<path class="st1" d="M1171.8,474.1c0.8-0.8,1.7-1.2,2.8-1.2c0.9,0,1.6,0.2,2,0.6c0.4,0.4,0.7,1.2,0.7,2.2v0.4h-2
	c-1.7,0.1-3,0.4-3.9,1c-0.9,0.6-1.4,1.4-1.4,2.5c0,0.4,0.1,0.7,0.2,1.1c0.2,0.4,0.4,0.7,0.7,0.9c0.3,0.3,0.7,0.5,1.1,0.7
	c0.4,0.2,0.9,0.3,1.5,0.3c1.4,0,2.7-0.5,3.8-1.4v1.2h1.6v-6.5c0-1.5-0.4-2.6-1.1-3.3c-0.7-0.7-1.8-1-3-1c-1.6,0-2.8,0.5-3.7,1.5
	L1171.8,474.1z M1177.4,478.1c0,0.5-0.1,0.9-0.2,1.2c-0.1,0.2-0.2,0.4-0.4,0.6c-0.2,0.2-0.4,0.4-0.7,0.6c-0.3,0.2-0.6,0.4-1,0.5
	c-0.4,0.1-0.8,0.2-1.2,0.2c-0.6,0-1.2-0.2-1.6-0.5c-0.4-0.4-0.6-0.8-0.6-1.3c0-0.3,0.1-0.6,0.2-0.8c0.1-0.3,0.3-0.5,0.6-0.7
	c0.3-0.2,0.7-0.4,1.3-0.5c0.5-0.1,1.2-0.2,2.1-0.2c0.2,0,0.4,0,0.6,0c0.2,0,0.4,0,0.6,0h0.4V478.1z"/>
<path class="st1" d="M1182.9,473.1h2.6v7.8h-2.7v1.3h6.8V481h-2.5v-9.2h-4.2V473.1z M1185.1,468.4c0,0.3,0.1,0.6,0.3,0.8
	c0.2,0.2,0.5,0.3,0.8,0.3c0.3,0,0.6-0.1,0.8-0.3c0.2-0.2,0.4-0.5,0.4-0.8s-0.1-0.6-0.4-0.8c-0.2-0.2-0.5-0.4-0.8-0.4
	c-0.3,0-0.6,0.1-0.8,0.3C1185.2,467.8,1185.1,468.1,1185.1,468.4L1185.1,468.4z"/>
<path class="st1" d="M1193.9,468.3h3V481h-3.1v1.3h7.8V481h-3.1v-14h-4.6V468.3z"/>
<path class="st1" d="M1209.5,471.5c-0.6,0-1.1,0.1-1.6,0.2c-0.5,0.2-0.9,0.4-1.3,0.6c-0.4,0.3-0.6,0.6-0.8,0.9
	c-0.2,0.3-0.3,0.7-0.3,1.1c0,0.3,0.1,0.7,0.2,0.9s0.3,0.5,0.5,0.8c0.2,0.2,0.4,0.4,0.7,0.6c0.2,0.2,0.6,0.4,1.2,0.6
	c0.2,0.1,0.7,0.2,1.3,0.4c1,0.3,1.7,0.6,2,0.9c0.4,0.3,0.6,0.6,0.6,1c0,0.3-0.1,0.5-0.2,0.7c-0.2,0.2-0.4,0.4-0.6,0.5
	c-0.3,0.1-0.5,0.3-0.9,0.3c-0.3,0.1-0.6,0.1-0.9,0.1c-0.3,0-0.6,0-0.9-0.1c-0.3,0-0.6-0.1-0.8-0.2c-0.5-0.2-0.9-0.4-1.1-0.6
	c-0.2-0.2-0.4-0.3-0.5-0.5c-0.1-0.1-0.1-0.3-0.2-0.4c0-0.1,0-0.2-0.1-0.2l-0.9,1.7c1.2,1.1,2.7,1.7,4.4,1.7c0.7,0,1.3-0.1,1.8-0.3
	c0.5-0.2,1-0.4,1.4-0.7c0.4-0.3,0.7-0.7,0.9-1.1c0.2-0.4,0.3-0.9,0.3-1.3c0-0.7-0.3-1.3-0.8-1.8c-0.5-0.5-1.5-0.9-2.8-1.3
	c-0.6-0.2-1.1-0.3-1.4-0.5c-0.4-0.1-0.6-0.3-0.8-0.4c-0.2-0.1-0.3-0.3-0.4-0.4c-0.1-0.1-0.1-0.3-0.1-0.5c0-0.2,0.1-0.5,0.2-0.7
	c0.1-0.2,0.3-0.3,0.5-0.5c0.2-0.1,0.4-0.2,0.7-0.3c0.3-0.1,0.6-0.1,0.8-0.1c0.6,0,1.2,0.1,1.7,0.4c0.5,0.3,0.9,0.6,1.2,1
	c0,0,0,0.1,0,0.2c0,0.1,0,0.2,0.1,0.2l1-1.4C1212.4,472.1,1211.1,471.5,1209.5,471.5L1209.5,471.5z"/>
<path class="st2" d="M1220.4,479.9c-0.4,0-0.7,0.1-0.9,0.4c-0.3,0.3-0.4,0.6-0.4,0.9s0.1,0.7,0.4,0.9c0.3,0.3,0.6,0.4,1,0.4
	c0.4,0,0.7-0.1,1-0.4c0.3-0.3,0.4-0.6,0.4-0.9c0-0.4-0.1-0.7-0.4-0.9C1221.1,480.1,1220.8,479.9,1220.4,479.9L1220.4,479.9z"/>
<path class="st3" d="M1229.4,473.1h3.9v8.8c0,1.1-0.2,1.8-0.7,2.3c-0.4,0.5-1,0.7-1.7,0.7c-0.4,0-0.7-0.1-1.1-0.3
	c-0.3-0.2-0.6-0.3-0.7-0.4c-0.1-0.1-0.2-0.2-0.3-0.3c0-0.1-0.1-0.2-0.1-0.3c0-0.1-0.1-0.2-0.1-0.2l-1.1,1.4c0.8,1,1.9,1.5,3.2,1.5
	c0.6,0,1.1-0.1,1.6-0.3c0.5-0.2,0.9-0.4,1.3-0.8c0.4-0.4,0.7-0.8,0.9-1.4c0.2-0.6,0.3-1.2,0.3-2v-10h-5.6V473.1z M1232.9,468.4
	c0,0.3,0.1,0.6,0.4,0.8c0.2,0.2,0.5,0.3,0.8,0.3c0.3,0,0.6-0.1,0.8-0.3c0.2-0.2,0.4-0.5,0.4-0.8c0-0.3-0.1-0.6-0.4-0.9
	c-0.2-0.2-0.5-0.3-0.8-0.3c-0.3,0-0.6,0.1-0.9,0.3C1233,467.8,1232.9,468.1,1232.9,468.4L1232.9,468.4z"/>
<path class="st3" d="M1244,471.5c-0.6,0-1.1,0.1-1.6,0.2c-0.5,0.2-0.9,0.4-1.3,0.6c-0.4,0.3-0.6,0.6-0.8,0.9
	c-0.2,0.3-0.3,0.7-0.3,1.1c0,0.3,0.1,0.7,0.2,0.9s0.3,0.5,0.5,0.8c0.2,0.2,0.4,0.4,0.7,0.6c0.2,0.2,0.6,0.4,1.2,0.6
	c0.2,0.1,0.7,0.2,1.3,0.4c1,0.3,1.7,0.6,2,0.9c0.4,0.3,0.6,0.6,0.6,1c0,0.3-0.1,0.5-0.2,0.7c-0.2,0.2-0.4,0.4-0.6,0.5
	c-0.3,0.1-0.5,0.3-0.9,0.3c-0.3,0.1-0.6,0.1-0.9,0.1c-0.3,0-0.6,0-0.9-0.1c-0.3,0-0.6-0.1-0.8-0.2c-0.5-0.2-0.9-0.4-1.1-0.6
	c-0.2-0.2-0.4-0.3-0.5-0.5c-0.1-0.1-0.1-0.3-0.2-0.4c0-0.1,0-0.2-0.1-0.2l-0.9,1.7c1.2,1.1,2.7,1.7,4.4,1.7c0.7,0,1.3-0.1,1.8-0.3
	c0.5-0.2,1-0.4,1.4-0.7c0.4-0.3,0.7-0.7,0.9-1.1c0.2-0.4,0.3-0.9,0.3-1.3c0-0.7-0.3-1.3-0.8-1.8c-0.5-0.5-1.5-0.9-2.8-1.3
	c-0.6-0.2-1.1-0.3-1.4-0.5c-0.4-0.1-0.6-0.3-0.8-0.4c-0.2-0.1-0.3-0.3-0.4-0.4c-0.1-0.1-0.1-0.3-0.1-0.5c0-0.2,0.1-0.5,0.2-0.7
	c0.1-0.2,0.3-0.3,0.5-0.5c0.2-0.1,0.4-0.2,0.7-0.3c0.3-0.1,0.6-0.1,0.8-0.1c0.6,0,1.2,0.1,1.7,0.4c0.5,0.3,0.9,0.6,1.2,1
	c0,0,0,0.1,0,0.2c0,0.1,0,0.2,0.1,0.2l1-1.4C1246.9,472.1,1245.6,471.5,1244,471.5L1244,471.5z"/>
<path class="st0" d="M1165.9,536.4h0.7l2.5-9.5l2.5,9.5h0.6l2.3-14.4h-1.4l-1.3,9.7l-2.3-8.7h-0.5l-2.3,8.6l-1.5-9.7h-1.5
	L1165.9,536.4z"/>
<path class="st0" d="M1178.8,526c-0.6,0.2-1.1,0.6-1.5,1.1c-0.4,0.5-0.8,1-1,1.7c-0.3,0.7-0.4,1.5-0.4,2.4c0,0.9,0.1,1.7,0.4,2.3
	c0.2,0.7,0.6,1.3,1,1.7c0.4,0.5,1,0.8,1.6,1c0.6,0.2,1.3,0.4,2.1,0.4c1.6,0,2.8-0.5,3.7-1.6l-0.9-0.9c-0.7,0.8-1.6,1.2-2.7,1.2
	c-0.4,0-0.8-0.1-1.2-0.2c-0.4-0.1-0.8-0.3-1.1-0.7c-0.3-0.3-0.6-0.7-0.8-1.2c-0.2-0.5-0.3-1.1-0.4-1.9h7.5c0-0.1,0-0.2,0-0.4
	c0-0.1,0-0.3,0-0.4c0-0.9-0.1-1.6-0.4-2.2c-0.2-0.6-0.6-1.1-0.9-1.6c-0.4-0.4-0.8-0.7-1.4-0.9c-0.5-0.2-1.1-0.3-1.6-0.3
	C1180,525.6,1179.4,525.7,1178.8,526z M1178.6,527.6c0.6-0.5,1.2-0.8,2-0.8c0.4,0,0.7,0.1,1.1,0.2c0.3,0.2,0.6,0.4,0.9,0.6
	c0.2,0.2,0.4,0.5,0.6,0.9c0.1,0.3,0.2,0.7,0.2,1.1c0,0.1,0,0.1,0,0.2c0,0.1,0,0.1,0,0.2h-5.8C1177.6,528.9,1178,528.1,1178.6,527.6z
	"/>
<path class="st0" d="M1187.6,536.4h1l0.6-1.4c0.4,0.5,0.8,0.9,1.3,1.2c0.5,0.3,1.1,0.4,1.8,0.4c0.6,0,1.1-0.1,1.6-0.3
	c0.5-0.2,1-0.6,1.4-1c0.4-0.5,0.8-1.1,1-1.7c0.3-0.7,0.4-1.5,0.4-2.5c0-0.9-0.1-1.7-0.3-2.4c-0.2-0.7-0.5-1.2-0.9-1.7
	c-0.4-0.5-0.9-0.8-1.4-1c-0.5-0.2-1.1-0.3-1.7-0.3c-0.6,0-1.2,0.2-1.8,0.5c-0.6,0.3-1,0.8-1.4,1.4v-5.9c0-0.1,0-0.2,0.1-0.2
	c0.1-0.1,0.1-0.1,0.1-0.2v0h-1.9V536.4z M1189.8,534.2c-0.2-0.2-0.3-0.4-0.4-0.7c-0.1-0.3-0.2-0.7-0.2-1.1c0-0.4,0-1,0-1.6
	c0-1,0.1-1.8,0.3-2.2c0.2-0.5,0.5-0.8,1-1.1c0.4-0.3,0.8-0.4,1.2-0.4c1.1,0,1.9,0.4,2.5,1.1c0.6,0.7,0.9,1.8,0.9,3.2
	c0,0.7-0.1,1.4-0.3,1.9s-0.5,0.9-0.8,1.2s-0.7,0.5-1,0.6c-0.4,0.1-0.7,0.2-1,0.2c-0.2,0-0.4,0-0.7-0.1c-0.2-0.1-0.5-0.2-0.8-0.3
	C1190.2,534.6,1190,534.4,1189.8,534.2z"/>
<path class="st0" d="M1199.1,540.2h1.7V535c0.4,0.5,0.8,0.9,1.4,1.2c0.6,0.3,1.2,0.4,1.8,0.4c0.6,0,1.1-0.1,1.6-0.4
	c0.5-0.2,1-0.6,1.4-1.1c0.4-0.5,0.8-1.1,1-1.8c0.3-0.7,0.4-1.5,0.4-2.4c0-0.9-0.1-1.7-0.4-2.4c-0.2-0.7-0.6-1.2-1-1.7
	c-0.4-0.4-0.9-0.8-1.4-1c-0.5-0.2-1.1-0.3-1.7-0.3c-0.6,0-1.2,0.2-1.8,0.5c-0.6,0.3-1.1,0.8-1.4,1.3v-1.6h-1.6V540.2z M1200.7,530.4
	c0-0.6,0.1-1.2,0.2-1.6s0.4-0.8,0.6-1c0.3-0.3,0.5-0.4,0.9-0.5s0.6-0.2,1-0.2c1,0,1.8,0.4,2.4,1.2c0.6,0.7,0.8,1.8,0.8,3.1
	c0,0.7-0.1,1.3-0.3,1.8s-0.5,0.9-0.8,1.2c-0.3,0.3-0.7,0.5-1.1,0.6c-0.4,0.1-0.8,0.2-1.2,0.2c-0.7,0-1.3-0.2-1.8-0.7
	c-0.5-0.5-0.8-1.3-0.8-2.4V530.4z"/>
<path class="st0" d="M1212.1,528.1c0.8-0.8,1.7-1.2,2.8-1.2c0.9,0,1.6,0.2,2,0.6c0.4,0.4,0.7,1.2,0.7,2.2v0.4h-2
	c-1.7,0.1-3,0.4-3.9,1c-0.9,0.6-1.4,1.4-1.4,2.5c0,0.4,0.1,0.7,0.2,1.1c0.2,0.4,0.4,0.7,0.7,0.9c0.3,0.3,0.7,0.5,1.1,0.7
	c0.4,0.2,0.9,0.3,1.5,0.3c1.4,0,2.7-0.5,3.8-1.4v1.2h1.6v-6.5c0-1.5-0.4-2.6-1.1-3.3c-0.7-0.7-1.8-1-3-1c-1.6,0-2.8,0.5-3.7,1.5
	L1212.1,528.1z M1217.7,532.1c0,0.5-0.1,0.9-0.2,1.2c-0.1,0.2-0.2,0.4-0.4,0.6c-0.2,0.2-0.4,0.4-0.7,0.6c-0.3,0.2-0.6,0.4-1,0.5
	c-0.4,0.1-0.8,0.2-1.2,0.2c-0.6,0-1.2-0.2-1.6-0.5c-0.4-0.4-0.6-0.8-0.6-1.3c0-0.3,0.1-0.6,0.2-0.8s0.3-0.5,0.6-0.7
	c0.3-0.2,0.7-0.4,1.3-0.5c0.5-0.1,1.2-0.2,2.1-0.2c0.2,0,0.4,0,0.6,0c0.2,0,0.4,0,0.6,0h0.4V532.1z"/>
<path class="st0" d="M1229.6,526.2c-0.7-0.3-1.4-0.5-2.3-0.5c-0.8,0-1.5,0.1-2.1,0.4c-0.7,0.3-1.2,0.7-1.7,1.1
	c-0.5,0.5-0.8,1.1-1.1,1.7c-0.3,0.7-0.4,1.4-0.4,2.2c0,0.8,0.1,1.5,0.4,2.2c0.3,0.7,0.6,1.2,1.1,1.7c0.5,0.5,1,0.9,1.7,1.2
	c0.6,0.3,1.3,0.4,2.1,0.4c1.5,0,2.8-0.6,3.8-1.7l-1-1.1c-0.8,0.8-1.7,1.3-2.8,1.3c-0.5,0-1-0.1-1.5-0.3c-0.4-0.2-0.8-0.5-1.2-0.9
	c-0.3-0.4-0.6-0.8-0.8-1.3c-0.2-0.5-0.3-1.1-0.3-1.7c0-0.6,0.1-1.1,0.3-1.6c0.2-0.5,0.4-0.9,0.7-1.2c0.3-0.3,0.7-0.6,1.1-0.8
	c0.4-0.2,0.8-0.3,1.3-0.3c0.9,0,1.6,0.2,2.2,0.6c0.3,0.2,0.5,0.4,0.6,0.6c0.1,0.1,0.2,0.3,0.2,0.3c0,0.1,0,0.2,0,0.2
	c0,0.1,0,0.1,0.1,0.1l1.2-1.4C1230.8,527,1230.2,526.5,1229.6,526.2z"/>
<path class="st0" d="M1233.7,536.4h1.7v-4l1.4-1.3l4.3,5.4l2.1-0.1l-5.2-6.3l4.4-4.2h-0.6c-0.5,0-0.9,0-1.2-0.1l-5.3,4.9v-9
	c0-0.1,0-0.2,0.1-0.3c0.1-0.1,0.1-0.2,0.1-0.3h-1.9V536.4z"/>
<path class="st1" d="M1147.2,590.4h1.7v-6.3h2.8l3.2,6.3h1.8l-3.3-6.4c0.4-0.1,0.8-0.3,1.2-0.6c0.4-0.3,0.7-0.6,0.9-0.9
	c0.3-0.4,0.4-0.7,0.6-1.1c0.1-0.4,0.2-0.8,0.2-1.2c0-1.2-0.4-2.2-1.1-3c-0.7-0.8-2-1.1-3.6-1.1h-4.2V590.4z M1151.7,577.6
	c0.5,0,1,0.1,1.3,0.2c0.4,0.1,0.7,0.3,0.9,0.6c0.2,0.2,0.4,0.5,0.5,0.8c0.1,0.3,0.2,0.6,0.2,1c0,0.8-0.2,1.4-0.7,1.8
	c-0.5,0.5-1.2,0.7-2.2,0.7h-2.8v-5.1H1151.7z"/>
<path class="st1" d="M1161.5,580c-0.6,0.2-1.1,0.6-1.5,1.1c-0.4,0.5-0.8,1-1,1.7c-0.3,0.7-0.4,1.5-0.4,2.4c0,0.9,0.1,1.7,0.4,2.3
	c0.2,0.7,0.6,1.3,1,1.7c0.4,0.5,1,0.8,1.6,1c0.6,0.2,1.3,0.4,2.1,0.4c1.6,0,2.8-0.5,3.7-1.6l-0.9-0.9c-0.7,0.8-1.6,1.2-2.7,1.2
	c-0.4,0-0.8-0.1-1.2-0.2c-0.4-0.1-0.8-0.3-1.1-0.7c-0.3-0.3-0.6-0.7-0.8-1.2c-0.2-0.5-0.3-1.1-0.4-1.9h7.5c0-0.1,0-0.2,0-0.4
	c0-0.1,0-0.3,0-0.4c0-0.9-0.1-1.6-0.4-2.2c-0.2-0.6-0.6-1.1-0.9-1.6c-0.4-0.4-0.8-0.7-1.4-0.9c-0.5-0.2-1.1-0.3-1.6-0.3
	C1162.7,579.6,1162.1,579.8,1161.5,580z M1161.3,581.7c0.6-0.5,1.2-0.8,2-0.8c0.4,0,0.7,0.1,1.1,0.2c0.3,0.2,0.6,0.4,0.9,0.6
	c0.2,0.2,0.4,0.5,0.6,0.9c0.1,0.3,0.2,0.7,0.2,1.1c0,0.1,0,0.1,0,0.2c0,0.1,0,0.1,0,0.2h-5.8C1160.4,583,1160.8,582.2,1161.3,581.7z
	"/>
<path class="st1" d="M1177.4,581.2c-0.6-1-1.6-1.5-2.9-1.5c-0.6,0-1.2,0.1-1.8,0.4c-0.6,0.2-1.1,0.6-1.5,1.1c-0.4,0.5-0.8,1-1,1.7
	c-0.2,0.7-0.4,1.4-0.4,2.3c0,0.8,0.1,1.6,0.3,2.3c0.2,0.7,0.5,1.3,0.9,1.8c0.4,0.5,0.9,0.9,1.4,1.1c0.5,0.3,1.1,0.4,1.7,0.4
	c0.7,0,1.3-0.2,1.9-0.5c0.6-0.3,1-0.8,1.4-1.4v5.5h1.7v-14.4h-1.6v1.5C1177.6,581.4,1177.5,581.3,1177.4,581.2L1177.4,581.2z
	 M1176.6,581.8c0.5,0.6,0.8,1.6,0.8,3.1c0,1.5-0.3,2.5-0.8,3.2c-0.5,0.7-1.2,1-2.1,1c-0.4,0-0.8-0.1-1.2-0.3c-0.4-0.2-0.7-0.5-1-0.8
	c-0.3-0.4-0.5-0.8-0.7-1.3s-0.2-1.1-0.2-1.8c0-0.7,0.1-1.2,0.2-1.7c0.2-0.5,0.4-0.9,0.6-1.2c0.3-0.3,0.6-0.6,0.9-0.7
	c0.4-0.2,0.7-0.2,1.1-0.2C1175.4,580.9,1176.1,581.2,1176.6,581.8z"/>
<path class="st1" d="M1181.9,585.8c0,0.9,0.1,1.6,0.3,2.2c0.2,0.6,0.4,1.1,0.8,1.5c0.3,0.4,0.7,0.7,1.2,0.9c0.4,0.2,0.9,0.3,1.5,0.3
	c0.7,0,1.3-0.2,1.9-0.5c0.6-0.3,1-0.8,1.4-1.4l0,0.8c0,0.2,0,0.3,0,0.4c0,0.1,0,0.2,0,0.4h1.7c-0.1-0.3-0.1-0.6-0.1-0.9v-9.6h-1.7
	v5.8c0,0.6-0.1,1.2-0.2,1.6c-0.2,0.4-0.4,0.8-0.6,1.1c-0.3,0.3-0.6,0.5-0.9,0.7c-0.3,0.2-0.7,0.2-1.1,0.3c-0.3,0-0.7-0.1-0.9-0.2
	c-0.3-0.1-0.5-0.3-0.8-0.6c-0.2-0.3-0.4-0.6-0.5-1.1c-0.1-0.5-0.2-1-0.2-1.7v-5.9h-1.7L1181.9,585.8z"/>
<path class="st1" d="M1194.4,581.2h2.6v7.8h-2.7v1.3h6.8v-1.3h-2.5v-9.2h-4.2V581.2z M1196.6,576.5c0,0.3,0.1,0.6,0.3,0.8
	c0.2,0.2,0.5,0.3,0.8,0.3s0.6-0.1,0.8-0.3c0.2-0.2,0.4-0.5,0.4-0.8c0-0.3-0.1-0.6-0.4-0.8c-0.2-0.2-0.5-0.4-0.8-0.4
	s-0.6,0.1-0.8,0.3C1196.7,575.9,1196.6,576.2,1196.6,576.5L1196.6,576.5z"/>
<path class="st1" d="M1205.7,590.4h1.7v-5.1c0-0.6,0.1-1.1,0.3-1.6s0.5-1,0.8-1.3c0.3-0.4,0.7-0.7,1.2-0.9c0.4-0.2,0.9-0.4,1.4-0.4
	c0.3,0,0.5,0,0.7,0.1c0.2,0.1,0.4,0.1,0.5,0.3c0.2,0.1,0.3,0.2,0.5,0.4c0.1,0.2,0.3,0.3,0.5,0.6l0.8-1.6c-0.7-0.8-1.7-1.2-2.8-1.2
	c-0.8,0-1.6,0.2-2.3,0.6s-1.2,1-1.5,1.7l0-2h-1.7V590.4z"/>
<path class="st1" d="M1219,580c-0.6,0.2-1.1,0.6-1.5,1.1c-0.4,0.5-0.8,1-1,1.7c-0.3,0.7-0.4,1.5-0.4,2.4c0,0.9,0.1,1.7,0.4,2.3
	c0.2,0.7,0.6,1.3,1,1.7c0.4,0.5,1,0.8,1.6,1c0.6,0.2,1.3,0.4,2.1,0.4c1.6,0,2.8-0.5,3.7-1.6l-0.9-0.9c-0.7,0.8-1.6,1.2-2.7,1.2
	c-0.4,0-0.8-0.1-1.2-0.2c-0.4-0.1-0.8-0.3-1.1-0.7c-0.3-0.3-0.6-0.7-0.8-1.2c-0.2-0.5-0.3-1.1-0.4-1.9h7.5c0-0.1,0-0.2,0-0.4
	c0-0.1,0-0.3,0-0.4c0-0.9-0.1-1.6-0.4-2.2c-0.2-0.6-0.6-1.1-0.9-1.6c-0.4-0.4-0.8-0.7-1.4-0.9c-0.5-0.2-1.1-0.3-1.6-0.3
	C1220.2,579.6,1219.6,579.8,1219,580z M1218.8,581.7c0.6-0.5,1.2-0.8,2-0.8c0.4,0,0.7,0.1,1.1,0.2c0.3,0.2,0.6,0.4,0.9,0.6
	c0.2,0.2,0.4,0.5,0.6,0.9c0.1,0.3,0.2,0.7,0.2,1.1c0,0.1,0,0.1,0,0.2c0,0.1,0,0.1,0,0.2h-5.8C1217.9,583,1218.3,582.2,1218.8,581.7z
	"/>
<path class="st2" d="M1231.9,588c-0.4,0-0.7,0.1-0.9,0.4c-0.3,0.3-0.4,0.6-0.4,0.9c0,0.4,0.1,0.7,0.4,0.9c0.3,0.3,0.6,0.4,1,0.4
	c0.4,0,0.7-0.1,1-0.4c0.3-0.3,0.4-0.6,0.4-0.9c0-0.4-0.1-0.7-0.4-0.9C1232.6,588.1,1232.3,588,1231.9,588L1231.9,588z"/>
<path class="st3" d="M1240.9,581.2h3.9v8.8c0,1.1-0.2,1.8-0.7,2.3c-0.4,0.5-1,0.7-1.7,0.7c-0.4,0-0.7-0.1-1.1-0.3
	c-0.3-0.2-0.6-0.3-0.7-0.4c-0.1-0.1-0.2-0.2-0.3-0.3c0-0.1-0.1-0.2-0.1-0.3c0-0.1-0.1-0.2-0.1-0.2l-1.1,1.4c0.8,1,1.9,1.5,3.2,1.5
	c0.6,0,1.1-0.1,1.6-0.3c0.5-0.2,0.9-0.4,1.3-0.8c0.4-0.4,0.7-0.8,0.9-1.4c0.2-0.6,0.3-1.2,0.3-2v-10h-5.6V581.2z M1244.4,576.5
	c0,0.3,0.1,0.6,0.4,0.8c0.2,0.2,0.5,0.3,0.8,0.3s0.6-0.1,0.8-0.3c0.2-0.2,0.4-0.5,0.4-0.8c0-0.3-0.1-0.6-0.4-0.9
	c-0.2-0.2-0.5-0.3-0.8-0.3c-0.3,0-0.6,0.1-0.9,0.3C1244.5,575.9,1244.4,576.2,1244.4,576.5L1244.4,576.5z"/>
<path class="st3" d="M1255.5,579.6c-0.6,0-1.1,0.1-1.6,0.2c-0.5,0.2-0.9,0.4-1.3,0.6c-0.4,0.3-0.6,0.6-0.8,0.9
	c-0.2,0.3-0.3,0.7-0.3,1.1c0,0.3,0.1,0.7,0.2,0.9c0.1,0.3,0.3,0.5,0.5,0.8c0.2,0.2,0.4,0.4,0.7,0.6c0.2,0.2,0.6,0.4,1.2,0.6
	c0.2,0.1,0.7,0.2,1.3,0.4c1,0.3,1.7,0.6,2,0.9c0.4,0.3,0.6,0.6,0.6,1c0,0.3-0.1,0.5-0.2,0.7s-0.4,0.4-0.6,0.5
	c-0.3,0.1-0.5,0.3-0.9,0.3c-0.3,0.1-0.6,0.1-0.9,0.1c-0.3,0-0.6,0-0.9-0.1c-0.3,0-0.6-0.1-0.8-0.2c-0.5-0.2-0.9-0.4-1.1-0.6
	c-0.2-0.2-0.4-0.3-0.5-0.5c-0.1-0.1-0.1-0.3-0.2-0.4c0-0.1,0-0.2-0.1-0.2l-0.9,1.7c1.2,1.1,2.7,1.7,4.4,1.7c0.7,0,1.3-0.1,1.8-0.3
	c0.5-0.2,1-0.4,1.4-0.7c0.4-0.3,0.7-0.7,0.9-1.1c0.2-0.4,0.3-0.9,0.3-1.3c0-0.7-0.3-1.3-0.8-1.8c-0.5-0.5-1.5-0.9-2.8-1.3
	c-0.6-0.2-1.1-0.3-1.4-0.5c-0.4-0.1-0.6-0.3-0.8-0.4c-0.2-0.1-0.3-0.3-0.4-0.4c-0.1-0.1-0.1-0.3-0.1-0.5c0-0.2,0.1-0.5,0.2-0.7
	c0.1-0.2,0.3-0.3,0.5-0.5c0.2-0.1,0.4-0.2,0.7-0.3c0.3-0.1,0.6-0.1,0.8-0.1c0.6,0,1.2,0.1,1.7,0.4c0.5,0.3,0.9,0.6,1.2,1
	c0,0,0,0.1,0,0.2c0,0.1,0,0.2,0.1,0.2l1-1.4C1258.4,580.2,1257.1,579.6,1255.5,579.6L1255.5,579.6z"/>
<path class="st1" d="M1166.3,630.6c-0.8-0.4-1.6-0.7-2.4-0.7c-0.5,0-1.1,0.1-1.7,0.3c-0.6,0.2-1.2,0.6-1.8,1.1s-1.1,1.3-1.5,2.3
	c-0.4,1-0.6,2.3-0.6,3.8c0,1.1,0.1,2.1,0.4,3c0.3,0.9,0.6,1.6,1.1,2.3c0.5,0.6,1.1,1.1,1.7,1.5c0.7,0.3,1.5,0.5,2.3,0.5
	c1.4,0,2.8-0.5,4.2-1.5v-5.6h-4.1v1.4h2.6v3.4c-0.8,0.6-1.7,0.9-2.7,0.9c-0.6,0-1.1-0.1-1.6-0.4c-0.5-0.3-0.9-0.7-1.3-1.2
	c-0.4-0.5-0.6-1.2-0.8-1.9c-0.2-0.8-0.3-1.6-0.3-2.6c0-1.1,0.1-2,0.4-2.7c0.2-0.7,0.5-1.3,0.9-1.8c0.4-0.4,0.8-0.8,1.3-0.9
	c0.5-0.2,0.9-0.3,1.4-0.3c0.6,0,1.2,0.2,1.7,0.5c0.5,0.3,0.8,0.7,1.1,1.2c0.1,0.2,0.2,0.4,0.3,0.4l1.1-1.2
	C1167.6,631.6,1167,631.1,1166.3,630.6z"/>
<path class="st1" d="M1171.2,644.5h1.7v-5.1c0-0.6,0.1-1.1,0.3-1.6c0.2-0.5,0.5-1,0.8-1.3c0.3-0.4,0.7-0.7,1.2-0.9
	c0.4-0.2,0.9-0.4,1.4-0.4c0.3,0,0.5,0,0.7,0.1c0.2,0.1,0.4,0.1,0.5,0.3c0.2,0.1,0.3,0.2,0.5,0.4c0.1,0.2,0.3,0.3,0.5,0.6l0.8-1.6
	c-0.7-0.8-1.7-1.2-2.8-1.2c-0.8,0-1.6,0.2-2.3,0.6c-0.7,0.4-1.2,1-1.5,1.7l0-2h-1.7V644.5z"/>
<path class="st1" d="M1181.9,639.8c0,0.9,0.1,1.6,0.3,2.2c0.2,0.6,0.4,1.1,0.8,1.5c0.3,0.4,0.7,0.7,1.2,0.9c0.4,0.2,0.9,0.3,1.5,0.3
	c0.7,0,1.3-0.2,1.9-0.5c0.6-0.3,1-0.8,1.4-1.4l0,0.8c0,0.2,0,0.3,0,0.4c0,0.1,0,0.2,0,0.4h1.7c-0.1-0.3-0.1-0.6-0.1-0.9v-9.6h-1.7
	v5.8c0,0.6-0.1,1.2-0.2,1.6c-0.2,0.4-0.4,0.8-0.6,1.1c-0.3,0.3-0.6,0.5-0.9,0.7c-0.3,0.2-0.7,0.2-1.1,0.3c-0.3,0-0.7-0.1-0.9-0.2
	c-0.3-0.1-0.5-0.3-0.8-0.6c-0.2-0.3-0.4-0.6-0.5-1.1c-0.1-0.5-0.2-1-0.2-1.7v-5.9h-1.7L1181.9,639.8z"/>
<path class="st1" d="M1195.2,644.4v-6.1c0-0.5,0.1-1,0.3-1.4c0.2-0.4,0.4-0.7,0.7-1c0.3-0.3,0.6-0.5,1-0.7c0.4-0.2,0.7-0.2,1.1-0.2
	c0.5,0,1,0.2,1.4,0.7c0.4,0.4,0.6,1.2,0.6,2.3v6.3h1.7v-6.4c0-0.8-0.1-1.5-0.2-2c-0.2-0.6-0.4-1-0.7-1.4c-0.3-0.4-0.6-0.6-1-0.8
	c-0.4-0.2-0.8-0.2-1.3-0.2c-0.6,0-1.3,0.2-1.9,0.6c-0.6,0.4-1.1,0.9-1.5,1.5v-1.9h-1.7v10.5H1195.2z"/>
<path class="st1" d="M1207.6,633.9h-2.5v1.3h2.5c-0.1,1.1-0.2,2.1-0.2,3c0,0.9,0,1.6,0,2.1c0,1.5,0.2,2.6,0.7,3.3
	c0.5,0.7,1.3,1,2.4,1c1.1,0,2.2-0.4,3.3-1.2l-0.5-1.3c-0.9,0.6-1.6,1-2.4,1c-0.4,0-0.7-0.1-1-0.2c-0.2-0.2-0.4-0.4-0.6-0.7
	c-0.1-0.3-0.2-0.7-0.2-1.2c0-0.5,0-1.1,0-1.9c0-1.2,0.1-2.5,0.2-3.9h3.5v-1.3h-3.5l0.3-2.5c0-0.1,0-0.1,0.1-0.3
	c0-0.1,0.1-0.2,0.1-0.4l-1.8,0.3L1207.6,633.9z"/>
<path class="st2" d="M1220.4,642.1c-0.4,0-0.7,0.1-0.9,0.4c-0.3,0.3-0.4,0.6-0.4,0.9c0,0.4,0.1,0.7,0.4,0.9c0.3,0.3,0.6,0.4,1,0.4
	c0.4,0,0.7-0.1,1-0.4c0.3-0.3,0.4-0.6,0.4-0.9c0-0.4-0.1-0.7-0.4-0.9C1221.1,642.2,1220.8,642.1,1220.4,642.1L1220.4,642.1z"/>
<path class="st3" d="M1229.4,635.3h3.9v8.8c0,1.1-0.2,1.8-0.7,2.3c-0.4,0.5-1,0.7-1.7,0.7c-0.4,0-0.7-0.1-1.1-0.3
	c-0.3-0.2-0.6-0.3-0.7-0.4c-0.1-0.1-0.2-0.2-0.3-0.3c0-0.1-0.1-0.2-0.1-0.3c0-0.1-0.1-0.2-0.1-0.2l-1.1,1.4c0.8,1,1.9,1.5,3.2,1.5
	c0.6,0,1.1-0.1,1.6-0.3c0.5-0.2,0.9-0.4,1.3-0.8c0.4-0.4,0.7-0.8,0.9-1.4c0.2-0.6,0.3-1.2,0.3-2v-10h-5.6V635.3z M1232.9,630.6
	c0,0.3,0.1,0.6,0.4,0.8c0.2,0.2,0.5,0.3,0.8,0.3c0.3,0,0.6-0.1,0.8-0.3c0.2-0.2,0.4-0.5,0.4-0.8c0-0.3-0.1-0.6-0.4-0.9
	c-0.2-0.2-0.5-0.3-0.8-0.3c-0.3,0-0.6,0.1-0.9,0.3C1233,629.9,1232.9,630.2,1232.9,630.6L1232.9,630.6z"/>
<path class="st3" d="M1244,633.7c-0.6,0-1.1,0.1-1.6,0.2c-0.5,0.2-0.9,0.4-1.3,0.6c-0.4,0.3-0.6,0.6-0.8,0.9
	c-0.2,0.3-0.3,0.7-0.3,1.1c0,0.3,0.1,0.7,0.2,0.9c0.1,0.3,0.3,0.5,0.5,0.8c0.2,0.2,0.4,0.4,0.7,0.6s0.6,0.4,1.2,0.6
	c0.2,0.1,0.7,0.2,1.3,0.4c1,0.3,1.7,0.6,2,0.9c0.4,0.3,0.6,0.6,0.6,1c0,0.3-0.1,0.5-0.2,0.7s-0.4,0.4-0.6,0.5
	c-0.3,0.1-0.5,0.3-0.9,0.3c-0.3,0.1-0.6,0.1-0.9,0.1c-0.3,0-0.6,0-0.9-0.1c-0.3,0-0.6-0.1-0.8-0.2c-0.5-0.2-0.9-0.4-1.1-0.6
	c-0.2-0.2-0.4-0.3-0.5-0.5c-0.1-0.1-0.1-0.3-0.2-0.4c0-0.1,0-0.2-0.1-0.2l-0.9,1.7c1.2,1.1,2.7,1.7,4.4,1.7c0.7,0,1.3-0.1,1.8-0.3
	c0.5-0.2,1-0.4,1.4-0.7c0.4-0.3,0.7-0.7,0.9-1.1c0.2-0.4,0.3-0.9,0.3-1.3c0-0.7-0.3-1.3-0.8-1.8c-0.5-0.5-1.5-0.9-2.8-1.3
	c-0.6-0.2-1.1-0.3-1.4-0.5c-0.4-0.1-0.6-0.3-0.8-0.4c-0.2-0.1-0.3-0.3-0.4-0.4c-0.1-0.1-0.1-0.3-0.1-0.5c0-0.2,0.1-0.5,0.2-0.7
	c0.1-0.2,0.3-0.3,0.5-0.5c0.2-0.1,0.4-0.2,0.7-0.3c0.3-0.1,0.6-0.1,0.8-0.1c0.6,0,1.2,0.1,1.7,0.4c0.5,0.3,0.9,0.6,1.2,1
	c0,0,0,0.1,0,0.2c0,0.1,0,0.2,0.1,0.2l1-1.4C1246.9,634.2,1245.6,633.7,1244,633.7L1244,633.7z"/>
<path class="st0" d="M1164.1,698.5h1.5v-10.7l2.9,5.7h0.6l3.1-5.8v10.8h1.5v-14.4h-1.2l-3.6,7l-3.5-7h-1.3V698.5z"/>
<path class="st0" d="M1178.7,688.2c-0.6,0.3-1.1,0.7-1.6,1.2c-0.5,0.5-0.8,1.1-1.1,1.8c-0.3,0.7-0.4,1.4-0.4,2.2
	c0,0.8,0.1,1.5,0.4,2.2c0.3,0.7,0.6,1.3,1.1,1.7c0.4,0.5,1,0.9,1.6,1.1c0.6,0.3,1.2,0.4,1.9,0.4c0.7,0,1.3-0.1,1.9-0.4
	c0.6-0.3,1.1-0.6,1.5-1.1c0.4-0.5,0.8-1.1,1-1.7c0.2-0.7,0.4-1.4,0.4-2.3c0-0.8-0.1-1.6-0.4-2.3c-0.3-0.7-0.6-1.3-1-1.7
	c-0.4-0.5-0.9-0.8-1.5-1.1c-0.6-0.3-1.2-0.4-1.8-0.4S1179.3,687.9,1178.7,688.2z M1183.4,695c-0.2,0.5-0.4,0.9-0.7,1.3
	c-0.3,0.3-0.6,0.6-1,0.8c-0.4,0.2-0.8,0.3-1.2,0.3c-0.4,0-0.8-0.1-1.2-0.3c-0.4-0.2-0.7-0.5-1-0.9c-0.3-0.4-0.5-0.8-0.7-1.3
	c-0.2-0.5-0.3-1.1-0.3-1.7c0-0.6,0.1-1.2,0.3-1.7c0.2-0.5,0.4-0.9,0.7-1.3c0.3-0.4,0.6-0.6,1-0.8c0.4-0.2,0.8-0.3,1.2-0.3
	c0.4,0,0.8,0.1,1.2,0.3c0.4,0.2,0.7,0.5,1,0.8c0.3,0.4,0.5,0.8,0.7,1.3c0.2,0.5,0.3,1.1,0.3,1.8
	C1183.6,693.9,1183.5,694.5,1183.4,695z"/>
<path class="st0" d="M1189.4,698.5v-6.1c0-0.5,0.1-1,0.3-1.4c0.2-0.4,0.4-0.7,0.7-1c0.3-0.3,0.6-0.5,1-0.7c0.4-0.2,0.7-0.2,1.1-0.2
	c0.5,0,1,0.2,1.4,0.7c0.4,0.4,0.6,1.2,0.6,2.3v6.3h1.7v-6.4c0-0.8-0.1-1.5-0.2-2s-0.4-1-0.7-1.4c-0.3-0.4-0.6-0.6-1-0.8
	s-0.8-0.2-1.3-0.2c-0.6,0-1.3,0.2-1.9,0.6c-0.6,0.4-1.1,0.9-1.5,1.5V688h-1.7v10.5H1189.4z"/>
<path class="st0" d="M1202.9,689c0.3,0,0.6,0.1,0.9,0.2c0.3,0.1,0.5,0.3,0.7,0.5c0.2,0.2,0.4,0.5,0.5,0.7c0.1,0.3,0.2,0.6,0.2,0.9
	c0,0.3-0.1,0.6-0.2,0.9c-0.1,0.3-0.3,0.5-0.5,0.7c-0.2,0.2-0.5,0.4-0.7,0.5c-0.3,0.1-0.6,0.2-0.9,0.2c-0.3,0-0.6-0.1-0.9-0.2
	c-0.3-0.1-0.5-0.3-0.7-0.5c-0.2-0.2-0.4-0.5-0.5-0.7c-0.1-0.3-0.2-0.6-0.2-0.9c0-0.3,0.1-0.6,0.2-0.9c0.1-0.3,0.3-0.5,0.5-0.8
	C1201.7,689.2,1202.3,689,1202.9,689L1202.9,689z M1203,687.6c-0.5,0-1,0.1-1.4,0.3c-0.5,0.2-0.9,0.5-1.2,0.8
	c-0.4,0.3-0.6,0.7-0.9,1.2c-0.2,0.5-0.3,0.9-0.3,1.5c0,0.6,0.1,1.1,0.4,1.6s0.7,0.9,1.2,1.2c-0.8,0.7-1.2,1.3-1.2,2
	c0,0.7,0.3,1.2,0.9,1.4c-1.2,0.7-1.7,1.5-1.7,2.3c0,0.3,0.1,0.7,0.3,1c0.2,0.3,0.5,0.6,0.8,0.8c0.4,0.2,0.9,0.4,1.5,0.5
	c0.6,0.1,1.3,0.2,2.2,0.2c0.8,0,1.5-0.1,2.1-0.3c0.6-0.2,1.1-0.4,1.5-0.7c0.4-0.3,0.7-0.6,0.9-1c0.2-0.4,0.3-0.8,0.3-1.2
	c0-0.4-0.1-0.7-0.2-1c-0.2-0.3-0.4-0.6-0.7-0.8c-0.3-0.2-0.7-0.4-1.2-0.6c-0.5-0.1-1.1-0.2-1.8-0.2c-0.3,0-0.5,0-0.8,0
	c-0.3,0-0.6,0-0.9,0c-0.5,0-0.9-0.1-1.2-0.2c-0.3-0.1-0.4-0.3-0.4-0.6c0-0.3,0.2-0.7,0.7-1.2c0.5,0.2,0.9,0.3,1.3,0.3
	c0.5,0,1-0.1,1.5-0.3c0.5-0.2,0.9-0.5,1.2-0.8c0.3-0.3,0.6-0.7,0.8-1.2c0.2-0.4,0.3-0.9,0.3-1.4c0-0.6-0.2-1.2-0.5-1.8
	c0.5-0.3,1.1-0.5,1.8-0.5c0.1,0,0.2,0,0.3,0c0.1,0,0.2,0,0.3,0l-0.2-1.4h-0.3c-1,0-1.9,0.3-2.6,0.9
	C1204.8,688,1204,687.6,1203,687.6L1203,687.6z M1202.6,698c0.5,0,1,0,1.6,0c0.1,0,0.2,0,0.2,0c0.1,0,0.2,0,0.2,0
	c0.7,0,1.2,0.1,1.5,0.3c0.3,0.2,0.5,0.6,0.5,1c0,0.6-0.3,1-0.9,1.4c-0.6,0.3-1.4,0.5-2.3,0.5c-0.4,0-0.9,0-1.3-0.1
	c-0.4-0.1-0.8-0.2-1.1-0.3c-0.3-0.1-0.5-0.3-0.7-0.5c-0.2-0.2-0.3-0.5-0.3-0.8c0-0.6,0.4-1.1,1.3-1.6
	C1201.8,698,1202.2,698,1202.6,698z"/>
<path class="st0" d="M1213.2,688.2c-0.6,0.3-1.1,0.7-1.6,1.2c-0.5,0.5-0.8,1.1-1.1,1.8c-0.3,0.7-0.4,1.4-0.4,2.2
	c0,0.8,0.1,1.5,0.4,2.2c0.3,0.7,0.6,1.3,1.1,1.7c0.4,0.5,1,0.9,1.6,1.1c0.6,0.3,1.2,0.4,1.9,0.4c0.7,0,1.3-0.1,1.9-0.4
	c0.6-0.3,1.1-0.6,1.5-1.1c0.4-0.5,0.8-1.1,1-1.7c0.2-0.7,0.4-1.4,0.4-2.3c0-0.8-0.1-1.6-0.4-2.3c-0.3-0.7-0.6-1.3-1-1.7
	c-0.4-0.5-0.9-0.8-1.5-1.1c-0.6-0.3-1.2-0.4-1.8-0.4C1214.4,687.7,1213.8,687.9,1213.2,688.2z M1217.9,695c-0.2,0.5-0.4,0.9-0.7,1.3
	c-0.3,0.3-0.6,0.6-1,0.8c-0.4,0.2-0.8,0.3-1.2,0.3c-0.4,0-0.8-0.1-1.2-0.3c-0.4-0.2-0.7-0.5-1-0.9c-0.3-0.4-0.5-0.8-0.7-1.3
	c-0.2-0.5-0.3-1.1-0.3-1.7c0-0.6,0.1-1.2,0.3-1.7c0.2-0.5,0.4-0.9,0.7-1.3c0.3-0.4,0.6-0.6,1-0.8c0.4-0.2,0.8-0.3,1.2-0.3
	s0.8,0.1,1.2,0.3c0.4,0.2,0.7,0.5,1,0.8c0.3,0.4,0.5,0.8,0.7,1.3c0.2,0.5,0.3,1.1,0.3,1.8C1218.1,693.9,1218.1,694.5,1217.9,695z"/>
<path class="st0" d="M1222,698.5h3.1c1.1,0,2.1-0.2,2.9-0.5c0.8-0.3,1.4-0.8,1.9-1.4c0.5-0.6,0.9-1.4,1.1-2.2s0.4-1.9,0.4-3
	c0-1.1-0.1-2.1-0.3-3c-0.2-0.9-0.6-1.6-1.1-2.3c-0.5-0.6-1.1-1.1-1.7-1.4c-0.7-0.3-1.6-0.5-2.9-0.5h-3.3V698.5z M1225.2,685.5
	c1.6,0,2.7,0.5,3.4,1.6c0.7,1.1,1,2.5,1,4.4c0,1.9-0.4,3.3-1.1,4.3c-0.8,1-1.9,1.5-3.6,1.5h-1.5v-11.8H1225.2z"/>
<path class="st0" d="M1233.3,698.5h4c1.9,0,3.2-0.4,4.1-1.1c0.9-0.7,1.3-1.7,1.3-2.9c0-0.4-0.1-0.8-0.2-1.2c-0.1-0.4-0.3-0.7-0.6-1
	c-0.2-0.3-0.5-0.6-0.9-0.9c-0.3-0.3-0.7-0.4-1.1-0.6c0.7-0.2,1.2-0.7,1.6-1.3c0.4-0.6,0.6-1.2,0.6-1.9c0-0.5-0.1-1-0.3-1.4
	c-0.2-0.4-0.5-0.8-0.9-1.1s-0.9-0.6-1.5-0.7c-0.6-0.2-1.3-0.2-2.2-0.2h-4.1V698.5z M1237.4,685.5c0.6,0,1,0.1,1.4,0.2
	c0.4,0.1,0.7,0.3,0.9,0.5c0.2,0.2,0.4,0.5,0.5,0.7c0.1,0.3,0.2,0.6,0.2,0.9c0,0.3-0.1,0.6-0.2,0.9c-0.1,0.3-0.3,0.5-0.6,0.7
	c-0.3,0.2-0.6,0.4-1,0.5c-0.4,0.1-0.9,0.2-1.6,0.2h-2.2v-4.6H1237.4z M1237.3,691.4c0.7,0,1.3,0.1,1.7,0.2c0.5,0.1,0.9,0.3,1.2,0.6
	c0.3,0.3,0.5,0.6,0.6,0.9c0.1,0.4,0.2,0.7,0.3,1.2c-0.1,0.8-0.3,1.4-0.8,2c-0.5,0.5-1.3,0.8-2.6,0.8h-2.8v-5.7H1237.3z"/>
<path class="st0" d="M1171.8,743.4h3.9v8.8c0,1.1-0.2,1.8-0.7,2.3c-0.4,0.5-1,0.7-1.7,0.7c-0.4,0-0.7-0.1-1.1-0.3
	c-0.3-0.2-0.6-0.3-0.7-0.4c-0.1-0.1-0.2-0.2-0.3-0.3c0-0.1-0.1-0.2-0.1-0.3c0-0.1-0.1-0.2-0.1-0.2l-1.1,1.4c0.8,1,1.9,1.5,3.2,1.5
	c0.6,0,1.1-0.1,1.6-0.3c0.5-0.2,0.9-0.4,1.3-0.8c0.4-0.4,0.7-0.8,0.9-1.4c0.2-0.6,0.3-1.2,0.3-2v-10h-5.6V743.4z M1175.4,738.6
	c0,0.3,0.1,0.6,0.4,0.8c0.2,0.2,0.5,0.3,0.8,0.3c0.3,0,0.6-0.1,0.8-0.3c0.2-0.2,0.4-0.5,0.4-0.8c0-0.3-0.1-0.6-0.4-0.9
	c-0.2-0.2-0.5-0.3-0.8-0.3c-0.3,0-0.6,0.1-0.9,0.3C1175.5,738,1175.4,738.3,1175.4,738.6L1175.4,738.6z"/>
<path class="st0" d="M1184.9,739.8c0.4-0.2,0.8-0.3,1.3-0.3c0.4,0,0.8,0.1,1.2,0.3c0.4,0.2,0.8,0.5,1.2,1c0.4,0.5,0.7,1.1,0.9,1.9
	c0.2,0.8,0.3,1.9,0.3,3.2c0,1-0.1,1.9-0.3,2.6c-0.2,0.7-0.5,1.3-0.8,1.7c-0.3,0.4-0.7,0.8-1.1,0.9c-0.4,0.2-0.8,0.3-1.2,0.3
	c-0.6,0-1.1-0.2-1.5-0.5c-0.5-0.3-0.9-0.7-1.2-1.3c-0.3-0.5-0.6-1.2-0.7-1.9c-0.2-0.8-0.2-1.6-0.2-2.5c0-2,0.4-3.5,1.2-4.4
	C1184.2,740.4,1184.5,740.1,1184.9,739.8z M1190.9,742c-0.3-0.9-0.6-1.7-1.1-2.3c-0.5-0.6-1.1-1-1.7-1.3c-0.6-0.3-1.2-0.4-1.9-0.4
	c-0.5,0-1.1,0.1-1.7,0.4c-0.6,0.2-1.2,0.6-1.7,1.2c-0.5,0.6-0.9,1.3-1.3,2.3c-0.3,1-0.5,2.1-0.5,3.6c0,1.2,0.1,2.2,0.4,3
	c0.3,0.9,0.6,1.6,1,2.2c0.4,0.6,0.9,1.1,1.4,1.4c0.5,0.3,1.1,0.5,1.7,0.6c0,0.6,0.1,1.1,0.2,1.5c0.1,0.4,0.4,0.7,0.7,1
	c0.3,0.3,0.7,0.5,1.2,0.5c0.5,0.1,1.1,0.1,1.9,0.1h0.9l0-1.6c-0.1,0-0.2,0-0.4,0c-0.2,0-0.4,0-0.6,0c-0.2,0-0.4,0-0.6,0
	c-0.2,0-0.3,0-0.4,0c-0.6,0-1.1-0.2-1.3-0.5c-0.2-0.3-0.4-0.7-0.4-1.2c1.4-0.3,2.5-1.1,3.2-2.3c0.7-1.2,1.1-2.9,1.1-5
	C1191.3,744.1,1191.2,742.9,1190.9,742z"/>
<path class="st0" d="M1193.4,747.9c0,0.9,0.1,1.6,0.3,2.2c0.2,0.6,0.4,1.1,0.8,1.5c0.3,0.4,0.7,0.7,1.2,0.9c0.4,0.2,0.9,0.3,1.5,0.3
	c0.7,0,1.3-0.2,1.9-0.5c0.6-0.3,1-0.8,1.4-1.4l0,0.8c0,0.2,0,0.3,0,0.4c0,0.1,0,0.2,0,0.4h1.7c-0.1-0.3-0.1-0.6-0.1-0.9V742h-1.7
	v5.8c0,0.6-0.1,1.2-0.2,1.6c-0.2,0.4-0.4,0.8-0.6,1.1c-0.3,0.3-0.6,0.5-0.9,0.7c-0.3,0.2-0.7,0.2-1.1,0.3c-0.3,0-0.7-0.1-0.9-0.2
	c-0.3-0.1-0.5-0.3-0.8-0.6c-0.2-0.3-0.4-0.6-0.5-1.1c-0.1-0.5-0.2-1-0.2-1.7V742h-1.7L1193.4,747.9z"/>
<path class="st0" d="M1207.5,742.1c-0.6,0.2-1.1,0.6-1.5,1.1c-0.4,0.5-0.8,1-1,1.7c-0.3,0.7-0.4,1.5-0.4,2.4c0,0.9,0.1,1.7,0.4,2.3
	c0.2,0.7,0.6,1.3,1,1.7c0.4,0.5,1,0.8,1.6,1c0.6,0.2,1.3,0.4,2.1,0.4c1.6,0,2.8-0.5,3.7-1.6l-0.9-0.9c-0.7,0.8-1.6,1.2-2.7,1.2
	c-0.4,0-0.8-0.1-1.2-0.2c-0.4-0.1-0.8-0.3-1.1-0.7c-0.3-0.3-0.6-0.7-0.8-1.2c-0.2-0.5-0.3-1.1-0.4-1.9h7.5c0-0.1,0-0.2,0-0.4
	c0-0.1,0-0.3,0-0.4c0-0.9-0.1-1.6-0.4-2.2c-0.2-0.6-0.6-1.1-0.9-1.6c-0.4-0.4-0.8-0.7-1.4-0.9c-0.5-0.2-1.1-0.3-1.6-0.3
	C1208.7,741.8,1208.1,741.9,1207.5,742.1z M1207.3,743.8c0.6-0.5,1.2-0.8,2-0.8c0.4,0,0.7,0.1,1.1,0.2c0.3,0.2,0.6,0.4,0.9,0.6
	c0.2,0.2,0.4,0.5,0.6,0.9c0.1,0.3,0.2,0.7,0.2,1.1c0,0.1,0,0.1,0,0.2c0,0.1,0,0.1,0,0.2h-5.8
	C1206.4,745.1,1206.8,744.3,1207.3,743.8z"/>
<path class="st0" d="M1217.2,752.6h1.7v-5.1c0-0.6,0.1-1.1,0.3-1.6s0.5-1,0.8-1.3c0.3-0.4,0.7-0.7,1.2-0.9c0.4-0.2,0.9-0.4,1.4-0.4
	c0.3,0,0.5,0,0.7,0.1c0.2,0.1,0.4,0.1,0.5,0.3c0.2,0.1,0.3,0.2,0.5,0.4c0.1,0.2,0.3,0.3,0.5,0.6l0.8-1.6c-0.7-0.8-1.7-1.2-2.8-1.2
	c-0.8,0-1.6,0.2-2.3,0.6c-0.7,0.4-1.2,1-1.5,1.7l0-2h-1.7V752.6z"/>
<path class="st0" d="M1231.8,752.5l-0.3,0.8c-0.3,0.7-0.7,1.2-1,1.5c-0.3,0.3-0.7,0.4-1.2,0.4c-0.2,0-0.4,0-0.5-0.1
	c-0.2-0.1-0.3-0.1-0.4-0.2c-0.1-0.1-0.2-0.2-0.3-0.3c0,0,0-0.1-0.1-0.2c0-0.1-0.1-0.2-0.1-0.2l-0.9,1.5c0.6,0.6,1.4,0.9,2.4,0.9
	c0.8,0,1.4-0.2,2-0.6c0.6-0.4,1-1.1,1.4-2.2l0.4-1.2l2.9-7.5c0.2-0.6,0.4-1.2,0.6-1.7c0.2-0.5,0.3-1,0.4-1.4h-1.7
	c-0.1,0.4-0.2,0.8-0.3,1.3c-0.1,0.5-0.3,1-0.5,1.5l-2,5.6l-3.1-7.7c0,0,0-0.1,0-0.1c0-0.1,0-0.2,0-0.2c0-0.1,0-0.2,0-0.3h-2l0.3,0.7
	l0,0L1231.8,752.5z"/>
<path class="st0" d="M1187.6,806.6h1.7v-6.3h3.1c0.8,0,1.4-0.1,2-0.3c0.5-0.2,1-0.5,1.3-0.8c0.3-0.4,0.6-0.8,0.8-1.3
	c0.2-0.5,0.3-1,0.3-1.6c0-0.6-0.1-1.1-0.3-1.6c-0.2-0.5-0.4-0.9-0.8-1.3c-0.4-0.4-0.8-0.7-1.4-0.9c-0.6-0.2-1.2-0.3-2-0.3h-4.6
	V806.6z M1192.1,793.8c0.5,0,0.9,0.1,1.3,0.2c0.4,0.1,0.7,0.3,0.9,0.6c0.2,0.2,0.4,0.5,0.5,0.8c0.1,0.3,0.2,0.6,0.2,1
	c0,0.8-0.3,1.4-0.7,1.8c-0.4,0.5-1.2,0.7-2.2,0.7h-2.9v-5.1H1192.1z"/>
<path class="st0" d="M1198.9,806.6h1.7v-6.9h5.6v6.9h1.7v-13.8c0-0.1,0-0.2,0.1-0.2c0-0.1,0.1-0.1,0.1-0.2c0,0,0-0.1,0-0.1h-1.8v6.1
	h-5.6v-5.6c0-0.1,0-0.2,0.1-0.3c0-0.1,0.1-0.1,0.1-0.2c0,0,0-0.1,0-0.1h-1.8V806.6z"/>
<path class="st0" d="M1210.6,806.6h1.7v-6.3h3.1c0.8,0,1.4-0.1,2-0.3c0.5-0.2,1-0.5,1.3-0.8c0.3-0.4,0.6-0.8,0.8-1.3
	c0.2-0.5,0.3-1,0.3-1.6c0-0.6-0.1-1.1-0.3-1.6c-0.2-0.5-0.4-0.9-0.8-1.3c-0.4-0.4-0.8-0.7-1.4-0.9c-0.6-0.2-1.2-0.3-2-0.3h-4.6
	V806.6z M1215.1,793.8c0.5,0,0.9,0.1,1.3,0.2c0.4,0.1,0.7,0.3,0.9,0.6c0.2,0.2,0.4,0.5,0.5,0.8c0.1,0.3,0.2,0.6,0.2,1
	c0,0.8-0.3,1.4-0.7,1.8c-0.4,0.5-1.2,0.7-2.2,0.7h-2.9v-5.1H1215.1z"/>
<path class="st0" d="M1175.6,860.6h1.5v-10.7l2.9,5.7h0.6l3.1-5.8v10.8h1.5v-14.4h-1.2l-3.6,7l-3.5-7h-1.3V860.6z"/>
<path class="st0" d="M1191.5,860.6l-0.3,0.8c-0.3,0.7-0.7,1.2-1,1.5c-0.3,0.3-0.7,0.4-1.2,0.4c-0.2,0-0.4,0-0.5-0.1
	c-0.2-0.1-0.3-0.1-0.4-0.2c-0.1-0.1-0.2-0.2-0.3-0.3c0,0,0-0.1-0.1-0.2c0-0.1-0.1-0.2-0.1-0.2l-0.9,1.5c0.6,0.6,1.4,0.9,2.4,0.9
	c0.8,0,1.4-0.2,2-0.6c0.6-0.4,1-1.1,1.4-2.2l0.4-1.2l2.9-7.5c0.2-0.6,0.4-1.2,0.6-1.7c0.2-0.5,0.3-1,0.4-1.4h-1.7
	c-0.1,0.4-0.2,0.8-0.3,1.3c-0.1,0.5-0.3,1-0.5,1.5l-2,5.6l-3.1-7.7c0,0,0-0.1,0-0.1c0-0.1,0-0.2,0-0.2c0-0.1,0-0.2,0-0.3h-2l0.3,0.7
	l0,0L1191.5,860.6z"/>
<path class="st0" d="M1205.9,846.7c-0.7-0.3-1.4-0.5-2.2-0.5c-0.6,0-1.2,0.1-1.7,0.3c-0.5,0.2-1,0.5-1.4,0.8s-0.7,0.7-0.9,1.2
	c-0.2,0.5-0.3,1-0.3,1.5c0,0.4,0.1,0.8,0.2,1.2c0.1,0.4,0.3,0.7,0.7,1c0.3,0.3,0.7,0.6,1.2,0.9c0.5,0.3,1.1,0.6,1.9,0.9
	c0.7,0.3,1.2,0.5,1.7,0.7c0.4,0.2,0.7,0.4,1,0.6c0.2,0.2,0.4,0.4,0.5,0.7c0.1,0.2,0.1,0.5,0.1,0.8c0,0.4-0.1,0.7-0.2,1
	c-0.2,0.3-0.4,0.6-0.6,0.9c-0.3,0.2-0.6,0.4-0.9,0.6c-0.4,0.1-0.8,0.2-1.2,0.2c-0.8,0-1.6-0.1-2.2-0.4c-0.6-0.3-1.1-0.7-1.4-1.1
	c0-0.1-0.1-0.1-0.1-0.3c0-0.1,0-0.2-0.1-0.2l-0.9,1.7c1.1,1.2,2.6,1.8,4.5,1.8c0.8,0,1.6-0.1,2.2-0.4c0.6-0.2,1.1-0.6,1.5-1
	c0.4-0.4,0.7-0.8,0.9-1.3c0.2-0.5,0.3-1,0.3-1.5c0-0.4-0.1-0.8-0.2-1.2c-0.1-0.4-0.3-0.7-0.6-1c-0.3-0.3-0.6-0.6-1.1-0.9
	c-0.5-0.3-1-0.6-1.7-0.9c-0.7-0.3-1.3-0.6-1.8-0.8c-0.5-0.2-0.8-0.5-1-0.7c-0.2-0.2-0.4-0.5-0.5-0.7c-0.1-0.2-0.2-0.5-0.2-0.9
	c0-0.6,0.2-1.1,0.7-1.5c0.5-0.4,1.1-0.6,1.8-0.6c0.7,0,1.4,0.1,1.9,0.4c0.5,0.3,0.9,0.6,1.2,1c0,0,0,0.1,0.1,0.2
	c0,0.1,0,0.2,0.1,0.2l1-1.4C1207.2,847.4,1206.6,847,1205.9,846.7z"/>
<path class="st0" d="M1213.7,847.9c0.4-0.2,0.8-0.3,1.3-0.3c0.4,0,0.8,0.1,1.2,0.3c0.4,0.2,0.8,0.5,1.2,1c0.4,0.5,0.7,1.1,0.9,1.9
	c0.2,0.8,0.3,1.9,0.3,3.2c0,1-0.1,1.9-0.3,2.6c-0.2,0.7-0.5,1.3-0.8,1.7c-0.3,0.4-0.7,0.8-1.1,0.9c-0.4,0.2-0.8,0.3-1.2,0.3
	c-0.6,0-1.1-0.2-1.5-0.5c-0.5-0.3-0.9-0.7-1.2-1.3c-0.3-0.5-0.6-1.2-0.7-1.9c-0.2-0.8-0.2-1.6-0.2-2.5c0-2,0.4-3.5,1.2-4.4
	C1212.9,848.4,1213.3,848.2,1213.7,847.9z M1219.7,850.1c-0.3-0.9-0.6-1.7-1.1-2.3c-0.5-0.6-1.1-1-1.7-1.3c-0.6-0.3-1.2-0.4-1.9-0.4
	c-0.5,0-1.1,0.1-1.7,0.4c-0.6,0.2-1.2,0.6-1.7,1.2c-0.5,0.6-0.9,1.3-1.3,2.3c-0.3,1-0.5,2.1-0.5,3.6c0,1.2,0.1,2.2,0.4,3
	c0.3,0.9,0.6,1.6,1,2.2c0.4,0.6,0.9,1.1,1.4,1.4c0.5,0.3,1.1,0.5,1.7,0.6c0,0.6,0.1,1.1,0.2,1.5c0.1,0.4,0.4,0.7,0.7,1
	c0.3,0.3,0.7,0.5,1.2,0.5c0.5,0.1,1.1,0.1,1.9,0.1h0.9l0-1.6c-0.1,0-0.2,0-0.4,0c-0.2,0-0.4,0-0.6,0c-0.2,0-0.4,0-0.6,0
	c-0.2,0-0.3,0-0.4,0c-0.6,0-1.1-0.2-1.3-0.5c-0.2-0.3-0.4-0.7-0.4-1.2c1.4-0.3,2.5-1.1,3.2-2.3c0.7-1.2,1.1-2.9,1.1-5
	C1220,852.1,1219.9,851,1219.7,850.1z"/>
<path class="st4" d="M1222.2,860.6h8.6v-1.4h-6.9v-12.1c0-0.1,0-0.3,0.1-0.4c0.1-0.1,0.1-0.3,0.1-0.4h-1.9V860.6z"/>
</svg>
