<?xml version="1.0" encoding="utf-8"?>
<!-- Generator: Adobe Illustrator 19.2.1, SVG Export Plug-In . SVG Version: 6.00 Build 0)  -->
<svg version="1.1" id="_x35_1291b83-3c9a-431d-b8e8-665c6e2f02f6"
	 xmlns="http://www.w3.org/2000/svg" xmlns:xlink="http://www.w3.org/1999/xlink" x="0px" y="0px" viewBox="0 0 870.5 452.6"
	 style="enable-background:new 0 0 870.5 452.6;" xml:space="preserve">
<style type="text/css">
	.st0{fill:#EC008C;}
	.st1{fill:#00AEEF;}
</style>
<title>logo</title>
<g>
	<path class="st0" d="M381.1,21.7l8.8-0.2c4,1.3,12.1,4.8,18.3,3.2L431.8,14l4.2-6.5c-1.8-2.1-1.2-6.2-2.8-7.5
		c-5.9,3.6-17.5,2.7-23.9,5.9c-3.1-0.5-4-2.3-5.6-4.2c-10,0.1-16.1,7.6-24.5,10.3c-0.5,1.7-1.1,4.4-0.6,5.7
		C378.9,20.3,379.8,20.1,381.1,21.7z"/>
	<path class="st0" d="M644.6,65.7c-6.9-10.9-10.7-20.8-25.7-24c-8.2-1.8-17.5,4.3-23,6.8l-8.9,1.9c-4.2,1.5-7.3,4.8-10.3,7.6
		l-2.6-0.5c-1.3-6.7-2.2-13.4-5.2-18.6l-6.2,0.3c-0.9,0.9-1.6,1.9-2.3,3l-4.4,0.3c-1.9,0.6-11.1,5.3-13.4,6.6
		c-1.2,11.3,5,26.2,8.6,35.4l1.1,7.9l4.8,15.1c1.2,4.5,0.9,8.5,2.7,12.4l-0.6,3.9c-4,0.9-12.8,1.5-16.7-0.9
		c-4.4-2.3-6.1-12.8-8.3-17.4L520.1,72c-1.8-6.9,0.3-15,0.7-22.8c-7.1-0.3-12.1,4.5-18.6,6c-2-2.3-3.4-5.9-5-8.5
		c-11.7-1.8-19.1,3-27,6.2c-15.9,6.4-27.9,13.7-37.7,26.5l-6.5,13c-5.1-0.7-4.6-6.4-5.8-10.7l-4.8-17.2c-1-5.6,1-11-0.9-15.4l0-0.9
		c-9.1-0.2-19.6,6.2-26.2,9.7c-3.8,10.3-0.4,22.2,3,31.7c4.4,12.3,6.6,23.6,13,33.8c6,9.6,14.2,18.2,20.3,27.4
		c4,0.3,9.6-0.5,11.8,2.1c4.5-0.9,7.5-0.7,10.9,2.5c5.8,0,4.9-6.9,5.2-11.7c-1.7-1.8-3.6-3.4-4.2-6.3l0.9-1.3c3-1,23.9,2.4,26.2,3.9
		l0.9,0.5c-0.9,4.4-13.3,10.8-17.1,13.5c-9.9,7.1-19.8,20.1-23,34c-2,8.7,6,22.4,9.3,27.1c2.6,3.7,5.4,8.9,8.9,11.7
		c13.9,11,53.1,24.8,75.5,15.5c4.7-2,7.6-9.2,10.1-13.7c7.4-13.3,15.8-36.1,12.3-58.5c-0.8-5.3-5.3-26.3-4-29.1l0-0.9
		c3.7-0.6,10.3,0.9,13.6-0.9c4.5,0.3,4.3,3.1,6,5.9c2.7,4,19.7,4.9,26.1,8.3l2.2-0.4c1.7-7,1-13.3-0.3-20.6
		c-2.7-15-2.6-37.8,1.5-50.9c1.9-6.2,3.9-15.4,9.7-17.3c0.5-0.2,0.9,0,1.7,0.5c5.9,3.1,12.9,21.3,14.9,28.6l2.6,30.4
		c1.3,9.4-2.8,26.1,1.2,33.4c3,5.1,10.1,1.8,14.8,3.1c2.9,0.8,5.9,2.6,9.6,3.4l1.3-0.8C661.8,132.7,656.7,85,644.6,65.7z
		 M454.2,115.7c-2.1-3.2-1.2-5.5-1.9-9.3c-3.8-21.3,13.8-36,25.1-46.3c1.1,0,2.1,0.4,3,1c2.1,1.2,3.5,6.4,4.6,8.5l4.8,1.5
		c2.9,2.4,0.8,4.4,1.9,8.8c1.3,5.1,11.2,24.2,9.7,27.5c-1.2,5.4-5.6,7.3-9.5,9.8c-3.1,2-5.4,5.8-9,7.2
		C472.9,128.4,457.7,121.1,454.2,115.7z M518.5,211.2c-2.4,7.3-7.1,13.3-10.7,19.4c-7.4,1.2-14.4-2.9-19.1-5.9
		c-13.3-8.3-30.2-23.2-22.8-45.5c3.1-9.2,21.7-23.9,30.3-28.1c5.6-2.8,11.4-4.2,16.5-7.4l3.5,0.1
		C524.9,157.7,524.5,192.7,518.5,211.2L518.5,211.2L518.5,211.2z"/>
	<path class="st0" d="M375.8,124.4c-14.2-10.1-29.6-19.7-43-30.7c-3.6-3-11.7-8.7-9.6-16.5c1.9-6.9,8.3-9,12.3-13.6
		c3.3,0.4,2.5,1.2,3.9,3.2c2,3,3.5,6.3,4.5,9.7l-0.5,15.8c8-0.6,22,0.6,26.1-5.4c6.5-9.3-0.9-32.3-6.8-36.7
		c-4.5-3.3-18.2-3.4-23.7-1.6c-12.4,4.1-38.5,17.6-41.8,30.8c-2.8,11.5,2.8,20.2,8.9,24.9l6.4,6.8c10,7.4,21.2,13.4,31.4,20.3
		c5.6,3.8,23.3,12.4,16,23.3c-2.8,3.7-9.8,3.2-15.4,1.7c-10-2.6-25.5-7.3-17.4-19.4l0-0.4c-3.1,0.4-5,1.2-7.4-0.7
		c-7.8,0.2-10.3,9.9-15.3,13.5c-5.5,4-12.6,10.6-19.3,12.6c-18.6,5.5-35-8.6-41.6-17.9l0.5-2.2c1.6-2.7,16.8-6.9,20.5-9
		c17.6-10.1,25.7-27.6,17.4-51.7c-2.2-6.5-2.6-13-8.8-15.6c-7.5-4-17.1,3.8-21.3,5.9c-4.6,2.4-9,3.2-13.3,5.7
		c-13.6,8.1-21.6,24.7-26.7,41.8l-2.2-0.5c-1.4-2.4,0-6.2-0.6-9.7c-1.7-10-1.7-22.4-4.8-31.8c-9.2-28-30.9-45.5-69.6-46.3l-13.2,1.4
		c-9.2,2.4-18.2,5.3-27,8.8C67.5,51.2,44,69.1,22.2,85.1c-8.5,6.3-14.5,15.8-22.2,23l0.4,1.3c0.7,1.9,1.6,2,3,3.2
		c11.4-0.5,24.6-5,31.9-10.5c5.4-4.1,9-11.2,14.5-15.4c5.1-3.8,9.7-8.7,14.9-12.3c3.1-2.1,6.6-3.4,9.4-5.9c1.1,0,2.1,0.4,3,1
		c-0.4,39.2,8,99.4,26.2,122c-0.5,5.3-6.3,4.4-10.7,5.4c-9.4,2.2-18.1,4.3-24.9,9.3l-0.4,0l0,0.9l7-0.7l6.9,2.4
		c13.9-1.7,28.6-2.3,41.4-5.8l15.4-2.2c2.9-1,4.1-3.8,6.7-5.1l17.8-7.4c19.1-12.2,37.1-32,44.3-56.6l2.2,0.1
		c1.6,1.3,4.7,15.4,6,18.2c4.8,10,16,19.7,26.9,23.6c14,5,44.5,3.8,56.2-0.5c5.4-2,9.6-12,17.4-10.5l12.2,3.9
		c17.8,4.5,36,4.2,50.9-0.2c5.1-1.5,8-2.1,10.3-6.3c1.7-3.2,1.9-9.4,1.3-13.6C388.4,132.4,385.4,131.1,375.8,124.4z M177.9,133.3
		c-8.9,25-24.4,35.3-41.9,50.5c-7-0.9-10.4-12.5-13.1-18c-10.6-22-10.4-51.7-15.1-79.9c-1.8-10.6,0.6-23.9-6.1-29.6
		c0.4-8.1,11.4-6.3,17.4-8.7c32.2,1,51.5,17.1,59.3,42.2c1.8,5.9,0.6,10.9,1.6,18.1C181.3,116.2,180.5,126.2,177.9,133.3z
		 M237.9,125.9c0.6-14.4,6.2-28.2,13.8-35.6l2.6,1c4.6,12.4-0.6,23.1-7.5,29.6C244.1,123.5,242,127.4,237.9,125.9z"/>
</g>
<path d="M853.1,189.2c0.5-4.8,0.8-3,0.6-7.2l7.2-1.8v-0.6l-0.6-1.8c-10.5,1.2-18.9-0.2-28.8-3l-15.6,2.4c-1.1,0.1-19.2-1.2-19.2-1.2
	c-5.8,6.1-34.6,5.1-42.6,9c-12.6,6.1-33.1,8.4-48,13.2c-19.9,6.4-34,14-49.8,24.6c-6.4,0.3-19.5-4.3-25.8-6.6
	c0.9-2.3,1.2-1.5,1.8-4.2c-3.3,1.2-10.9-0.2-15.6,0l-0.6-4.2c-28.7-5.5-98.1-10.6-122.4-1.2c0.2,1.1,0.6,2.1,1.2,3l-12,6
	c-13.7,16-34.7-5.3-52.8,0.6l-1.2-4.2l-1.2-0.6l-0.6,3.6c-14.2-1.3-17-3.7-31.8,0c-1.3-2.9-1.4-1.6-4.2-2.4l3.6-9
	c-5.1-3.9-9.7-6.7-17.4-8.4c-9.3,6.6-13.9,20.9-23.4,26.4c-5.4,3.1-12.4,1.3-18,4.2c-4.7,2.4-7.5,7.2-14.4,6
	c-1.8,1.7-1.4,2.3-1.8,4.2l-1.8,0.6c-7.5-2.1-6.2-13.5-11.4-18c-12.6-10.8-38.2-20.2-54-15c-49.7,16.5-88.8,94.9-88.2,146.4
	c0.2,19.2-3.6,57.7,9.6,69.6c22.6,20.5,48.7,39,84.6,31.2c6.2-1.3,19.3,1.5,25.2-1.8l0.6-3c1.3-0.8,4.8,1.2,4.8,1.2
	c8.9-0.8,20.4-5.4,26.4-7.8c12.1-4.9,28-15.6,34.8-25.2c2-2.8,10.4-25.6,13.8-26.4l6.6,3l0.6,9c9.9,1.5,14.5,10.4,24.6,9.6
	c-0.8,1.9-0.6,1.2-1.8,2.4c44.1,23.7,71.8-35.6,89.4-61.8c5.5-8.2,19.5-27.6,19.8-39l4.8-1.8l2.4,40.2c-1.3,7.2-2.6,17.5-1.8,23.4
	c1.1,7.8,3.4,13.3,0.6,19.8c-2.1,4.8-10.6,8.1-13.2,12.6c-3.6,6.3-0.5,9.9-7.2,15v6l5.4-1.2l-0.6,3c4.6,1.9,12.3-0.3,14.4,6
	c6.4-0.5,6.3-1.9,12-2.4c0.1,2.9-0.5,1.7,0.6,3c2.3,1.6,3.6,0.5,7.2,0c2.4-5.1,6.2-7.6,9-12c1.5-0.8,3.1-1.3,4.8-1.2v-3
	c5.8-7.6,19.3-14.2,26.4-18.6c-0.7-0.2,2.7-6.7,3.6-7.8l4.2,1.8l1.8-3l0.6-3c2.9,0.1,4.7,0.2,6-1.2l1.2-1.2l-4.8-0.6
	c1.5-4.1,11.5-6,15.6-8.4c2,1.4,1.9,2,5.4,2.4c3.1-6.1,10.6-8.4,17.4-9.6l-1.2-2.4c5-0.7,4.7-1.6,9.6-3c0.3-1.6,1.7-1.1,0-1.8
	l-0.6-3.6c4.1,0.7,4,0,7.8,0.6v-1.8c1.8-2.1,1.1-2.3,4.2-1.8c-1.5-2.2-2.4-2.4-3-6c5.4-2,12.2-6.6,20.4-7.2l0.6,1.2
	c-1,3-0.1,3.8-1.8,6.6c7.2,3.6,2.1,11.9,3,19.2c2,16-1.1,28.8-0.6,47.4c2.4,2.1,5.2,2.6,6,6.6c0.4-0.2,23.4,1.9,27,3
	c4.2-3.2,13.5-0.4,19.2-0.6l28.2-2.4c13.2,1.8,26.2,3.8,40.2,3c1.2-8.2,15.7-17.5,14.4-23.4l12.6-6.6c-1.7-3.7-0.2-2.6,0.6-7.8
	c6.5-0.3,8.2-5,10.2-9.6c-1.2-2.5-2.7-4-3.6-6.6c-10.9-6.9-74.2-4.8-100.2-4.8c-0.7-12.4-1.8-26.8,0-35.4
	c13.7-3.8,30.9-5.7,41.4-10.2l8.4,1.2h37.2c2.6-2.1,5.1-3.7,10.8-4.2c0.6-2.5,0.5-3,2.4-4.2c-1.4-1.9-1.9-1.5-2.4-4.8
	c3.1,0,4.5-0.3,6,1.2c1.8-0.8,0.7,0,1.8-1.2c2.2-2.7,5.9-7,8.4-10.8l-3.6-1.2c2.7-7.2,8.3-5.3,10.2-17.4
	c-16.2-8.4-72.8-10.9-92.4-1.2l-29.4,14.4h-0.6c-1.9-5.9-3.4-33.1-3-33.6l-5.4-9.6c-4.1-0.3-6.7-0.2-10.8-2.4h-1.2
	c1.9-3.7,45-14,48.6-13.8l2.4-2.4c2.4-6.5,13.2,0.4,20.4-2.4c5.9-2.3,40.5-9.1,49.8-7.2l4.2-6c4.2,0.8,3.8,2,7.8,0.6h0.6
	c2.5,6.1,26.2-7.6,34.2-9c-1.6-4.8-0.7-5.6-1.2-10.8l0.6-0.6c3,0.5,1.8-0.4,3,1.8c6.8-1.6,4-7.7,10.2-9.6
	C866.9,183.2,859.4,187.7,853.1,189.2z M343.1,357.2l-5.4,1.2c-0.1,4.9,0,15.7-5.4,18c0.8,1.1,0.1,0.3-1.2,0.6l-18,7.2l-24.6,4.2
	c-31.5,8.9-77.7,1-88.8-30.6c-10.5-29.9,3.1-82.3,27.6-98.4c39.4-25.9,53.3,17.9,53.4,40.8l2.4,1.8c16.2-1.8,19.7-6.8,24.6-20.4
	c1.6-0.5,23.1,2.9,28.8,3v1.2c1,1.5,0.8,0.2,0,1.8c3.4,4.8-1.6,14-0.6,16.2c1.7,3.8,0,16.2,0,16.2c3.3,6.1,0.2,8.2,2.4,14.4l4.2,6
	c0.5,2.3-1.6,2.2-1.8,3c-0.5,1.8,2.4,12,2.4,12L343.1,357.2L343.1,357.2L343.1,357.2z M378.5,263l1.8-0.6l1.8,0.6v1.8h-3.6
	L378.5,263L378.5,263L378.5,263z M445.1,357.8c-44.9-1-57.4-23.2-71.4-61.2l-1.8-19.8c1.9-1.9,3.5-3.5,4.2-6.6
	c2.3-0.4,5.3-0.5,6-1.2c2.3-0.4,2.9-0.6,4.2-1.8l-3-0.6v-2.4c5.8-3.4,13.6-0.1,18.6-3.6l18,1.8c17.5,4.4,39.5,8.3,49.2,21.6
	C482.5,302.3,451.2,345.4,445.1,357.8z M499.7,426.8c-1.7-1.1-2.1-0.9-3-3c3.8,0.1,3.9,0,4.8,3H499.7z M643.7,223.4
	c2.4,1.1,1.7,0.3,2.4,3h-2.4V223.4z M631.7,220.4l4.8,1.8v0.6h-4.8V220.4z M624.5,322.4c-14,10.6-33.6,22.6-48.6,31.8l-14.4,7.8
	c-8.4,0.4-3.8-12.4-5.4-18.6l-1.8-50.4l-4.2-30.6c4.9,3,19.9-0.3,21.6,1.2c5.8,5,22,1.3,28.2,5.4c17.8,11.7,38.2,6.2,49.2,30.6
	C647.1,312.5,632,316.7,624.5,322.4L624.5,322.4L624.5,322.4z M848.9,189.2h-2.4v-2.4h2.4V189.2z"/>
<path d="M457,263.9h-1.2v1.2l-1.2,0.6C456.9,264.9,455.8,265.7,457,263.9z"/>
<path d="M419.2,319.1l1.2,1.8h0.6C419.9,318.8,421.3,320.2,419.2,319.1z"/>
<path d="M411.4,326.9c1.4,0.8,1.2,0.9,3.6,1.2v-2.4l-3-0.6L411.4,326.9z"/>
<path class="st1" d="M124.5,420.5c-8.6-9.3-16.6-18.2-24.2-27.2c7.1-8.9,13.1-18.5,18-28.8l-26.5-12.6c-2.2,7.2-5.3,14-9.3,20.4
	l-6.9-8.8c-2.1-2.9-4.6-5.9-7.1-9.4c15.1-6.5,30-14.6,30-34.4c0-18.2-18.5-29-38-29c-24.3,0-40.7,14.3-40.7,31.8
	c0,8.2,2.8,17.3,7,26.1C12.5,355.4,0,365.4,0,384.4c0,25.9,19.6,38.5,44.4,38.5c11.2,0,22.2-3,31.9-8.7c2.1,2.5,4.2,4.6,5.7,6.3
	L124.5,420.5z M53.4,323.3c-0.1-4.6,3.5-8.5,8.1-8.7c0,0,0,0,0,0h0.6c3.9-0.2,7.3,2.8,7.5,6.8c0,0,0,0,0,0c0,0.1,0,0.2,0,0.3
	c0,6.3-5.2,10.6-12.6,14.2C54.7,331.3,53.4,326.9,53.4,323.3z M49.6,396.4c-7.5,0-13.7-6.5-13.7-15.5c-0.1-3.9,1.3-7.8,3.8-10.8
	c3.1,4.4,6.3,8.6,9.3,12.7c2.3,3.1,5.7,7.1,9.7,11.7C55.9,395.6,52.8,396.3,49.6,396.4L49.6,396.4L49.6,396.4z"/>
</svg>
