<?xml version="1.0" encoding="utf-8"?>
<!-- Generator: Adobe Illustrator 19.2.1, SVG Export Plug-In . SVG Version: 6.00 Build 0)  -->
<svg version="1.1" id="Layer_1" xmlns="http://www.w3.org/2000/svg" xmlns:xlink="http://www.w3.org/1999/xlink" x="0px" y="0px"
	 viewBox="0 0 16 23.3" style="enable-background:new 0 0 16 23.3;" xml:space="preserve">
<style type="text/css">
	.st0{fill:none;stroke:#FFFFFF;stroke-miterlimit:10;}
</style>
<path class="st0" d="M8,0.5c1,0,2,0.2,2.9,0.6c0.9,0.4,1.7,0.9,2.4,1.6C14,3.4,14.5,4.1,14.9,5c0.4,0.9,0.6,1.9,0.6,2.9
	c0,1.5-0.4,3-1.1,4.6c-0.7,1.6-1.5,3.1-2.3,4.4c-0.8,1.3-1.6,2.5-2.4,3.4c-0.7,0.9-1.2,1.4-1.2,1.5L8,22.5l-0.5-0.6
	c-0.1-0.1-0.5-0.6-1.2-1.5c-0.7-0.9-1.5-2-2.4-3.4c-0.8-1.3-1.6-2.8-2.3-4.4C0.9,11,0.5,9.4,0.5,8c0-1,0.2-2,0.6-2.9
	C1.5,4.1,2,3.4,2.7,2.7C3.4,2,4.2,1.5,5.1,1.1C6,0.7,7,0.5,8,0.5L8,0.5z M8,10.8c0.4,0,0.7-0.1,1-0.2c0.3-0.1,0.6-0.3,0.9-0.6
	c0.3-0.3,0.5-0.5,0.6-0.9c0.1-0.3,0.2-0.7,0.2-1c0-0.4-0.1-0.7-0.2-1.1c-0.1-0.3-0.3-0.6-0.6-0.9C9.7,6,9.4,5.8,9,5.6
	C8.7,5.5,8.4,5.4,8,5.4c-0.4,0-0.7,0.1-1,0.2C6.6,5.8,6.3,6,6.1,6.2C5.8,6.4,5.6,6.7,5.5,7.1C5.4,7.4,5.3,7.7,5.3,8.1
	c0,0.4,0.1,0.7,0.2,1C5.6,9.5,5.8,9.8,6.1,10c0.3,0.3,0.5,0.4,0.9,0.6C7.3,10.8,7.6,10.8,8,10.8L8,10.8z"/>
</svg>
