<?xml version="1.0" encoding="utf-8"?>
<!-- Generator: Adobe Illustrator 19.1.0, SVG Export Plug-In . SVG Version: 6.00 Build 0)  -->
<svg version="1.1" id="Layer_1" xmlns="http://www.w3.org/2000/svg" xmlns:xlink="http://www.w3.org/1999/xlink" x="0px" y="0px"
	 viewBox="0 0 9.3 20" style="enable-background:new 0 0 9.3 20;" xml:space="preserve">
<path d="M9.3,6.6H6.1V4.8c0-0.2,0-0.4,0-0.6c0-0.2,0.1-0.3,0.2-0.4c0.1-0.1,0.2-0.2,0.4-0.3c0.2-0.1,0.4-0.1,0.8-0.1h1.7V0H6.5
	C5.7,0,5,0.1,4.4,0.3C3.8,0.5,3.4,0.8,3,1.2C2.6,1.6,2.4,2,2.2,2.6C2.1,3.2,2,3.8,2,4.5v2.1H0V10h2.1v10h4.1V10h2.8L9.3,6.6L9.3,6.6
	z"/>
</svg>
