<?xml version="1.0" encoding="utf-8"?>
<!-- Generator: Adobe Illustrator 19.1.0, SVG Export Plug-In . SVG Version: 6.00 Build 0)  -->
<svg version="1.1" id="Layer_1" xmlns="http://www.w3.org/2000/svg" xmlns:xlink="http://www.w3.org/1999/xlink" x="0px" y="0px"
	 viewBox="0 0 20 20" style="enable-background:new 0 0 20 20;" xml:space="preserve">
<style type="text/css">
	.st0{fill:#FFFFFF;}
</style>
<path class="st0" d="M15.3,0c0.7,0,1.3,0.1,1.8,0.4c0.6,0.2,1.1,0.6,1.5,1c0.4,0.4,0.8,0.9,1,1.5C19.9,3.5,20,4.1,20,4.7l0,10.6
	c0,0.6-0.1,1.2-0.4,1.8c-0.3,0.6-0.6,1.1-1,1.5c-0.4,0.4-0.9,0.8-1.5,1C16.5,19.9,16,20,15.4,20H4.7c-0.6,0-1.2-0.1-1.8-0.4
	c-0.6-0.2-1.1-0.6-1.5-1c-0.4-0.4-0.8-0.9-1-1.5C0.1,16.5,0,15.9,0,15.3L0,4.7c0-0.6,0.2-1.2,0.4-1.8c0.2-0.6,0.6-1.1,1-1.5
	c0.4-0.4,0.9-0.8,1.5-1C3.5,0.1,4.1,0,4.7,0H15.3L15.3,0z M18.8,15.3l0-7.1H15c0.1,0.2,0.2,0.4,0.3,0.5c0.1,0.2,0.1,0.4,0.2,0.6
	c0.1,0.2,0.1,0.4,0.1,0.6c0,0.2,0,0.4,0.1,0.6c0,0.8-0.2,1.5-0.4,2.2c-0.3,0.7-0.7,1.3-1.2,1.8c-0.5,0.5-1.1,0.9-1.8,1.2
	c-0.7,0.3-1.4,0.4-2.2,0.4c-0.8,0-1.5-0.1-2.2-0.4c-0.7-0.3-1.3-0.7-1.8-1.2c-0.5-0.5-0.9-1.1-1.2-1.8c-0.3-0.7-0.4-1.4-0.4-2.2
	c0-0.2,0-0.4,0-0.6c0-0.2,0.1-0.4,0.1-0.6c0-0.2,0.1-0.4,0.2-0.6C4.8,8.6,4.9,8.4,5,8.2H1.2l0,7.1c0,0.5,0.1,0.9,0.3,1.3
	c0.2,0.4,0.4,0.8,0.8,1.1c0.3,0.3,0.7,0.6,1.1,0.8c0.4,0.2,0.9,0.3,1.4,0.3h10.6c0.5,0,1-0.1,1.4-0.3c0.4-0.2,0.8-0.4,1.1-0.8
	c0.3-0.3,0.6-0.7,0.8-1.1C18.7,16.2,18.8,15.8,18.8,15.3L18.8,15.3z M14.5,10.6c0-0.6-0.2-1.2-0.4-1.7c-0.2-0.5-0.5-1-1-1.4
	c-0.4-0.4-0.9-0.7-1.4-1c-0.5-0.2-1.1-0.4-1.7-0.4c-0.6,0-1.1,0.1-1.7,0.4c-0.5,0.2-1,0.6-1.4,1C6.5,7.9,6.2,8.4,6,8.9
	C5.7,9.4,5.6,10,5.6,10.6c0,0.6,0.1,1.2,0.3,1.7c0.2,0.5,0.6,1,1,1.4c0.4,0.4,0.9,0.7,1.4,0.9C8.9,14.9,9.4,15,10,15
	c0.6,0,1.2-0.1,1.7-0.4c0.5-0.2,1-0.5,1.4-0.9c0.4-0.4,0.7-0.9,1-1.4C14.3,11.8,14.4,11.2,14.5,10.6L14.5,10.6z M14.3,7.1h4.5l0-2.4
	c0-0.5-0.1-0.9-0.3-1.3c-0.2-0.4-0.4-0.8-0.8-1.1c-0.3-0.3-0.7-0.6-1.1-0.8c-0.4-0.2-0.9-0.3-1.4-0.3H4.7c-0.5,0-1,0.1-1.4,0.3
	C2.9,1.6,2.6,1.9,2.2,2.2C1.9,2.5,1.6,2.9,1.5,3.3C1.3,3.8,1.2,4.2,1.2,4.7l0,2.4h4.5C6,6.8,6.3,6.5,6.6,6.2c0.3-0.3,0.6-0.5,1-0.6
	C8,5.4,8.4,5.3,8.8,5.2C9.1,5.1,9.6,5,10,5c0.4,0,0.8,0.1,1.2,0.2c0.4,0.1,0.8,0.2,1.2,0.4c0.4,0.2,0.7,0.4,1,0.6
	C13.8,6.5,14.1,6.8,14.3,7.1L14.3,7.1z M17,3.2C17,3.1,17,3,17,3c0-0.1-0.1-0.1-0.1-0.2c-0.1-0.1-0.1-0.1-0.2-0.1
	c-0.1,0-0.2,0-0.2,0h-1.6c-0.1,0-0.2,0-0.3,0c-0.1,0-0.2,0.1-0.2,0.1c0,0.1-0.1,0.1-0.1,0.2c-0.1,0.1-0.1,0.2,0,0.2l0,1.5
	c0,0.1,0.1,0.2,0.1,0.2c0,0.1,0.1,0.2,0.1,0.2c0.1,0.1,0.1,0.1,0.2,0.1c0.1,0,0.2,0,0.3,0h1.6c0.1,0,0.2,0,0.3,0
	c0.1,0,0.1-0.1,0.2-0.1C16.9,5.1,17,5,17,5c0-0.1,0-0.2,0.1-0.2L17,3.2L17,3.2z"/>
</svg>
