<?xml version="1.0" encoding="utf-8"?>
<!-- Generator: Adobe Illustrator 19.1.0, SVG Export Plug-In . SVG Version: 6.00 Build 0)  -->
<svg version="1.1" id="Layer_1" xmlns="http://www.w3.org/2000/svg" xmlns:xlink="http://www.w3.org/1999/xlink" x="0px" y="0px"
	 viewBox="0 0 15.4 18.8" style="enable-background:new 0 0 15.4 18.8;" xml:space="preserve">
<path d="M15.4,6.6c0-0.9-0.2-1.7-0.5-2.4c-0.4-0.8-0.8-1.5-1.5-2.1s-1.4-1.1-2.3-1.5S9.3,0,8.2,0C6.8,0,5.6,0.3,4.6,0.7
	s-1.9,1-2.5,1.7C1.4,3.1,0.9,3.9,0.5,4.7C0.2,5.5,0,6.4,0,7.2c0,0.5,0.1,0.9,0.2,1.4c0.1,0.5,0.2,0.9,0.4,1.2c0.2,0.4,0.4,0.7,0.7,1
	c0.3,0.3,0.6,0.5,1,0.7c0.1,0.1,0.1,0.1,0.2,0.1c0.1,0,0.1,0,0.2,0c0.1,0,0.1-0.1,0.1-0.1c0-0.1,0.1-0.1,0.1-0.2c0-0.1,0-0.1,0-0.2
	C3,11,3,10.9,3,10.8c0-0.1,0-0.2,0.1-0.3c0-0.1,0-0.1,0.1-0.2c0-0.1,0-0.1,0-0.2c0-0.1,0-0.1,0-0.1c0,0,0-0.1-0.1-0.1
	c0-0.1-0.1-0.1-0.1-0.1C2.9,9.5,2.8,9.4,2.7,9.2C2.6,9.1,2.5,8.9,2.4,8.7C2.4,8.5,2.3,8.3,2.3,8.1c0-0.2-0.1-0.4-0.1-0.7
	c0-0.7,0.1-1.4,0.4-2.1c0.3-0.7,0.6-1.2,1.1-1.7c0.5-0.5,1.1-0.9,1.8-1.2C6.2,2.1,7,2,7.9,2c0.8,0,1.5,0.1,2.1,0.3
	c0.6,0.2,1.1,0.5,1.5,0.9c0.4,0.4,0.7,0.8,0.9,1.4c0.2,0.5,0.3,1.1,0.3,1.7c0,0.9-0.1,1.6-0.3,2.4c-0.2,0.7-0.4,1.4-0.7,1.9
	c-0.3,0.6-0.7,1-1.2,1.3C10,12.3,9.5,12.4,9,12.5c-0.3,0-0.6-0.1-0.8-0.2c-0.3-0.1-0.5-0.3-0.6-0.5c-0.2-0.2-0.3-0.5-0.4-0.7
	c-0.1-0.2-0.1-0.5,0-0.9c0.1-0.3,0.2-0.7,0.3-1.1C7.6,8.7,7.7,8.4,7.8,8c0.1-0.3,0.2-0.7,0.3-1c0.1-0.3,0.1-0.6,0.1-0.8
	c0-0.3,0-0.5-0.1-0.7C8,5.3,7.9,5.1,7.8,5C7.7,4.8,7.5,4.6,7.3,4.6C7.1,4.5,6.9,4.4,6.6,4.4c-0.3,0-0.6,0.1-0.8,0.3
	C5.5,4.8,5.3,5,5.1,5.3C4.9,5.6,4.7,5.9,4.6,6.2C4.5,6.6,4.5,7,4.5,7.4c0,0,0,0,0,0.2c0,0.1,0,0.3,0,0.4c0,0.2,0.1,0.4,0.1,0.6
	c0.1,0.2,0.1,0.4,0.2,0.6c-0.3,1.3-0.6,2.4-0.7,3.2c-0.2,0.8-0.3,1.4-0.4,1.9c-0.1,0.5-0.2,0.8-0.2,0.9c0,0.1-0.1,0.2-0.1,0.3
	c-0.1,0.2-0.1,0.4-0.1,0.6c0,0.2-0.1,0.5-0.1,0.7c0,0.2,0,0.4,0,0.7c0,0.2,0,0.4,0,0.6c0,0,0,0.1,0,0.2c0,0.1,0.1,0.2,0.2,0.4
	c0.1,0.1,0.2,0.2,0.4,0.2c0.2,0,0.4-0.1,0.7-0.3c0.1-0.2,0.2-0.4,0.3-0.5c0.1-0.2,0.2-0.4,0.3-0.6c0.1-0.2,0.2-0.4,0.3-0.6
	c0.1-0.2,0.2-0.4,0.2-0.7c0,0,0,0,0-0.1c0-0.1,0.1-0.2,0.1-0.5c0.1-0.2,0.1-0.5,0.3-1c0.1-0.4,0.2-0.9,0.4-1.6
	c0.1,0.2,0.2,0.3,0.4,0.5c0.2,0.2,0.4,0.3,0.6,0.4c0.2,0.1,0.5,0.2,0.8,0.3c0.3,0.1,0.6,0.1,0.9,0.1c0.9,0,1.7-0.2,2.5-0.6
	c0.8-0.4,1.4-1,2-1.6c0.5-0.7,1-1.5,1.3-2.5C15.3,8.7,15.4,7.7,15.4,6.6L15.4,6.6z"/>
</svg>
