<?xml version="1.0" encoding="utf-8"?>
<!-- Generator: Adobe Illustrator 19.1.0, SVG Export Plug-In . SVG Version: 6.00 Build 0)  -->
<svg version="1.1" id="Layer_1" xmlns="http://www.w3.org/2000/svg" xmlns:xlink="http://www.w3.org/1999/xlink" x="0px" y="0px"
	 viewBox="0 0 20 16.3" style="enable-background:new 0 0 20 16.3;" xml:space="preserve">
<path d="M20,1.9c-0.1,0.2-0.3,0.4-0.4,0.6c-0.2,0.2-0.3,0.4-0.5,0.6c-0.2,0.2-0.4,0.4-0.5,0.5c-0.2,0.1-0.4,0.3-0.6,0.5
	c0,0,0,0,0,0.1c0,0.1,0,0.1,0,0.1c0,0,0,0.1,0,0.2c0,1.4-0.3,2.8-0.8,4.1c-0.5,1.4-1.3,2.6-2.2,3.8c-1,1.1-2.2,2-3.7,2.7
	c-1.4,0.7-3.1,1-5,1.1c-0.6,0-1.1-0.1-1.7-0.1c-0.6-0.1-1.1-0.2-1.6-0.4c-0.5-0.2-1-0.4-1.5-0.6c-0.5-0.2-1-0.5-1.4-0.8
	c0.1,0,0.2,0,0.2,0s0.2,0,0.3,0c0.1,0,0.2,0,0.3,0c0.1,0,0.2,0,0.2,0c0.5,0,1-0.1,1.4-0.1c0.5-0.1,0.9-0.2,1.3-0.3
	c0.4-0.2,0.8-0.3,1.2-0.5c0.4-0.2,0.8-0.5,1.1-0.8c-0.5,0-0.9,0-1.3-0.2c-0.4-0.2-0.8-0.4-1.1-0.6C3.3,11.6,3,11.3,2.8,11
	c-0.2-0.4-0.4-0.7-0.5-1.1c0.1,0,0.1,0,0.2,0c0.1,0,0.1,0,0.2,0c0.1,0,0.1,0,0.2,0c0.1,0,0.1,0,0.2,0c0.1,0,0.2,0,0.3,0
	c0.1,0,0.2,0,0.3,0c0.1,0,0.2,0,0.3-0.1c0.1,0,0.2,0,0.3,0C3.6,9.7,3.2,9.5,2.8,9.3C2.4,9,2,8.7,1.8,8.4C1.5,8,1.2,7.6,1.1,7.2
	C0.9,6.7,0.8,6.3,0.8,5.8c0,0,0,0,0,0c0,0,0,0,0,0c0,0,0,0,0,0C1,5.8,1.1,5.8,1.2,5.9C1.4,6,1.5,6,1.7,6.1c0.2,0,0.3,0.1,0.5,0.1
	c0.2,0,0.3,0.1,0.5,0.1C2.4,6.1,2.1,5.9,1.9,5.6C1.7,5.3,1.5,5.1,1.3,4.8C1.2,4.5,1,4.2,1,3.8c-0.1-0.3-0.1-0.7-0.1-1
	c0-0.2,0-0.4,0-0.6c0-0.2,0.1-0.3,0.1-0.5C1,1.5,1.1,1.4,1.2,1.2c0.1-0.2,0.1-0.3,0.3-0.5c0.5,0.7,1.1,1.2,1.7,1.7
	c0.6,0.5,1.3,0.9,2,1.3c0.7,0.4,1.5,0.7,2.3,0.9C8.2,4.8,9,5,9.8,5c0-0.1,0-0.2,0-0.3c0-0.1,0-0.1,0-0.2c0-0.1,0-0.2,0-0.2
	c0-0.1,0-0.1,0-0.3c0-0.5,0.1-1.1,0.3-1.6c0.2-0.5,0.5-0.9,0.9-1.3c0.4-0.4,0.8-0.6,1.3-0.9c0.5-0.2,1-0.3,1.6-0.3
	c0.3,0,0.6,0,0.9,0.1c0.3,0.1,0.5,0.2,0.8,0.3c0.3,0.1,0.5,0.2,0.7,0.4c0.2,0.2,0.4,0.4,0.6,0.5c0.2,0,0.5,0,0.7-0.1
	C17.7,1.1,18,1,18.2,0.9c0.2-0.1,0.4-0.2,0.6-0.3c0.2-0.1,0.4-0.2,0.6-0.3c-0.1,0.2-0.2,0.4-0.3,0.7c-0.1,0.2-0.3,0.4-0.4,0.6
	c-0.2,0.2-0.3,0.3-0.5,0.5c-0.2,0.2-0.4,0.3-0.6,0.4c0.2,0,0.4,0,0.6-0.1c0.2-0.1,0.4-0.1,0.6-0.1c0.2,0,0.4-0.1,0.6-0.2
	C19.6,2.1,19.8,2,20,1.9L20,1.9L20,1.9L20,1.9z M16.8,4.5c0-0.1,0-0.2,0-0.2c0,0,0-0.1,0-0.2c0-0.1,0-0.1,0-0.2c0-0.1,0-0.1,0-0.2
	c0-0.1,0-0.1,0.1-0.2c0,0,0.1-0.1,0.1-0.2c-0.1,0-0.1,0-0.1-0.1c0-0.1-0.1-0.1-0.1-0.1c0,0-0.1-0.1-0.1-0.2c0-0.1-0.1-0.1-0.1-0.1
	c0-0.1,0-0.1,0-0.1c0,0,0-0.1,0-0.1c0-0.1,0-0.1,0-0.1c0,0,0-0.1,0-0.1c-0.1,0-0.1,0-0.1,0c0,0-0.1,0-0.1-0.1c-0.1,0-0.1,0-0.1-0.1
	C16,2.1,16,2.1,16,2.1c-0.1-0.2-0.3-0.3-0.4-0.4c-0.2-0.1-0.3-0.2-0.5-0.3c-0.2-0.1-0.4-0.1-0.6-0.2c-0.2,0-0.4-0.1-0.6-0.1
	c-0.4,0-0.8,0.1-1.1,0.3c-0.4,0.1-0.7,0.4-0.9,0.6c-0.3,0.3-0.5,0.6-0.6,0.9c-0.1,0.4-0.2,0.7-0.2,1.2c0,0,0,0.1,0,0.1
	c0,0.1,0,0.1,0,0.2c0,0.1,0,0.1,0,0.2c0,0.1,0,0.1,0.1,0.2C11,4.9,11,5,11,5c0,0.1,0,0.2,0,0.3c0,0.1-0.1,0.2-0.1,0.3
	c0,0.1-0.1,0.2-0.1,0.3c-0.1,0-0.1,0.1-0.2,0.1c-0.1,0.1-0.1,0.1-0.2,0.1c-0.1,0-0.2,0.1-0.3,0.1c-0.1,0-0.2,0-0.3,0c0,0,0,0,0,0
	c0,0,0,0,0,0c0,0,0,0,0,0c0,0,0,0,0,0C9.1,6.2,8.4,6.1,7.7,5.9C7,5.8,6.3,5.6,5.6,5.3C5,5,4.3,4.7,3.7,4.3C3.1,4,2.6,3.6,2,3.1
	c0,0.2,0.1,0.4,0.1,0.6c0.1,0.2,0.1,0.4,0.3,0.6c0.1,0.2,0.2,0.4,0.4,0.5C3,5,3.1,5.1,3.3,5.3c0.1,0,0.2,0.1,0.3,0.2
	c0.1,0.1,0.1,0.2,0.2,0.3c0,0.1,0.1,0.2,0.1,0.4c0,0.1,0,0.3,0,0.4C3.7,6.7,3.7,6.8,3.6,6.9C3.5,7,3.5,7.1,3.4,7.2
	C3.3,7.3,3.1,7.3,3,7.4c-0.1,0-0.2,0.1-0.4,0.1c0,0,0,0,0,0c0,0,0,0,0,0c0,0,0,0,0,0c0,0,0,0,0,0c0,0,0,0,0,0c0,0,0,0,0,0
	c0,0,0,0,0,0c0,0,0,0,0,0c0.1,0.1,0.2,0.3,0.4,0.4C3,8,3.1,8.1,3.3,8.2c0.2,0.1,0.3,0.2,0.5,0.3C4,8.6,4.2,8.6,4.3,8.6
	c0.1,0.1,0.3,0.1,0.4,0.2C4.8,8.8,4.9,8.9,5,9c0.1,0.1,0.1,0.2,0.2,0.4c0.1,0.1,0.1,0.3,0.1,0.4c0,0.1,0,0.2-0.1,0.4
	c0,0.1-0.1,0.3-0.2,0.4c-0.1,0.1-0.2,0.2-0.3,0.3c-0.1,0.1-0.2,0.1-0.4,0.2c0,0,0,0,0,0c0,0,0,0,0,0c0,0,0,0,0,0c0,0,0,0,0,0
	c0.1,0.1,0.3,0.1,0.4,0.2c0.1,0.1,0.3,0.2,0.4,0.2c0.1,0,0.3,0.1,0.4,0.1c0.2,0,0.3,0,0.5,0c0.1,0,0.3,0.1,0.4,0.1
	c0.1,0,0.2,0.1,0.3,0.2C6.9,11.8,7,11.9,7,12c0.1,0.1,0.1,0.2,0.2,0.4c0.1,0.1,0.1,0.2,0.1,0.3c0,0.1,0,0.3-0.1,0.4
	c0,0.1-0.1,0.2-0.2,0.3c-0.1,0.1-0.2,0.2-0.3,0.3c-0.2,0.2-0.3,0.3-0.5,0.4c-0.2,0.1-0.4,0.2-0.5,0.4c-0.2,0.1-0.4,0.2-0.6,0.3
	c-0.2,0.1-0.4,0.2-0.6,0.3c0.2,0,0.3,0,0.4,0c0.1,0,0.3,0,0.4,0c0.1,0,0.3,0,0.4,0c0.1,0,0.3,0,0.4,0c1.8,0,3.4-0.3,4.7-1
	c1.3-0.7,2.4-1.6,3.3-2.6c0.9-1,1.5-2.1,1.9-3.4C16.6,6.8,16.8,5.6,16.8,4.5L16.8,4.5L16.8,4.5L16.8,4.5z"/>
</svg>
